G04 DipTrace 3.3.1.3*
G04 Bottom.gbr*
%MOIN*%
G04 #@! TF.FileFunction,Copper,L2,Bot*
G04 #@! TF.Part,Single*
G04 #@! TA.AperFunction,Conductor*
%ADD13C,0.015748*%
%ADD14C,0.007874*%
G04 #@! TA.AperFunction,CopperBalancing*
%ADD15C,0.025*%
%ADD16C,0.012992*%
%ADD20R,0.062992X0.070866*%
G04 #@! TA.AperFunction,ComponentPad*
%ADD21R,0.070866X0.070866*%
%ADD22C,0.070866*%
%ADD23C,0.05*%
%ADD24R,0.05X0.05*%
%ADD25R,0.059055X0.255906*%
G04 #@! TA.AperFunction,ComponentPad*
%ADD26R,0.066929X0.066929*%
%ADD27C,0.066929*%
%ADD28C,0.06*%
%ADD29C,0.06*%
%ADD30C,0.062992*%
%ADD31C,0.074803*%
%ADD32R,0.07874X0.023622*%
%ADD33R,0.057087X0.068898*%
%ADD34R,0.088583X0.068898*%
G04 #@! TA.AperFunction,ComponentPad*
%ADD35C,0.059055*%
G04 #@! TA.AperFunction,ViaPad*
%ADD41C,0.031*%
%FSLAX26Y26*%
G04*
G70*
G90*
G75*
G01*
G04 Bottom*
%LPD*%
X940289Y3643701D2*
D13*
X1002776Y3581214D1*
Y3206201D1*
X1719693Y2803714D2*
Y2906201D1*
X1727776D1*
X1002776Y2693701D2*
Y2518701D1*
Y2868701D2*
Y2693701D1*
Y3043701D2*
Y2868701D1*
Y3206201D2*
Y3043701D1*
X1727776Y2906201D2*
X1771083D1*
X1773969Y2909087D1*
X1965276D1*
X1778185Y1285831D2*
D14*
Y1219142D1*
X1762437Y1203394D1*
X1399512D1*
X1383764Y1187646D1*
Y807469D1*
X1315276Y738980D1*
Y543701D1*
X1903323Y2065945D2*
Y1330563D1*
X1857286Y1284526D1*
X2056220Y2168701D2*
X2014882Y2210039D1*
X1713311D1*
X1697563Y2194291D1*
Y1737021D1*
X1669867Y1709325D1*
X1232479D1*
X1213161Y1690008D1*
Y1609945D1*
X1272417Y1550689D1*
X1789748D1*
X1805496Y1534941D1*
Y1203394D1*
X1789748Y1187646D1*
X1431024D1*
X1415276Y1171898D1*
Y543701D1*
X1956220Y2168701D2*
Y2059311D1*
X1997563Y2017969D1*
Y1187646D1*
X1981815Y1171898D1*
X1531024D1*
X1515276Y1156150D1*
Y543701D1*
X1615276Y1118043D2*
Y543701D1*
X1552764Y1678445D2*
X1697563D1*
X1728692Y1709573D1*
Y2141172D1*
X1756220Y2168701D1*
X1687965Y1079173D2*
X1715276Y1051862D1*
Y543701D1*
X1656220Y2168701D2*
Y1767299D1*
X1946524Y1144587D2*
X1831024D1*
X1815276Y1128839D1*
Y543701D1*
X2013311Y2093256D2*
Y1150547D1*
X1915276Y1052512D1*
Y543701D1*
X1356220Y2168701D2*
X1413307Y2225787D1*
X2081815D1*
X2097563Y2210039D1*
Y1120563D1*
X2015276Y1038276D1*
Y543701D1*
X1605429Y1253969D2*
X1742587D1*
X1256220Y2168701D2*
Y1845094D1*
X1309126Y1757227D2*
X1284395D1*
X1056220Y1985402D1*
Y2168701D1*
X856220D2*
Y1806224D1*
X756220Y2168701D2*
Y1521602D1*
X1215276Y543701D2*
Y1497592D1*
X1158512Y1554356D1*
X941875D1*
X856220Y1468701D1*
X1115276Y543701D2*
X1105899D1*
Y1498076D1*
X1078832Y1525143D1*
X1012663D1*
X956220Y1468701D1*
X1015276Y543701D2*
Y1427756D1*
X1056220Y1468701D1*
X1356220D2*
X1354986D1*
X1249562Y1363277D1*
X1456220Y1468701D2*
X1456001D1*
X1255085Y1267785D1*
X1556220Y1468701D2*
X1555441D1*
X1356453Y1269713D1*
X1315064Y868451D2*
Y1281492D1*
X1460328Y1426756D1*
X1477135D1*
X1508648Y1458269D1*
Y1502387D1*
X1525454Y1519193D1*
X1605728D1*
X1656220Y1468701D1*
X1825366Y3043701D2*
X1863980Y3082315D1*
X1965276D1*
X1852776Y2606201D2*
Y2763417D1*
X1868524Y2779165D1*
X1965276D1*
X452776Y1731201D2*
Y1472146D1*
X456220Y1468701D1*
X656220Y2168701D2*
X658152D1*
X752776Y2263324D1*
Y2368701D1*
X1052776Y3368701D2*
X1098055Y3323421D1*
Y2273031D1*
X1113803Y2257283D1*
X2267638D1*
X2356220Y2168701D1*
X952776Y3368701D2*
Y2483785D1*
X998055Y2438505D1*
Y2257283D1*
X1013803Y2241535D1*
X2183386D1*
X2256220Y2168701D1*
X2156220Y1468701D2*
D13*
Y1510039D1*
X2132957Y1533303D1*
Y2095866D1*
X2148705Y2111614D1*
X2381815D1*
X2413073Y2142873D1*
Y2271764D1*
X2381811Y2303026D1*
X2018450D1*
X1952776Y2368701D1*
X652776Y3368701D2*
Y3554035D1*
X525610Y3681201D1*
X1856220Y2168701D2*
Y1582186D1*
X1848986Y1574951D1*
X1301588D1*
X1256220Y1620319D1*
X1988858Y3184717D2*
X2033154D1*
Y3155476D1*
X2266559D1*
X2302999Y3191916D1*
Y3616312D1*
X2238110Y3681201D1*
X2033154Y3155476D2*
Y3011449D1*
X2017406Y2995701D1*
X1965276D1*
X1848986Y1574951D2*
Y1540899D1*
X1856220Y1533664D1*
Y1468701D1*
X2302999Y3191916D2*
Y3171224D1*
X2366959D1*
X1616940Y3003050D2*
X1615996D1*
Y2906201D1*
X1617539D1*
X2017406Y2995701D2*
X2033154Y2979953D1*
Y2595917D1*
X1989210D1*
X1952776Y2368701D2*
Y2488723D1*
X1989210Y2525157D1*
X2004958Y2509409D1*
X2367094D1*
Y2559606D1*
X1965276Y2995701D2*
X1827014D1*
X1826346Y2995033D1*
X1989210Y2595917D2*
Y2525157D1*
X915276Y543701D2*
Y995471D1*
X509745Y1401001D1*
Y1874231D1*
X452776Y1931201D1*
X455129D1*
X606500Y2082572D1*
Y2226175D1*
X702236Y2321911D1*
Y3319240D1*
X652776Y3368701D1*
X2152776D2*
D14*
X2032087Y3248012D1*
X1870614D1*
Y3141374D1*
X1886366Y3125622D1*
X1965276D1*
X1452776Y3368701D2*
X1513799Y3429724D1*
X1782307D1*
X1798055Y3413976D1*
Y2968146D1*
X1813807Y2952394D1*
X1965276D1*
X1402776Y2868701D2*
X1352776Y2918701D1*
Y3368701D1*
X1875021Y3040656D2*
X1876669Y3039008D1*
X1965276D1*
X1891551Y2849787D2*
X1907543Y2865780D1*
X1965276D1*
X1852776Y3368701D2*
Y3557264D1*
X1837028Y3573012D1*
X1398465D1*
X1277776Y3693701D1*
X1402776Y2518701D2*
X1488013D1*
X1549808Y2580496D1*
Y3365734D1*
X1552776Y3368701D1*
X1965276Y2822472D2*
X1792466D1*
X1488694Y2518701D1*
X1402776D1*
X1756220Y1468701D2*
X1689980Y1534941D1*
X1239087D1*
X1203921Y1570106D1*
X829470D1*
X803828Y1595748D1*
Y3660911D1*
X783538Y3681201D1*
X702776D1*
X2440276Y1583661D2*
D13*
Y1552756D1*
X2356220Y1468701D1*
X2440276Y2018701D2*
Y2122276D1*
X2452776Y2134776D1*
Y2368701D1*
X2230236Y1631201D2*
Y1494685D1*
X2256220Y1468701D1*
X2230236Y1631201D2*
X2218802D1*
X2164348Y1685655D1*
Y1955273D1*
X2227776Y2018701D1*
D41*
X1315064Y868451D3*
X1255085Y1267785D3*
X1356453Y1269713D3*
X1249562Y1363277D3*
X1719693Y2803714D3*
X1778185Y1285831D3*
X1857286Y1284526D3*
X1903323Y2065945D3*
X1615276Y1118043D3*
X1552764Y1678445D3*
X1687965Y1079173D3*
X1656220Y1767299D3*
X1946524Y1144587D3*
X2013311Y2093256D3*
X1742587Y1253969D3*
X1605429D3*
X1256220Y1845094D3*
X1309126Y1757227D3*
X856220Y1806224D3*
X756220Y1521602D3*
X1825366Y3043701D3*
X1826346Y2995033D3*
X1616940Y3003050D3*
X1256220Y1620319D3*
X1870614Y3248012D3*
X1875021Y3040656D3*
X1891551Y2849787D3*
X430294Y3750081D2*
D15*
X2500261D1*
X430294Y3725214D2*
X494909D1*
X556283D2*
X672105D1*
X733444D2*
X1235487D1*
X1320077D2*
X1635488D1*
X1720079D2*
X2207409D1*
X2268783D2*
X2384606D1*
X2445944D2*
X2500261D1*
X430294Y3700345D2*
X474491D1*
X576738D2*
X651651D1*
X801659D2*
X1224937D1*
X1330592D2*
X1624938D1*
X1730593D2*
X2186992D1*
X2289238D2*
X2364152D1*
X2466398D2*
X2500261D1*
X430294Y3675476D2*
X471154D1*
X580073D2*
X648314D1*
X826276D2*
X904850D1*
X975734D2*
X992013D1*
X1088552D2*
X1227879D1*
X1333427D2*
X1627881D1*
X1727651D2*
X1842360D1*
X1913243D2*
X1929522D1*
X2026063D2*
X2183655D1*
X2292575D2*
X2360815D1*
X2469735D2*
X2500261D1*
X430294Y3650608D2*
X480735D1*
X570493D2*
X657895D1*
X747654D2*
X776635D1*
X831049D2*
X892542D1*
X1088552D2*
X1248441D1*
X1358294D2*
X1648442D1*
X1707125D2*
X1830051D1*
X2026063D2*
X2193236D1*
X2282993D2*
X2370396D1*
X2460155D2*
X2500261D1*
X430294Y3625738D2*
X440816D1*
X512001D2*
X716386D1*
X831049D2*
X895699D1*
X1088552D2*
X1308295D1*
X1383163D2*
X1833210D1*
X2026063D2*
X2153297D1*
X2224503D2*
X2428887D1*
X530016Y3600870D2*
X698373D1*
X831049D2*
X921643D1*
X1088552D2*
X1333164D1*
X1408030D2*
X1859154D1*
X1896413D2*
X1929522D1*
X2026063D2*
X2135282D1*
X2242517D2*
X2410873D1*
X532707Y3576001D2*
X695681D1*
X831049D2*
X964992D1*
X1033902D2*
X1251383D1*
X1304146D2*
X1358031D1*
X1871474D2*
X2132592D1*
X2245209D2*
X2408182D1*
X522946Y3551131D2*
X705441D1*
X831049D2*
X971630D1*
X1033902D2*
X1228597D1*
X1326967D2*
X1384478D1*
X1879979D2*
X2142352D1*
X2235448D2*
X2417942D1*
X430294Y3526262D2*
X776635D1*
X831049D2*
X971630D1*
X1033902D2*
X1224757D1*
X1330807D2*
X1624759D1*
X1730808D2*
X1825566D1*
X1879979D2*
X2500261D1*
X430294Y3501395D2*
X776635D1*
X831049D2*
X971630D1*
X1033902D2*
X1234194D1*
X1321370D2*
X1634196D1*
X1721370D2*
X1825566D1*
X1879979D2*
X2500261D1*
X430294Y3476526D2*
X776635D1*
X831049D2*
X971630D1*
X1033902D2*
X1825566D1*
X1879979D2*
X2500261D1*
X430294Y3451657D2*
X776635D1*
X831049D2*
X971630D1*
X1033902D2*
X1499917D1*
X1796189D2*
X1825566D1*
X1879979D2*
X2500261D1*
X430294Y3426789D2*
X776635D1*
X831049D2*
X971630D1*
X1033902D2*
X1473434D1*
X1879979D2*
X2500261D1*
X430294Y3401920D2*
X607406D1*
X698133D2*
X707375D1*
X893056D2*
X907398D1*
X1098134D2*
X1112512D1*
X1193047D2*
X1207425D1*
X1298152D2*
X1307399D1*
X1398126D2*
X1407420D1*
X1598144D2*
X1612522D1*
X1693022D2*
X1712495D1*
X1898136D2*
X1907419D1*
X1998146D2*
X2007391D1*
X2098155D2*
X2107400D1*
X2198129D2*
X2212505D1*
X2293042D2*
X2312514D1*
X2393051D2*
X2412524D1*
X430294Y3377051D2*
X596676D1*
X430294Y3352181D2*
X598614D1*
X430294Y3327314D2*
X615228D1*
X690310D2*
X715238D1*
X883870D2*
X915220D1*
X1183861D2*
X1215213D1*
X1290329D2*
X1315222D1*
X1390339D2*
X1415231D1*
X1490312D2*
X1515240D1*
X1590322D2*
X1621709D1*
X1683836D2*
X1721681D1*
X1890314D2*
X1915241D1*
X1990323D2*
X2015214D1*
X2190306D2*
X2221692D1*
X2283856D2*
X2321701D1*
X2383865D2*
X2421710D1*
X2483837D2*
X2500261D1*
X430294Y3302445D2*
X776635D1*
X831049D2*
X925555D1*
X1033902D2*
X1070850D1*
X1125262D2*
X1325556D1*
X1379969D2*
X1522596D1*
X1577009D2*
X1770843D1*
X1825256D2*
X2049089D1*
X2123955D2*
X2500261D1*
X704987Y3277575D2*
X776635D1*
X831049D2*
X925555D1*
X1033902D2*
X1070850D1*
X1125262D2*
X1325556D1*
X1379969D2*
X1522596D1*
X1577009D2*
X1770843D1*
X1825256D2*
X1847097D1*
X1894117D2*
X2024220D1*
X2099088D2*
X2500261D1*
X705274Y3252706D2*
X776635D1*
X831049D2*
X925555D1*
X1033902D2*
X1070850D1*
X1125262D2*
X1325556D1*
X1425650D2*
X1522596D1*
X1577009D2*
X1770843D1*
X2074220D2*
X2500261D1*
X705274Y3227837D2*
X776635D1*
X831049D2*
X925555D1*
X1051198D2*
X1070850D1*
X1125262D2*
X1325556D1*
X1451198D2*
X1522596D1*
X1577009D2*
X1770843D1*
X1825256D2*
X1837982D1*
X2048850D2*
X2500261D1*
X705274Y3202969D2*
X776635D1*
X831049D2*
X925555D1*
X1055934D2*
X1070850D1*
X1125262D2*
X1325556D1*
X1455936D2*
X1522596D1*
X1577009D2*
X1770843D1*
X1825256D2*
X1843400D1*
X1897814D2*
X2500261D1*
X705274Y3178100D2*
X776635D1*
X831049D2*
X925555D1*
X1047573D2*
X1070850D1*
X1125262D2*
X1325556D1*
X1447575D2*
X1522596D1*
X1577009D2*
X1770843D1*
X1825256D2*
X1843400D1*
X1897814D2*
X2500261D1*
X705274Y3153231D2*
X776635D1*
X831049D2*
X925555D1*
X1033902D2*
X1070850D1*
X1125262D2*
X1325556D1*
X1379969D2*
X1522596D1*
X1577009D2*
X1770843D1*
X1825256D2*
X1843400D1*
X2027929D2*
X2500261D1*
X705274Y3128362D2*
X776635D1*
X831049D2*
X925555D1*
X1033902D2*
X1070850D1*
X1125262D2*
X1325556D1*
X1379969D2*
X1522596D1*
X1577009D2*
X1770843D1*
X1825256D2*
X1847097D1*
X2027929D2*
X2500261D1*
X705274Y3103493D2*
X776635D1*
X831049D2*
X925555D1*
X1033902D2*
X1070850D1*
X1125262D2*
X1325556D1*
X1379969D2*
X1522596D1*
X1577009D2*
X1770843D1*
X1825256D2*
X1848748D1*
X2027929D2*
X2330600D1*
X2424306D2*
X2500261D1*
X705274Y3078625D2*
X776635D1*
X831049D2*
X925555D1*
X1042119D2*
X1070850D1*
X1125262D2*
X1325556D1*
X1442119D2*
X1522596D1*
X1577009D2*
X1770843D1*
X2027929D2*
X2315852D1*
X2439054D2*
X2500261D1*
X705274Y3053756D2*
X776635D1*
X831049D2*
X925555D1*
X1055037D2*
X1070850D1*
X1125262D2*
X1325556D1*
X1455038D2*
X1522596D1*
X1577009D2*
X1770843D1*
X2027929D2*
X2313448D1*
X2441423D2*
X2500261D1*
X705274Y3028887D2*
X776635D1*
X831049D2*
X925555D1*
X1053818D2*
X1070850D1*
X1125262D2*
X1325556D1*
X1453818D2*
X1522596D1*
X1577009D2*
X1770843D1*
X2027929D2*
X2321738D1*
X2433169D2*
X2500261D1*
X705274Y3004018D2*
X776635D1*
X831049D2*
X925555D1*
X1036951D2*
X1070850D1*
X1125262D2*
X1325556D1*
X1436953D2*
X1522596D1*
X1577009D2*
X1770843D1*
X1825256D2*
X2349512D1*
X2405395D2*
X2500261D1*
X705274Y2979150D2*
X776635D1*
X831049D2*
X925555D1*
X1033902D2*
X1070850D1*
X1125262D2*
X1325556D1*
X1379969D2*
X1522596D1*
X1577009D2*
X1770843D1*
X1825256D2*
X1902646D1*
X2027929D2*
X2500261D1*
X705274Y2954281D2*
X776635D1*
X831049D2*
X925555D1*
X1033902D2*
X1070850D1*
X1125262D2*
X1325556D1*
X1379969D2*
X1522596D1*
X1577009D2*
X1673022D1*
X2027929D2*
X2500261D1*
X705274Y2929412D2*
X776635D1*
X831049D2*
X925555D1*
X1033902D2*
X1070850D1*
X1125262D2*
X1325556D1*
X1379969D2*
X1522596D1*
X1577009D2*
X1673022D1*
X2027929D2*
X2500261D1*
X705274Y2904543D2*
X776635D1*
X831049D2*
X925555D1*
X1041222D2*
X1070850D1*
X1125262D2*
X1330042D1*
X1441223D2*
X1522596D1*
X1577009D2*
X1673022D1*
X2027929D2*
X2500261D1*
X705274Y2879675D2*
X776635D1*
X831049D2*
X925555D1*
X1054858D2*
X1070850D1*
X1125262D2*
X1350711D1*
X1454858D2*
X1522596D1*
X1577009D2*
X1673022D1*
X1784383D2*
X1868520D1*
X2027929D2*
X2500261D1*
X705274Y2854806D2*
X776635D1*
X831049D2*
X925555D1*
X1054104D2*
X1070850D1*
X1125262D2*
X1351429D1*
X1454105D2*
X1522596D1*
X1577009D2*
X1673022D1*
X1782554D2*
X1853125D1*
X2027929D2*
X2500261D1*
X705274Y2829937D2*
X776635D1*
X831049D2*
X925555D1*
X1038064D2*
X1070850D1*
X1125262D2*
X1367505D1*
X1438066D2*
X1522596D1*
X1577009D2*
X1688560D1*
X1750832D2*
X1762482D1*
X2027929D2*
X2500261D1*
X705274Y2805068D2*
X776635D1*
X831049D2*
X925555D1*
X1033902D2*
X1070850D1*
X1125262D2*
X1522596D1*
X1577009D2*
X1680953D1*
X2027929D2*
X2356832D1*
X2398075D2*
X2500261D1*
X705274Y2780199D2*
X776635D1*
X831049D2*
X925555D1*
X1033902D2*
X1070850D1*
X1125262D2*
X1522596D1*
X1577009D2*
X1689566D1*
X1787648D2*
X1832133D1*
X2027929D2*
X2323459D1*
X2431448D2*
X2500261D1*
X705274Y2755331D2*
X776635D1*
X831049D2*
X925555D1*
X1033902D2*
X1070850D1*
X1125262D2*
X1522596D1*
X1577009D2*
X1687879D1*
X1762745D2*
X1825566D1*
X2027929D2*
X2313843D1*
X2441064D2*
X2500261D1*
X705274Y2730462D2*
X776635D1*
X831049D2*
X925555D1*
X1040289D2*
X1070850D1*
X1125262D2*
X1365280D1*
X1440290D2*
X1522596D1*
X1577009D2*
X1663010D1*
X1737878D2*
X1825566D1*
X1879979D2*
X2315063D1*
X2439844D2*
X2500261D1*
X705274Y2705593D2*
X776635D1*
X831049D2*
X925555D1*
X1054643D2*
X1070850D1*
X1125262D2*
X1350927D1*
X1454643D2*
X1522596D1*
X1577009D2*
X1638143D1*
X1713009D2*
X1825566D1*
X1879979D2*
X2328088D1*
X2426818D2*
X2500261D1*
X705274Y2680724D2*
X776635D1*
X831049D2*
X925555D1*
X1054356D2*
X1070850D1*
X1125262D2*
X1351177D1*
X1454357D2*
X1522596D1*
X1577009D2*
X1613276D1*
X1688142D2*
X1825566D1*
X1879979D2*
X2500261D1*
X705274Y2655856D2*
X776635D1*
X831049D2*
X925555D1*
X1039105D2*
X1070850D1*
X1125262D2*
X1366428D1*
X1465840D2*
X1522596D1*
X1577009D2*
X1588408D1*
X1663274D2*
X1825566D1*
X1879979D2*
X2500261D1*
X705274Y2630988D2*
X776635D1*
X831049D2*
X925555D1*
X1033902D2*
X1070850D1*
X1125262D2*
X1405972D1*
X1499571D2*
X1522596D1*
X1638407D2*
X1805974D1*
X1899572D2*
X2500261D1*
X705274Y2606119D2*
X776635D1*
X831049D2*
X925555D1*
X1033902D2*
X1070850D1*
X1125262D2*
X1399513D1*
X1506030D2*
X1522596D1*
X1613538D2*
X1799514D1*
X1906030D2*
X2500261D1*
X705274Y2581251D2*
X776635D1*
X831049D2*
X925555D1*
X1033902D2*
X1070850D1*
X1125262D2*
X1406080D1*
X1499499D2*
X1513122D1*
X1588671D2*
X1806045D1*
X1899500D2*
X2500261D1*
X705274Y2556382D2*
X776635D1*
X831049D2*
X925555D1*
X1039283D2*
X1070850D1*
X1125262D2*
X1366248D1*
X1465050D2*
X1488255D1*
X1563803D2*
X1840493D1*
X1865051D2*
X2500261D1*
X705274Y2531513D2*
X776635D1*
X831049D2*
X925555D1*
X1054391D2*
X1070850D1*
X1125262D2*
X1351142D1*
X1538936D2*
X2500261D1*
X705274Y2506644D2*
X776635D1*
X831049D2*
X925555D1*
X1054606D2*
X1070850D1*
X1125262D2*
X1350962D1*
X1514068D2*
X2500261D1*
X705274Y2481776D2*
X776635D1*
X831049D2*
X925663D1*
X1040109D2*
X1070850D1*
X1125262D2*
X1365424D1*
X1440110D2*
X2500261D1*
X705274Y2456907D2*
X776635D1*
X831049D2*
X942205D1*
X1017108D2*
X1070850D1*
X1125262D2*
X2500261D1*
X697272Y2432038D2*
X776635D1*
X831049D2*
X967073D1*
X1025253D2*
X1070850D1*
X1125262D2*
X2500261D1*
X430294Y2407169D2*
X612035D1*
X693504D2*
X712045D1*
X887673D2*
X917875D1*
X1187665D2*
X1217867D1*
X1287675D2*
X1317877D1*
X1387684D2*
X1412037D1*
X1493507D2*
X1512046D1*
X1593516D2*
X1612055D1*
X1693488D2*
X1717878D1*
X1787685D2*
X1817887D1*
X1887694D2*
X1912047D1*
X1993516D2*
X2017870D1*
X2087676D2*
X2117879D1*
X2187685D2*
X2217888D1*
X2287659D2*
X2317861D1*
X2387668D2*
X2412058D1*
X430294Y2382301D2*
X597789D1*
X430294Y2357432D2*
X597215D1*
X430294Y2332563D2*
X609846D1*
X695728D2*
X709856D1*
X890257D2*
X915293D1*
X1190249D2*
X1215283D1*
X1290259D2*
X1315293D1*
X1390268D2*
X1409848D1*
X1495696D2*
X1509822D1*
X1595705D2*
X1609831D1*
X1695714D2*
X1715294D1*
X1790268D2*
X1815303D1*
X1890241D2*
X1909823D1*
X1995705D2*
X2015286D1*
X2090260D2*
X2115295D1*
X2190269D2*
X2215304D1*
X2290243D2*
X2315278D1*
X2390252D2*
X2409832D1*
X430294Y2307694D2*
X725572D1*
X831049D2*
X970841D1*
X1025253D2*
X1070850D1*
X1125262D2*
X2421639D1*
X2483909D2*
X2500261D1*
X430294Y2282825D2*
X725572D1*
X831049D2*
X970841D1*
X1025253D2*
X1070850D1*
X1125693D2*
X2421639D1*
X2483909D2*
X2500261D1*
X430294Y2257957D2*
X709963D1*
X831049D2*
X970841D1*
X2304417D2*
X2421639D1*
X2483909D2*
X2500261D1*
X430294Y2233088D2*
X685094D1*
X759962D2*
X776635D1*
X831049D2*
X984799D1*
X2329285D2*
X2421639D1*
X2483909D2*
X2500261D1*
X489825Y2208219D2*
X529501D1*
X582945D2*
X622621D1*
X889827D2*
X922613D1*
X989836D2*
X1022622D1*
X1089845D2*
X1122594D1*
X1189818D2*
X1222604D1*
X1289828D2*
X1322613D1*
X2389822D2*
X2421639D1*
X2483909D2*
X2500261D1*
X2406831Y2183350D2*
X2421639D1*
X2483909D2*
X2500261D1*
X2407979Y2158482D2*
X2421639D1*
X2483909D2*
X2500261D1*
X494741Y2133613D2*
X523437D1*
X589009D2*
X617705D1*
X694760D2*
X717678D1*
X894743D2*
X917697D1*
X994752D2*
X1017669D1*
X1094761D2*
X1117678D1*
X1194770D2*
X1217688D1*
X1294744D2*
X1317697D1*
X1394753D2*
X1417671D1*
X1494762D2*
X1517680D1*
X1594772D2*
X1617689D1*
X1794753D2*
X1817672D1*
X1894762D2*
X1917681D1*
X1994736D2*
X2017690D1*
X2194755D2*
X2217673D1*
X2294764D2*
X2317682D1*
X2394738D2*
X2411483D1*
X2483909D2*
X2500261D1*
X430294Y2108744D2*
X729017D1*
X883440D2*
X1029009D1*
X1083421D2*
X1229028D1*
X1283440D2*
X1629029D1*
X1755891D2*
X1929021D1*
X2048598D2*
X2070369D1*
X2124781D2*
X2409151D1*
X2471423D2*
X2500261D1*
X430294Y2083875D2*
X729017D1*
X883440D2*
X1029009D1*
X1083421D2*
X1229028D1*
X1283440D2*
X1629029D1*
X1755891D2*
X1869310D1*
X2050860D2*
X2070369D1*
X2124781D2*
X2409151D1*
X2471423D2*
X2500261D1*
X430294Y2059007D2*
X729017D1*
X883440D2*
X1029009D1*
X1083421D2*
X1229028D1*
X1283440D2*
X1629029D1*
X1834406D2*
X1865218D1*
X2040525D2*
X2070369D1*
X2124781D2*
X2169085D1*
X2286475D2*
X2381592D1*
X430294Y2034138D2*
X729017D1*
X883440D2*
X1029009D1*
X1083421D2*
X1229028D1*
X1283440D2*
X1629029D1*
X1849262D2*
X1876127D1*
X1930539D2*
X1943949D1*
X2040525D2*
X2070369D1*
X2124781D2*
X2169085D1*
X2286475D2*
X2381592D1*
X430294Y2009269D2*
X729017D1*
X883440D2*
X1029009D1*
X1083421D2*
X1229028D1*
X1283440D2*
X1629029D1*
X1850626D2*
X1876127D1*
X1930539D2*
X1968816D1*
X2040525D2*
X2070369D1*
X2124781D2*
X2169085D1*
X2286475D2*
X2381592D1*
X509526Y1984400D2*
X729017D1*
X883440D2*
X1029045D1*
X1094654D2*
X1229028D1*
X1283440D2*
X1629029D1*
X1839752D2*
X1876127D1*
X1930539D2*
X1970360D1*
X2040525D2*
X2070369D1*
X2124781D2*
X2150462D1*
X2286475D2*
X2381592D1*
X509526Y1959531D2*
X729017D1*
X883440D2*
X1044655D1*
X1119521D2*
X1229028D1*
X1283440D2*
X1629029D1*
X1755891D2*
X1876127D1*
X1930539D2*
X1970360D1*
X2040525D2*
X2070369D1*
X2124781D2*
X2133522D1*
X2211621D2*
X2500261D1*
X509526Y1934663D2*
X729017D1*
X883440D2*
X1069522D1*
X1144388D2*
X1229028D1*
X1283440D2*
X1629029D1*
X1755891D2*
X1876127D1*
X1930539D2*
X1970360D1*
X2040525D2*
X2070369D1*
X2124781D2*
X2133190D1*
X2195472D2*
X2500261D1*
X509526Y1909794D2*
X729017D1*
X883440D2*
X1094390D1*
X1169257D2*
X1229028D1*
X1283440D2*
X1629029D1*
X1755891D2*
X1876127D1*
X1930539D2*
X1970360D1*
X2040525D2*
X2070369D1*
X2124781D2*
X2133190D1*
X2195472D2*
X2500261D1*
X509526Y1884924D2*
X729017D1*
X883440D2*
X1119257D1*
X1194125D2*
X1229028D1*
X1283440D2*
X1629029D1*
X1755891D2*
X1773749D1*
X1811727D2*
X1876127D1*
X1930539D2*
X1970360D1*
X2040525D2*
X2070369D1*
X2124781D2*
X2133190D1*
X2286475D2*
X2500261D1*
X501201Y1860055D2*
X729017D1*
X883440D2*
X1144126D1*
X1291765D2*
X1629029D1*
X1843449D2*
X1876127D1*
X1930539D2*
X1970360D1*
X2040525D2*
X2070369D1*
X2124781D2*
X2133190D1*
X2286475D2*
X2500261D1*
X509346Y1835186D2*
X729017D1*
X883440D2*
X1168993D1*
X1293596D2*
X1629029D1*
X1851307D2*
X1876127D1*
X1930539D2*
X1970360D1*
X2040525D2*
X2070369D1*
X2124781D2*
X2133190D1*
X2286475D2*
X2500261D1*
X505327Y1810318D2*
X729017D1*
X894743D2*
X1193861D1*
X1269014D2*
X1629029D1*
X1847396D2*
X1876127D1*
X1930539D2*
X1970360D1*
X2040525D2*
X2070369D1*
X2124781D2*
X2133190D1*
X2286475D2*
X2500261D1*
X484407Y1785449D2*
X729017D1*
X888463D2*
X1218728D1*
X1334395D2*
X1622318D1*
X1827875D2*
X1876127D1*
X1930539D2*
X1970360D1*
X2040525D2*
X2070369D1*
X2124781D2*
X2133190D1*
X2286475D2*
X2500261D1*
X500878Y1760580D2*
X729017D1*
X831049D2*
X1243597D1*
X1347744D2*
X1618084D1*
X1755891D2*
X1876127D1*
X1930539D2*
X1970360D1*
X2040525D2*
X2070369D1*
X2124781D2*
X2133190D1*
X2195472D2*
X2500261D1*
X509311Y1735711D2*
X729017D1*
X831049D2*
X1269756D1*
X1340819D2*
X1635882D1*
X1755891D2*
X1876127D1*
X1930539D2*
X1970360D1*
X2040525D2*
X2070369D1*
X2124781D2*
X2133190D1*
X2195472D2*
X2500261D1*
X505543Y1710843D2*
X729017D1*
X831049D2*
X1196552D1*
X1755891D2*
X1876127D1*
X1930539D2*
X1970360D1*
X2040525D2*
X2070369D1*
X2124781D2*
X2133190D1*
X2195472D2*
X2500261D1*
X485197Y1685974D2*
X729017D1*
X831049D2*
X1185966D1*
X1742542D2*
X1780101D1*
X1810291D2*
X1876127D1*
X1930539D2*
X1970360D1*
X2040525D2*
X2070369D1*
X2124781D2*
X2133190D1*
X2288951D2*
X2500261D1*
X479993Y1661105D2*
X729017D1*
X831049D2*
X1185966D1*
X1240379D2*
X1518398D1*
X1717675D2*
X1745114D1*
X1845278D2*
X1876127D1*
X1930539D2*
X1970360D1*
X2040525D2*
X2070369D1*
X2124781D2*
X2145904D1*
X2288951D2*
X2500261D1*
X479993Y1636236D2*
X729017D1*
X831049D2*
X1185966D1*
X1240379D2*
X1736717D1*
X1853676D2*
X1876127D1*
X1930539D2*
X1970360D1*
X2040525D2*
X2070369D1*
X2124781D2*
X2170772D1*
X2288951D2*
X2417907D1*
X2462630D2*
X2500261D1*
X479993Y1611367D2*
X729017D1*
X831049D2*
X1185966D1*
X1249171D2*
X1740126D1*
X1850266D2*
X1876127D1*
X1930539D2*
X1970360D1*
X2040525D2*
X2070369D1*
X2124781D2*
X2171526D1*
X2288951D2*
X2388877D1*
X2491660D2*
X2500269D1*
X479993Y1586499D2*
X729017D1*
X1274038D2*
X1758642D1*
X1831751D2*
X1876127D1*
X1930539D2*
X1970360D1*
X2040525D2*
X2070369D1*
X2124781D2*
X2171526D1*
X2288951D2*
X2381664D1*
X479993Y1561630D2*
X729017D1*
X783430D2*
X800499D1*
X1816248D2*
X1876127D1*
X1930539D2*
X1970360D1*
X2040525D2*
X2070369D1*
X2124781D2*
X2199085D1*
X2261392D2*
X2386077D1*
X479993Y1536761D2*
X720764D1*
X791684D2*
X886836D1*
X1832647D2*
X1876127D1*
X1930539D2*
X1970360D1*
X2040525D2*
X2070369D1*
X2124781D2*
X2199085D1*
X2261392D2*
X2381269D1*
X2473755D2*
X2500261D1*
X484479Y1511892D2*
X527958D1*
X584488D2*
X627967D1*
X684497D2*
X718790D1*
X793656D2*
X827950D1*
X2184492D2*
X2199085D1*
X2284501D2*
X2327945D1*
X2442428D2*
X2500261D1*
X2417560Y1487024D2*
X2500261D1*
X2408589Y1462155D2*
X2500261D1*
X498007Y1437286D2*
X514430D1*
X598016D2*
X614440D1*
X697990D2*
X714449D1*
X797999D2*
X814458D1*
X898008D2*
X914430D1*
X1598001D2*
X1614459D1*
X1698010D2*
X1714433D1*
X2197984D2*
X2214444D1*
X2297993D2*
X2314453D1*
X2398003D2*
X2500261D1*
X443211Y1412417D2*
X988066D1*
X1042478D2*
X1078709D1*
X1133121D2*
X1188084D1*
X1242496D2*
X1261252D1*
X1336154D2*
X1362265D1*
X1536602D2*
X1778307D1*
X1832684D2*
X1876127D1*
X1930539D2*
X1970360D1*
X2040525D2*
X2070369D1*
X2124781D2*
X2481278D1*
X470448Y1387549D2*
X988066D1*
X1042478D2*
X1078709D1*
X1133121D2*
X1188084D1*
X1311286D2*
X1337398D1*
X1511735D2*
X1778307D1*
X1832684D2*
X1876127D1*
X1930539D2*
X1970360D1*
X2040525D2*
X2070369D1*
X2124781D2*
X2454903D1*
X497684Y1362680D2*
X988066D1*
X1042478D2*
X1078709D1*
X1133121D2*
X1188084D1*
X1288320D2*
X1312530D1*
X1486867D2*
X1778307D1*
X1832684D2*
X1876127D1*
X1930539D2*
X1970360D1*
X2040525D2*
X2070369D1*
X2124781D2*
X2428492D1*
X524920Y1337811D2*
X988066D1*
X1042478D2*
X1078709D1*
X1133121D2*
X1188084D1*
X1277878D2*
X1287705D1*
X1462000D2*
X1778307D1*
X1832684D2*
X1873148D1*
X1930539D2*
X1970360D1*
X2040525D2*
X2070369D1*
X2124781D2*
X2402118D1*
X552156Y1312942D2*
X988066D1*
X1042478D2*
X1078709D1*
X1133121D2*
X1188084D1*
X1242496D2*
X1262794D1*
X1437133D2*
X1751609D1*
X1923147D2*
X1970360D1*
X2040525D2*
X2070369D1*
X2124781D2*
X2375743D1*
X579392Y1288073D2*
X988066D1*
X1042478D2*
X1078709D1*
X1133121D2*
X1188084D1*
X1412264D2*
X1590597D1*
X1620249D2*
X1727745D1*
X1898280D2*
X1970360D1*
X2040525D2*
X2070369D1*
X2124781D2*
X2349367D1*
X606629Y1263205D2*
X988066D1*
X1042478D2*
X1078709D1*
X1133121D2*
X1188084D1*
X1394646D2*
X1567846D1*
X1889129D2*
X1970360D1*
X2040525D2*
X2070369D1*
X2124781D2*
X2322993D1*
X633865Y1238336D2*
X988066D1*
X1042478D2*
X1078709D1*
X1133121D2*
X1188084D1*
X1278739D2*
X1287881D1*
X1377134D2*
X1570214D1*
X1832684D2*
X1970360D1*
X2040525D2*
X2070369D1*
X2124781D2*
X2296618D1*
X661101Y1213467D2*
X988066D1*
X1042478D2*
X1078709D1*
X1133121D2*
X1188084D1*
X1242496D2*
X1287841D1*
X1342255D2*
X1372134D1*
X1832684D2*
X1970360D1*
X2040525D2*
X2070369D1*
X2124781D2*
X2270243D1*
X688337Y1188598D2*
X988066D1*
X1042478D2*
X1078709D1*
X1133121D2*
X1188084D1*
X1242496D2*
X1287841D1*
X1342255D2*
X1356560D1*
X2040525D2*
X2070369D1*
X2124781D2*
X2243869D1*
X715572Y1163730D2*
X988066D1*
X1042478D2*
X1078709D1*
X1133121D2*
X1188084D1*
X1242496D2*
X1287841D1*
X1342255D2*
X1356560D1*
X2040525D2*
X2070369D1*
X2124781D2*
X2217493D1*
X742808Y1138861D2*
X988066D1*
X1042478D2*
X1078709D1*
X1133121D2*
X1188084D1*
X1242496D2*
X1287841D1*
X1342255D2*
X1356560D1*
X1442479D2*
X1488076D1*
X1542488D2*
X1583060D1*
X1647486D2*
X1790185D1*
X2037583D2*
X2070369D1*
X2124781D2*
X2191118D1*
X770045Y1113992D2*
X988066D1*
X1042478D2*
X1078709D1*
X1133121D2*
X1188084D1*
X1242496D2*
X1287841D1*
X1342255D2*
X1356560D1*
X1442479D2*
X1488076D1*
X1542488D2*
X1576745D1*
X1653801D2*
X1675319D1*
X1700593D2*
X1788067D1*
X1842480D2*
X1924535D1*
X2014185D2*
X2053538D1*
X2123883D2*
X2164744D1*
X797281Y1089123D2*
X988066D1*
X1042478D2*
X1078709D1*
X1133121D2*
X1188084D1*
X1242496D2*
X1287841D1*
X1342255D2*
X1356560D1*
X1442479D2*
X1488076D1*
X1542488D2*
X1588085D1*
X1642497D2*
X1650594D1*
X1725354D2*
X1788067D1*
X1842480D2*
X1914451D1*
X1989318D2*
X2028671D1*
X2103573D2*
X2138369D1*
X824517Y1064255D2*
X988066D1*
X1042478D2*
X1078709D1*
X1133121D2*
X1188084D1*
X1242496D2*
X1287841D1*
X1342255D2*
X1356560D1*
X1442479D2*
X1488076D1*
X1542488D2*
X1588085D1*
X1642497D2*
X1652390D1*
X1739134D2*
X1788067D1*
X1842480D2*
X1891055D1*
X1964450D2*
X2003803D1*
X2078706D2*
X2111993D1*
X851753Y1039386D2*
X988066D1*
X1042478D2*
X1078709D1*
X1133121D2*
X1188084D1*
X1242496D2*
X1287841D1*
X1342255D2*
X1356560D1*
X1442479D2*
X1488076D1*
X1542488D2*
X1588085D1*
X1642497D2*
X1688058D1*
X1742471D2*
X1788067D1*
X1842480D2*
X1888076D1*
X1942490D2*
X1988085D1*
X2053837D2*
X2085619D1*
X861514Y1014517D2*
X988066D1*
X1042478D2*
X1078709D1*
X1133121D2*
X1188084D1*
X1242496D2*
X1287841D1*
X1342255D2*
X1356560D1*
X1442479D2*
X1488076D1*
X1542488D2*
X1588085D1*
X1642497D2*
X1688058D1*
X1742471D2*
X1788067D1*
X1842480D2*
X1888076D1*
X1942490D2*
X1988085D1*
X2042499D2*
X2062761D1*
X861514Y989648D2*
X988066D1*
X1042478D2*
X1078709D1*
X1133121D2*
X1188084D1*
X1242496D2*
X1287841D1*
X1342255D2*
X1356560D1*
X1442479D2*
X1488076D1*
X1542488D2*
X1588085D1*
X1642497D2*
X1688058D1*
X1742471D2*
X1788067D1*
X1842480D2*
X1888076D1*
X1942490D2*
X1988085D1*
X2042499D2*
X2062761D1*
X861514Y964780D2*
X988066D1*
X1042478D2*
X1078709D1*
X1133121D2*
X1188084D1*
X1242496D2*
X1287841D1*
X1342255D2*
X1356560D1*
X1442479D2*
X1488076D1*
X1542488D2*
X1588085D1*
X1642497D2*
X1688058D1*
X1742471D2*
X1788067D1*
X1842480D2*
X1888076D1*
X1942490D2*
X1988085D1*
X2042499D2*
X2062761D1*
X861514Y939911D2*
X988066D1*
X1042478D2*
X1078709D1*
X1133121D2*
X1188084D1*
X1242496D2*
X1287841D1*
X1342255D2*
X1356560D1*
X1442479D2*
X1488076D1*
X1542488D2*
X1588085D1*
X1642497D2*
X1688058D1*
X1742471D2*
X1788067D1*
X1842480D2*
X1888076D1*
X1942490D2*
X1988085D1*
X2042499D2*
X2062761D1*
X861514Y915042D2*
X988066D1*
X1042478D2*
X1078709D1*
X1133121D2*
X1188084D1*
X1242496D2*
X1287841D1*
X1342255D2*
X1356560D1*
X1442479D2*
X1488076D1*
X1542488D2*
X1588085D1*
X1642497D2*
X1688058D1*
X1742471D2*
X1788067D1*
X1842480D2*
X1888076D1*
X1942490D2*
X1988085D1*
X2042499D2*
X2062761D1*
X861514Y890173D2*
X988066D1*
X1042478D2*
X1078709D1*
X1133121D2*
X1188084D1*
X1242496D2*
X1283535D1*
X1346596D2*
X1356560D1*
X1442479D2*
X1488076D1*
X1542488D2*
X1588085D1*
X1642497D2*
X1688058D1*
X1742471D2*
X1788067D1*
X1842480D2*
X1888076D1*
X1942490D2*
X1988085D1*
X2042499D2*
X2062761D1*
X861514Y865304D2*
X988066D1*
X1042478D2*
X1078709D1*
X1133121D2*
X1188084D1*
X1242496D2*
X1276430D1*
X1442479D2*
X1488076D1*
X1542488D2*
X1588085D1*
X1642497D2*
X1688058D1*
X1742471D2*
X1788067D1*
X1842480D2*
X1888076D1*
X1942490D2*
X1988085D1*
X2042499D2*
X2062761D1*
X861514Y840436D2*
X988066D1*
X1042478D2*
X1078709D1*
X1133121D2*
X1188084D1*
X1242496D2*
X1289529D1*
X1340604D2*
X1356560D1*
X1442479D2*
X1488076D1*
X1542488D2*
X1588085D1*
X1642497D2*
X1688058D1*
X1742471D2*
X1788067D1*
X1842480D2*
X1888076D1*
X1942490D2*
X1988085D1*
X2042499D2*
X2062761D1*
X861514Y815567D2*
X988066D1*
X1042478D2*
X1078709D1*
X1133121D2*
X1188084D1*
X1242496D2*
X1354442D1*
X1442479D2*
X1488076D1*
X1542488D2*
X1588085D1*
X1642497D2*
X1688058D1*
X1742471D2*
X1788067D1*
X1842480D2*
X1888076D1*
X1942490D2*
X1988085D1*
X2042499D2*
X2062761D1*
X861514Y790698D2*
X988066D1*
X1042478D2*
X1078709D1*
X1133121D2*
X1188084D1*
X1242496D2*
X1329539D1*
X1442479D2*
X1488076D1*
X1542488D2*
X1588085D1*
X1642497D2*
X1688058D1*
X1742471D2*
X1788067D1*
X1842480D2*
X1888076D1*
X1942490D2*
X1988085D1*
X2042499D2*
X2062761D1*
X861514Y765829D2*
X988066D1*
X1042478D2*
X1078709D1*
X1133121D2*
X1188084D1*
X1242496D2*
X1304672D1*
X1379573D2*
X1388083D1*
X1442479D2*
X1488076D1*
X1542488D2*
X1588085D1*
X1642497D2*
X1688058D1*
X1742471D2*
X1788067D1*
X1842480D2*
X1888076D1*
X1942490D2*
X1988085D1*
X2042499D2*
X2062761D1*
X861514Y740961D2*
X988066D1*
X1042478D2*
X1078709D1*
X1133121D2*
X1188084D1*
X1242496D2*
X1288164D1*
X1354706D2*
X1388066D1*
X1442479D2*
X1488076D1*
X1542488D2*
X1588085D1*
X1642497D2*
X1688058D1*
X1742471D2*
X1788067D1*
X1842480D2*
X1888076D1*
X1942490D2*
X1988085D1*
X2042499D2*
X2062761D1*
X1684698Y2962402D2*
X1774014D1*
X1773350Y2968154D1*
Y3322789D1*
X1768318Y3320867D1*
X1760643Y3319025D1*
X1752776Y3318406D1*
X1744908Y3319025D1*
X1737234Y3320867D1*
X1729942Y3323887D1*
X1723213Y3328010D1*
X1717211Y3333136D1*
X1712085Y3339138D1*
X1707962Y3345867D1*
X1704942Y3353159D1*
X1703100Y3360833D1*
X1702793Y3363421D1*
X1701681Y3356959D1*
X1699243Y3349454D1*
X1695659Y3342421D1*
X1691021Y3336037D1*
X1685440Y3330455D1*
X1679055Y3325818D1*
X1672022Y3322234D1*
X1664517Y3319795D1*
X1656722Y3318560D1*
X1648829D1*
X1641034Y3319795D1*
X1633529Y3322234D1*
X1626496Y3325818D1*
X1620112Y3330455D1*
X1614530Y3336037D1*
X1609892Y3342421D1*
X1606308Y3349454D1*
X1604837Y3353530D1*
X1602879Y3347948D1*
X1599016Y3340365D1*
X1594014Y3333480D1*
X1587996Y3327462D1*
X1581112Y3322461D1*
X1574512Y3319050D1*
X1574513Y2639474D1*
X1705402Y2770346D1*
X1700743Y2772790D1*
X1696139Y2776135D1*
X1692114Y2780160D1*
X1688769Y2784764D1*
X1686186Y2789835D1*
X1684428Y2795248D1*
X1683537Y2800869D1*
Y2806559D1*
X1684428Y2812180D1*
X1686186Y2817593D1*
X1688769Y2822664D1*
X1691047Y2825913D1*
X1691051Y2849969D1*
X1675512Y2850000D1*
Y2962402D1*
X1684698D1*
X1780039Y2951241D2*
Y2937749D1*
X1793525Y2937728D1*
X1780581Y2950682D1*
X1780039Y2878971D2*
Y2850000D1*
X1748353D1*
X1748335Y2825928D1*
X1752008Y2820178D1*
X1753028Y2817967D1*
X1776421Y2841259D1*
X1781251Y2844484D1*
X1786698Y2846495D1*
X1792474Y2847177D1*
X1855371D1*
X1855395Y2852633D1*
X1856286Y2858253D1*
X1858045Y2863667D1*
X1860627Y2868738D1*
X1863972Y2873341D1*
X1867997Y2877366D1*
X1872203Y2880445D1*
X1783594D1*
X1782035Y2879736D1*
X2203138Y1687402D2*
X2286437D1*
Y1575000D1*
X2258913D1*
X2258878Y1518919D1*
X2264088Y1518377D1*
X2271762Y1516534D1*
X2279054Y1513514D1*
X2285783Y1509391D1*
X2291785Y1504265D1*
X2296911Y1498264D1*
X2301034Y1491534D1*
X2304054Y1484243D1*
X2305896Y1476568D1*
X2306203Y1473980D1*
X2307315Y1480442D1*
X2309753Y1487948D1*
X2313337Y1494980D1*
X2317975Y1501365D1*
X2323556Y1506946D1*
X2329941Y1511584D1*
X2336974Y1515168D1*
X2344479Y1517606D1*
X2352274Y1518841D1*
X2360167D1*
X2365163Y1518163D1*
X2396028Y1549013D1*
X2392357Y1554297D1*
X2388353Y1562155D1*
X2385627Y1570542D1*
X2384248Y1579252D1*
Y1588071D1*
X2385627Y1596781D1*
X2388353Y1605168D1*
X2392357Y1613026D1*
X2397541Y1620161D1*
X2403776Y1626396D1*
X2410911Y1631580D1*
X2418769Y1635584D1*
X2427156Y1638310D1*
X2435866Y1639689D1*
X2444685D1*
X2453395Y1638310D1*
X2461782Y1635584D1*
X2469640Y1631580D1*
X2476776Y1626396D1*
X2483010Y1620161D1*
X2488194Y1613026D1*
X2492198Y1605168D1*
X2494924Y1596781D1*
X2496303Y1588071D1*
Y1579252D1*
X2494924Y1570542D1*
X2492198Y1562155D1*
X2488194Y1554297D1*
X2483010Y1547161D1*
X2476776Y1540927D1*
X2469640Y1535743D1*
X2461782Y1531739D1*
X2458597Y1530563D1*
X2405696Y1477671D1*
X2406361Y1472647D1*
Y1464755D1*
X2405126Y1456959D1*
X2402688Y1449454D1*
X2399104Y1442421D1*
X2394466Y1436037D1*
X2388885Y1430455D1*
X2382500Y1425818D1*
X2375467Y1422234D1*
X2367962Y1419795D1*
X2360167Y1418560D1*
X2352274D1*
X2344479Y1419795D1*
X2336974Y1422234D1*
X2329941Y1425818D1*
X2323556Y1430455D1*
X2317975Y1436037D1*
X2313337Y1442421D1*
X2309753Y1449454D1*
X2307315Y1456959D1*
X2306238Y1463421D1*
X2305126Y1456959D1*
X2302688Y1449454D1*
X2299104Y1442421D1*
X2294466Y1436037D1*
X2288885Y1430455D1*
X2282500Y1425818D1*
X2275467Y1422234D1*
X2267962Y1419795D1*
X2260167Y1418560D1*
X2252274D1*
X2244479Y1419795D1*
X2236974Y1422234D1*
X2229941Y1425818D1*
X2223556Y1430455D1*
X2217975Y1436037D1*
X2213337Y1442421D1*
X2209753Y1449454D1*
X2207315Y1456959D1*
X2206214Y1463199D1*
X2204881Y1455979D1*
X2202509Y1449030D1*
X2199152Y1442500D1*
X2194881Y1436529D1*
X2189783Y1431243D1*
X2183972Y1426755D1*
X2177570Y1423161D1*
X2170711Y1420538D1*
X2163545Y1418942D1*
X2156222Y1418406D1*
X2148899Y1418941D1*
X2141731Y1420538D1*
X2134874Y1423160D1*
X2128470Y1426753D1*
X2122659Y1431241D1*
X2122264Y1431608D1*
X2122192Y1118625D1*
X2121059Y1112929D1*
X2118627Y1107655D1*
X2115031Y1103094D1*
X2040001Y1028063D1*
X2039980Y718727D1*
X2065260Y718701D1*
X2065348Y1013798D1*
X2066007Y1016661D1*
X2067314Y1019293D1*
X2069201Y1021546D1*
X2502791Y1430361D1*
X2502776Y2347713D1*
X2499016Y2340365D1*
X2494014Y2333480D1*
X2487996Y2327462D1*
X2481430Y2322673D1*
X2481329Y2132529D1*
X2480626Y2128089D1*
X2479238Y2123815D1*
X2477197Y2119810D1*
X2474555Y2116175D1*
X2468917Y2110412D1*
Y2074873D1*
X2496476Y2074902D1*
Y1962500D1*
X2384075D1*
Y2074902D1*
X2411598D1*
X2411722Y2124522D1*
X2412425Y2128962D1*
X2413814Y2133236D1*
X2415854Y2137241D1*
X2418496Y2140877D1*
X2424134Y2146639D1*
Y2322630D1*
X2417555Y2327462D1*
X2411537Y2333480D1*
X2406535Y2340365D1*
X2402672Y2347948D1*
X2400741Y2353559D1*
X2397589Y2345867D1*
X2393466Y2339138D1*
X2388340Y2333136D1*
X2382339Y2328010D1*
X2375609Y2323887D1*
X2368318Y2320867D1*
X2360643Y2319025D1*
X2352776Y2318406D1*
X2344908Y2319025D1*
X2337234Y2320867D1*
X2329942Y2323887D1*
X2323213Y2328010D1*
X2317211Y2333136D1*
X2312085Y2339138D1*
X2307962Y2345867D1*
X2304942Y2353159D1*
X2303100Y2360833D1*
X2302793Y2363421D1*
X2301681Y2356959D1*
X2299243Y2349454D1*
X2295659Y2342421D1*
X2291021Y2336037D1*
X2285440Y2330455D1*
X2279055Y2325818D1*
X2272022Y2322234D1*
X2264517Y2319795D1*
X2256722Y2318560D1*
X2248829D1*
X2241034Y2319795D1*
X2233529Y2322234D1*
X2226496Y2325818D1*
X2220112Y2330455D1*
X2214530Y2336037D1*
X2209892Y2342421D1*
X2206308Y2349454D1*
X2203870Y2356959D1*
X2202793Y2363421D1*
X2201681Y2356959D1*
X2199243Y2349454D1*
X2195659Y2342421D1*
X2191021Y2336037D1*
X2185440Y2330455D1*
X2179055Y2325818D1*
X2172022Y2322234D1*
X2164517Y2319795D1*
X2156722Y2318560D1*
X2148829D1*
X2141034Y2319795D1*
X2133529Y2322234D1*
X2126496Y2325818D1*
X2120112Y2330455D1*
X2114530Y2336037D1*
X2109892Y2342421D1*
X2106308Y2349454D1*
X2103870Y2356959D1*
X2102793Y2363421D1*
X2101681Y2356959D1*
X2099243Y2349454D1*
X2095659Y2342421D1*
X2091021Y2336037D1*
X2085440Y2330455D1*
X2079055Y2325818D1*
X2072022Y2322234D1*
X2064517Y2319795D1*
X2056722Y2318560D1*
X2048829D1*
X2041034Y2319795D1*
X2033529Y2322234D1*
X2026496Y2325818D1*
X2020112Y2330455D1*
X2014530Y2336037D1*
X2009892Y2342421D1*
X2006308Y2349454D1*
X2004837Y2353530D1*
X2002588Y2347256D1*
X1999234Y2340723D1*
X1995029Y2334703D1*
X1990049Y2329307D1*
X1984385Y2324633D1*
X1978140Y2320766D1*
X1971433Y2317778D1*
X1964382Y2315724D1*
X1957119Y2314643D1*
X1949776Y2314551D1*
X1942488Y2315453D1*
X1935388Y2317331D1*
X1928609Y2320151D1*
X1922270Y2323861D1*
X1916493Y2328394D1*
X1911381Y2333664D1*
X1907026Y2339577D1*
X1903512Y2346025D1*
X1900899Y2352888D1*
X1900723Y2353503D1*
X1897589Y2345867D1*
X1893466Y2339138D1*
X1888340Y2333136D1*
X1882339Y2328010D1*
X1875609Y2323887D1*
X1868318Y2320867D1*
X1860643Y2319025D1*
X1852776Y2318406D1*
X1844908Y2319025D1*
X1837234Y2320867D1*
X1829942Y2323887D1*
X1823213Y2328010D1*
X1817211Y2333136D1*
X1812085Y2339138D1*
X1807962Y2345867D1*
X1804942Y2353159D1*
X1803100Y2360833D1*
X1802793Y2363421D1*
X1801681Y2356959D1*
X1799243Y2349454D1*
X1795659Y2342421D1*
X1791021Y2336037D1*
X1785440Y2330455D1*
X1779055Y2325818D1*
X1772022Y2322234D1*
X1764517Y2319795D1*
X1756722Y2318560D1*
X1748829D1*
X1741034Y2319795D1*
X1733529Y2322234D1*
X1726496Y2325818D1*
X1720112Y2330455D1*
X1714530Y2336037D1*
X1709892Y2342421D1*
X1706308Y2349454D1*
X1704837Y2353530D1*
X1702879Y2347948D1*
X1699016Y2340365D1*
X1694014Y2333480D1*
X1687996Y2327462D1*
X1681112Y2322461D1*
X1673529Y2318597D1*
X1665436Y2315967D1*
X1657030Y2314635D1*
X1648521D1*
X1640115Y2315967D1*
X1632022Y2318597D1*
X1624440Y2322461D1*
X1617555Y2327462D1*
X1611537Y2333480D1*
X1606535Y2340365D1*
X1602776Y2347720D1*
X1599016Y2340365D1*
X1594014Y2333480D1*
X1587996Y2327462D1*
X1581112Y2322461D1*
X1573529Y2318597D1*
X1565436Y2315967D1*
X1557030Y2314635D1*
X1548521D1*
X1540115Y2315967D1*
X1532022Y2318597D1*
X1524440Y2322461D1*
X1517555Y2327462D1*
X1511537Y2333480D1*
X1506535Y2340365D1*
X1502776Y2347720D1*
X1499016Y2340365D1*
X1494014Y2333480D1*
X1487996Y2327462D1*
X1481112Y2322461D1*
X1473529Y2318597D1*
X1465436Y2315967D1*
X1457030Y2314635D1*
X1448521D1*
X1440115Y2315967D1*
X1432022Y2318597D1*
X1424440Y2322461D1*
X1417555Y2327462D1*
X1411537Y2333480D1*
X1406535Y2340365D1*
X1402672Y2347948D1*
X1400741Y2353559D1*
X1397589Y2345867D1*
X1393466Y2339138D1*
X1388340Y2333136D1*
X1382339Y2328010D1*
X1375609Y2323887D1*
X1368318Y2320867D1*
X1360643Y2319025D1*
X1352776Y2318406D1*
X1344908Y2319025D1*
X1337234Y2320867D1*
X1329942Y2323887D1*
X1323213Y2328010D1*
X1317211Y2333136D1*
X1312085Y2339138D1*
X1307962Y2345867D1*
X1304942Y2353159D1*
X1303100Y2360833D1*
X1302793Y2363421D1*
X1301681Y2356959D1*
X1299243Y2349454D1*
X1295659Y2342421D1*
X1291021Y2336037D1*
X1285440Y2330455D1*
X1279055Y2325818D1*
X1272022Y2322234D1*
X1264517Y2319795D1*
X1256722Y2318560D1*
X1248829D1*
X1241034Y2319795D1*
X1233529Y2322234D1*
X1226496Y2325818D1*
X1220112Y2330455D1*
X1214530Y2336037D1*
X1209892Y2342421D1*
X1206308Y2349454D1*
X1203870Y2356959D1*
X1202793Y2363421D1*
X1201681Y2356959D1*
X1199243Y2349454D1*
X1195659Y2342421D1*
X1191021Y2336037D1*
X1185440Y2330455D1*
X1179055Y2325818D1*
X1172022Y2322234D1*
X1164517Y2319795D1*
X1156722Y2318560D1*
X1148829D1*
X1141034Y2319795D1*
X1133529Y2322234D1*
X1126496Y2325818D1*
X1122765Y2328365D1*
X1122760Y2283247D1*
X1132176Y2281988D1*
X2269576Y2281912D1*
X2275272Y2280780D1*
X2280546Y2278348D1*
X2285106Y2274752D1*
X2342731Y2217129D1*
X2348353Y2218377D1*
X2356220Y2218996D1*
X2364088Y2218377D1*
X2371762Y2216534D1*
X2379054Y2213514D1*
X2385783Y2209391D1*
X2391785Y2204265D1*
X2396911Y2198264D1*
X2401034Y2191534D1*
X2404054Y2184243D1*
X2405896Y2176568D1*
X2406516Y2168701D1*
X2405896Y2160833D1*
X2404054Y2153159D1*
X2401034Y2145867D1*
X2396911Y2139138D1*
X2391785Y2133136D1*
X2385783Y2128010D1*
X2379054Y2123887D1*
X2371762Y2120867D1*
X2364088Y2119025D1*
X2356220Y2118406D1*
X2348353Y2119025D1*
X2340678Y2120867D1*
X2333387Y2123887D1*
X2326657Y2128010D1*
X2320656Y2133136D1*
X2315530Y2139138D1*
X2311407Y2145867D1*
X2308387Y2153159D1*
X2306545Y2160833D1*
X2306238Y2163421D1*
X2305126Y2156959D1*
X2302688Y2149454D1*
X2299104Y2142421D1*
X2294466Y2136037D1*
X2288885Y2130455D1*
X2282500Y2125818D1*
X2275467Y2122234D1*
X2267962Y2119795D1*
X2260167Y2118560D1*
X2252274D1*
X2244479Y2119795D1*
X2236974Y2122234D1*
X2229941Y2125818D1*
X2223556Y2130455D1*
X2217975Y2136037D1*
X2213337Y2142421D1*
X2209753Y2149454D1*
X2207315Y2156959D1*
X2206238Y2163421D1*
X2205126Y2156959D1*
X2202688Y2149454D1*
X2199104Y2142421D1*
X2194466Y2136037D1*
X2188885Y2130455D1*
X2182500Y2125818D1*
X2175467Y2122234D1*
X2167962Y2119795D1*
X2160167Y2118560D1*
X2152274D1*
X2144479Y2119795D1*
X2136974Y2122234D1*
X2129941Y2125818D1*
X2123556Y2130455D1*
X2122276Y2131639D1*
X2122268Y1505812D1*
X2126954Y1509604D1*
X2133220Y1513429D1*
X2139979Y1516302D1*
X2147083Y1518159D1*
X2154381Y1518962D1*
X2161718Y1518694D1*
X2168938Y1517361D1*
X2175888Y1514991D1*
X2182419Y1511634D1*
X2188390Y1507362D1*
X2193677Y1502266D1*
X2198164Y1496455D1*
X2201759Y1490052D1*
X2202113Y1489260D1*
X2201594Y1494694D1*
Y1575030D1*
X2174035Y1575000D1*
Y1635465D1*
X2142568Y1667054D1*
X2139927Y1670689D1*
X2137886Y1674694D1*
X2136497Y1678969D1*
X2135794Y1683408D1*
X2135706Y1768332D1*
X2135794Y1957520D1*
X2136497Y1961959D1*
X2137886Y1966234D1*
X2139927Y1970239D1*
X2142568Y1973874D1*
X2171575Y2003005D1*
Y2074902D1*
X2283976D1*
Y1962500D1*
X2212101D1*
X2192992Y1943412D1*
X2192990Y1887416D1*
X2283976Y1887402D1*
Y1775000D1*
X2193010D1*
X2192990Y1697517D1*
X2203098Y1687409D1*
X1788921Y1575394D2*
X1782077Y1576552D1*
X1773690Y1579278D1*
X1765832Y1583282D1*
X1758697Y1588466D1*
X1752462Y1594701D1*
X1747278Y1601836D1*
X1743274Y1609694D1*
X1740549Y1618081D1*
X1739169Y1626791D1*
Y1635610D1*
X1740549Y1644320D1*
X1743274Y1652707D1*
X1747278Y1660566D1*
X1752462Y1667701D1*
X1758697Y1673936D1*
X1765832Y1679119D1*
X1773690Y1683123D1*
X1782077Y1685849D1*
X1790787Y1687228D1*
X1799606D1*
X1808316Y1685849D1*
X1816703Y1683123D1*
X1824562Y1679119D1*
X1831697Y1673936D1*
X1837932Y1667701D1*
X1843115Y1660566D1*
X1847119Y1652707D1*
X1849845Y1644320D1*
X1851224Y1635610D1*
Y1626791D1*
X1849845Y1618081D1*
X1847119Y1609694D1*
X1843115Y1601836D1*
X1837932Y1594701D1*
X1831697Y1588466D1*
X1824562Y1583282D1*
X1816703Y1579278D1*
X1808316Y1576552D1*
X1799606Y1575173D1*
X1793836Y1575054D1*
X1799202Y1573513D1*
X1804269Y1570676D1*
X1807217Y1568157D1*
X1824282Y1550986D1*
X1827508Y1546156D1*
X1829518Y1540709D1*
X1830201Y1534941D1*
Y1511724D1*
X1836547Y1514988D1*
X1843496Y1517360D1*
X1850717Y1518694D1*
X1858054Y1518963D1*
X1865353Y1518160D1*
X1872457Y1516303D1*
X1878615Y1513726D1*
X1878618Y2039383D1*
X1873982Y2044627D1*
X1871008Y2049480D1*
X1868831Y2054738D1*
X1867501Y2060272D1*
X1867055Y2065945D1*
X1867501Y2071618D1*
X1868831Y2077152D1*
X1871008Y2082409D1*
X1873982Y2087262D1*
X1877677Y2091591D1*
X1882005Y2095286D1*
X1886858Y2098260D1*
X1892115Y2100437D1*
X1897650Y2101766D1*
X1903323Y2102213D1*
X1908996Y2101766D1*
X1914530Y2100437D1*
X1919787Y2098260D1*
X1924640Y2095286D1*
X1928969Y2091591D1*
X1931514Y2088722D1*
X1931516Y2124871D1*
X1926657Y2128010D1*
X1920656Y2133136D1*
X1915530Y2139138D1*
X1911407Y2145867D1*
X1908387Y2153159D1*
X1906545Y2160833D1*
X1906214Y2163199D1*
X1904881Y2155979D1*
X1902509Y2149030D1*
X1899152Y2142500D1*
X1894881Y2136529D1*
X1889783Y2131243D1*
X1883972Y2126755D1*
X1877570Y2123161D1*
X1870711Y2120538D1*
X1863545Y2118942D1*
X1856222Y2118406D1*
X1848899Y2118941D1*
X1841731Y2120538D1*
X1834874Y2123160D1*
X1828470Y2126753D1*
X1822659Y2131241D1*
X1817562Y2136528D1*
X1813290Y2142499D1*
X1809932Y2149029D1*
X1807562Y2155978D1*
X1806222Y2163262D1*
X1805126Y2156959D1*
X1802688Y2149454D1*
X1799104Y2142421D1*
X1794466Y2136037D1*
X1788885Y2130455D1*
X1782500Y2125818D1*
X1775467Y2122234D1*
X1767962Y2119795D1*
X1760167Y2118560D1*
X1753400Y2118516D1*
X1753396Y2058818D1*
X1759702Y2064168D1*
X1767222Y2068776D1*
X1775369Y2072151D1*
X1783945Y2074210D1*
X1792736Y2074902D1*
X1801528Y2074210D1*
X1810104Y2072151D1*
X1818251Y2068776D1*
X1825770Y2064168D1*
X1832476Y2058441D1*
X1838203Y2051735D1*
X1842811Y2044215D1*
X1846186Y2036068D1*
X1848245Y2027492D1*
X1848937Y2018701D1*
X1848245Y2009909D1*
X1846186Y2001333D1*
X1842811Y1993186D1*
X1838203Y1985667D1*
X1832476Y1978961D1*
X1825770Y1973234D1*
X1818251Y1968626D1*
X1810104Y1965251D1*
X1801528Y1963192D1*
X1792736Y1962500D1*
X1783945Y1963192D1*
X1775369Y1965251D1*
X1767222Y1968626D1*
X1759702Y1973234D1*
X1753388Y1978598D1*
X1753396Y1871358D1*
X1759702Y1876668D1*
X1767222Y1881276D1*
X1775369Y1884651D1*
X1783945Y1886710D1*
X1792736Y1887402D1*
X1801528Y1886710D1*
X1810104Y1884651D1*
X1818251Y1881276D1*
X1825770Y1876668D1*
X1832476Y1870941D1*
X1838203Y1864235D1*
X1842811Y1856715D1*
X1846186Y1848568D1*
X1848245Y1839992D1*
X1848937Y1831201D1*
X1848245Y1822409D1*
X1846186Y1813833D1*
X1842811Y1805686D1*
X1838203Y1798167D1*
X1832476Y1791461D1*
X1825770Y1785734D1*
X1818251Y1781126D1*
X1810104Y1777751D1*
X1801528Y1775692D1*
X1792736Y1775000D1*
X1783945Y1775692D1*
X1775369Y1777751D1*
X1767222Y1781126D1*
X1759702Y1785734D1*
X1753388Y1791098D1*
X1753320Y1707635D1*
X1752188Y1701940D1*
X1749756Y1696665D1*
X1746160Y1692105D1*
X1713608Y1659659D1*
X1708778Y1656433D1*
X1703331Y1654423D1*
X1697555Y1653740D1*
X1579324D1*
X1574081Y1649104D1*
X1569228Y1646130D1*
X1563971Y1643953D1*
X1558437Y1642623D1*
X1552764Y1642177D1*
X1547091Y1642623D1*
X1541556Y1643953D1*
X1536299Y1646130D1*
X1531446Y1649104D1*
X1527118Y1652799D1*
X1523423Y1657127D1*
X1520449Y1661980D1*
X1518272Y1667238D1*
X1516942Y1672772D1*
X1516496Y1678445D1*
X1517045Y1684631D1*
X1242738Y1684621D1*
X1237866Y1679781D1*
Y1620213D1*
X1282672Y1575371D1*
X1788560Y1575394D1*
X1923415Y3640110D2*
X1922291Y3633017D1*
X1920072Y3626186D1*
X1916812Y3619787D1*
X1912591Y3613976D1*
X1907513Y3608899D1*
X1901702Y3604677D1*
X1895303Y3601417D1*
X1888472Y3599198D1*
X1881379Y3598075D1*
X1874198D1*
X1867105Y3599198D1*
X1860274Y3601417D1*
X1853875Y3604677D1*
X1848064Y3608899D1*
X1842987Y3613976D1*
X1838765Y3619787D1*
X1835505Y3626186D1*
X1833286Y3633017D1*
X1832163Y3640110D1*
Y3647291D1*
X1833286Y3654385D1*
X1835505Y3661215D1*
X1838765Y3667614D1*
X1842987Y3673425D1*
X1848064Y3678503D1*
X1853875Y3682724D1*
X1860274Y3685984D1*
X1867105Y3688203D1*
X1874198Y3689327D1*
X1881379D1*
X1888472Y3688203D1*
X1895303Y3685984D1*
X1901702Y3682724D1*
X1907513Y3678503D1*
X1912591Y3673425D1*
X1916812Y3667614D1*
X1920072Y3661215D1*
X1922291Y3654385D1*
X1923415Y3647291D1*
Y3640110D1*
X1941207Y3689469D2*
X2023556D1*
Y3597933D1*
X1932021D1*
Y3689469D1*
X1941207D1*
X985915Y3640110D2*
X985752Y3638730D1*
X994517Y3629978D1*
X994521Y3689469D1*
X1086056D1*
Y3597933D1*
X1026022D1*
X1028295Y3594217D1*
X1030016Y3590064D1*
X1031064Y3585694D1*
X1031417Y3581214D1*
Y3418551D1*
X1040115Y3421434D1*
X1048521Y3422766D1*
X1057030D1*
X1065436Y3421434D1*
X1073529Y3418804D1*
X1081112Y3414941D1*
X1087996Y3409940D1*
X1094014Y3403921D1*
X1099016Y3397037D1*
X1102879Y3389454D1*
X1104810Y3383843D1*
X1107962Y3391534D1*
X1112085Y3398264D1*
X1117211Y3404265D1*
X1123213Y3409391D1*
X1129942Y3413514D1*
X1137234Y3416534D1*
X1144908Y3418377D1*
X1152776Y3418996D1*
X1160643Y3418377D1*
X1168318Y3416534D1*
X1175609Y3413514D1*
X1182339Y3409391D1*
X1188340Y3404265D1*
X1193466Y3398264D1*
X1197589Y3391534D1*
X1200714Y3383871D1*
X1203159Y3390596D1*
X1206572Y3397097D1*
X1210832Y3403079D1*
X1215861Y3408430D1*
X1221567Y3413054D1*
X1227845Y3416864D1*
X1234580Y3419790D1*
X1241648Y3421780D1*
X1248921Y3422797D1*
X1256265Y3422820D1*
X1263545Y3421853D1*
X1270626Y3419911D1*
X1277381Y3417030D1*
X1283685Y3413262D1*
X1289421Y3408678D1*
X1294486Y3403361D1*
X1298786Y3397409D1*
X1302243Y3390929D1*
X1302772Y3389697D1*
X1306535Y3397037D1*
X1311537Y3403921D1*
X1317555Y3409940D1*
X1324440Y3414941D1*
X1332022Y3418804D1*
X1340115Y3421434D1*
X1348521Y3422766D1*
X1357030D1*
X1365436Y3421434D1*
X1373529Y3418804D1*
X1381112Y3414941D1*
X1387996Y3409940D1*
X1394014Y3403921D1*
X1399016Y3397037D1*
X1402776Y3389681D1*
X1406535Y3397037D1*
X1411537Y3403921D1*
X1417555Y3409940D1*
X1424440Y3414941D1*
X1432022Y3418804D1*
X1440115Y3421434D1*
X1448521Y3422766D1*
X1457030D1*
X1465436Y3421434D1*
X1469454Y3420302D1*
X1497755Y3448510D1*
X1502584Y3451736D1*
X1508031Y3453747D1*
X1513799Y3454429D1*
X1784245Y3454353D1*
X1789941Y3453220D1*
X1795215Y3450789D1*
X1799776Y3447193D1*
X1816841Y3430021D1*
X1820067Y3425192D1*
X1822077Y3419744D1*
X1822760Y3413976D1*
X1828083Y3416982D1*
X1828071Y3547009D1*
X1818655Y3548307D1*
X1725608D1*
X1727140Y3543052D1*
X1728387Y3535184D1*
Y3527218D1*
X1727140Y3519349D1*
X1724678Y3511773D1*
X1721062Y3504675D1*
X1716379Y3498230D1*
X1710747Y3492597D1*
X1704302Y3487915D1*
X1697203Y3484298D1*
X1689627Y3481836D1*
X1681759Y3480589D1*
X1673793D1*
X1665924Y3481836D1*
X1658348Y3484298D1*
X1651249Y3487915D1*
X1644804Y3492597D1*
X1639172Y3498230D1*
X1634490Y3504675D1*
X1630873Y3511773D1*
X1628411Y3519349D1*
X1627164Y3527218D1*
Y3535184D1*
X1628411Y3543052D1*
X1630016Y3548306D1*
X1396526Y3548383D1*
X1390831Y3549516D1*
X1385556Y3551948D1*
X1380996Y3555543D1*
X1291654Y3644885D1*
X1285718Y3643558D1*
X1277776Y3642933D1*
X1269833Y3643558D1*
X1262088Y3645417D1*
X1254727Y3648466D1*
X1247936Y3652629D1*
X1241878Y3657803D1*
X1236703Y3663861D1*
X1232541Y3670652D1*
X1229492Y3678013D1*
X1227633Y3685759D1*
X1227008Y3693701D1*
X1227633Y3701643D1*
X1229492Y3709388D1*
X1232541Y3716749D1*
X1236703Y3723541D1*
X1241878Y3729598D1*
X1247936Y3734773D1*
X1254727Y3738936D1*
X1262088Y3741984D1*
X1269833Y3743844D1*
X1277776Y3744469D1*
X1285718Y3743844D1*
X1293463Y3741984D1*
X1300824Y3738936D1*
X1307615Y3734773D1*
X1313673Y3729598D1*
X1318848Y3723541D1*
X1323010Y3716749D1*
X1326059Y3709388D1*
X1327919Y3701643D1*
X1328543Y3693701D1*
X1327919Y3685759D1*
X1326570Y3679825D1*
X1408692Y3597723D1*
X1838966Y3597640D1*
X1844661Y3596508D1*
X1849936Y3594076D1*
X1854501Y3590475D1*
X1871562Y3573308D1*
X1874787Y3568479D1*
X1876798Y3563031D1*
X1877480Y3557256D1*
Y3416992D1*
X1884652Y3412576D1*
X1891123Y3407049D1*
X1896651Y3400577D1*
X1901097Y3393322D1*
X1902776Y3389681D1*
X1906535Y3397037D1*
X1911537Y3403921D1*
X1917555Y3409940D1*
X1924440Y3414941D1*
X1932022Y3418804D1*
X1940115Y3421434D1*
X1948521Y3422766D1*
X1957030D1*
X1965436Y3421434D1*
X1973529Y3418804D1*
X1981112Y3414941D1*
X1987996Y3409940D1*
X1994014Y3403921D1*
X1999016Y3397037D1*
X2002776Y3389681D1*
X2006535Y3397037D1*
X2011537Y3403921D1*
X2017555Y3409940D1*
X2024440Y3414941D1*
X2032022Y3418804D1*
X2040115Y3421434D1*
X2048521Y3422766D1*
X2057030D1*
X2065436Y3421434D1*
X2073529Y3418804D1*
X2081112Y3414941D1*
X2087996Y3409940D1*
X2094014Y3403921D1*
X2099016Y3397037D1*
X2102776Y3389681D1*
X2106535Y3397037D1*
X2111537Y3403921D1*
X2117555Y3409940D1*
X2124440Y3414941D1*
X2132022Y3418804D1*
X2140115Y3421434D1*
X2148521Y3422766D1*
X2157030D1*
X2165436Y3421434D1*
X2173529Y3418804D1*
X2181112Y3414941D1*
X2187996Y3409940D1*
X2194014Y3403921D1*
X2199016Y3397037D1*
X2202879Y3389454D1*
X2204810Y3383843D1*
X2207962Y3391534D1*
X2212085Y3398264D1*
X2217211Y3404265D1*
X2223213Y3409391D1*
X2229942Y3413514D1*
X2237234Y3416534D1*
X2244908Y3418377D1*
X2252776Y3418996D1*
X2260643Y3418377D1*
X2268318Y3416534D1*
X2275609Y3413514D1*
X2282339Y3409391D1*
X2288340Y3404265D1*
X2293466Y3398264D1*
X2297589Y3391534D1*
X2300609Y3384243D1*
X2302451Y3376568D1*
X2302759Y3373980D1*
X2303870Y3380442D1*
X2306308Y3387948D1*
X2309892Y3394980D1*
X2314530Y3401365D1*
X2320112Y3406946D1*
X2326496Y3411584D1*
X2333529Y3415168D1*
X2341034Y3417606D1*
X2348829Y3418841D1*
X2356722D1*
X2364517Y3417606D1*
X2372022Y3415168D1*
X2379055Y3411584D1*
X2385440Y3406946D1*
X2391021Y3401365D1*
X2395659Y3394980D1*
X2399243Y3387948D1*
X2401681Y3380442D1*
X2402759Y3373980D1*
X2403870Y3380442D1*
X2406308Y3387948D1*
X2409892Y3394980D1*
X2414530Y3401365D1*
X2420112Y3406946D1*
X2426496Y3411584D1*
X2433529Y3415168D1*
X2441034Y3417606D1*
X2448829Y3418841D1*
X2456722D1*
X2464517Y3417606D1*
X2472022Y3415168D1*
X2479055Y3411584D1*
X2485440Y3406946D1*
X2491021Y3401365D1*
X2495659Y3394980D1*
X2499243Y3387948D1*
X2501681Y3380442D1*
X2502776Y3373827D1*
Y3544378D1*
X2496365Y3538900D1*
X2489109Y3534454D1*
X2481247Y3531198D1*
X2472972Y3529211D1*
X2464488Y3528543D1*
X2456004Y3529211D1*
X2447730Y3531198D1*
X2439867Y3534454D1*
X2432612Y3538900D1*
X2426140Y3544428D1*
X2420613Y3550899D1*
X2416167Y3558155D1*
X2412911Y3566017D1*
X2410924Y3574291D1*
X2410256Y3582776D1*
X2410924Y3591260D1*
X2412911Y3599534D1*
X2416167Y3607396D1*
X2420613Y3614652D1*
X2426140Y3621123D1*
X2432612Y3626651D1*
X2439867Y3631097D1*
X2447730Y3634353D1*
X2456004Y3636340D1*
X2464488Y3637008D1*
X2472972Y3636340D1*
X2481247Y3634353D1*
X2489109Y3631097D1*
X2496365Y3626651D1*
X2502776Y3621180D1*
Y3774970D1*
X427785Y3774950D1*
X427776Y3606774D1*
X430157Y3611112D1*
X435159Y3617996D1*
X441177Y3624014D1*
X448062Y3629016D1*
X455644Y3632879D1*
X463738Y3635509D1*
X472143Y3636841D1*
X480652D1*
X489058Y3635509D1*
X497151Y3632879D1*
X504734Y3629016D1*
X511618Y3624014D1*
X517636Y3617996D1*
X522638Y3611112D1*
X526501Y3603529D1*
X529131Y3595436D1*
X530463Y3587030D1*
Y3578521D1*
X529131Y3570115D1*
X526501Y3562022D1*
X522638Y3554440D1*
X517636Y3547555D1*
X511618Y3541537D1*
X504734Y3536535D1*
X497151Y3532672D1*
X489058Y3530042D1*
X480652Y3528710D1*
X472143D1*
X463738Y3530042D1*
X455644Y3532672D1*
X448062Y3536535D1*
X441177Y3541537D1*
X435159Y3547555D1*
X430157Y3554440D1*
X427777Y3558804D1*
X427776Y3287476D1*
X691256Y3287412D1*
X694138Y3286839D1*
X696807Y3285609D1*
X699114Y3283790D1*
X700933Y3281482D1*
X702164Y3278814D1*
X702738Y3275932D1*
Y2442720D1*
X702164Y2439839D1*
X700933Y2437169D1*
X699114Y2434862D1*
X696807Y2433043D1*
X694138Y2431812D1*
X691256Y2431239D1*
X427782Y2431201D1*
X427776Y2210202D1*
X433387Y2213514D1*
X440678Y2216534D1*
X448353Y2218377D1*
X456220Y2218996D1*
X464088Y2218377D1*
X471762Y2216534D1*
X479054Y2213514D1*
X485783Y2209391D1*
X491785Y2204265D1*
X496911Y2198264D1*
X501034Y2191534D1*
X504054Y2184243D1*
X505896Y2176568D1*
X506516Y2168701D1*
X505896Y2160833D1*
X504054Y2153159D1*
X501034Y2145867D1*
X496911Y2139138D1*
X491785Y2133136D1*
X485783Y2128010D1*
X479054Y2123887D1*
X471762Y2120867D1*
X464088Y2119025D1*
X456220Y2118406D1*
X448353Y2119025D1*
X440678Y2120867D1*
X433387Y2123887D1*
X427773Y2127265D1*
X427940Y1985433D1*
X507008D1*
Y1876969D1*
X481867D1*
X487996Y1872440D1*
X494014Y1866421D1*
X499016Y1859537D1*
X502879Y1851954D1*
X505509Y1843861D1*
X506841Y1835455D1*
Y1826946D1*
X505509Y1818541D1*
X502879Y1810448D1*
X499016Y1802865D1*
X494014Y1795980D1*
X487996Y1789962D1*
X481112Y1784961D1*
X473756Y1781201D1*
X481112Y1777441D1*
X487996Y1772440D1*
X494014Y1766421D1*
X499016Y1759537D1*
X502879Y1751954D1*
X505509Y1743861D1*
X506841Y1735455D1*
Y1726946D1*
X505509Y1718541D1*
X502879Y1710448D1*
X499016Y1702865D1*
X494014Y1695980D1*
X487996Y1689962D1*
X481112Y1684961D1*
X477469Y1682920D1*
X477480Y1514281D1*
X482500Y1511584D1*
X488885Y1506946D1*
X494466Y1501365D1*
X499104Y1494980D1*
X502688Y1487948D1*
X505126Y1480442D1*
X506203Y1473980D1*
X507315Y1480442D1*
X509753Y1487948D1*
X513337Y1494980D1*
X517975Y1501365D1*
X523556Y1506946D1*
X529941Y1511584D1*
X536974Y1515168D1*
X544479Y1517606D1*
X552274Y1518841D1*
X560167D1*
X567962Y1517606D1*
X575467Y1515168D1*
X582500Y1511584D1*
X588885Y1506946D1*
X594466Y1501365D1*
X599104Y1494980D1*
X602688Y1487948D1*
X605126Y1480442D1*
X606203Y1473980D1*
X607315Y1480442D1*
X609753Y1487948D1*
X613337Y1494980D1*
X617975Y1501365D1*
X623556Y1506946D1*
X629941Y1511584D1*
X636974Y1515168D1*
X644479Y1517606D1*
X652274Y1518841D1*
X660167D1*
X667962Y1517606D1*
X675467Y1515168D1*
X682500Y1511584D1*
X688885Y1506946D1*
X694466Y1501365D1*
X699104Y1494980D1*
X702688Y1487948D1*
X705126Y1480442D1*
X706203Y1473980D1*
X707315Y1480442D1*
X709753Y1487948D1*
X713337Y1494980D1*
X717975Y1501365D1*
X723205Y1506621D1*
X720955Y1513136D1*
X720064Y1518757D1*
Y1524448D1*
X720955Y1530068D1*
X722714Y1535482D1*
X725297Y1540552D1*
X728642Y1545156D1*
X731514Y1548115D1*
X731516Y2124923D1*
X726657Y2128010D1*
X720656Y2133136D1*
X715530Y2139138D1*
X711407Y2145867D1*
X708387Y2153159D1*
X706545Y2160833D1*
X706238Y2163421D1*
X705126Y2156959D1*
X702688Y2149454D1*
X699104Y2142421D1*
X694466Y2136037D1*
X688885Y2130455D1*
X682500Y2125818D1*
X675467Y2122234D1*
X667962Y2119795D1*
X660167Y2118560D1*
X652274D1*
X644479Y2119795D1*
X636974Y2122234D1*
X629941Y2125818D1*
X623556Y2130455D1*
X617975Y2136037D1*
X613337Y2142421D1*
X609753Y2149454D1*
X607315Y2156959D1*
X606080Y2164755D1*
Y2172647D1*
X607315Y2180442D1*
X609753Y2187948D1*
X613337Y2194980D1*
X617975Y2201365D1*
X623556Y2206946D1*
X629941Y2211584D1*
X636974Y2215168D1*
X644479Y2217606D1*
X652274Y2218841D1*
X660167D1*
X667962Y2217606D1*
X671213Y2216689D1*
X728046Y2273533D1*
X728071Y2320416D1*
X720899Y2324825D1*
X714428Y2330353D1*
X708900Y2336824D1*
X704454Y2344080D1*
X702776Y2347720D1*
X699016Y2340365D1*
X694014Y2333480D1*
X687996Y2327462D1*
X681112Y2322461D1*
X673529Y2318597D1*
X665436Y2315967D1*
X657030Y2314635D1*
X648521D1*
X640115Y2315967D1*
X632022Y2318597D1*
X624440Y2322461D1*
X617555Y2327462D1*
X611537Y2333480D1*
X606535Y2340365D1*
X602672Y2347948D1*
X600042Y2356041D1*
X598710Y2364446D1*
Y2372955D1*
X600042Y2381361D1*
X602672Y2389454D1*
X606535Y2397037D1*
X611537Y2403921D1*
X617555Y2409940D1*
X624440Y2414941D1*
X632022Y2418804D1*
X640115Y2421434D1*
X648521Y2422766D1*
X657030D1*
X665436Y2421434D1*
X673529Y2418804D1*
X681112Y2414941D1*
X687996Y2409940D1*
X694014Y2403921D1*
X699016Y2397037D1*
X702776Y2389681D1*
X706535Y2397037D1*
X711537Y2403921D1*
X717555Y2409940D1*
X724440Y2414941D1*
X732022Y2418804D1*
X740115Y2421434D1*
X748521Y2422766D1*
X757030D1*
X765436Y2421434D1*
X773529Y2418804D1*
X779123Y2416055D1*
Y3321311D1*
X773529Y3318597D1*
X765436Y3315967D1*
X757030Y3314635D1*
X748521D1*
X740115Y3315967D1*
X732022Y3318597D1*
X724440Y3322461D1*
X717555Y3327462D1*
X711537Y3333480D1*
X706535Y3340365D1*
X702776Y3347720D1*
X700155Y3342312D1*
X696156Y3336154D1*
X691361Y3330592D1*
X685858Y3325728D1*
X679751Y3321652D1*
X673147Y3318440D1*
X666169Y3316148D1*
X658948Y3314820D1*
X651612Y3314482D1*
X644298Y3315135D1*
X637139Y3316772D1*
X630266Y3319361D1*
X623807Y3322853D1*
X617879Y3327188D1*
X612591Y3332282D1*
X608039Y3338045D1*
X604307Y3344370D1*
X601465Y3351140D1*
X599563Y3358234D1*
X598636Y3365518D1*
X598703Y3372862D1*
X599761Y3380129D1*
X601791Y3387186D1*
X604756Y3393904D1*
X608601Y3400160D1*
X613256Y3405840D1*
X618635Y3410839D1*
X624642Y3415064D1*
X631163Y3418441D1*
X638080Y3420904D1*
X645268Y3422411D1*
X652593Y3422933D1*
X659921Y3422461D1*
X667118Y3421003D1*
X674052Y3418585D1*
X680596Y3415253D1*
X686630Y3411068D1*
X692043Y3406106D1*
X696738Y3400458D1*
X700625Y3394228D1*
X702772Y3389697D1*
X706535Y3397037D1*
X711537Y3403921D1*
X717555Y3409940D1*
X724440Y3414941D1*
X732022Y3418804D1*
X740115Y3421434D1*
X748521Y3422766D1*
X757030D1*
X765436Y3421434D1*
X773529Y3418804D1*
X779123Y3416055D1*
Y3535827D1*
X772741Y3532672D1*
X764648Y3530042D1*
X756243Y3528710D1*
X747734D1*
X739328Y3530042D1*
X731235Y3532672D1*
X723652Y3536535D1*
X716768Y3541537D1*
X710749Y3547555D1*
X705748Y3554440D1*
X701885Y3562022D1*
X699255Y3570115D1*
X697923Y3578521D1*
Y3587030D1*
X699255Y3595436D1*
X701885Y3603529D1*
X705748Y3611112D1*
X710749Y3617996D1*
X716768Y3624014D1*
X723652Y3629016D1*
X731235Y3632879D1*
X739328Y3635509D1*
X747734Y3636841D1*
X756243D1*
X764648Y3635509D1*
X772741Y3632879D1*
X779119Y3629690D1*
X779123Y3650656D1*
X773291Y3656509D1*
X748839Y3656496D1*
X745058Y3650480D1*
X739732Y3644244D1*
X733496Y3638919D1*
X726503Y3634634D1*
X718927Y3631495D1*
X710951Y3629580D1*
X702776Y3628937D1*
X694600Y3629580D1*
X686625Y3631495D1*
X679049Y3634634D1*
X672055Y3638919D1*
X665819Y3644244D1*
X660493Y3650480D1*
X656209Y3657474D1*
X653070Y3665050D1*
X651155Y3673025D1*
X650512Y3681201D1*
X651155Y3689377D1*
X653070Y3697352D1*
X656209Y3704928D1*
X660493Y3711921D1*
X665819Y3718157D1*
X672055Y3723483D1*
X679049Y3727768D1*
X686625Y3730907D1*
X694600Y3732822D1*
X702776Y3733465D1*
X710951Y3732822D1*
X718927Y3730907D1*
X726503Y3727768D1*
X733496Y3723483D1*
X739732Y3718157D1*
X745058Y3711921D1*
X748803Y3705894D1*
X785476Y3705829D1*
X791172Y3704697D1*
X796446Y3702265D1*
X801012Y3698664D1*
X822614Y3676955D1*
X825840Y3672126D1*
X827850Y3666678D1*
X828533Y3660903D1*
Y3412772D1*
X833529Y3415168D1*
X841034Y3417606D1*
X848829Y3418841D1*
X856722D1*
X864517Y3417606D1*
X872022Y3415168D1*
X879055Y3411584D1*
X885440Y3406946D1*
X891021Y3401365D1*
X895659Y3394980D1*
X899243Y3387948D1*
X900714Y3383871D1*
X902672Y3389454D1*
X906535Y3397037D1*
X911537Y3403921D1*
X917555Y3409940D1*
X924440Y3414941D1*
X932022Y3418804D1*
X940115Y3421434D1*
X948521Y3422766D1*
X957030D1*
X965436Y3421434D1*
X973529Y3418804D1*
X974148Y3418520D1*
X974134Y3569385D1*
X945299Y3598185D1*
X936698Y3598075D1*
X929605Y3599198D1*
X922774Y3601417D1*
X916375Y3604677D1*
X910564Y3608899D1*
X905487Y3613976D1*
X901265Y3619787D1*
X898005Y3626186D1*
X895786Y3633017D1*
X894663Y3640110D1*
Y3647291D1*
X895786Y3654385D1*
X898005Y3661215D1*
X901265Y3667614D1*
X905487Y3673425D1*
X910564Y3678503D1*
X916375Y3682724D1*
X922774Y3685984D1*
X929605Y3688203D1*
X936698Y3689327D1*
X943879D1*
X950972Y3688203D1*
X957803Y3685984D1*
X964202Y3682724D1*
X970013Y3678503D1*
X975091Y3673425D1*
X979312Y3667614D1*
X982572Y3661215D1*
X984791Y3654385D1*
X985915Y3647291D1*
Y3640110D1*
X431795Y1781201D2*
X427762Y1783098D1*
X427776Y1779304D1*
X431795Y1781201D1*
X1328387Y3527218D2*
X1327140Y3519349D1*
X1324678Y3511773D1*
X1321062Y3504675D1*
X1316379Y3498230D1*
X1310747Y3492597D1*
X1304302Y3487915D1*
X1297203Y3484298D1*
X1289627Y3481836D1*
X1281759Y3480589D1*
X1273793D1*
X1265924Y3481836D1*
X1258348Y3484298D1*
X1251249Y3487915D1*
X1244804Y3492597D1*
X1239172Y3498230D1*
X1234490Y3504675D1*
X1230873Y3511773D1*
X1228411Y3519349D1*
X1227164Y3527218D1*
Y3535184D1*
X1228411Y3543052D1*
X1230873Y3550629D1*
X1234490Y3557727D1*
X1239172Y3564172D1*
X1244804Y3569804D1*
X1251249Y3574487D1*
X1258348Y3578104D1*
X1265924Y3580566D1*
X1273793Y3581812D1*
X1281759D1*
X1289627Y3580566D1*
X1297203Y3578104D1*
X1304302Y3574487D1*
X1310747Y3569804D1*
X1316379Y3564172D1*
X1321062Y3557727D1*
X1324678Y3550629D1*
X1327140Y3543052D1*
X1328387Y3535184D1*
Y3527218D1*
X1728387Y3689718D2*
X1727140Y3681849D1*
X1724678Y3674273D1*
X1721062Y3667175D1*
X1716379Y3660730D1*
X1710747Y3655097D1*
X1704302Y3650415D1*
X1697203Y3646798D1*
X1689627Y3644336D1*
X1681759Y3643089D1*
X1673793D1*
X1665924Y3644336D1*
X1658348Y3646798D1*
X1651249Y3650415D1*
X1644804Y3655097D1*
X1639172Y3660730D1*
X1634490Y3667175D1*
X1630873Y3674273D1*
X1628411Y3681849D1*
X1627164Y3689718D1*
Y3697684D1*
X1628411Y3705552D1*
X1630873Y3713129D1*
X1634490Y3720227D1*
X1639172Y3726672D1*
X1644804Y3732304D1*
X1651249Y3736987D1*
X1658348Y3740604D1*
X1665924Y3743066D1*
X1673793Y3744312D1*
X1681759D1*
X1689627Y3743066D1*
X1697203Y3740604D1*
X1704302Y3736987D1*
X1710747Y3732304D1*
X1716379Y3726672D1*
X1721062Y3720227D1*
X1724678Y3713129D1*
X1727140Y3705552D1*
X1728387Y3697684D1*
Y3689718D1*
X1053387Y2864718D2*
X1052140Y2856849D1*
X1049678Y2849273D1*
X1046062Y2842175D1*
X1041379Y2835730D1*
X1035747Y2830097D1*
X1031412Y2826824D1*
X1031417Y2735606D1*
X1035747Y2732304D1*
X1041379Y2726672D1*
X1046062Y2720227D1*
X1049678Y2713129D1*
X1052140Y2705552D1*
X1053387Y2697684D1*
Y2689718D1*
X1052140Y2681849D1*
X1049678Y2674273D1*
X1046062Y2667175D1*
X1041379Y2660730D1*
X1035747Y2655097D1*
X1031412Y2651824D1*
X1031417Y2560606D1*
X1035747Y2557304D1*
X1041379Y2551672D1*
X1046062Y2545227D1*
X1049678Y2538129D1*
X1052140Y2530552D1*
X1053387Y2522684D1*
Y2514718D1*
X1052140Y2506849D1*
X1049678Y2499273D1*
X1046062Y2492175D1*
X1041379Y2485730D1*
X1035747Y2480097D1*
X1029302Y2475415D1*
X1022203Y2471798D1*
X1014627Y2469336D1*
X1006759Y2468089D1*
X1003538Y2467963D1*
X1016841Y2454550D1*
X1020067Y2449720D1*
X1022077Y2444273D1*
X1022760Y2438505D1*
Y2409045D1*
X1029942Y2413514D1*
X1037234Y2416534D1*
X1044908Y2418377D1*
X1052776Y2418996D1*
X1060643Y2418377D1*
X1068318Y2416534D1*
X1073353Y2414554D1*
X1073350Y3313206D1*
X1065436Y3315967D1*
X1057030Y3314635D1*
X1048521D1*
X1040115Y3315967D1*
X1032022Y3318597D1*
X1031403Y3318882D1*
X1031417Y3248101D1*
X1035747Y3244804D1*
X1041379Y3239172D1*
X1046062Y3232727D1*
X1049678Y3225629D1*
X1052140Y3218052D1*
X1053387Y3210184D1*
Y3202218D1*
X1052140Y3194349D1*
X1049678Y3186773D1*
X1046062Y3179675D1*
X1041379Y3173230D1*
X1035747Y3167597D1*
X1031412Y3164324D1*
X1031417Y3085594D1*
X1035747Y3082304D1*
X1041379Y3076672D1*
X1046062Y3070227D1*
X1049678Y3063129D1*
X1052140Y3055552D1*
X1053387Y3047684D1*
Y3039718D1*
X1052140Y3031849D1*
X1049678Y3024273D1*
X1046062Y3017175D1*
X1041379Y3010730D1*
X1035747Y3005097D1*
X1031412Y3001824D1*
X1031417Y2910606D1*
X1035747Y2907304D1*
X1041379Y2901672D1*
X1046062Y2895227D1*
X1049678Y2888129D1*
X1052140Y2880552D1*
X1053387Y2872684D1*
Y2864718D1*
X1453387D2*
X1452140Y2856849D1*
X1449678Y2849273D1*
X1446062Y2842175D1*
X1441379Y2835730D1*
X1435747Y2830097D1*
X1429302Y2825415D1*
X1422203Y2821798D1*
X1414627Y2819336D1*
X1406759Y2818089D1*
X1398793D1*
X1390924Y2819336D1*
X1383348Y2821798D1*
X1376249Y2825415D1*
X1369804Y2830097D1*
X1364172Y2835730D1*
X1359490Y2842175D1*
X1355873Y2849273D1*
X1353411Y2856849D1*
X1352164Y2864718D1*
Y2872684D1*
X1353411Y2880552D1*
X1353982Y2882576D1*
X1333990Y2902656D1*
X1330764Y2907486D1*
X1328753Y2912933D1*
X1328071Y2918701D1*
Y3320424D1*
X1320899Y3324825D1*
X1314428Y3330353D1*
X1308900Y3336824D1*
X1304454Y3344080D1*
X1302776Y3347720D1*
X1300155Y3342312D1*
X1296156Y3336154D1*
X1291361Y3330592D1*
X1285858Y3325728D1*
X1279751Y3321652D1*
X1273147Y3318440D1*
X1266169Y3316148D1*
X1258948Y3314820D1*
X1251612Y3314482D1*
X1244298Y3315135D1*
X1237139Y3316772D1*
X1230266Y3319361D1*
X1223807Y3322853D1*
X1217879Y3327188D1*
X1212591Y3332282D1*
X1208039Y3338045D1*
X1204307Y3344370D1*
X1201465Y3351140D1*
X1200723Y3353503D1*
X1197589Y3345867D1*
X1193466Y3339138D1*
X1188340Y3333136D1*
X1182339Y3328010D1*
X1175609Y3323887D1*
X1168318Y3320867D1*
X1160643Y3319025D1*
X1152776Y3318406D1*
X1144908Y3319025D1*
X1137234Y3320867D1*
X1129942Y3323887D1*
X1123213Y3328010D1*
X1122159Y3328843D1*
X1122760Y3323421D1*
Y2409056D1*
X1129942Y2413514D1*
X1137234Y2416534D1*
X1144908Y2418377D1*
X1152776Y2418996D1*
X1160643Y2418377D1*
X1168318Y2416534D1*
X1175609Y2413514D1*
X1182339Y2409391D1*
X1188340Y2404265D1*
X1193466Y2398264D1*
X1197589Y2391534D1*
X1200609Y2384243D1*
X1202451Y2376568D1*
X1202759Y2373980D1*
X1203870Y2380442D1*
X1206308Y2387948D1*
X1209892Y2394980D1*
X1214530Y2401365D1*
X1220112Y2406946D1*
X1226496Y2411584D1*
X1233529Y2415168D1*
X1241034Y2417606D1*
X1248829Y2418841D1*
X1256722D1*
X1264517Y2417606D1*
X1272022Y2415168D1*
X1279055Y2411584D1*
X1285440Y2406946D1*
X1291021Y2401365D1*
X1295659Y2394980D1*
X1299243Y2387948D1*
X1301681Y2380442D1*
X1302759Y2373980D1*
X1303870Y2380442D1*
X1306308Y2387948D1*
X1309892Y2394980D1*
X1314530Y2401365D1*
X1320112Y2406946D1*
X1326496Y2411584D1*
X1333529Y2415168D1*
X1341034Y2417606D1*
X1348829Y2418841D1*
X1356722D1*
X1364517Y2417606D1*
X1372022Y2415168D1*
X1379055Y2411584D1*
X1385440Y2406946D1*
X1391021Y2401365D1*
X1395659Y2394980D1*
X1399243Y2387948D1*
X1400714Y2383871D1*
X1402672Y2389454D1*
X1406535Y2397037D1*
X1411537Y2403921D1*
X1417555Y2409940D1*
X1424440Y2414941D1*
X1432022Y2418804D1*
X1440115Y2421434D1*
X1448521Y2422766D1*
X1457030D1*
X1465436Y2421434D1*
X1473529Y2418804D1*
X1481112Y2414941D1*
X1487996Y2409940D1*
X1494014Y2403921D1*
X1499016Y2397037D1*
X1502776Y2389681D1*
X1506535Y2397037D1*
X1511537Y2403921D1*
X1517555Y2409940D1*
X1524440Y2414941D1*
X1532022Y2418804D1*
X1540115Y2421434D1*
X1548521Y2422766D1*
X1557030D1*
X1565436Y2421434D1*
X1573529Y2418804D1*
X1581112Y2414941D1*
X1587996Y2409940D1*
X1594014Y2403921D1*
X1599016Y2397037D1*
X1602776Y2389681D1*
X1606535Y2397037D1*
X1611537Y2403921D1*
X1617555Y2409940D1*
X1624440Y2414941D1*
X1632022Y2418804D1*
X1640115Y2421434D1*
X1648521Y2422766D1*
X1657030D1*
X1665436Y2421434D1*
X1673529Y2418804D1*
X1681112Y2414941D1*
X1687996Y2409940D1*
X1694014Y2403921D1*
X1699016Y2397037D1*
X1702879Y2389454D1*
X1704810Y2383843D1*
X1707962Y2391534D1*
X1712085Y2398264D1*
X1717211Y2404265D1*
X1723213Y2409391D1*
X1729942Y2413514D1*
X1737234Y2416534D1*
X1744908Y2418377D1*
X1752776Y2418996D1*
X1760643Y2418377D1*
X1768318Y2416534D1*
X1775609Y2413514D1*
X1782339Y2409391D1*
X1788340Y2404265D1*
X1793466Y2398264D1*
X1797589Y2391534D1*
X1800609Y2384243D1*
X1802451Y2376568D1*
X1802759Y2373980D1*
X1803870Y2380442D1*
X1806308Y2387948D1*
X1809892Y2394980D1*
X1814530Y2401365D1*
X1820112Y2406946D1*
X1826496Y2411584D1*
X1833529Y2415168D1*
X1841034Y2417606D1*
X1848829Y2418841D1*
X1856722D1*
X1864517Y2417606D1*
X1872022Y2415168D1*
X1879055Y2411584D1*
X1885440Y2406946D1*
X1891021Y2401365D1*
X1895659Y2394980D1*
X1899243Y2387948D1*
X1900714Y2383871D1*
X1903159Y2390596D1*
X1906572Y2397097D1*
X1910832Y2403079D1*
X1915861Y2408430D1*
X1921567Y2413054D1*
X1927845Y2416864D1*
X1934580Y2419790D1*
X1941648Y2421780D1*
X1948921Y2422797D1*
X1956265Y2422820D1*
X1963545Y2421853D1*
X1970626Y2419911D1*
X1977381Y2417030D1*
X1983685Y2413262D1*
X1989421Y2408678D1*
X1994486Y2403361D1*
X1998786Y2397409D1*
X2002243Y2390929D1*
X2004832Y2383898D1*
X2007962Y2391534D1*
X2012085Y2398264D1*
X2017211Y2404265D1*
X2023213Y2409391D1*
X2029942Y2413514D1*
X2037234Y2416534D1*
X2044908Y2418377D1*
X2052776Y2418996D1*
X2060643Y2418377D1*
X2068318Y2416534D1*
X2075609Y2413514D1*
X2082339Y2409391D1*
X2088340Y2404265D1*
X2093466Y2398264D1*
X2097589Y2391534D1*
X2100609Y2384243D1*
X2102451Y2376568D1*
X2102759Y2373980D1*
X2103870Y2380442D1*
X2106308Y2387948D1*
X2109892Y2394980D1*
X2114530Y2401365D1*
X2120112Y2406946D1*
X2126496Y2411584D1*
X2133529Y2415168D1*
X2141034Y2417606D1*
X2148829Y2418841D1*
X2156722D1*
X2164517Y2417606D1*
X2172022Y2415168D1*
X2179055Y2411584D1*
X2185440Y2406946D1*
X2191021Y2401365D1*
X2195659Y2394980D1*
X2199243Y2387948D1*
X2201681Y2380442D1*
X2202759Y2373980D1*
X2203870Y2380442D1*
X2206308Y2387948D1*
X2209892Y2394980D1*
X2214530Y2401365D1*
X2220112Y2406946D1*
X2226496Y2411584D1*
X2233529Y2415168D1*
X2241034Y2417606D1*
X2248829Y2418841D1*
X2256722D1*
X2264517Y2417606D1*
X2272022Y2415168D1*
X2279055Y2411584D1*
X2285440Y2406946D1*
X2291021Y2401365D1*
X2295659Y2394980D1*
X2299243Y2387948D1*
X2301681Y2380442D1*
X2302759Y2373980D1*
X2303870Y2380442D1*
X2306308Y2387948D1*
X2309892Y2394980D1*
X2314530Y2401365D1*
X2320112Y2406946D1*
X2326496Y2411584D1*
X2333529Y2415168D1*
X2341034Y2417606D1*
X2348829Y2418841D1*
X2356722D1*
X2364517Y2417606D1*
X2372022Y2415168D1*
X2379055Y2411584D1*
X2385440Y2406946D1*
X2391021Y2401365D1*
X2395659Y2394980D1*
X2399243Y2387948D1*
X2400714Y2383871D1*
X2402672Y2389454D1*
X2406535Y2397037D1*
X2411537Y2403921D1*
X2417555Y2409940D1*
X2424440Y2414941D1*
X2432022Y2418804D1*
X2440115Y2421434D1*
X2448521Y2422766D1*
X2457030D1*
X2465436Y2421434D1*
X2473529Y2418804D1*
X2481112Y2414941D1*
X2487996Y2409940D1*
X2494014Y2403921D1*
X2499016Y2397037D1*
X2502776Y2389681D1*
Y3363235D1*
X2501681Y3356959D1*
X2499243Y3349454D1*
X2495659Y3342421D1*
X2491021Y3336037D1*
X2485440Y3330455D1*
X2479055Y3325818D1*
X2472022Y3322234D1*
X2464517Y3319795D1*
X2456722Y3318560D1*
X2448829D1*
X2441034Y3319795D1*
X2433529Y3322234D1*
X2426496Y3325818D1*
X2420112Y3330455D1*
X2414530Y3336037D1*
X2409892Y3342421D1*
X2406308Y3349454D1*
X2403870Y3356959D1*
X2402793Y3363421D1*
X2401681Y3356959D1*
X2399243Y3349454D1*
X2395659Y3342421D1*
X2391021Y3336037D1*
X2385440Y3330455D1*
X2379055Y3325818D1*
X2372022Y3322234D1*
X2364517Y3319795D1*
X2356722Y3318560D1*
X2348829D1*
X2341034Y3319795D1*
X2333529Y3322234D1*
X2326496Y3325818D1*
X2320112Y3330455D1*
X2314530Y3336037D1*
X2309892Y3342421D1*
X2306308Y3349454D1*
X2303870Y3356959D1*
X2302793Y3363421D1*
X2301681Y3356959D1*
X2299243Y3349454D1*
X2295659Y3342421D1*
X2291021Y3336037D1*
X2285440Y3330455D1*
X2279055Y3325818D1*
X2272022Y3322234D1*
X2264517Y3319795D1*
X2256722Y3318560D1*
X2248829D1*
X2241034Y3319795D1*
X2233529Y3322234D1*
X2226496Y3325818D1*
X2220112Y3330455D1*
X2214530Y3336037D1*
X2209892Y3342421D1*
X2206308Y3349454D1*
X2204837Y3353530D1*
X2202879Y3347948D1*
X2199016Y3340365D1*
X2194014Y3333480D1*
X2187996Y3327462D1*
X2181112Y3322461D1*
X2173529Y3318597D1*
X2165436Y3315967D1*
X2157030Y3314635D1*
X2148521D1*
X2140115Y3315967D1*
X2136097Y3317100D1*
X2048131Y3229226D1*
X2043302Y3226000D1*
X2037854Y3223990D1*
X2032087Y3223307D1*
X1897198D1*
X1895320Y3221499D1*
X1895319Y3151591D1*
X1905134Y3150327D1*
X1905138Y3158201D1*
X2025413D1*
Y3006429D1*
X1905138D1*
Y3014287D1*
X1899930Y3014303D1*
X1896339Y3011315D1*
X1891486Y3008341D1*
X1886228Y3006164D1*
X1880694Y3004835D1*
X1875021Y3004388D1*
X1869348Y3004835D1*
X1863814Y3006164D1*
X1858556Y3008341D1*
X1853703Y3011315D1*
X1848598Y3015853D1*
X1844316Y3012777D1*
X1839245Y3010194D1*
X1833832Y3008436D1*
X1828211Y3007545D1*
X1822755Y3007535D1*
X1822760Y2978378D1*
X1832180Y2977098D1*
X1905133D1*
X1905138Y2984972D1*
X2025413D1*
Y2746587D1*
X1905138D1*
Y2754445D1*
X1878759Y2754461D1*
X1877480Y2745045D1*
Y2650562D1*
X1882615Y2647273D1*
X1888673Y2642098D1*
X1893848Y2636041D1*
X1898010Y2629249D1*
X1901059Y2621888D1*
X1902919Y2614143D1*
X1903543Y2606201D1*
X1902919Y2598259D1*
X1901059Y2590513D1*
X1898010Y2583152D1*
X1893848Y2576361D1*
X1888673Y2570303D1*
X1882615Y2565129D1*
X1875824Y2560966D1*
X1868463Y2557917D1*
X1860718Y2556058D1*
X1852776Y2555433D1*
X1844833Y2556058D1*
X1837088Y2557917D1*
X1829727Y2560966D1*
X1822936Y2565129D1*
X1816878Y2570303D1*
X1811703Y2576361D1*
X1807541Y2583152D1*
X1804492Y2590513D1*
X1802633Y2598259D1*
X1802008Y2606201D1*
X1802633Y2614143D1*
X1804492Y2621888D1*
X1807541Y2629249D1*
X1811703Y2636041D1*
X1816878Y2642098D1*
X1822936Y2647273D1*
X1828084Y2650514D1*
X1828147Y2765356D1*
X1829280Y2771051D1*
X1831711Y2776325D1*
X1835307Y2780886D1*
X1851060Y2796639D1*
X1845853Y2797768D1*
X1802684D1*
X1504739Y2499915D1*
X1499909Y2496689D1*
X1494462Y2494678D1*
X1488694Y2493996D1*
X1447105D1*
X1443848Y2488861D1*
X1438673Y2482803D1*
X1432615Y2477629D1*
X1425824Y2473466D1*
X1418463Y2470417D1*
X1410718Y2468558D1*
X1402776Y2467933D1*
X1394833Y2468558D1*
X1387088Y2470417D1*
X1379727Y2473466D1*
X1372936Y2477629D1*
X1366878Y2482803D1*
X1361703Y2488861D1*
X1357541Y2495652D1*
X1354492Y2503013D1*
X1352633Y2510759D1*
X1352008Y2518701D1*
X1352633Y2526643D1*
X1354492Y2534388D1*
X1357541Y2541749D1*
X1361703Y2548541D1*
X1366878Y2554598D1*
X1372936Y2559773D1*
X1379727Y2563936D1*
X1387088Y2566984D1*
X1394833Y2568844D1*
X1402776Y2569469D1*
X1410718Y2568844D1*
X1418463Y2566984D1*
X1422444Y2565493D1*
X1416878Y2570303D1*
X1411703Y2576361D1*
X1407541Y2583152D1*
X1404492Y2590513D1*
X1402633Y2598259D1*
X1402008Y2606201D1*
X1402633Y2614143D1*
X1404492Y2621888D1*
X1407541Y2629249D1*
X1411703Y2636041D1*
X1416878Y2642098D1*
X1422483Y2646916D1*
X1414627Y2644336D1*
X1406759Y2643089D1*
X1398793D1*
X1390924Y2644336D1*
X1383348Y2646798D1*
X1376249Y2650415D1*
X1369804Y2655097D1*
X1364172Y2660730D1*
X1359490Y2667175D1*
X1355873Y2674273D1*
X1353411Y2681849D1*
X1352164Y2689718D1*
Y2697684D1*
X1353411Y2705552D1*
X1355873Y2713129D1*
X1359490Y2720227D1*
X1364172Y2726672D1*
X1369804Y2732304D1*
X1376249Y2736987D1*
X1383348Y2740604D1*
X1390924Y2743066D1*
X1398793Y2744312D1*
X1406759D1*
X1414627Y2743066D1*
X1422203Y2740604D1*
X1429302Y2736987D1*
X1435747Y2732304D1*
X1441379Y2726672D1*
X1446062Y2720227D1*
X1449678Y2713129D1*
X1452140Y2705552D1*
X1453387Y2697684D1*
Y2689718D1*
X1452140Y2681849D1*
X1449678Y2674273D1*
X1446062Y2667175D1*
X1441379Y2660730D1*
X1435747Y2655097D1*
X1433348Y2653104D1*
X1440924Y2655566D1*
X1448793Y2656812D1*
X1456759D1*
X1464627Y2655566D1*
X1472203Y2653104D1*
X1479302Y2649487D1*
X1485747Y2644804D1*
X1491379Y2639172D1*
X1496062Y2632727D1*
X1499678Y2625629D1*
X1502140Y2618052D1*
X1503387Y2610184D1*
Y2602218D1*
X1502140Y2594349D1*
X1499678Y2586773D1*
X1496062Y2579675D1*
X1491379Y2573230D1*
X1485747Y2567597D1*
X1479302Y2562915D1*
X1472203Y2559298D1*
X1464627Y2556836D1*
X1456759Y2555589D1*
X1448793D1*
X1440924Y2556836D1*
X1433108Y2559408D1*
X1438673Y2554598D1*
X1443848Y2548541D1*
X1447089Y2543392D1*
X1477810Y2543406D1*
X1525123Y2590749D1*
X1525104Y3322043D1*
X1517555Y3327462D1*
X1511537Y3333480D1*
X1506535Y3340365D1*
X1502776Y3347720D1*
X1499016Y3340365D1*
X1494014Y3333480D1*
X1487996Y3327462D1*
X1481112Y3322461D1*
X1473529Y3318597D1*
X1465436Y3315967D1*
X1457030Y3314635D1*
X1448521D1*
X1440115Y3315967D1*
X1432022Y3318597D1*
X1424440Y3322461D1*
X1417555Y3327462D1*
X1411537Y3333480D1*
X1406535Y3340365D1*
X1402776Y3347720D1*
X1399016Y3340365D1*
X1394014Y3333480D1*
X1387996Y3327462D1*
X1381112Y3322461D1*
X1377469Y3320420D1*
X1377480Y3250247D1*
X1383348Y3253104D1*
X1390924Y3255566D1*
X1398793Y3256812D1*
X1406759D1*
X1414627Y3255566D1*
X1422203Y3253104D1*
X1429302Y3249487D1*
X1435747Y3244804D1*
X1441379Y3239172D1*
X1446062Y3232727D1*
X1449678Y3225629D1*
X1452140Y3218052D1*
X1453387Y3210184D1*
Y3202218D1*
X1452140Y3194349D1*
X1449678Y3186773D1*
X1446062Y3179675D1*
X1441379Y3173230D1*
X1435747Y3167597D1*
X1429302Y3162915D1*
X1422203Y3159298D1*
X1414627Y3156836D1*
X1406759Y3155589D1*
X1398793D1*
X1390924Y3156836D1*
X1383348Y3159298D1*
X1377486Y3162222D1*
X1377480Y3087692D1*
X1383348Y3090604D1*
X1390924Y3093066D1*
X1398793Y3094312D1*
X1406759D1*
X1414627Y3093066D1*
X1422203Y3090604D1*
X1429302Y3086987D1*
X1435747Y3082304D1*
X1441379Y3076672D1*
X1446062Y3070227D1*
X1449678Y3063129D1*
X1452140Y3055552D1*
X1453387Y3047684D1*
Y3039718D1*
X1452140Y3031849D1*
X1449678Y3024273D1*
X1446062Y3017175D1*
X1441379Y3010730D1*
X1435747Y3005097D1*
X1429302Y3000415D1*
X1422203Y2996798D1*
X1414627Y2994336D1*
X1406759Y2993089D1*
X1398793D1*
X1390924Y2994336D1*
X1383348Y2996798D1*
X1377486Y2999722D1*
X1377480Y2928940D1*
X1388895Y2917520D1*
X1394833Y2918844D1*
X1402776Y2919469D1*
X1410718Y2918844D1*
X1418463Y2916984D1*
X1425824Y2913936D1*
X1432615Y2909773D1*
X1438673Y2904598D1*
X1443848Y2898541D1*
X1448010Y2891749D1*
X1451059Y2884388D1*
X1452919Y2876643D1*
X1453543Y2868701D1*
X1453387Y2864718D1*
X577841Y3679364D2*
X577068Y3672062D1*
X575280Y3664940D1*
X572510Y3658139D1*
X568816Y3651794D1*
X564268Y3646029D1*
X558957Y3640958D1*
X552987Y3636681D1*
X546478Y3633283D1*
X539556Y3630832D1*
X532360Y3629374D1*
X525029Y3628940D1*
X517710Y3629538D1*
X510547Y3631155D1*
X503682Y3633760D1*
X497249Y3637302D1*
X491377Y3641710D1*
X486180Y3646898D1*
X481761Y3652762D1*
X478209Y3659188D1*
X475591Y3666049D1*
X473961Y3673209D1*
X473350Y3680526D1*
X473772Y3687857D1*
X475217Y3695056D1*
X477656Y3701983D1*
X481042Y3708499D1*
X485307Y3714475D1*
X490369Y3719795D1*
X496126Y3724354D1*
X502465Y3728060D1*
X509261Y3730841D1*
X516379Y3732643D1*
X523680Y3733429D1*
X531020Y3733184D1*
X538252Y3731913D1*
X545234Y3729640D1*
X551829Y3726412D1*
X557907Y3722291D1*
X563348Y3717360D1*
X568042Y3711714D1*
X571900Y3705465D1*
X574844Y3698738D1*
X576816Y3691665D1*
X577777Y3684385D1*
X577841Y3679364D1*
X2467378Y3677100D2*
X2466096Y3669000D1*
X2463562Y3661201D1*
X2459837Y3653892D1*
X2455017Y3647259D1*
X2449218Y3641459D1*
X2442584Y3636639D1*
X2435276Y3632915D1*
X2427476Y3630381D1*
X2419377Y3629098D1*
X2411175D1*
X2403075Y3630381D1*
X2395276Y3632915D1*
X2387967Y3636639D1*
X2381333Y3641459D1*
X2375534Y3647259D1*
X2370714Y3653892D1*
X2366990Y3661201D1*
X2364455Y3669000D1*
X2363173Y3677100D1*
Y3685302D1*
X2364455Y3693402D1*
X2366990Y3701201D1*
X2370714Y3708509D1*
X2375534Y3715143D1*
X2381333Y3720942D1*
X2387967Y3725762D1*
X2395276Y3729487D1*
X2403075Y3732021D1*
X2411175Y3733303D1*
X2419377D1*
X2427476Y3732021D1*
X2435276Y3729487D1*
X2442584Y3725762D1*
X2449218Y3720942D1*
X2455017Y3715143D1*
X2459837Y3708509D1*
X2463562Y3701201D1*
X2466096Y3693402D1*
X2467378Y3685302D1*
Y3677100D1*
X2290341Y3679364D2*
X2289568Y3672062D1*
X2287780Y3664940D1*
X2285010Y3658139D1*
X2281316Y3651794D1*
X2276768Y3646029D1*
X2271457Y3640958D1*
X2265487Y3636681D1*
X2258978Y3633283D1*
X2252056Y3630832D1*
X2244860Y3629374D1*
X2237529Y3628940D1*
X2230210Y3629538D1*
X2223047Y3631155D1*
X2216182Y3633760D1*
X2209749Y3637302D1*
X2203877Y3641710D1*
X2198680Y3646898D1*
X2194261Y3652762D1*
X2190709Y3659188D1*
X2188091Y3666049D1*
X2186461Y3673209D1*
X2185850Y3680526D1*
X2186272Y3687857D1*
X2187717Y3695056D1*
X2190156Y3701983D1*
X2193542Y3708499D1*
X2197807Y3714475D1*
X2202869Y3719795D1*
X2208626Y3724354D1*
X2214965Y3728060D1*
X2221761Y3730841D1*
X2228879Y3732643D1*
X2236180Y3733429D1*
X2243520Y3733184D1*
X2250752Y3731913D1*
X2257734Y3729640D1*
X2264329Y3726412D1*
X2270407Y3722291D1*
X2275848Y3717360D1*
X2280542Y3711714D1*
X2284400Y3705465D1*
X2287344Y3698738D1*
X2289316Y3691665D1*
X2290277Y3684385D1*
X2290341Y3679364D1*
X2242963Y3578521D2*
X2241631Y3570115D1*
X2239001Y3562022D1*
X2235138Y3554440D1*
X2230136Y3547555D1*
X2224118Y3541537D1*
X2217234Y3536535D1*
X2209651Y3532672D1*
X2201558Y3530042D1*
X2193152Y3528710D1*
X2184643D1*
X2176238Y3530042D1*
X2168144Y3532672D1*
X2160562Y3536535D1*
X2153677Y3541537D1*
X2147659Y3547555D1*
X2142657Y3554440D1*
X2138794Y3562022D1*
X2136164Y3570115D1*
X2134832Y3578521D1*
Y3587030D1*
X2136164Y3595436D1*
X2138794Y3603529D1*
X2142657Y3611112D1*
X2147659Y3617996D1*
X2153677Y3624014D1*
X2160562Y3629016D1*
X2168144Y3632879D1*
X2176238Y3635509D1*
X2184643Y3636841D1*
X2193152D1*
X2201558Y3635509D1*
X2209651Y3632879D1*
X2217234Y3629016D1*
X2224118Y3624014D1*
X2230136Y3617996D1*
X2235138Y3611112D1*
X2239001Y3603529D1*
X2241631Y3595436D1*
X2242963Y3587030D1*
Y3578521D1*
X2439105Y3055534D2*
X2437587Y3045949D1*
X2434588Y3036719D1*
X2430182Y3028072D1*
X2424478Y3020222D1*
X2417615Y3013360D1*
X2409765Y3007655D1*
X2401118Y3003249D1*
X2391888Y3000251D1*
X2382303Y2998732D1*
X2372600D1*
X2363014Y3000251D1*
X2353785Y3003249D1*
X2345138Y3007655D1*
X2337287Y3013360D1*
X2330425Y3020222D1*
X2324720Y3028072D1*
X2320315Y3036719D1*
X2317316Y3045949D1*
X2315798Y3055534D1*
Y3065238D1*
X2317316Y3074823D1*
X2320315Y3084052D1*
X2324720Y3092699D1*
X2330425Y3100550D1*
X2337287Y3107412D1*
X2345138Y3113117D1*
X2353785Y3117522D1*
X2363014Y3120521D1*
X2372600Y3122039D1*
X2382303D1*
X2391888Y3120521D1*
X2401118Y3117522D1*
X2409765Y3113117D1*
X2417615Y3107412D1*
X2424478Y3100550D1*
X2430182Y3092699D1*
X2434588Y3084052D1*
X2437587Y3074823D1*
X2439105Y3065238D1*
Y3055534D1*
Y2741085D2*
X2437587Y2731500D1*
X2434588Y2722270D1*
X2430182Y2713623D1*
X2424478Y2705773D1*
X2417615Y2698911D1*
X2409765Y2693206D1*
X2401118Y2688801D1*
X2391888Y2685802D1*
X2382303Y2684283D1*
X2372600D1*
X2363014Y2685802D1*
X2353785Y2688801D1*
X2345138Y2693206D1*
X2337287Y2698911D1*
X2330425Y2705773D1*
X2324720Y2713623D1*
X2320315Y2722270D1*
X2317316Y2731500D1*
X2315798Y2741085D1*
Y2750789D1*
X2317316Y2760374D1*
X2320315Y2769604D1*
X2324720Y2778251D1*
X2330425Y2786101D1*
X2337287Y2792963D1*
X2345138Y2798668D1*
X2353785Y2803073D1*
X2363014Y2806072D1*
X2372600Y2807591D1*
X2382303D1*
X2391888Y2806072D1*
X2401118Y2803073D1*
X2409765Y2798668D1*
X2417615Y2792963D1*
X2424478Y2786101D1*
X2430182Y2778251D1*
X2434588Y2769604D1*
X2437587Y2760374D1*
X2439105Y2750789D1*
Y2741085D1*
X506203Y1463421D2*
X505126Y1456959D1*
X502688Y1449454D1*
X499104Y1442421D1*
X494466Y1436037D1*
X488885Y1430455D1*
X482500Y1425818D1*
X475467Y1422234D1*
X467962Y1419795D1*
X460167Y1418560D1*
X452274D1*
X444479Y1419795D1*
X436974Y1422234D1*
X429941Y1425818D1*
X427773Y1427265D1*
X430488Y1421738D1*
X856030Y1033070D1*
X857663Y1030626D1*
X858680Y1027869D1*
X859026Y1024951D1*
Y718680D1*
X990601Y718701D1*
X990647Y1429694D1*
X990877Y1431629D1*
X985783Y1428010D1*
X979054Y1423887D1*
X971762Y1420867D1*
X964088Y1419025D1*
X956220Y1418406D1*
X948353Y1419025D1*
X940678Y1420867D1*
X933387Y1423887D1*
X926657Y1428010D1*
X920656Y1433136D1*
X915530Y1439138D1*
X911407Y1445867D1*
X908387Y1453159D1*
X906545Y1460833D1*
X906238Y1463421D1*
X905126Y1456959D1*
X902688Y1449454D1*
X899104Y1442421D1*
X894466Y1436037D1*
X888885Y1430455D1*
X882500Y1425818D1*
X875467Y1422234D1*
X867962Y1419795D1*
X860167Y1418560D1*
X852274D1*
X844479Y1419795D1*
X836974Y1422234D1*
X829941Y1425818D1*
X823556Y1430455D1*
X817975Y1436037D1*
X813337Y1442421D1*
X809753Y1449454D1*
X807315Y1456959D1*
X806238Y1463421D1*
X805126Y1456959D1*
X802688Y1449454D1*
X799104Y1442421D1*
X794466Y1436037D1*
X788885Y1430455D1*
X782500Y1425818D1*
X775467Y1422234D1*
X767962Y1419795D1*
X760167Y1418560D1*
X752274D1*
X744479Y1419795D1*
X736974Y1422234D1*
X729941Y1425818D1*
X723556Y1430455D1*
X717975Y1436037D1*
X713337Y1442421D1*
X709753Y1449454D1*
X707315Y1456959D1*
X706238Y1463421D1*
X705126Y1456959D1*
X702688Y1449454D1*
X699104Y1442421D1*
X694466Y1436037D1*
X688885Y1430455D1*
X682500Y1425818D1*
X675467Y1422234D1*
X667962Y1419795D1*
X660167Y1418560D1*
X652274D1*
X644479Y1419795D1*
X636974Y1422234D1*
X629941Y1425818D1*
X623556Y1430455D1*
X617975Y1436037D1*
X613337Y1442421D1*
X609753Y1449454D1*
X607315Y1456959D1*
X606238Y1463421D1*
X605126Y1456959D1*
X602688Y1449454D1*
X599104Y1442421D1*
X594466Y1436037D1*
X588885Y1430455D1*
X582500Y1425818D1*
X575467Y1422234D1*
X567962Y1419795D1*
X560167Y1418560D1*
X552274D1*
X544479Y1419795D1*
X536974Y1422234D1*
X529941Y1425818D1*
X523556Y1430455D1*
X517975Y1436037D1*
X513337Y1442421D1*
X509753Y1449454D1*
X507315Y1456959D1*
X506238Y1463421D1*
X789236Y1506621D2*
X794466Y1501365D1*
X799104Y1494980D1*
X802688Y1487948D1*
X805126Y1480442D1*
X806203Y1473980D1*
X807315Y1480442D1*
X809753Y1487948D1*
X813337Y1494980D1*
X817975Y1501365D1*
X823556Y1506946D1*
X829941Y1511584D1*
X836974Y1515168D1*
X844479Y1517606D1*
X852274Y1518841D1*
X860167D1*
X867962Y1517606D1*
X869698Y1517117D1*
X898000Y1545417D1*
X827531Y1545478D1*
X821836Y1546610D1*
X816562Y1549042D1*
X812001Y1552638D1*
X785042Y1579703D1*
X781816Y1584533D1*
X781001Y1586301D1*
X780925Y1548156D1*
X785562Y1542920D1*
X788535Y1538067D1*
X790713Y1532810D1*
X792042Y1527276D1*
X792488Y1521602D1*
X792042Y1515929D1*
X790713Y1510395D1*
X789230Y1506642D1*
X904636Y1482178D2*
X905896Y1476568D1*
X906203Y1473980D1*
X907315Y1480442D1*
X909374Y1486920D1*
X904663Y1482206D1*
X1006203Y1463421D2*
X1005126Y1456959D1*
X1003067Y1450482D1*
X1007778Y1455197D1*
X1006545Y1460833D1*
X1005896Y1476568D1*
X1006203Y1473980D1*
X1007315Y1480442D1*
X1009374Y1486920D1*
X1005126Y1480442D1*
X1005896Y1476568D1*
X938001Y1515547D2*
X944479Y1517606D1*
X952274Y1518841D1*
X960167D1*
X967962Y1517606D1*
X969698Y1517117D1*
X982217Y1529635D1*
X952142Y1529651D1*
X938055Y1515598D1*
X1081194Y1425085D2*
X1075467Y1422234D1*
X1067962Y1419795D1*
X1060167Y1418560D1*
X1052274D1*
X1044479Y1419795D1*
X1042743Y1420285D1*
X1039967Y1417510D1*
X1039980Y718720D1*
X1081172Y718701D1*
X1081194Y1425052D1*
X1190572Y1432016D2*
X1185783Y1428010D1*
X1179054Y1423887D1*
X1171762Y1420867D1*
X1164088Y1419025D1*
X1156220Y1418406D1*
X1148353Y1419025D1*
X1140678Y1420867D1*
X1133387Y1423887D1*
X1130601Y1425448D1*
X1130604Y718707D1*
X1190547Y718701D1*
X1190571Y1431942D1*
X1127543Y1509982D2*
X1133387Y1513514D1*
X1140678Y1516534D1*
X1148353Y1518377D1*
X1156220Y1518996D1*
X1158832Y1519097D1*
X1148302Y1529627D1*
X1109293Y1529621D1*
X1124685Y1514121D1*
X1126967Y1510978D1*
X1306220Y1463264D2*
X1304881Y1455979D1*
X1303828Y1452482D1*
X1307315Y1456959D1*
X1306238Y1463421D1*
X1306219Y1474142D1*
X1307315Y1480442D1*
X1309753Y1487948D1*
X1313337Y1494980D1*
X1317975Y1501365D1*
X1323556Y1506946D1*
X1327928Y1510239D1*
X1284597Y1510236D1*
X1289781Y1506161D1*
X1294878Y1500877D1*
X1299150Y1494904D1*
X1302508Y1488375D1*
X1304879Y1481427D1*
X1306214Y1474206D1*
X1272440Y1421093D2*
X1265357Y1419243D1*
X1258058Y1418440D1*
X1250720Y1418707D1*
X1243500Y1420041D1*
X1239975Y1421101D1*
X1239980Y1398228D1*
X1243888Y1399098D1*
X1249562Y1399545D1*
X1250840Y1399495D1*
X1272463Y1421115D1*
X1406203Y1463421D2*
X1405126Y1456959D1*
X1403194Y1450828D1*
X1407748Y1455386D1*
X1406545Y1460833D1*
X1405896Y1476568D1*
X1406203Y1473980D1*
X1407315Y1480442D1*
X1409753Y1487948D1*
X1413337Y1494980D1*
X1417975Y1501365D1*
X1423556Y1506946D1*
X1427928Y1510239D1*
X1384570Y1510236D1*
X1388885Y1506946D1*
X1394466Y1501365D1*
X1399104Y1494980D1*
X1402688Y1487948D1*
X1405126Y1480442D1*
X1405896Y1476568D1*
X1374093Y1421727D2*
X1367962Y1419795D1*
X1360167Y1418560D1*
X1352274D1*
X1344479Y1419795D1*
X1341791Y1420552D1*
X1285802Y1364580D1*
X1285383Y1357604D1*
X1284054Y1352070D1*
X1281877Y1346812D1*
X1278903Y1341959D1*
X1275207Y1337631D1*
X1270879Y1333936D1*
X1266026Y1330962D1*
X1260769Y1328785D1*
X1255235Y1327455D1*
X1249562Y1327009D1*
X1243888Y1327455D1*
X1239971Y1328328D1*
X1239980Y1300768D1*
X1246619Y1303050D1*
X1252240Y1303941D1*
X1256364Y1304003D1*
X1374001Y1421639D1*
X1606203Y1463421D2*
X1605126Y1456959D1*
X1602688Y1449454D1*
X1599104Y1442421D1*
X1594466Y1436037D1*
X1588885Y1430455D1*
X1582500Y1425818D1*
X1575467Y1422234D1*
X1567962Y1419795D1*
X1560167Y1418560D1*
X1552274D1*
X1544479Y1419795D1*
X1542148Y1420453D1*
X1392678Y1271000D1*
X1392609Y1266867D1*
X1391718Y1261247D1*
X1389959Y1255833D1*
X1387377Y1250762D1*
X1384031Y1246159D1*
X1380007Y1242134D1*
X1375403Y1238789D1*
X1370332Y1236206D1*
X1364919Y1234448D1*
X1359298Y1233556D1*
X1353608D1*
X1347987Y1234448D1*
X1342573Y1236206D1*
X1339764Y1237522D1*
X1339769Y894983D1*
X1344406Y889769D1*
X1347379Y884916D1*
X1349556Y879659D1*
X1350886Y874125D1*
X1351332Y868451D1*
X1350886Y862778D1*
X1349556Y857244D1*
X1347379Y851987D1*
X1344406Y847134D1*
X1340710Y842806D1*
X1336382Y839110D1*
X1331529Y836136D1*
X1326272Y833959D1*
X1320738Y832630D1*
X1315064Y832184D1*
X1309391Y832630D1*
X1303857Y833959D1*
X1298600Y836136D1*
X1293747Y839110D1*
X1289419Y842806D1*
X1285723Y847134D1*
X1282749Y851987D1*
X1280572Y857244D1*
X1279243Y862778D1*
X1278797Y868451D1*
X1279243Y874125D1*
X1280572Y879659D1*
X1282749Y884916D1*
X1285723Y889769D1*
X1289419Y894097D1*
X1290358Y894965D1*
X1290350Y1259319D1*
X1288592Y1253906D1*
X1286009Y1248835D1*
X1282664Y1244231D1*
X1278639Y1240206D1*
X1274035Y1236861D1*
X1268965Y1234278D1*
X1263551Y1232520D1*
X1257930Y1231629D1*
X1252240D1*
X1246619Y1232520D1*
X1241206Y1234278D1*
X1239984Y1234841D1*
X1239980Y718726D1*
X1290592Y718701D1*
X1290647Y740919D1*
X1291780Y746614D1*
X1294211Y751888D1*
X1297812Y756454D1*
X1359034Y817677D1*
X1359135Y1189584D1*
X1360268Y1195280D1*
X1362699Y1200554D1*
X1366301Y1205119D1*
X1383467Y1222180D1*
X1388297Y1225406D1*
X1393744Y1227416D1*
X1399520Y1228098D1*
X1579783Y1228323D1*
X1576088Y1232651D1*
X1573114Y1237504D1*
X1570937Y1242761D1*
X1569608Y1248295D1*
X1569161Y1253969D1*
X1569608Y1259642D1*
X1570937Y1265176D1*
X1573114Y1270433D1*
X1576088Y1275286D1*
X1579783Y1279614D1*
X1584112Y1283310D1*
X1588965Y1286283D1*
X1594222Y1288461D1*
X1599756Y1289790D1*
X1605429Y1290236D1*
X1611102Y1289790D1*
X1616636Y1288461D1*
X1621894Y1286283D1*
X1626747Y1283310D1*
X1631075Y1279614D1*
X1631942Y1278675D1*
X1716060Y1278673D1*
X1719033Y1281547D1*
X1723636Y1284892D1*
X1728707Y1287475D1*
X1734121Y1289234D1*
X1739741Y1290125D1*
X1742176Y1290220D1*
X1743693Y1297038D1*
X1745870Y1302295D1*
X1748844Y1307148D1*
X1752539Y1311476D1*
X1756867Y1315172D1*
X1761720Y1318146D1*
X1766978Y1320323D1*
X1772512Y1321652D1*
X1778185Y1322098D1*
X1780797Y1321996D1*
X1780791Y1424835D1*
X1775467Y1422234D1*
X1767962Y1419795D1*
X1760167Y1418560D1*
X1752274D1*
X1744479Y1419795D1*
X1736974Y1422234D1*
X1729941Y1425818D1*
X1723556Y1430455D1*
X1717975Y1436037D1*
X1713337Y1442421D1*
X1709753Y1449454D1*
X1707315Y1456959D1*
X1706238Y1463421D1*
X1705126Y1456959D1*
X1702688Y1449454D1*
X1699104Y1442421D1*
X1694466Y1436037D1*
X1688885Y1430455D1*
X1682500Y1425818D1*
X1675467Y1422234D1*
X1667962Y1419795D1*
X1660167Y1418560D1*
X1652274D1*
X1644479Y1419795D1*
X1636974Y1422234D1*
X1629941Y1425818D1*
X1623556Y1430455D1*
X1617975Y1436037D1*
X1613337Y1442421D1*
X1609753Y1449454D1*
X1607315Y1456959D1*
X1606238Y1463421D1*
X1605896Y1476568D1*
X1606203Y1473980D1*
X1607315Y1480442D1*
X1607804Y1482178D1*
X1603101Y1486882D1*
X1605126Y1480442D1*
X1605896Y1476568D1*
X1703067Y1486920D2*
X1705126Y1480442D1*
X1706203Y1473980D1*
X1707315Y1480442D1*
X1707804Y1482178D1*
X1703101Y1486882D1*
X1742743Y1517117D2*
X1748353Y1518377D1*
X1756220Y1518996D1*
X1764088Y1518377D1*
X1771762Y1516534D1*
X1779054Y1513514D1*
X1780790Y1512542D1*
X1780791Y1524736D1*
X1771375Y1525984D1*
X1733877D1*
X1742694Y1517165D1*
X1878619Y1423677D2*
X1872461Y1421100D1*
X1865357Y1419243D1*
X1858058Y1418440D1*
X1850720Y1418707D1*
X1843500Y1420041D1*
X1836551Y1422411D1*
X1830201Y1425663D1*
Y1308619D1*
X1833732Y1312105D1*
X1838336Y1315450D1*
X1843407Y1318033D1*
X1848820Y1319791D1*
X1854441Y1320682D1*
X1858564Y1320744D1*
X1878614Y1340791D1*
X1878618Y1423682D1*
X1972854Y1425463D2*
X1967042Y1423623D1*
X1959858Y1422486D1*
X1952583D1*
X1945399Y1423623D1*
X1938480Y1425871D1*
X1931999Y1429173D1*
X1928022Y1431945D1*
X1927951Y1328625D1*
X1926819Y1322929D1*
X1924387Y1317655D1*
X1920791Y1313094D1*
X1893514Y1285818D1*
X1893442Y1281681D1*
X1892551Y1276060D1*
X1890793Y1270647D1*
X1888210Y1265576D1*
X1884865Y1260972D1*
X1880840Y1256948D1*
X1876236Y1253602D1*
X1871165Y1251020D1*
X1865752Y1249261D1*
X1860131Y1248370D1*
X1854441D1*
X1848820Y1249261D1*
X1843407Y1251020D1*
X1838336Y1253602D1*
X1833732Y1256948D1*
X1830198Y1260441D1*
X1830125Y1201455D1*
X1829516Y1197619D1*
X1834173Y1196602D1*
X1971573D1*
X1972858Y1206018D1*
Y1425450D1*
X1928022Y1505457D2*
X1931999Y1508228D1*
X1938480Y1511530D1*
X1945399Y1513778D1*
X1952583Y1514916D1*
X1959858D1*
X1967042Y1513778D1*
X1972854Y1511938D1*
X1972858Y2007707D1*
X1937434Y2043266D1*
X1935152Y2046409D1*
X1934247Y2046995D1*
X1930902Y2042391D1*
X1928029Y2039432D1*
X1928028Y1505470D1*
X2072854Y1425463D2*
X2067042Y1423623D1*
X2059858Y1422486D1*
X2052583D1*
X2045399Y1423623D1*
X2038028Y1426080D1*
X2037940Y1148609D1*
X2036807Y1142913D1*
X2034375Y1137639D1*
X2030780Y1133079D1*
X1939967Y1042265D1*
X1939980Y718681D1*
X1990550Y718701D1*
X1990647Y1040214D1*
X1991780Y1045909D1*
X1994211Y1051184D1*
X1997812Y1055749D1*
X2072837Y1130776D1*
X2072858Y1425399D1*
X2038028Y1511322D2*
X2045399Y1513778D1*
X2052583Y1514916D1*
X2059858D1*
X2067042Y1513778D1*
X2072854Y1511938D1*
X2072858Y2121265D1*
X2067962Y2119795D1*
X2060167Y2118560D1*
X2052274D1*
X2044479Y2119795D1*
X2036974Y2122234D1*
X2029941Y2125818D1*
X2023556Y2130455D1*
X2017975Y2136037D1*
X2013337Y2142421D1*
X2009753Y2149454D1*
X2007315Y2156959D1*
X2006238Y2163421D1*
X2005126Y2156959D1*
X2002688Y2149454D1*
X1999104Y2142421D1*
X1994466Y2136037D1*
X1988885Y2130455D1*
X1982500Y2125818D1*
X1980925Y2124936D1*
X1980996Y2109720D1*
X1983970Y2114573D1*
X1987665Y2118902D1*
X1991993Y2122597D1*
X1996846Y2125571D1*
X2002104Y2127748D1*
X2007638Y2129077D1*
X2013311Y2129524D1*
X2018984Y2129077D1*
X2024518Y2127748D1*
X2029776Y2125571D1*
X2034629Y2122597D1*
X2038957Y2118902D1*
X2042652Y2114573D1*
X2045626Y2109720D1*
X2047803Y2104463D1*
X2049133Y2098929D1*
X2049579Y2093256D1*
X2049133Y2087583D1*
X2047803Y2082049D1*
X2045626Y2076791D1*
X2042652Y2071938D1*
X2038957Y2067610D1*
X2038017Y2066743D1*
X2038016Y1511322D1*
X2204904Y1481322D2*
X2206219Y1474142D1*
X2206854Y1478127D1*
X2205811Y1479727D1*
X2306238Y2173980D2*
X2307315Y2180442D1*
X2307804Y2182178D1*
X2303101Y2186882D1*
X2305126Y2180442D1*
X2306203Y2173980D1*
X2206238D2*
X2207315Y2180442D1*
X2207804Y2182178D1*
X2203101Y2186882D1*
X2205126Y2180442D1*
X2206203Y2173980D1*
X2242743Y2217117D2*
X2248353Y2218377D1*
X2256220Y2218996D1*
X2264088Y2218377D1*
X2271762Y2216534D1*
X2274440Y2215547D1*
X2257428Y2232555D1*
X2227268Y2232579D1*
X2242697Y2217163D1*
X2122276Y2205762D2*
X2126657Y2209391D1*
X2133387Y2213514D1*
X2140678Y2216534D1*
X2141732Y2216832D1*
X2121343Y2216831D1*
X2122192Y2211978D1*
X2122268Y2205841D1*
X2170709Y2216832D2*
X2174440Y2215547D1*
X2173160Y2216824D1*
X2006238Y2173980D2*
X2007315Y2180442D1*
X2007804Y2182178D1*
X2004623Y2185360D1*
X2004054Y2184243D1*
X2005896Y2176568D1*
X2006203Y2173980D1*
X1906238D2*
X1907315Y2180442D1*
X1908787Y2185328D1*
X1903677Y2185335D1*
X1905311Y2179640D1*
X1906219Y2174142D1*
X1806220Y2174135D2*
X1807560Y2181420D1*
X1808762Y2185336D1*
X1804054Y2184243D1*
X1805896Y2176568D1*
X1806203Y2173980D1*
X1631516Y2124936D2*
X1626657Y2128010D1*
X1620656Y2133136D1*
X1615530Y2139138D1*
X1611407Y2145867D1*
X1608387Y2153159D1*
X1606545Y2160833D1*
X1606238Y2163421D1*
X1605126Y2156959D1*
X1602688Y2149454D1*
X1599104Y2142421D1*
X1594466Y2136037D1*
X1588885Y2130455D1*
X1582500Y2125818D1*
X1575467Y2122234D1*
X1567962Y2119795D1*
X1560167Y2118560D1*
X1552274D1*
X1544479Y2119795D1*
X1536974Y2122234D1*
X1529941Y2125818D1*
X1523556Y2130455D1*
X1517975Y2136037D1*
X1513337Y2142421D1*
X1509753Y2149454D1*
X1507315Y2156959D1*
X1506238Y2163421D1*
X1505126Y2156959D1*
X1502688Y2149454D1*
X1499104Y2142421D1*
X1494466Y2136037D1*
X1488885Y2130455D1*
X1482500Y2125818D1*
X1475467Y2122234D1*
X1467962Y2119795D1*
X1460167Y2118560D1*
X1452274D1*
X1444479Y2119795D1*
X1436974Y2122234D1*
X1429941Y2125818D1*
X1423556Y2130455D1*
X1417975Y2136037D1*
X1413337Y2142421D1*
X1409753Y2149454D1*
X1407315Y2156959D1*
X1406238Y2163421D1*
X1405126Y2156959D1*
X1402688Y2149454D1*
X1399104Y2142421D1*
X1394466Y2136037D1*
X1388885Y2130455D1*
X1382500Y2125818D1*
X1375467Y2122234D1*
X1367962Y2119795D1*
X1360167Y2118560D1*
X1352274D1*
X1344479Y2119795D1*
X1336974Y2122234D1*
X1329941Y2125818D1*
X1323556Y2130455D1*
X1317975Y2136037D1*
X1313337Y2142421D1*
X1309753Y2149454D1*
X1307315Y2156959D1*
X1306238Y2163421D1*
X1305126Y2156959D1*
X1302688Y2149454D1*
X1299104Y2142421D1*
X1294466Y2136037D1*
X1288885Y2130455D1*
X1282500Y2125818D1*
X1280925Y2124936D1*
Y1871615D1*
X1283799Y1868648D1*
X1287144Y1864045D1*
X1289727Y1858974D1*
X1291486Y1853560D1*
X1292377Y1847940D1*
Y1842249D1*
X1291486Y1836629D1*
X1289727Y1831215D1*
X1287144Y1826144D1*
X1283799Y1821541D1*
X1279774Y1817516D1*
X1275171Y1814171D1*
X1270100Y1811588D1*
X1266282Y1810278D1*
X1289089Y1787471D1*
X1295247Y1790734D1*
X1300660Y1792492D1*
X1306281Y1793383D1*
X1311971D1*
X1317592Y1792492D1*
X1323005Y1790734D1*
X1328076Y1788151D1*
X1332680Y1784806D1*
X1336705Y1780781D1*
X1340050Y1776177D1*
X1342633Y1771106D1*
X1344391Y1765693D1*
X1345282Y1760072D1*
Y1754382D1*
X1344391Y1748761D1*
X1342633Y1743348D1*
X1340050Y1738277D1*
X1336987Y1734031D1*
X1641810Y1734030D1*
X1637270Y1736375D1*
X1632667Y1739720D1*
X1628642Y1743745D1*
X1625297Y1748349D1*
X1622714Y1753420D1*
X1620955Y1758833D1*
X1620064Y1764454D1*
Y1770144D1*
X1620955Y1775765D1*
X1622714Y1781178D1*
X1625297Y1786249D1*
X1628642Y1790853D1*
X1631514Y1793812D1*
X1631516Y2124885D1*
X1606238Y2173980D2*
X1607315Y2180442D1*
X1609753Y2187948D1*
X1613337Y2194980D1*
X1617756Y2201087D1*
X1594688Y2201083D1*
X1599104Y2194980D1*
X1602688Y2187948D1*
X1605126Y2180442D1*
X1606203Y2173980D1*
X1506238D2*
X1507315Y2180442D1*
X1509753Y2187948D1*
X1513337Y2194980D1*
X1517756Y2201087D1*
X1494714Y2201083D1*
X1499104Y2194980D1*
X1502688Y2187948D1*
X1505126Y2180442D1*
X1506203Y2173980D1*
X1406238D2*
X1407315Y2180442D1*
X1409374Y2186920D1*
X1404667Y2182209D1*
X1405896Y2176568D1*
X1406203Y2173980D1*
X1306238D2*
X1307315Y2180442D1*
X1309753Y2187948D1*
X1313337Y2194980D1*
X1317975Y2201365D1*
X1323556Y2206946D1*
X1329941Y2211584D1*
X1336974Y2215168D1*
X1341732Y2216832D1*
X1270815Y2216831D1*
X1275467Y2215168D1*
X1282500Y2211584D1*
X1288885Y2206946D1*
X1294466Y2201365D1*
X1299104Y2194980D1*
X1302688Y2187948D1*
X1305126Y2180442D1*
X1306203Y2173980D1*
X1231516Y2124936D2*
X1226657Y2128010D1*
X1220656Y2133136D1*
X1215530Y2139138D1*
X1211407Y2145867D1*
X1208387Y2153159D1*
X1206545Y2160833D1*
X1206238Y2163421D1*
X1205126Y2156959D1*
X1202688Y2149454D1*
X1199104Y2142421D1*
X1194466Y2136037D1*
X1188885Y2130455D1*
X1182500Y2125818D1*
X1175467Y2122234D1*
X1167962Y2119795D1*
X1160167Y2118560D1*
X1152274D1*
X1144479Y2119795D1*
X1136974Y2122234D1*
X1129941Y2125818D1*
X1123556Y2130455D1*
X1117975Y2136037D1*
X1113337Y2142421D1*
X1109753Y2149454D1*
X1107315Y2156959D1*
X1106238Y2163421D1*
X1105126Y2156959D1*
X1102688Y2149454D1*
X1099104Y2142421D1*
X1094466Y2136037D1*
X1088885Y2130455D1*
X1082500Y2125818D1*
X1080925Y2124936D1*
Y1995631D1*
X1221391Y1855169D1*
X1223906Y1861559D1*
X1226879Y1866412D1*
X1230575Y1870740D1*
X1231514Y1871608D1*
X1231516Y2124883D1*
X1206238Y2173980D2*
X1207315Y2180442D1*
X1209753Y2187948D1*
X1213337Y2194980D1*
X1217975Y2201365D1*
X1223556Y2206946D1*
X1229941Y2211584D1*
X1236974Y2215168D1*
X1241732Y2216832D1*
X1170841Y2216831D1*
X1179054Y2213514D1*
X1185783Y2209391D1*
X1191785Y2204265D1*
X1196911Y2198264D1*
X1201034Y2191534D1*
X1204054Y2184243D1*
X1205896Y2176568D1*
X1206203Y2173980D1*
X1106238D2*
X1107315Y2180442D1*
X1109753Y2187948D1*
X1113337Y2194980D1*
X1117975Y2201365D1*
X1123556Y2206946D1*
X1129941Y2211584D1*
X1136974Y2215168D1*
X1141732Y2216832D1*
X1070797Y2216831D1*
X1075467Y2215168D1*
X1082500Y2211584D1*
X1088885Y2206946D1*
X1094466Y2201365D1*
X1099104Y2194980D1*
X1102688Y2187948D1*
X1105126Y2180442D1*
X1106203Y2173980D1*
X1031516Y2124936D2*
X1026657Y2128010D1*
X1020656Y2133136D1*
X1015530Y2139138D1*
X1011407Y2145867D1*
X1008387Y2153159D1*
X1006545Y2160833D1*
X1006214Y2163199D1*
X1004881Y2155979D1*
X1002509Y2149030D1*
X999152Y2142500D1*
X994881Y2136529D1*
X989783Y2131243D1*
X983972Y2126755D1*
X977570Y2123161D1*
X970711Y2120538D1*
X963545Y2118942D1*
X956222Y2118406D1*
X948899Y2118941D1*
X941731Y2120538D1*
X934874Y2123160D1*
X928470Y2126753D1*
X922659Y2131241D1*
X917562Y2136528D1*
X913290Y2142499D1*
X909932Y2149029D1*
X907562Y2155978D1*
X906222Y2163262D1*
X905126Y2156959D1*
X902688Y2149454D1*
X899104Y2142421D1*
X894466Y2136037D1*
X888885Y2130455D1*
X882500Y2125818D1*
X880925Y2124936D1*
Y1832789D1*
X885562Y1827542D1*
X888535Y1822689D1*
X890713Y1817432D1*
X892042Y1811898D1*
X892488Y1806224D1*
X892042Y1800551D1*
X890713Y1795017D1*
X888535Y1789760D1*
X885562Y1784907D1*
X881866Y1780579D1*
X877538Y1776883D1*
X872685Y1773909D1*
X867428Y1771732D1*
X861894Y1770403D1*
X856220Y1769957D1*
X850547Y1770403D1*
X845013Y1771732D1*
X839756Y1773909D1*
X834903Y1776883D1*
X830575Y1780579D1*
X828539Y1782802D1*
X828533Y1606003D1*
X839693Y1594822D1*
X1193659Y1594811D1*
X1191150Y1598730D1*
X1189139Y1604177D1*
X1188457Y1609953D1*
X1188533Y1691946D1*
X1189665Y1697642D1*
X1192097Y1702916D1*
X1195698Y1707482D1*
X1216434Y1728112D1*
X1221264Y1731337D1*
X1226711Y1733348D1*
X1232487Y1734030D1*
X1275864D1*
X1271487Y1736163D1*
X1266927Y1739759D1*
X1037434Y1969357D1*
X1034209Y1974186D1*
X1032198Y1979634D1*
X1031516Y1985409D1*
Y2124883D1*
X1006238Y2173980D2*
X1007315Y2180442D1*
X1009753Y2187948D1*
X1013337Y2194980D1*
X1017975Y2201365D1*
X1023556Y2206946D1*
X1029941Y2211584D1*
X1036974Y2215168D1*
X1041732Y2216832D1*
X1011865Y2216907D1*
X1006169Y2218039D1*
X1000895Y2220471D1*
X996329Y2224072D1*
X979269Y2241239D1*
X976043Y2246068D1*
X974033Y2251516D1*
X973350Y2257291D1*
Y2322772D1*
X968318Y2320867D1*
X960643Y2319025D1*
X952776Y2318406D1*
X944908Y2319025D1*
X937234Y2320867D1*
X929942Y2323887D1*
X923213Y2328010D1*
X917211Y2333136D1*
X912085Y2339138D1*
X907962Y2345867D1*
X904942Y2353159D1*
X903100Y2360833D1*
X902793Y2363421D1*
X901681Y2356959D1*
X899243Y2349454D1*
X895659Y2342421D1*
X891021Y2336037D1*
X885440Y2330455D1*
X879055Y2325818D1*
X872022Y2322234D1*
X864517Y2319795D1*
X856722Y2318560D1*
X848829D1*
X841034Y2319795D1*
X833529Y2322234D1*
X828529Y2324678D1*
X828533Y2210723D1*
X833387Y2213514D1*
X840678Y2216534D1*
X848353Y2218377D1*
X856220Y2218996D1*
X864088Y2218377D1*
X871762Y2216534D1*
X879054Y2213514D1*
X885783Y2209391D1*
X891785Y2204265D1*
X896911Y2198264D1*
X901034Y2191534D1*
X904054Y2184243D1*
X905896Y2176568D1*
X906227Y2174199D1*
X907560Y2181420D1*
X909930Y2188369D1*
X913287Y2194899D1*
X917559Y2200871D1*
X922656Y2206157D1*
X928467Y2210646D1*
X934870Y2214239D1*
X941728Y2216862D1*
X948895Y2218459D1*
X956218Y2218996D1*
X963541Y2218461D1*
X970707Y2216865D1*
X977566Y2214241D1*
X983969Y2210648D1*
X989781Y2206161D1*
X994878Y2200877D1*
X999150Y2194904D1*
X1002508Y2188375D1*
X1004879Y2181427D1*
X1006219Y2174142D1*
X831516Y2124936D2*
X828543Y2126751D1*
X828642Y1829778D1*
X831514Y1832738D1*
X831516Y2124912D1*
X706238Y2173980D2*
X707315Y2180442D1*
X708290Y2183902D1*
X705126Y2180442D1*
X706203Y2173980D1*
X741020Y2216631D2*
X748353Y2218377D1*
X756220Y2218996D1*
X764088Y2218377D1*
X771762Y2216534D1*
X779121Y2213476D1*
X779123Y2321290D1*
X777480Y2313583D1*
X777404Y2261386D1*
X776272Y2255690D1*
X773840Y2250416D1*
X770239Y2245850D1*
X741039Y2216650D1*
X602436Y2165063D2*
X601298Y2157879D1*
X599050Y2150961D1*
X595748Y2144479D1*
X591471Y2138593D1*
X586328Y2133450D1*
X580442Y2129173D1*
X573961Y2125871D1*
X567042Y2123623D1*
X559858Y2122486D1*
X552583D1*
X545399Y2123623D1*
X538480Y2125871D1*
X531999Y2129173D1*
X526113Y2133450D1*
X520970Y2138593D1*
X516693Y2144479D1*
X513391Y2150961D1*
X511143Y2157879D1*
X510005Y2165063D1*
Y2172339D1*
X511143Y2179522D1*
X513391Y2186441D1*
X516693Y2192923D1*
X520970Y2198808D1*
X526113Y2203951D1*
X531999Y2208228D1*
X538480Y2211530D1*
X545399Y2213778D1*
X552583Y2214916D1*
X559858D1*
X567042Y2213778D1*
X573961Y2211530D1*
X580442Y2208228D1*
X586328Y2203951D1*
X591471Y2198808D1*
X595748Y2192923D1*
X599050Y2186441D1*
X601298Y2179522D1*
X602436Y2172339D1*
Y2165063D1*
X2065028Y3315886D2*
X2057030Y3314635D1*
X2048521D1*
X2040115Y3315967D1*
X2032022Y3318597D1*
X2024440Y3322461D1*
X2017555Y3327462D1*
X2011537Y3333480D1*
X2006535Y3340365D1*
X2002776Y3347720D1*
X1999016Y3340365D1*
X1994014Y3333480D1*
X1987996Y3327462D1*
X1981112Y3322461D1*
X1973529Y3318597D1*
X1965436Y3315967D1*
X1957030Y3314635D1*
X1948521D1*
X1940115Y3315967D1*
X1932022Y3318597D1*
X1924440Y3322461D1*
X1917555Y3327462D1*
X1911537Y3333480D1*
X1906535Y3340365D1*
X1902776Y3347720D1*
X1899016Y3340365D1*
X1894014Y3333480D1*
X1887996Y3327462D1*
X1881112Y3322461D1*
X1873529Y3318597D1*
X1865436Y3315967D1*
X1857030Y3314635D1*
X1848521D1*
X1840115Y3315967D1*
X1832022Y3318597D1*
X1824440Y3322461D1*
X1822766Y3323579D1*
X1822760Y3079858D1*
X1826644Y3079919D1*
X1847936Y3101101D1*
X1852765Y3104327D1*
X1858213Y3106337D1*
X1863980Y3107020D1*
X1870117D1*
X1851828Y3125329D1*
X1848602Y3130159D1*
X1846592Y3135606D1*
X1845909Y3141382D1*
Y3221432D1*
X1841273Y3226694D1*
X1838299Y3231547D1*
X1836122Y3236804D1*
X1834793Y3242339D1*
X1834346Y3248012D1*
X1834793Y3253685D1*
X1836122Y3259219D1*
X1838299Y3264476D1*
X1841273Y3269329D1*
X1844969Y3273657D1*
X1849297Y3277353D1*
X1854150Y3280327D1*
X1859407Y3282504D1*
X1864941Y3283833D1*
X1870614Y3284280D1*
X1876287Y3283833D1*
X1881822Y3282504D1*
X1887079Y3280327D1*
X1891932Y3277353D1*
X1896260Y3273657D1*
X1897127Y3272718D1*
X2021866Y3272717D1*
X2064986Y3315848D1*
X1702793Y3373980D2*
X1703870Y3380442D1*
X1706308Y3387948D1*
X1709892Y3394980D1*
X1714530Y3401365D1*
X1718038Y3405029D1*
X1687537Y3405020D1*
X1691021Y3401365D1*
X1695659Y3394980D1*
X1699243Y3387948D1*
X1701681Y3380442D1*
X1702759Y3373980D1*
X1604837Y3383871D2*
X1607962Y3391534D1*
X1612085Y3398264D1*
X1617211Y3404265D1*
X1618038Y3405029D1*
X1593018Y3405020D1*
X1596651Y3400577D1*
X1601097Y3393322D1*
X1604353Y3385459D1*
X1604810Y3383843D1*
X1105929Y3350482D2*
X1104837Y3353530D1*
X928083Y3320420D2*
X920899Y3324825D1*
X914428Y3330353D1*
X908900Y3336824D1*
X904454Y3344080D1*
X901198Y3351942D1*
X900741Y3353559D1*
X897589Y3345867D1*
X893466Y3339138D1*
X888340Y3333136D1*
X882339Y3328010D1*
X875609Y3323887D1*
X868318Y3320867D1*
X860643Y3319025D1*
X852776Y3318406D1*
X844908Y3319025D1*
X837234Y3320867D1*
X829942Y3323887D1*
X828529Y3324678D1*
X828533Y2412751D1*
X833529Y2415168D1*
X841034Y2417606D1*
X848829Y2418841D1*
X856722D1*
X864517Y2417606D1*
X872022Y2415168D1*
X879055Y2411584D1*
X885440Y2406946D1*
X891021Y2401365D1*
X895659Y2394980D1*
X899243Y2387948D1*
X901681Y2380442D1*
X902759Y2373980D1*
X903870Y2380442D1*
X906308Y2387948D1*
X909892Y2394980D1*
X914530Y2401365D1*
X920112Y2406946D1*
X926496Y2411584D1*
X933529Y2415168D1*
X941034Y2417606D1*
X948829Y2418841D1*
X956722D1*
X964517Y2417606D1*
X972022Y2415168D1*
X973353Y2414554D1*
X973350Y2428272D1*
X933990Y2467740D1*
X930764Y2472570D1*
X928753Y2478017D1*
X928071Y2483793D1*
Y3320425D1*
X1073353Y2322848D2*
X1068318Y2320867D1*
X1060643Y2319025D1*
X1052776Y2318406D1*
X1044908Y2319025D1*
X1037234Y2320867D1*
X1029942Y2323887D1*
X1022765Y2328365D1*
X1022760Y2267517D1*
X1032176Y2266240D1*
X1074268D1*
X1073427Y2271093D1*
X1073350Y2322803D1*
X1651432Y1115198D2*
X1650541Y1109577D1*
X1648782Y1104164D1*
X1646199Y1099093D1*
X1642854Y1094490D1*
X1639982Y1091530D1*
X1639980Y718688D1*
X1690558Y718701D1*
X1690571Y1041594D1*
X1687965Y1042906D1*
X1682291Y1043352D1*
X1676757Y1044681D1*
X1671500Y1046858D1*
X1666647Y1049832D1*
X1662319Y1053528D1*
X1658623Y1057856D1*
X1655650Y1062709D1*
X1653472Y1067966D1*
X1652143Y1073500D1*
X1651697Y1079173D1*
X1652143Y1084846D1*
X1653472Y1090381D1*
X1655650Y1095638D1*
X1658623Y1100491D1*
X1662319Y1104819D1*
X1666647Y1108514D1*
X1671500Y1111488D1*
X1676757Y1113665D1*
X1682291Y1114995D1*
X1687965Y1115441D1*
X1693638Y1114995D1*
X1699172Y1113665D1*
X1704429Y1111488D1*
X1709282Y1108514D1*
X1713610Y1104819D1*
X1717306Y1100491D1*
X1720280Y1095638D1*
X1722457Y1090381D1*
X1723786Y1084846D1*
X1724232Y1079173D1*
X1724182Y1077895D1*
X1734062Y1067907D1*
X1737287Y1063077D1*
X1739298Y1057630D1*
X1739980Y1051862D1*
Y718677D1*
X1790602Y718701D1*
X1790647Y1130777D1*
X1791780Y1136472D1*
X1794211Y1141747D1*
X1797812Y1146312D1*
X1798088Y1147193D1*
X1636861D1*
X1640921Y1143689D1*
X1644617Y1139361D1*
X1647591Y1134508D1*
X1649768Y1129251D1*
X1651097Y1123717D1*
X1651543Y1118043D1*
X1651432Y1115198D1*
X1590570Y1091530D2*
X1587697Y1094490D1*
X1584352Y1099093D1*
X1581769Y1104164D1*
X1580010Y1109577D1*
X1579119Y1115198D1*
Y1120888D1*
X1580010Y1126509D1*
X1581769Y1131923D1*
X1584352Y1136993D1*
X1587697Y1141597D1*
X1591722Y1145622D1*
X1593722Y1147198D1*
X1541265Y1147193D1*
X1539980Y1137777D1*
Y718685D1*
X1590584Y718701D1*
X1590571Y1091472D1*
X1937340Y1109524D2*
X1932644Y1111080D1*
X1927573Y1113663D1*
X1922970Y1117008D1*
X1920010Y1119881D1*
X1841276Y1119882D1*
X1839980Y1110466D1*
Y718718D1*
X1890576Y718701D1*
X1890647Y1054450D1*
X1891780Y1060146D1*
X1894211Y1065420D1*
X1897812Y1069986D1*
X1937314Y1109488D1*
X1988605Y2066743D2*
X1985732Y2069702D1*
X1982387Y2074306D1*
X1980925Y2076837D1*
Y2069552D1*
X1988584Y2061886D1*
X1717178Y1228105D2*
X1716073Y1229262D1*
X1631955Y1229264D1*
X1630837Y1228105D1*
X1717194Y1228098D1*
X1390550Y779318D2*
X1340005Y728772D1*
X1339980Y718706D1*
X1390566Y718701D1*
X1390571Y779352D1*
X1491514Y1162941D2*
X1441277D1*
X1439980Y1153525D1*
Y718717D1*
X1490539Y718701D1*
X1490647Y1158088D1*
X1491256Y1161924D1*
X428071Y1510362D2*
Y1682894D1*
X427776Y1681234D1*
Y1510173D1*
X452776Y1931201D2*
D16*
X506972D1*
X473382Y3681201D2*
X577839D1*
X2185882D2*
X2290339D1*
X1256220Y1468701D2*
X1306480D1*
X2156220D2*
X2206480D1*
X1805961Y2168701D2*
X1906480D1*
X905961D2*
X1006480D1*
X598579Y3368701D2*
X652776D1*
D20*
X1727776Y2906201D3*
X1617539D3*
D21*
X2230236Y1631201D3*
D22*
X1795197D3*
D21*
X2440276Y2018701D3*
D22*
Y1583661D3*
D21*
X2227776Y1831201D3*
D22*
X1792736D3*
D21*
X2227776Y2018701D3*
D22*
X1792736D3*
D23*
X1877789Y3643701D3*
D24*
X1977789D3*
D23*
X940289D3*
D24*
X1040289D3*
D25*
X2015276Y543701D3*
X1915276D3*
X1815276D3*
X1715276D3*
X1615276D3*
X1515276D3*
X1415276D3*
X1315276D3*
X1215276D3*
X1115276D3*
X1015276D3*
X915276D3*
D26*
X452776Y1931201D3*
D27*
Y1831201D3*
Y1731201D3*
D28*
X1277776Y3531201D3*
D29*
X1677776D3*
D28*
X1277776Y3693701D3*
D29*
X1677776D3*
D28*
X1002776Y2868701D3*
D29*
X1402776D3*
D28*
X1002776Y2518701D3*
D29*
X1402776D3*
D28*
X1002776Y3043701D3*
D29*
X1402776D3*
D28*
X1002776Y2693701D3*
D29*
X1402776D3*
D28*
X1002776Y3206201D3*
D29*
X1402776D3*
D28*
X1452776Y2606201D3*
D29*
X1852776D3*
D30*
X702776Y3681201D3*
X525610D3*
D31*
X751988Y3582776D3*
X476398D3*
D30*
X2415276Y3681201D3*
X2238110D3*
D31*
X2464488Y3582776D3*
X2188898D3*
D32*
X1965276Y3125622D3*
Y3082315D3*
Y3039008D3*
Y2995701D3*
Y2952394D3*
Y2909087D3*
Y2865780D3*
Y2822472D3*
Y2779165D3*
D33*
X1988858Y3184717D3*
X1989210Y2595917D3*
D34*
X2367094Y2559606D3*
X2366959Y3171224D3*
D35*
X456220Y1468701D3*
X556220D3*
X656220D3*
X756220D3*
X856220D3*
X956220D3*
X1056220D3*
X1156220D3*
X1256220D3*
X1356220D3*
X1456220D3*
X1556220D3*
X1656220D3*
X1756220D3*
X1856220D3*
X1956220D3*
X2056220D3*
X2156220D3*
X2256220D3*
X2356220D3*
Y2168701D3*
X2256220D3*
X2156220D3*
X2056220D3*
X1956220D3*
X1856220D3*
X1756220D3*
X1656220D3*
X1556220D3*
X1456220D3*
X1356220D3*
X1256220D3*
X1156220D3*
X1056220D3*
X956220D3*
X856220D3*
X756220D3*
X656220D3*
X556220D3*
X456220D3*
D27*
X2452776Y3368701D3*
X2352776D3*
X2252776D3*
X2152776D3*
X2052776D3*
X1952776D3*
X1852776D3*
X1752776D3*
X1652776D3*
X1552776D3*
X1452776D3*
X1352776D3*
X1252776D3*
X1152776D3*
X1052776D3*
X952776D3*
X852776D3*
X752776D3*
X652776D3*
Y2368701D3*
X752776D3*
X852776D3*
X952776D3*
X1052776D3*
X1152776D3*
X1252776D3*
X1352776D3*
X1452776D3*
X1552776D3*
X1652776D3*
X1752776D3*
X1852776D3*
X1952776D3*
X2052776D3*
X2152776D3*
X2252776D3*
X2352776D3*
X2452776D3*
M02*
