G04 DipTrace 3.3.1.3*
G04 BottomMask.gbr*
%MOIN*%
G04 #@! TF.FileFunction,Soldermask,Bot*
G04 #@! TF.Part,Single*
%ADD21C,0.070866*%
%ADD30C,0.074803*%
%ADD41C,0.049213*%
%ADD52C,0.066929*%
%ADD53R,0.096457X0.076772*%
%ADD55R,0.064961X0.076772*%
%ADD57R,0.086614X0.031496*%
%ADD59C,0.082677*%
%ADD61C,0.067874*%
%ADD63C,0.067874*%
%ADD66R,0.074803X0.074803*%
%ADD68R,0.066929X0.26378*%
%ADD70R,0.057874X0.057874*%
%ADD72C,0.057874*%
%ADD74C,0.07874*%
%ADD75R,0.07874X0.07874*%
%ADD77R,0.070866X0.07874*%
%FSLAX26Y26*%
G04*
G70*
G90*
G75*
G01*
G04 BotMask*
%LPD*%
D77*
X1727776Y2906201D3*
X1617539D3*
D75*
X2230236Y1631201D3*
D74*
X1795197D3*
D75*
X2440276Y2018701D3*
D74*
Y1583661D3*
D75*
X2227776Y1831201D3*
D74*
X1792736D3*
D75*
X2227776Y2018701D3*
D74*
X1792736D3*
D72*
X1877789Y3643701D3*
D70*
X1977789D3*
D72*
X940289D3*
D70*
X1040289D3*
D68*
X2015276Y543701D3*
X1915276D3*
X1815276D3*
X1715276D3*
X1615276D3*
X1515276D3*
X1415276D3*
X1315276D3*
X1215276D3*
X1115276D3*
X1015276D3*
X915276D3*
D66*
X452776Y1931201D3*
D30*
Y1831201D3*
Y1731201D3*
D63*
X1277776Y3531201D3*
D61*
X1677776D3*
D63*
X1277776Y3693701D3*
D61*
X1677776D3*
D63*
X1002776Y2868701D3*
D61*
X1402776D3*
D63*
X1002776Y2518701D3*
D61*
X1402776D3*
D63*
X1002776Y3043701D3*
D61*
X1402776D3*
D63*
X1002776Y2693701D3*
D61*
X1402776D3*
D63*
X1002776Y3206201D3*
D61*
X1402776D3*
D63*
X1452776Y2606201D3*
D61*
X1852776D3*
D21*
X702776Y3681201D3*
X525610D3*
D59*
X751988Y3582776D3*
X476398D3*
D21*
X2415276Y3681201D3*
X2238110D3*
D59*
X2464488Y3582776D3*
X2188898D3*
D57*
X1965276Y3125622D3*
Y3082315D3*
Y3039008D3*
Y2995701D3*
Y2952394D3*
Y2909087D3*
Y2865780D3*
Y2822472D3*
Y2779165D3*
D55*
X1988858Y3184717D3*
X1989210Y2595917D3*
D53*
X2367094Y2559606D3*
X2366959Y3171224D3*
D41*
X2377451Y3060386D3*
Y2745937D3*
D52*
X456220Y1468701D3*
X556220D3*
X656220D3*
X756220D3*
X856220D3*
X956220D3*
X1056220D3*
X1156220D3*
X1256220D3*
X1356220D3*
X1456220D3*
X1556220D3*
X1656220D3*
X1756220D3*
X1856220D3*
X1956220D3*
X2056220D3*
X2156220D3*
X2256220D3*
X2356220D3*
Y2168701D3*
X2256220D3*
X2156220D3*
X2056220D3*
X1956220D3*
X1856220D3*
X1756220D3*
X1656220D3*
X1556220D3*
X1456220D3*
X1356220D3*
X1256220D3*
X1156220D3*
X1056220D3*
X956220D3*
X856220D3*
X756220D3*
X656220D3*
X556220D3*
X456220D3*
D30*
X2452776Y3368701D3*
X2352776D3*
X2252776D3*
X2152776D3*
X2052776D3*
X1952776D3*
X1852776D3*
X1752776D3*
X1652776D3*
X1552776D3*
X1452776D3*
X1352776D3*
X1252776D3*
X1152776D3*
X1052776D3*
X952776D3*
X852776D3*
X752776D3*
X652776D3*
Y2368701D3*
X752776D3*
X852776D3*
X952776D3*
X1052776D3*
X1152776D3*
X1252776D3*
X1352776D3*
X1452776D3*
X1552776D3*
X1652776D3*
X1752776D3*
X1852776D3*
X1952776D3*
X2052776D3*
X2152776D3*
X2252776D3*
X2352776D3*
X2452776D3*
M02*
