G04 DipTrace 3.3.1.3*
G04 BottomSilk.gbr*
%MOIN*%
G04 #@! TF.FileFunction,Legend,Bot*
G04 #@! TF.Part,Single*
%ADD10C,0.009843*%
%ADD12C,0.003*%
%ADD18C,0.005906*%
%ADD38O,0.074711X0.074027*%
%ADD39O,0.074711X0.073993*%
%ADD40O,0.074711X0.073959*%
%ADD79C,0.004632*%
%ADD80C,0.015439*%
%ADD81C,0.006176*%
%ADD82C,0.00772*%
%FSLAX26Y26*%
G04*
G70*
G90*
G75*
G01*
G04 BotSilk*
%LPD*%
X1676988Y2874736D2*
D10*
Y2937665D1*
X1684437Y2874736D2*
Y2937665D1*
Y2874736D2*
X1660878D1*
X1684437Y2937665D2*
X1660878D1*
X2107321Y1576083D2*
Y1686319D1*
X2105297D2*
X1920136D1*
X2077472Y1576083D2*
Y1686319D1*
X1920136Y1576083D2*
Y1686319D1*
X2105297Y1576083D2*
X1920136D1*
X2495394Y1895785D2*
X2385157D1*
Y1893762D2*
Y1708600D1*
X2495394Y1865937D2*
X2385157D1*
X2495394Y1708600D2*
X2385157D1*
X2495394Y1893762D2*
Y1708600D1*
X2104860Y1776083D2*
Y1886319D1*
X2102837D2*
X1917675D1*
X2075012Y1776083D2*
Y1886319D1*
X1917675Y1776083D2*
Y1886319D1*
X2102837Y1776083D2*
X1917675D1*
X2104860Y1963583D2*
Y2073819D1*
X2102837D2*
X1917675D1*
X2075012Y1963583D2*
Y2073819D1*
X1917675Y1963583D2*
Y2073819D1*
X2102837Y1963583D2*
X1917675D1*
X2027782Y3568763D2*
Y3718639D1*
X2027557Y3568463D2*
G02X2027557Y3718939I-99796J75238D01*
G01*
X1090282Y3568763D2*
Y3718639D1*
X1090057Y3568463D2*
G02X1090057Y3718939I-99796J75238D01*
G01*
X1577596Y3581201D2*
X1377956D1*
Y3481201D2*
Y3581201D1*
X1577596Y3481201D2*
X1377956D1*
X1577596D2*
Y3581201D1*
Y3743701D2*
X1377956D1*
Y3643701D2*
Y3743701D1*
X1577596Y3643701D2*
X1377956D1*
X1577596D2*
Y3743701D1*
X1302596Y2918701D2*
X1102956D1*
Y2818701D2*
Y2918701D1*
X1302596Y2818701D2*
X1102956D1*
X1302596D2*
Y2918701D1*
Y2568701D2*
X1102956D1*
Y2468701D2*
Y2568701D1*
X1302596Y2468701D2*
X1102956D1*
X1302596D2*
Y2568701D1*
Y3093701D2*
X1102956D1*
Y2993701D2*
Y3093701D1*
X1302596Y2993701D2*
X1102956D1*
X1302596D2*
Y3093701D1*
Y2743701D2*
X1102956D1*
Y2643701D2*
Y2743701D1*
X1302596Y2643701D2*
X1102956D1*
X1302596D2*
Y2743701D1*
Y3256201D2*
X1102956D1*
Y3156201D2*
Y3256201D1*
X1302596Y3156201D2*
X1102956D1*
X1302596D2*
Y3256201D1*
X1752596Y2656201D2*
X1552956D1*
Y2556201D2*
Y2656201D1*
X1752596Y2556201D2*
X1552956D1*
X1752596D2*
Y2656201D1*
X2028236Y3157121D2*
X2311701D1*
X2421969D2*
X2532236D1*
Y2570476D1*
X2421969D1*
X2311701D2*
X2032205D1*
Y2649246D1*
X1965307D1*
Y2755568D1*
G36*
X1387141Y2050459D2*
X1370210D1*
Y1908645D1*
X1387141D1*
Y2050459D1*
G37*
G36*
X820556Y2050934D2*
X723106D1*
Y2034555D1*
X763267D1*
Y1908543D1*
X780493D1*
Y2034555D1*
X820556D1*
Y2050934D1*
G37*
G36*
X908753D2*
X833549D1*
Y2034827D1*
X891527D1*
Y1994405D1*
X833549D1*
Y1978874D1*
X891822D1*
Y1924074D1*
X833549D1*
Y1908543D1*
X908753D1*
Y2050934D1*
G37*
G36*
X1062309Y1908611D2*
Y2057174D1*
X958166Y1942793D1*
Y2051239D1*
X942023D1*
Y1901761D1*
X1046166Y2015531D1*
Y1908611D1*
X1062309D1*
G37*
G36*
X1437244Y2050188D2*
X1420215D1*
Y1937435D1*
X1421199Y1928076D1*
X1423266Y1921226D1*
X1426121Y1915936D1*
X1429271Y1912138D1*
X1433897Y1908781D1*
X1439213Y1906509D1*
X1445512Y1905424D1*
X1453289Y1904711D1*
X1458703D1*
X1463920Y1906034D1*
X1471400Y1909730D1*
X1476421Y1913223D1*
X1481342Y1918581D1*
X1469826Y1930110D1*
X1466282Y1926041D1*
X1462935Y1923498D1*
X1458210Y1921124D1*
X1455848Y1920276D1*
X1452993Y1919903D1*
X1448761Y1920141D1*
X1446398Y1920717D1*
X1444626Y1921531D1*
X1442559Y1922921D1*
X1440492Y1925227D1*
X1438917Y1927974D1*
X1438031Y1929941D1*
X1437736Y1932349D1*
X1437342Y1935095D1*
X1437146Y1937198D1*
X1437244Y2050188D1*
G37*
G36*
X1607535Y2050290D2*
X1590309D1*
Y1959036D1*
X1589816Y1950830D1*
X1587749Y1941810D1*
X1584304Y1934214D1*
X1581253Y1930178D1*
X1576823Y1926448D1*
X1570130Y1923057D1*
X1560582Y1920853D1*
X1552510Y1920446D1*
X1541289Y1921531D1*
X1533315Y1923973D1*
X1527409Y1927432D1*
X1524358Y1930178D1*
X1520224Y1935875D1*
X1516877Y1944387D1*
X1514908Y1957748D1*
Y1970634D1*
Y2050358D1*
X1497682D1*
Y1962122D1*
X1498864Y1946693D1*
X1501718Y1935061D1*
X1505852Y1926312D1*
X1511168Y1919395D1*
X1517566Y1913901D1*
X1525342Y1909628D1*
X1535382Y1906441D1*
X1550246Y1904745D1*
X1554085D1*
X1566586Y1905695D1*
X1577709Y1908577D1*
X1585978Y1912579D1*
X1592868Y1917801D1*
X1598675Y1924922D1*
X1603203Y1933603D1*
X1606353Y1945472D1*
X1607633Y1962020D1*
X1607535Y2050290D1*
G37*
X1358891Y1999729D2*
D18*
X1249235D1*
X1281128Y2091593D2*
Y1890130D1*
X1353969Y2015057D2*
Y1973279D1*
X1310953Y2070874D2*
X1116448D1*
X1211929Y2138254D2*
Y2036963D1*
X1139974Y2088982D2*
Y1823156D1*
X1227285Y1859814D2*
X1043410Y1860458D1*
D38*
X1211092Y2071467D3*
G36*
X1632340Y2050595D2*
X1707445D1*
Y1907729D1*
X1690121D1*
Y1978704D1*
X1632340D1*
Y1994202D1*
X1690613D1*
Y2034691D1*
X1632340D1*
Y2050595D1*
G37*
D39*
X1282850Y1998847D3*
X1140712D3*
D40*
Y1927042D3*
X1177871Y2000560D2*
D18*
X1177955Y2003026D1*
X1178209Y2005480D1*
X1178631Y2007910D1*
X1179219Y2010304D1*
X1179969Y2012651D1*
X1180879Y2014939D1*
X1181944Y2017157D1*
X1183158Y2019293D1*
X1184516Y2021339D1*
X1186012Y2023284D1*
X1187637Y2025117D1*
X1189384Y2026831D1*
X1191244Y2028417D1*
X1193209Y2029868D1*
X1195269Y2031175D1*
X1197413Y2032334D1*
X1199632Y2033337D1*
X1201914Y2034181D1*
X1204249Y2034862D1*
X1206625Y2035375D1*
X1209030Y2035718D1*
X1211453Y2035890D1*
X1213881D1*
X1216304Y2035718D1*
X1218709Y2035375D1*
X1221085Y2034862D1*
X1223420Y2034181D1*
X1225702Y2033337D1*
X1227921Y2032334D1*
X1230065Y2031175D1*
X1232125Y2029868D1*
X1234090Y2028417D1*
X1235950Y2026831D1*
X1237698Y2025117D1*
X1239323Y2023284D1*
X1240818Y2021339D1*
X1242176Y2019293D1*
X1243390Y2017157D1*
X1244455Y2014939D1*
X1245365Y2012651D1*
X1246116Y2010304D1*
X1246703Y2007910D1*
X1247125Y2005480D1*
X1247379Y2003026D1*
X1247463Y2000560D1*
X1247379Y1998094D1*
X1247125Y1995640D1*
X1246703Y1993210D1*
X1246116Y1990816D1*
X1245365Y1988469D1*
X1244455Y1986181D1*
X1243390Y1983963D1*
X1242176Y1981826D1*
X1240818Y1979781D1*
X1239323Y1977836D1*
X1237698Y1976002D1*
X1235950Y1974288D1*
X1234090Y1972702D1*
X1232125Y1971252D1*
X1230065Y1969944D1*
X1227921Y1968786D1*
X1225702Y1967782D1*
X1223420Y1966938D1*
X1221085Y1966258D1*
X1218709Y1965745D1*
X1216304Y1965402D1*
X1213881Y1965230D1*
X1211453D1*
X1209030Y1965402D1*
X1206625Y1965745D1*
X1204249Y1966258D1*
X1201914Y1966938D1*
X1199632Y1967782D1*
X1197413Y1968786D1*
X1195269Y1969944D1*
X1193209Y1971252D1*
X1191244Y1972702D1*
X1189384Y1974288D1*
X1187637Y1976002D1*
X1186012Y1977836D1*
X1184516Y1979781D1*
X1183158Y1981826D1*
X1181944Y1983963D1*
X1180879Y1986181D1*
X1179969Y1988469D1*
X1179219Y1990816D1*
X1178631Y1993210D1*
X1178209Y1995640D1*
X1177955Y1998094D1*
X1177871Y2000560D1*
X1068019Y1899760D2*
Y1828480D1*
X1301208Y1929737D2*
X1083374D1*
X1091347Y1999695D2*
X1169996D1*
X1211929Y1963716D2*
X1211338Y1846453D1*
X740529Y1739907D2*
D12*
X748029D1*
X871029D2*
X880029D1*
X1279029D2*
X1286529D1*
X740529Y1738407D2*
X748029D1*
X791529D2*
X796029D1*
X871029D2*
X880029D1*
X1141029D2*
X1154529D1*
X1279029D2*
X1286529D1*
X1579029D2*
X1583529D1*
X1601529D2*
X1606029D1*
X740529Y1736907D2*
X748029D1*
X790611D2*
X797234D1*
X871029D2*
X880029D1*
X935529D2*
X943029D1*
X974529D2*
X983529D1*
X1137124D2*
X1158851D1*
X1279029D2*
X1286529D1*
X1307529D2*
X1331529D1*
X1366029D2*
X1372029D1*
X1508529D2*
X1517529D1*
X1561029D2*
X1562529D1*
X1578111D2*
X1584734D1*
X1600611D2*
X1607234D1*
X1670529D2*
X1703529D1*
X740529Y1735407D2*
X748029D1*
X789861D2*
X798105D1*
X871029D2*
X880029D1*
X935529D2*
X943029D1*
X974529D2*
X983529D1*
X1133928D2*
X1162461D1*
X1279029D2*
X1286529D1*
X1304650D2*
X1331529D1*
X1366778D2*
X1372599D1*
X1508529D2*
X1517529D1*
X1559529D2*
X1562529D1*
X1577361D2*
X1585605D1*
X1599861D2*
X1608105D1*
X1670529D2*
X1703529D1*
X740529Y1733907D2*
X748029D1*
X789289D2*
X798692D1*
X871029D2*
X880029D1*
X935529D2*
X943029D1*
X974529D2*
X983529D1*
X1131362D2*
X1165288D1*
X1279029D2*
X1286529D1*
X1302341D2*
X1331529D1*
X1367407D2*
X1373243D1*
X1508529D2*
X1517529D1*
X1558029D2*
X1562529D1*
X1576789D2*
X1586192D1*
X1599289D2*
X1608692D1*
X1670529D2*
X1703529D1*
X740529Y1732407D2*
X748029D1*
X789468D2*
X798708D1*
X871029D2*
X880029D1*
X935529D2*
X943029D1*
X974529D2*
X983529D1*
X1130042D2*
X1167488D1*
X1279029D2*
X1286529D1*
X1300602D2*
X1331529D1*
X1368038D2*
X1373940D1*
X1508529D2*
X1517529D1*
X1556529D2*
X1562529D1*
X1576968D2*
X1586208D1*
X1599468D2*
X1608708D1*
X1670529D2*
X1703529D1*
X740529Y1730907D2*
X748029D1*
X789940D2*
X798086D1*
X871029D2*
X880029D1*
X935529D2*
X943029D1*
X974529D2*
X983529D1*
X1129515D2*
X1169311D1*
X1279029D2*
X1286529D1*
X1299327D2*
X1331529D1*
X1368710D2*
X1374663D1*
X1508529D2*
X1517529D1*
X1555029D2*
X1562529D1*
X1577440D2*
X1585586D1*
X1599940D2*
X1608086D1*
X1670529D2*
X1703529D1*
X740529Y1729407D2*
X748029D1*
X790663D2*
X797139D1*
X871029D2*
X880029D1*
X935529D2*
X943029D1*
X974529D2*
X983529D1*
X1025529D2*
X1033029D1*
X1129234D2*
X1141323D1*
X1153996D2*
X1170940D1*
X1279029D2*
X1286529D1*
X1298383D2*
X1331529D1*
X1369376D2*
X1375356D1*
X1436529D2*
X1444029D1*
X1508529D2*
X1517529D1*
X1553529D2*
X1562529D1*
X1578163D2*
X1584639D1*
X1600663D2*
X1607139D1*
X1670529D2*
X1703529D1*
X740529Y1727907D2*
X748029D1*
X791529D2*
X796029D1*
X871029D2*
X880029D1*
X935529D2*
X943029D1*
X974529D2*
X983529D1*
X1025529D2*
X1033029D1*
X1129108D2*
X1137441D1*
X1157443D2*
X1172440D1*
X1279029D2*
X1286529D1*
X1297724D2*
X1312681D1*
X1322529D2*
X1331529D1*
X1369967D2*
X1375959D1*
X1436529D2*
X1444029D1*
X1508529D2*
X1517529D1*
X1552029D2*
X1562529D1*
X1579029D2*
X1583529D1*
X1601529D2*
X1606029D1*
X1694529D2*
X1703529D1*
X740529Y1726407D2*
X748029D1*
X871029D2*
X880029D1*
X935529D2*
X943029D1*
X974529D2*
X983529D1*
X1025529D2*
X1033029D1*
X1129056D2*
X1133904D1*
X1160302D2*
X1173763D1*
X1279029D2*
X1286529D1*
X1297346D2*
X1309678D1*
X1322529D2*
X1331529D1*
X1370495D2*
X1376492D1*
X1436529D2*
X1444029D1*
X1508529D2*
X1517529D1*
X1550529D2*
X1562529D1*
X1694529D2*
X1703529D1*
X740529Y1724907D2*
X748029D1*
X871029D2*
X880029D1*
X935529D2*
X943029D1*
X974529D2*
X983529D1*
X1025529D2*
X1033029D1*
X1129029D2*
X1130529D1*
X1162621D2*
X1174858D1*
X1279029D2*
X1286529D1*
X1297161D2*
X1307439D1*
X1322529D2*
X1331529D1*
X1371074D2*
X1377073D1*
X1436529D2*
X1444029D1*
X1508529D2*
X1517529D1*
X1549029D2*
X1562529D1*
X1694529D2*
X1703529D1*
X740529Y1723407D2*
X748029D1*
X871029D2*
X880029D1*
X935529D2*
X943029D1*
X974529D2*
X983529D1*
X1025529D2*
X1033029D1*
X1164396D2*
X1175779D1*
X1279029D2*
X1286529D1*
X1297080D2*
X1306703D1*
X1322529D2*
X1331529D1*
X1371730D2*
X1377730D1*
X1436529D2*
X1444029D1*
X1508529D2*
X1517529D1*
X1547529D2*
X1562529D1*
X1694529D2*
X1703529D1*
X740529Y1721907D2*
X748029D1*
X871029D2*
X880029D1*
X935529D2*
X943029D1*
X974529D2*
X983529D1*
X1025529D2*
X1033029D1*
X1165707D2*
X1176600D1*
X1279029D2*
X1286529D1*
X1297048D2*
X1306312D1*
X1322529D2*
X1331529D1*
X1372434D2*
X1378434D1*
X1436529D2*
X1444029D1*
X1508529D2*
X1517529D1*
X1546023D2*
X1562529D1*
X1694529D2*
X1703529D1*
X740529Y1720407D2*
X748029D1*
X871029D2*
X880029D1*
X935529D2*
X943029D1*
X974529D2*
X983529D1*
X1025529D2*
X1033029D1*
X1166721D2*
X1177327D1*
X1279029D2*
X1286529D1*
X1297036D2*
X1306144D1*
X1322529D2*
X1331529D1*
X1373160D2*
X1379160D1*
X1436529D2*
X1444029D1*
X1508529D2*
X1517529D1*
X1544470D2*
X1562529D1*
X1694529D2*
X1703529D1*
X740529Y1718907D2*
X748029D1*
X871029D2*
X880029D1*
X935529D2*
X943029D1*
X974529D2*
X983529D1*
X1025529D2*
X1033029D1*
X1167579D2*
X1177898D1*
X1279029D2*
X1286529D1*
X1297037D2*
X1306145D1*
X1322529D2*
X1331529D1*
X1373855D2*
X1379855D1*
X1436529D2*
X1444029D1*
X1508529D2*
X1517529D1*
X1542779D2*
X1562529D1*
X1694529D2*
X1703529D1*
X740529Y1717407D2*
X748035D1*
X871023D2*
X880029D1*
X935529D2*
X943029D1*
X974529D2*
X983529D1*
X1025529D2*
X1033029D1*
X1168325D2*
X1178292D1*
X1279029D2*
X1286529D1*
X1297088D2*
X1306288D1*
X1322529D2*
X1331529D1*
X1374459D2*
X1380459D1*
X1436529D2*
X1444029D1*
X1508529D2*
X1517529D1*
X1540920D2*
X1552261D1*
X1555029D2*
X1562529D1*
X1694529D2*
X1703529D1*
X740529Y1715907D2*
X748092D1*
X757029D2*
X766029D1*
X808029D2*
X815529D1*
X853029D2*
X862029D1*
X870966D2*
X880029D1*
X935529D2*
X943029D1*
X974529D2*
X983529D1*
X1025529D2*
X1033029D1*
X1045029D2*
X1052529D1*
X1097529D2*
X1106529D1*
X1168949D2*
X1178654D1*
X1196529D2*
X1207029D1*
X1279029D2*
X1286529D1*
X1297285D2*
X1307364D1*
X1322529D2*
X1331529D1*
X1374992D2*
X1380992D1*
X1436529D2*
X1444029D1*
X1471029D2*
X1483029D1*
X1508529D2*
X1517529D1*
X1539035D2*
X1551133D1*
X1555029D2*
X1562529D1*
X1694529D2*
X1703529D1*
X740529Y1714407D2*
X748324D1*
X753753D2*
X768914D1*
X790029D2*
X797529D1*
X806640D2*
X817305D1*
X821529D2*
X830529D1*
X850150D2*
X865200D1*
X870734D2*
X880029D1*
X886029D2*
X895029D1*
X917529D2*
X926529D1*
X935529D2*
X983529D1*
X1018029D2*
X1054305D1*
X1058529D2*
X1067529D1*
X1081029D2*
X1088529D1*
X1094253D2*
X1109414D1*
X1169482D2*
X1179089D1*
X1194405D2*
X1209908D1*
X1228029D2*
X1235529D1*
X1258029D2*
X1265529D1*
X1279029D2*
X1286529D1*
X1297702D2*
X1311400D1*
X1322529D2*
X1331529D1*
X1375573D2*
X1381573D1*
X1429029D2*
X1451529D1*
X1468144D2*
X1485914D1*
X1508529D2*
X1517529D1*
X1537274D2*
X1550015D1*
X1555029D2*
X1562529D1*
X1577529D2*
X1585029D1*
X1600029D2*
X1607529D1*
X1622529D2*
X1630029D1*
X1652529D2*
X1660029D1*
X1694529D2*
X1703529D1*
X740529Y1712907D2*
X748836D1*
X750227D2*
X771269D1*
X790029D2*
X797529D1*
X806218D2*
X819331D1*
X820826D2*
X830529D1*
X847841D2*
X868154D1*
X870221D2*
X880029D1*
X886959D2*
X895599D1*
X916779D2*
X925599D1*
X935529D2*
X983529D1*
X1018029D2*
X1056331D1*
X1057826D2*
X1067529D1*
X1081029D2*
X1089232D1*
X1090727D2*
X1111769D1*
X1170013D2*
X1179504D1*
X1192552D2*
X1212211D1*
X1228029D2*
X1235529D1*
X1258029D2*
X1265529D1*
X1279029D2*
X1286529D1*
X1298337D2*
X1317750D1*
X1322529D2*
X1331529D1*
X1376230D2*
X1382230D1*
X1429029D2*
X1451529D1*
X1465788D2*
X1488275D1*
X1508529D2*
X1517529D1*
X1535635D2*
X1548725D1*
X1555029D2*
X1562529D1*
X1577529D2*
X1585029D1*
X1600029D2*
X1607529D1*
X1622529D2*
X1630029D1*
X1652529D2*
X1660029D1*
X1670529D2*
X1703529D1*
X740529Y1711407D2*
X773153D1*
X790029D2*
X797529D1*
X806578D2*
X830529D1*
X846102D2*
X880029D1*
X887814D2*
X896243D1*
X916150D2*
X924743D1*
X935529D2*
X983529D1*
X1018029D2*
X1040529D1*
X1043805D2*
X1067529D1*
X1081029D2*
X1113653D1*
X1170474D2*
X1179778D1*
X1191619D2*
X1213897D1*
X1228029D2*
X1235529D1*
X1258029D2*
X1265529D1*
X1279029D2*
X1286529D1*
X1299219D2*
X1331529D1*
X1376934D2*
X1382934D1*
X1429029D2*
X1451529D1*
X1463905D2*
X1490205D1*
X1508529D2*
X1517529D1*
X1534071D2*
X1547173D1*
X1555029D2*
X1562529D1*
X1577529D2*
X1585029D1*
X1600029D2*
X1607529D1*
X1622529D2*
X1630029D1*
X1652529D2*
X1660029D1*
X1670529D2*
X1703529D1*
X740529Y1709907D2*
X774649D1*
X790029D2*
X797529D1*
X807219D2*
X830529D1*
X844821D2*
X880029D1*
X888618D2*
X896940D1*
X915520D2*
X923946D1*
X935529D2*
X983529D1*
X1018029D2*
X1040529D1*
X1044331D2*
X1067529D1*
X1081029D2*
X1115149D1*
X1170766D2*
X1179921D1*
X1191578D2*
X1215170D1*
X1228029D2*
X1235529D1*
X1258029D2*
X1265529D1*
X1279029D2*
X1286529D1*
X1300516D2*
X1331529D1*
X1377660D2*
X1383660D1*
X1429029D2*
X1451529D1*
X1462409D2*
X1491846D1*
X1508529D2*
X1517529D1*
X1532545D2*
X1545378D1*
X1555029D2*
X1562529D1*
X1577529D2*
X1585029D1*
X1600029D2*
X1607529D1*
X1622529D2*
X1630029D1*
X1652529D2*
X1660029D1*
X1670529D2*
X1703529D1*
X740529Y1708407D2*
X754381D1*
X762728D2*
X775810D1*
X790029D2*
X797529D1*
X808029D2*
X809529D1*
X816972D2*
X830529D1*
X843824D2*
X856330D1*
X864677D2*
X880029D1*
X889389D2*
X897669D1*
X914848D2*
X923221D1*
X935529D2*
X983529D1*
X1018029D2*
X1040529D1*
X1045029D2*
X1046529D1*
X1053972D2*
X1067529D1*
X1081029D2*
X1094881D1*
X1103228D2*
X1116310D1*
X1170911D2*
X1179986D1*
X1192029D2*
X1198029D1*
X1204876D2*
X1215613D1*
X1228029D2*
X1235529D1*
X1258029D2*
X1265529D1*
X1279029D2*
X1286529D1*
X1302215D2*
X1331529D1*
X1378355D2*
X1384355D1*
X1429029D2*
X1451529D1*
X1461242D2*
X1472830D1*
X1481228D2*
X1493227D1*
X1508529D2*
X1517529D1*
X1531034D2*
X1543520D1*
X1555029D2*
X1562529D1*
X1577529D2*
X1585029D1*
X1600029D2*
X1607529D1*
X1622529D2*
X1630029D1*
X1652529D2*
X1660029D1*
X1670529D2*
X1703529D1*
X740529Y1706907D2*
X752202D1*
X765053D2*
X776705D1*
X790029D2*
X797529D1*
X818274D2*
X830529D1*
X842974D2*
X854011D1*
X866856D2*
X880029D1*
X890149D2*
X898408D1*
X914182D2*
X922605D1*
X935529D2*
X983529D1*
X1025529D2*
X1033029D1*
X1055274D2*
X1067529D1*
X1081029D2*
X1092702D1*
X1105553D2*
X1117205D1*
X1170926D2*
X1180007D1*
X1206762D2*
X1215847D1*
X1228029D2*
X1235529D1*
X1258029D2*
X1265529D1*
X1279029D2*
X1286529D1*
X1307129D2*
X1331529D1*
X1378959D2*
X1384959D1*
X1436529D2*
X1444029D1*
X1460294D2*
X1470511D1*
X1483553D2*
X1494339D1*
X1508529D2*
X1517529D1*
X1529531D2*
X1541768D1*
X1555029D2*
X1562529D1*
X1577529D2*
X1585029D1*
X1600029D2*
X1607529D1*
X1622529D2*
X1630029D1*
X1652529D2*
X1660029D1*
X1670529D2*
X1703529D1*
X740529Y1705407D2*
X750617D1*
X766858D2*
X777345D1*
X790029D2*
X797529D1*
X819356D2*
X830529D1*
X842237D2*
X852252D1*
X868440D2*
X880029D1*
X890901D2*
X899150D1*
X913590D2*
X922068D1*
X935529D2*
X943029D1*
X974529D2*
X983529D1*
X1025529D2*
X1033029D1*
X1056356D2*
X1067529D1*
X1081029D2*
X1091117D1*
X1107358D2*
X1117845D1*
X1170763D2*
X1179965D1*
X1207509D2*
X1215895D1*
X1228029D2*
X1235529D1*
X1258029D2*
X1265529D1*
X1279029D2*
X1286529D1*
X1314725D2*
X1331529D1*
X1379492D2*
X1385492D1*
X1436529D2*
X1444029D1*
X1459463D2*
X1468758D1*
X1485364D2*
X1495216D1*
X1508529D2*
X1517529D1*
X1528030D2*
X1540133D1*
X1555029D2*
X1562529D1*
X1577529D2*
X1585029D1*
X1600029D2*
X1607529D1*
X1622529D2*
X1630029D1*
X1652529D2*
X1660029D1*
X1670529D2*
X1703529D1*
X740529Y1703907D2*
X749508D1*
X768184D2*
X777722D1*
X790029D2*
X797529D1*
X820221D2*
X830529D1*
X841667D2*
X851065D1*
X869555D2*
X880029D1*
X891654D2*
X899851D1*
X913069D2*
X921485D1*
X935529D2*
X943029D1*
X974529D2*
X983529D1*
X1025529D2*
X1033029D1*
X1057221D2*
X1067529D1*
X1081029D2*
X1090008D1*
X1108684D2*
X1118222D1*
X1170414D2*
X1179777D1*
X1205924D2*
X1215689D1*
X1228029D2*
X1235529D1*
X1258029D2*
X1265529D1*
X1279029D2*
X1286529D1*
X1324029D2*
X1331529D1*
X1380073D2*
X1386073D1*
X1436529D2*
X1444029D1*
X1458733D2*
X1467427D1*
X1486748D2*
X1495849D1*
X1508529D2*
X1517529D1*
X1526529D2*
X1538570D1*
X1555029D2*
X1562529D1*
X1577529D2*
X1585029D1*
X1600029D2*
X1607529D1*
X1622529D2*
X1630029D1*
X1652529D2*
X1660029D1*
X1694529D2*
X1703529D1*
X740529Y1702407D2*
X748774D1*
X769155D2*
X777957D1*
X790029D2*
X797529D1*
X820850D2*
X830529D1*
X841325D2*
X850262D1*
X870343D2*
X880029D1*
X892403D2*
X900458D1*
X912536D2*
X920834D1*
X935529D2*
X943029D1*
X974529D2*
X983529D1*
X1025529D2*
X1033029D1*
X1057850D2*
X1067529D1*
X1081029D2*
X1089274D1*
X1109655D2*
X1118457D1*
X1170027D2*
X1179419D1*
X1203533D2*
X1215242D1*
X1228029D2*
X1235529D1*
X1258029D2*
X1265529D1*
X1279029D2*
X1286529D1*
X1324029D2*
X1331529D1*
X1380730D2*
X1386724D1*
X1436529D2*
X1444029D1*
X1458166D2*
X1466961D1*
X1487965D2*
X1496223D1*
X1508529D2*
X1517535D1*
X1525023D2*
X1537044D1*
X1555029D2*
X1562529D1*
X1577529D2*
X1585029D1*
X1600029D2*
X1607529D1*
X1622529D2*
X1630029D1*
X1652529D2*
X1660029D1*
X1694529D2*
X1703529D1*
X740529Y1700907D2*
X748364D1*
X769826D2*
X778228D1*
X790029D2*
X797529D1*
X821218D2*
X830529D1*
X841153D2*
X849616D1*
X870937D2*
X880029D1*
X893154D2*
X900991D1*
X912025D2*
X920177D1*
X935529D2*
X943029D1*
X974529D2*
X983529D1*
X1025529D2*
X1033029D1*
X1058218D2*
X1067529D1*
X1081029D2*
X1088864D1*
X1110326D2*
X1118728D1*
X1169709D2*
X1179029D1*
X1200484D2*
X1214082D1*
X1228029D2*
X1235529D1*
X1258029D2*
X1265529D1*
X1279029D2*
X1286529D1*
X1324029D2*
X1331529D1*
X1381434D2*
X1387381D1*
X1436529D2*
X1444029D1*
X1457824D2*
X1466698D1*
X1489224D2*
X1496457D1*
X1508529D2*
X1517592D1*
X1523466D2*
X1535529D1*
X1555029D2*
X1562529D1*
X1577529D2*
X1585029D1*
X1600029D2*
X1607529D1*
X1622529D2*
X1630029D1*
X1652529D2*
X1660029D1*
X1694529D2*
X1703529D1*
X740529Y1699407D2*
X748167D1*
X770209D2*
X778613D1*
X790029D2*
X797529D1*
X821399D2*
X830529D1*
X841078D2*
X849110D1*
X871441D2*
X880029D1*
X893903D2*
X901573D1*
X911542D2*
X919589D1*
X935529D2*
X943029D1*
X974529D2*
X983529D1*
X1025529D2*
X1033029D1*
X1058399D2*
X1067529D1*
X1081029D2*
X1088667D1*
X1110709D2*
X1119113D1*
X1169326D2*
X1178715D1*
X1197388D2*
X1212545D1*
X1228029D2*
X1235529D1*
X1258029D2*
X1265529D1*
X1279029D2*
X1286529D1*
X1324029D2*
X1331529D1*
X1382160D2*
X1387969D1*
X1436529D2*
X1444029D1*
X1457653D2*
X1496722D1*
X1508529D2*
X1517824D1*
X1521734D2*
X1533972D1*
X1555029D2*
X1562529D1*
X1577529D2*
X1585029D1*
X1600029D2*
X1607529D1*
X1622529D2*
X1630029D1*
X1652529D2*
X1660029D1*
X1694529D2*
X1703529D1*
X740529Y1697907D2*
X748082D1*
X770396D2*
X778957D1*
X790029D2*
X797529D1*
X821478D2*
X830529D1*
X841047D2*
X848801D1*
X871847D2*
X880029D1*
X894654D2*
X902230D1*
X911026D2*
X919062D1*
X935529D2*
X943029D1*
X974529D2*
X983529D1*
X1025529D2*
X1033029D1*
X1058478D2*
X1067529D1*
X1081029D2*
X1088582D1*
X1110896D2*
X1119457D1*
X1168706D2*
X1178379D1*
X1194730D2*
X1210483D1*
X1228029D2*
X1235529D1*
X1258023D2*
X1265529D1*
X1279029D2*
X1286529D1*
X1324029D2*
X1331529D1*
X1382855D2*
X1388495D1*
X1436529D2*
X1444029D1*
X1457577D2*
X1497061D1*
X1508529D2*
X1518336D1*
X1519721D2*
X1532280D1*
X1555029D2*
X1562529D1*
X1577529D2*
X1585029D1*
X1600029D2*
X1607529D1*
X1622529D2*
X1630029D1*
X1652523D2*
X1660029D1*
X1694529D2*
X1703529D1*
X740529Y1696407D2*
X748048D1*
X770471D2*
X779032D1*
X790029D2*
X797529D1*
X821510D2*
X830529D1*
X841035D2*
X848650D1*
X871687D2*
X880029D1*
X895403D2*
X902934D1*
X910521D2*
X918483D1*
X935529D2*
X943029D1*
X974529D2*
X983529D1*
X1025529D2*
X1033029D1*
X1058510D2*
X1067529D1*
X1081029D2*
X1088548D1*
X1110971D2*
X1119532D1*
X1167878D2*
X1177903D1*
X1192624D2*
X1207844D1*
X1228029D2*
X1235535D1*
X1257970D2*
X1265523D1*
X1279029D2*
X1286529D1*
X1324029D2*
X1331529D1*
X1383459D2*
X1389074D1*
X1436529D2*
X1444029D1*
X1457546D2*
X1497266D1*
X1508529D2*
X1530420D1*
X1555029D2*
X1562529D1*
X1577529D2*
X1585029D1*
X1600029D2*
X1607529D1*
X1622529D2*
X1630035D1*
X1652470D2*
X1660023D1*
X1694529D2*
X1703529D1*
X740529Y1694907D2*
X748042D1*
X770451D2*
X778813D1*
X790029D2*
X797529D1*
X821522D2*
X830529D1*
X841031D2*
X848633D1*
X871425D2*
X880029D1*
X896154D2*
X903666D1*
X910035D2*
X917833D1*
X935529D2*
X943029D1*
X974529D2*
X983529D1*
X1025529D2*
X1033029D1*
X1058522D2*
X1067529D1*
X1081029D2*
X1088542D1*
X1110951D2*
X1119313D1*
X1166971D2*
X1177295D1*
X1191004D2*
X1204804D1*
X1228035D2*
X1235587D1*
X1257779D2*
X1265470D1*
X1279029D2*
X1286529D1*
X1324029D2*
X1331529D1*
X1383992D2*
X1389730D1*
X1436529D2*
X1444029D1*
X1457529D2*
X1497173D1*
X1508529D2*
X1528535D1*
X1555029D2*
X1562529D1*
X1577529D2*
X1585029D1*
X1600029D2*
X1607529D1*
X1622535D2*
X1630087D1*
X1652279D2*
X1659970D1*
X1694529D2*
X1703529D1*
X740529Y1693407D2*
X748096D1*
X770267D2*
X778493D1*
X790029D2*
X797529D1*
X821527D2*
X830529D1*
X841035D2*
X848801D1*
X871173D2*
X880029D1*
X896903D2*
X904412D1*
X909468D2*
X917177D1*
X935529D2*
X943029D1*
X974529D2*
X983529D1*
X1025529D2*
X1033029D1*
X1058527D2*
X1067529D1*
X1081029D2*
X1088596D1*
X1110767D2*
X1118993D1*
X1165952D2*
X1176606D1*
X1189787D2*
X1201786D1*
X1228087D2*
X1235779D1*
X1257420D2*
X1265279D1*
X1279029D2*
X1286529D1*
X1324029D2*
X1331529D1*
X1384573D2*
X1390434D1*
X1436529D2*
X1444029D1*
X1488966D2*
X1496923D1*
X1508529D2*
X1526774D1*
X1555029D2*
X1562529D1*
X1577529D2*
X1585029D1*
X1600029D2*
X1607529D1*
X1622587D2*
X1630279D1*
X1651920D2*
X1659779D1*
X1694529D2*
X1703529D1*
X740529Y1691907D2*
X748344D1*
X769853D2*
X778252D1*
X790029D2*
X797529D1*
X821528D2*
X830529D1*
X841088D2*
X849208D1*
X870857D2*
X880029D1*
X897654D2*
X905200D1*
X908780D2*
X916589D1*
X935529D2*
X943029D1*
X974529D2*
X983529D1*
X1025529D2*
X1033029D1*
X1058528D2*
X1067529D1*
X1081029D2*
X1088844D1*
X1110353D2*
X1118752D1*
X1164690D2*
X1175829D1*
X1188867D2*
X1199242D1*
X1228279D2*
X1236144D1*
X1257029D2*
X1264920D1*
X1279029D2*
X1286529D1*
X1324029D2*
X1331529D1*
X1385230D2*
X1391160D1*
X1436529D2*
X1444029D1*
X1488715D2*
X1496673D1*
X1508529D2*
X1525135D1*
X1555029D2*
X1562529D1*
X1577529D2*
X1585029D1*
X1600029D2*
X1607529D1*
X1622779D2*
X1630644D1*
X1651529D2*
X1659420D1*
X1694529D2*
X1703529D1*
X740529Y1690407D2*
X748958D1*
X769214D2*
X778070D1*
X790029D2*
X797529D1*
X821529D2*
X830529D1*
X841285D2*
X849845D1*
X870333D2*
X880029D1*
X898403D2*
X906074D1*
X907955D2*
X916062D1*
X935529D2*
X943029D1*
X974529D2*
X983529D1*
X1025529D2*
X1033029D1*
X1058529D2*
X1067529D1*
X1081029D2*
X1089458D1*
X1109714D2*
X1118570D1*
X1129029D2*
X1132029D1*
X1162995D2*
X1174893D1*
X1188224D2*
X1197143D1*
X1228644D2*
X1236593D1*
X1256703D2*
X1264529D1*
X1279029D2*
X1286529D1*
X1324029D2*
X1331529D1*
X1385934D2*
X1391855D1*
X1436529D2*
X1444029D1*
X1488100D2*
X1496363D1*
X1508529D2*
X1523571D1*
X1555029D2*
X1562529D1*
X1577529D2*
X1585029D1*
X1600029D2*
X1607529D1*
X1623144D2*
X1631093D1*
X1651203D2*
X1659029D1*
X1694529D2*
X1703529D1*
X740529Y1688907D2*
X750034D1*
X768262D2*
X777813D1*
X790029D2*
X797529D1*
X821529D2*
X830529D1*
X841696D2*
X850802D1*
X869456D2*
X880029D1*
X899154D2*
X915483D1*
X935529D2*
X943029D1*
X974529D2*
X983529D1*
X1025529D2*
X1033029D1*
X1058529D2*
X1067529D1*
X1081029D2*
X1090534D1*
X1108762D2*
X1118313D1*
X1129029D2*
X1135356D1*
X1160306D2*
X1173734D1*
X1187902D2*
X1196157D1*
X1211529D2*
X1213029D1*
X1229081D2*
X1237198D1*
X1256376D2*
X1264215D1*
X1279029D2*
X1286529D1*
X1324029D2*
X1331529D1*
X1386660D2*
X1392459D1*
X1436529D2*
X1444029D1*
X1463529D2*
X1465029D1*
X1487012D2*
X1495898D1*
X1508529D2*
X1522045D1*
X1555029D2*
X1562529D1*
X1577529D2*
X1585029D1*
X1600029D2*
X1607529D1*
X1623581D2*
X1631698D1*
X1650876D2*
X1658715D1*
X1694529D2*
X1703529D1*
X740529Y1687407D2*
X751767D1*
X766991D2*
X777371D1*
X790029D2*
X797529D1*
X821529D2*
X830529D1*
X842278D2*
X852090D1*
X868254D2*
X880029D1*
X899903D2*
X914828D1*
X935529D2*
X943029D1*
X974529D2*
X983529D1*
X1025529D2*
X1033029D1*
X1058529D2*
X1067529D1*
X1081029D2*
X1092267D1*
X1107491D2*
X1117871D1*
X1129035D2*
X1140789D1*
X1155616D2*
X1172405D1*
X1187916D2*
X1195867D1*
X1210495D2*
X1214741D1*
X1229540D2*
X1238081D1*
X1255428D2*
X1263879D1*
X1279029D2*
X1286529D1*
X1324029D2*
X1331529D1*
X1387355D2*
X1392992D1*
X1436529D2*
X1444029D1*
X1461694D2*
X1467192D1*
X1485568D2*
X1495293D1*
X1508529D2*
X1520534D1*
X1555029D2*
X1562529D1*
X1577529D2*
X1585029D1*
X1600029D2*
X1607529D1*
X1624040D2*
X1632581D1*
X1649928D2*
X1658379D1*
X1694529D2*
X1703529D1*
X740529Y1685907D2*
X754692D1*
X763887D2*
X776726D1*
X790029D2*
X797529D1*
X821529D2*
X830529D1*
X842958D2*
X855455D1*
X865330D2*
X880029D1*
X900654D2*
X914124D1*
X935529D2*
X943029D1*
X974529D2*
X983529D1*
X1025529D2*
X1033029D1*
X1058529D2*
X1067529D1*
X1081029D2*
X1095192D1*
X1104387D2*
X1117226D1*
X1129093D2*
X1149078D1*
X1148335D2*
X1170974D1*
X1188253D2*
X1198335D1*
X1207363D2*
X1216239D1*
X1230097D2*
X1241474D1*
X1252061D2*
X1263397D1*
X1279029D2*
X1286529D1*
X1324029D2*
X1331529D1*
X1387959D2*
X1393573D1*
X1436529D2*
X1444029D1*
X1460310D2*
X1470707D1*
X1481877D2*
X1494599D1*
X1508529D2*
X1519025D1*
X1555029D2*
X1562529D1*
X1577529D2*
X1585029D1*
X1600029D2*
X1607529D1*
X1624597D2*
X1635974D1*
X1646561D2*
X1657897D1*
X1694529D2*
X1703529D1*
X740529Y1684407D2*
X759159D1*
X759396D2*
X775852D1*
X790029D2*
X797529D1*
X821529D2*
X830529D1*
X843731D2*
X860467D1*
X861110D2*
X880029D1*
X901403D2*
X913398D1*
X935529D2*
X943029D1*
X974529D2*
X983529D1*
X1025529D2*
X1033029D1*
X1058529D2*
X1067529D1*
X1081029D2*
X1099659D1*
X1099896D2*
X1116352D1*
X1129349D2*
X1169446D1*
X1188855D2*
X1202213D1*
X1202494D2*
X1216806D1*
X1230795D2*
X1246867D1*
X1246683D2*
X1262737D1*
X1279029D2*
X1286529D1*
X1324029D2*
X1331529D1*
X1388492D2*
X1394230D1*
X1436529D2*
X1444029D1*
X1459906D2*
X1476249D1*
X1476309D2*
X1493770D1*
X1508529D2*
X1517471D1*
X1555029D2*
X1562529D1*
X1577529D2*
X1585029D1*
X1600029D2*
X1607529D1*
X1625295D2*
X1641367D1*
X1641183D2*
X1657237D1*
X1694529D2*
X1703529D1*
X740529Y1682907D2*
X774713D1*
X790029D2*
X797529D1*
X821529D2*
X830529D1*
X844677D2*
X880029D1*
X902154D2*
X912715D1*
X935529D2*
X943029D1*
X974529D2*
X983529D1*
X1025529D2*
X1033029D1*
X1058529D2*
X1067529D1*
X1081029D2*
X1115213D1*
X1129835D2*
X1167702D1*
X1189720D2*
X1216554D1*
X1231703D2*
X1261844D1*
X1279029D2*
X1286529D1*
X1324029D2*
X1331529D1*
X1389073D2*
X1394934D1*
X1436529D2*
X1444029D1*
X1461047D2*
X1492632D1*
X1508529D2*
X1515778D1*
X1555029D2*
X1562529D1*
X1577529D2*
X1585029D1*
X1600029D2*
X1607529D1*
X1626203D2*
X1656344D1*
X1694529D2*
X1703529D1*
X740529Y1681407D2*
X773336D1*
X790029D2*
X797529D1*
X821529D2*
X830529D1*
X845950D2*
X880029D1*
X902903D2*
X912216D1*
X935529D2*
X943029D1*
X974529D2*
X983529D1*
X1025529D2*
X1033029D1*
X1058529D2*
X1067529D1*
X1081029D2*
X1113836D1*
X1131337D2*
X1165541D1*
X1190905D2*
X1215437D1*
X1232960D2*
X1260594D1*
X1279029D2*
X1286529D1*
X1324029D2*
X1331529D1*
X1389724D2*
X1395660D1*
X1436529D2*
X1444029D1*
X1462605D2*
X1490998D1*
X1508529D2*
X1513906D1*
X1555029D2*
X1562529D1*
X1577529D2*
X1585029D1*
X1600029D2*
X1607529D1*
X1627460D2*
X1655094D1*
X1694529D2*
X1703529D1*
X740529Y1679907D2*
X748029D1*
X751305D2*
X771684D1*
X790029D2*
X797529D1*
X821529D2*
X830529D1*
X847742D2*
X867753D1*
X871029D2*
X880029D1*
X903654D2*
X911939D1*
X935529D2*
X943029D1*
X974529D2*
X983529D1*
X1025529D2*
X1033029D1*
X1058529D2*
X1067529D1*
X1081029D2*
X1088529D1*
X1091805D2*
X1112184D1*
X1133695D2*
X1162818D1*
X1192454D2*
X1213742D1*
X1234746D2*
X1258810D1*
X1279029D2*
X1286529D1*
X1324029D2*
X1331529D1*
X1390381D2*
X1396355D1*
X1436529D2*
X1444029D1*
X1464821D2*
X1488818D1*
X1508529D2*
X1511960D1*
X1555029D2*
X1562529D1*
X1577529D2*
X1585029D1*
X1600029D2*
X1607529D1*
X1629246D2*
X1653310D1*
X1694529D2*
X1703529D1*
X740529Y1678407D2*
X748029D1*
X753331D2*
X769704D1*
X790029D2*
X797529D1*
X821529D2*
X830529D1*
X850189D2*
X865727D1*
X871029D2*
X880029D1*
X904403D2*
X912291D1*
X935529D2*
X943029D1*
X974529D2*
X983529D1*
X1025529D2*
X1033029D1*
X1058529D2*
X1067529D1*
X1081029D2*
X1088529D1*
X1093831D2*
X1110204D1*
X1137080D2*
X1159562D1*
X1194384D2*
X1211342D1*
X1237191D2*
X1256367D1*
X1279029D2*
X1286529D1*
X1324029D2*
X1331529D1*
X1390969D2*
X1396959D1*
X1436529D2*
X1444029D1*
X1467742D2*
X1486086D1*
X1508529D2*
X1510029D1*
X1555029D2*
X1562529D1*
X1577529D2*
X1585029D1*
X1600029D2*
X1607529D1*
X1631691D2*
X1650867D1*
X1694529D2*
X1703529D1*
X740529Y1676907D2*
X748029D1*
X755529D2*
X767529D1*
X790029D2*
X797529D1*
X821529D2*
X830529D1*
X853029D2*
X863529D1*
X871029D2*
X880029D1*
X905154D2*
X912871D1*
X935529D2*
X943029D1*
X974529D2*
X983529D1*
X1025529D2*
X1033029D1*
X1058529D2*
X1067529D1*
X1081029D2*
X1088529D1*
X1096029D2*
X1108029D1*
X1141029D2*
X1156029D1*
X1196529D2*
X1208529D1*
X1240029D2*
X1253529D1*
X1279029D2*
X1286529D1*
X1324029D2*
X1331529D1*
X1391495D2*
X1397492D1*
X1436529D2*
X1444029D1*
X1471029D2*
X1483029D1*
X1555029D2*
X1562529D1*
X1577529D2*
X1585029D1*
X1600029D2*
X1607529D1*
X1634529D2*
X1648029D1*
X1694529D2*
X1703529D1*
X905903Y1675407D2*
X913664D1*
X1392074D2*
X1398073D1*
X1600029D2*
X1607529D1*
X906654Y1673907D2*
X914590D1*
X1392730D2*
X1398730D1*
X1600029D2*
X1607529D1*
X907403Y1672407D2*
X915493D1*
X1393439D2*
X1399438D1*
X1600029D2*
X1607529D1*
X908154Y1670907D2*
X916331D1*
X1394210D2*
X1400210D1*
X1600029D2*
X1607529D1*
X908903Y1669407D2*
X917125D1*
X1395077D2*
X1401077D1*
X1600029D2*
X1607529D1*
X909654Y1667907D2*
X917892D1*
X1396029D2*
X1402029D1*
X1600029D2*
X1607529D1*
X910403Y1666407D2*
X918650D1*
X1600029D2*
X1607529D1*
X911154Y1664907D2*
X919402D1*
X1600029D2*
X1607529D1*
X911908Y1663407D2*
X920149D1*
X1600029D2*
X1607529D1*
X912698Y1661907D2*
X920860D1*
X1600029D2*
X1607529D1*
X913573Y1660407D2*
X921484D1*
X1600029D2*
X1607529D1*
X914529Y1658907D2*
X922029D1*
X1600029D2*
X1607529D1*
X996280Y1649407D2*
X1008280D1*
X1363780D2*
X1387780D1*
X993574Y1647907D2*
X1010979D1*
X1360901D2*
X1387780D1*
X991203Y1646407D2*
X1013303D1*
X1358592D2*
X1387780D1*
X989253Y1644907D2*
X1015115D1*
X1356853D2*
X1387780D1*
X987707Y1643407D2*
X1016493D1*
X1355577D2*
X1387780D1*
X986513Y1641907D2*
X998131D1*
X1006780D2*
X1017655D1*
X1174780D2*
X1182280D1*
X1251280D2*
X1258780D1*
X1354633D2*
X1387780D1*
X985553Y1640407D2*
X995952D1*
X1008274D2*
X1018692D1*
X1174780D2*
X1182280D1*
X1251280D2*
X1258780D1*
X1353974D2*
X1368932D1*
X1378780D2*
X1387780D1*
X984717Y1638907D2*
X994368D1*
X1009715D2*
X1019512D1*
X1174780D2*
X1182280D1*
X1251280D2*
X1258780D1*
X1353596D2*
X1365928D1*
X1378780D2*
X1387780D1*
X983985Y1637407D2*
X993253D1*
X1010971D2*
X1020152D1*
X1174780D2*
X1182280D1*
X1251280D2*
X1258780D1*
X1353411D2*
X1363689D1*
X1378780D2*
X1387780D1*
X983411Y1635907D2*
X992466D1*
X1011915D2*
X1020737D1*
X1174780D2*
X1182280D1*
X1251280D2*
X1258780D1*
X1353331D2*
X1362954D1*
X1378780D2*
X1387780D1*
X983017Y1634407D2*
X991865D1*
X1012612D2*
X1021271D1*
X1174780D2*
X1182280D1*
X1251280D2*
X1258780D1*
X1353298D2*
X1362562D1*
X1378780D2*
X1387780D1*
X982654Y1632907D2*
X991309D1*
X1013217D2*
X1021762D1*
X1174780D2*
X1182280D1*
X1251280D2*
X1258780D1*
X1353286D2*
X1362395D1*
X1378780D2*
X1387780D1*
X982219Y1631407D2*
X990839D1*
X1013707D2*
X1022275D1*
X1174780D2*
X1182280D1*
X1251280D2*
X1258780D1*
X1353288D2*
X1362396D1*
X1378780D2*
X1387780D1*
X981804Y1629907D2*
X990544D1*
X1014010D2*
X1022728D1*
X1174780D2*
X1182280D1*
X1251280D2*
X1258780D1*
X1353339D2*
X1362538D1*
X1378780D2*
X1387780D1*
X981531Y1628407D2*
X990392D1*
X1014165D2*
X1023018D1*
X1045780D2*
X1057780D1*
X1092280D2*
X1101280D1*
X1174780D2*
X1182280D1*
X1212280D2*
X1222780D1*
X1251280D2*
X1258780D1*
X1288780D2*
X1299280D1*
X1321780D2*
X1329280D1*
X1353535D2*
X1363615D1*
X1378780D2*
X1387780D1*
X981387Y1626907D2*
X990324D1*
X1014235D2*
X1023168D1*
X1042895D2*
X1060664D1*
X1089401D2*
X1104451D1*
X1110280D2*
X1119280D1*
X1125280D2*
X1134280D1*
X1156780D2*
X1189780D1*
X1208882D2*
X1226177D1*
X1243780D2*
X1266280D1*
X1285382D2*
X1302677D1*
X1320391D2*
X1331055D1*
X1335280D2*
X1344280D1*
X1353953D2*
X1367651D1*
X1378780D2*
X1387780D1*
X981322Y1625407D2*
X990296D1*
X1014263D2*
X1023235D1*
X1040539D2*
X1063026D1*
X1087092D2*
X1107405D1*
X1109576D2*
X1119280D1*
X1126210D2*
X1134849D1*
X1156030D2*
X1164042D1*
X1167280D2*
X1189780D1*
X1206074D2*
X1228979D1*
X1243780D2*
X1266280D1*
X1282574D2*
X1305479D1*
X1319968D2*
X1333082D1*
X1334576D2*
X1344280D1*
X1354587D2*
X1374000D1*
X1378780D2*
X1387780D1*
X981296Y1623907D2*
X990285D1*
X1014274D2*
X1023263D1*
X1038656D2*
X1064956D1*
X1085353D2*
X1119280D1*
X1127065D2*
X1135494D1*
X1155401D2*
X1163617D1*
X1167280D2*
X1189780D1*
X1203859D2*
X1231147D1*
X1243780D2*
X1266280D1*
X1280359D2*
X1307647D1*
X1320329D2*
X1344280D1*
X1355470D2*
X1387780D1*
X981285Y1622407D2*
X990282D1*
X1014277D2*
X1023274D1*
X1037159D2*
X1066597D1*
X1084071D2*
X1119280D1*
X1127868D2*
X1136191D1*
X1154771D2*
X1163038D1*
X1167280D2*
X1189780D1*
X1202072D2*
X1232796D1*
X1243780D2*
X1266280D1*
X1278572D2*
X1309296D1*
X1320970D2*
X1344280D1*
X1356766D2*
X1387780D1*
X981281Y1620907D2*
X990280D1*
X1014279D2*
X1023278D1*
X1035993D2*
X1047580D1*
X1055979D2*
X1067978D1*
X1083075D2*
X1095580D1*
X1103928D2*
X1119280D1*
X1128640D2*
X1136919D1*
X1154098D2*
X1162410D1*
X1167280D2*
X1189780D1*
X1200624D2*
X1214375D1*
X1221159D2*
X1234076D1*
X1243780D2*
X1266280D1*
X1277124D2*
X1290875D1*
X1297659D2*
X1310576D1*
X1321780D2*
X1323280D1*
X1330722D2*
X1344280D1*
X1358466D2*
X1387780D1*
X981280Y1619407D2*
X990280D1*
X1014279D2*
X1023279D1*
X1035045D2*
X1045262D1*
X1058303D2*
X1069090D1*
X1082224D2*
X1093262D1*
X1106107D2*
X1119280D1*
X1129400D2*
X1137659D1*
X1153432D2*
X1161833D1*
X1174780D2*
X1182280D1*
X1199485D2*
X1211173D1*
X1223710D2*
X1235189D1*
X1251280D2*
X1258780D1*
X1275985D2*
X1287673D1*
X1300210D2*
X1311689D1*
X1332024D2*
X1344280D1*
X1363380D2*
X1387780D1*
X981280Y1617907D2*
X990280D1*
X1014279D2*
X1023279D1*
X1034214D2*
X1043509D1*
X1060115D2*
X1069966D1*
X1081487D2*
X1091503D1*
X1107691D2*
X1119280D1*
X1130152D2*
X1138401D1*
X1152841D2*
X1161311D1*
X1174780D2*
X1182280D1*
X1198593D2*
X1208866D1*
X1225689D2*
X1236199D1*
X1251280D2*
X1258780D1*
X1275093D2*
X1285366D1*
X1302189D2*
X1312699D1*
X1333106D2*
X1344280D1*
X1370975D2*
X1387780D1*
X981280Y1616407D2*
X990280D1*
X1014280D2*
X1023279D1*
X1033483D2*
X1042177D1*
X1061499D2*
X1070599D1*
X1080918D2*
X1090316D1*
X1108806D2*
X1119280D1*
X1130905D2*
X1139102D1*
X1152319D2*
X1160733D1*
X1174780D2*
X1182280D1*
X1197903D2*
X1207296D1*
X1227114D2*
X1236958D1*
X1251280D2*
X1258780D1*
X1274403D2*
X1283796D1*
X1303614D2*
X1313458D1*
X1333972D2*
X1344280D1*
X1380280D2*
X1387780D1*
X981280Y1614907D2*
X990280D1*
X1014280D2*
X1023280D1*
X1032916D2*
X1041712D1*
X1062716D2*
X1070974D1*
X1080575D2*
X1089513D1*
X1109593D2*
X1119280D1*
X1131654D2*
X1139708D1*
X1151787D2*
X1160084D1*
X1174780D2*
X1182280D1*
X1197342D2*
X1206220D1*
X1228179D2*
X1237409D1*
X1251280D2*
X1258780D1*
X1273842D2*
X1282720D1*
X1304679D2*
X1313909D1*
X1334601D2*
X1344280D1*
X1380280D2*
X1387780D1*
X981280Y1613407D2*
X990280D1*
X1014280D2*
X1023274D1*
X1032575D2*
X1041449D1*
X1063975D2*
X1071208D1*
X1080404D2*
X1088867D1*
X1110188D2*
X1119280D1*
X1132405D2*
X1140242D1*
X1151275D2*
X1159427D1*
X1174780D2*
X1182280D1*
X1196801D2*
X1205506D1*
X1229011D2*
X1237686D1*
X1251280D2*
X1258780D1*
X1273301D2*
X1282006D1*
X1305511D2*
X1314186D1*
X1334968D2*
X1344280D1*
X1380280D2*
X1387780D1*
X981285Y1611907D2*
X990285D1*
X1014274D2*
X1023221D1*
X1032404D2*
X1071473D1*
X1080328D2*
X1088361D1*
X1110691D2*
X1119280D1*
X1133154D2*
X1140824D1*
X1150792D2*
X1158839D1*
X1174780D2*
X1182280D1*
X1196337D2*
X1205108D1*
X1229619D2*
X1238014D1*
X1251280D2*
X1258780D1*
X1272837D2*
X1281608D1*
X1306119D2*
X1314514D1*
X1335150D2*
X1344280D1*
X1380280D2*
X1387780D1*
X981338Y1610407D2*
X990338D1*
X1014221D2*
X1023030D1*
X1032328D2*
X1071811D1*
X1080298D2*
X1088051D1*
X1111098D2*
X1119280D1*
X1133905D2*
X1141480D1*
X1150277D2*
X1158313D1*
X1174780D2*
X1182280D1*
X1196049D2*
X1204915D1*
X1229970D2*
X1238566D1*
X1251280D2*
X1258780D1*
X1272549D2*
X1281415D1*
X1306470D2*
X1315066D1*
X1335229D2*
X1344280D1*
X1380280D2*
X1387780D1*
X981529Y1608907D2*
X990529D1*
X1014030D2*
X1022665D1*
X1032297D2*
X1072017D1*
X1080286D2*
X1087901D1*
X1110938D2*
X1119280D1*
X1134654D2*
X1142184D1*
X1149772D2*
X1157734D1*
X1174780D2*
X1182280D1*
X1195950D2*
X1204838D1*
X1230094D2*
X1239280D1*
X1251280D2*
X1258780D1*
X1272450D2*
X1281338D1*
X1306594D2*
X1315780D1*
X1335261D2*
X1344280D1*
X1380280D2*
X1387780D1*
X981894Y1607407D2*
X990894D1*
X1013665D2*
X1022227D1*
X1032280D2*
X1071923D1*
X1080282D2*
X1087883D1*
X1110675D2*
X1119280D1*
X1135405D2*
X1142917D1*
X1149285D2*
X1157084D1*
X1174780D2*
X1182280D1*
X1196074D2*
X1204857D1*
X1229974D2*
X1238587D1*
X1251280D2*
X1258780D1*
X1272574D2*
X1281357D1*
X1306474D2*
X1315087D1*
X1335273D2*
X1344280D1*
X1380280D2*
X1387780D1*
X982332Y1605907D2*
X991332D1*
X1013221D2*
X1021775D1*
X1063717D2*
X1071674D1*
X1080286D2*
X1088052D1*
X1110423D2*
X1119280D1*
X1136154D2*
X1143663D1*
X1148719D2*
X1156427D1*
X1174780D2*
X1182280D1*
X1196411D2*
X1205042D1*
X1229594D2*
X1238150D1*
X1251280D2*
X1258780D1*
X1272911D2*
X1281542D1*
X1306094D2*
X1314650D1*
X1335277D2*
X1344280D1*
X1380280D2*
X1387780D1*
X982790Y1604407D2*
X991790D1*
X1012710D2*
X1021270D1*
X1063466D2*
X1071423D1*
X1080338D2*
X1088459D1*
X1110114D2*
X1119280D1*
X1136905D2*
X1144450D1*
X1148031D2*
X1155839D1*
X1174780D2*
X1182280D1*
X1196838D2*
X1205455D1*
X1229018D2*
X1237874D1*
X1251280D2*
X1258780D1*
X1273338D2*
X1281955D1*
X1305518D2*
X1314374D1*
X1335279D2*
X1344280D1*
X1380280D2*
X1387780D1*
X983341Y1602907D2*
X992353D1*
X1011962D2*
X1020764D1*
X1062851D2*
X1071114D1*
X1080535D2*
X1089095D1*
X1109637D2*
X1119280D1*
X1137654D2*
X1145324D1*
X1147205D2*
X1155313D1*
X1174780D2*
X1182280D1*
X1197292D2*
X1206100D1*
X1228284D2*
X1237533D1*
X1251280D2*
X1258780D1*
X1273792D2*
X1282600D1*
X1304784D2*
X1314033D1*
X1335279D2*
X1344280D1*
X1380280D2*
X1387780D1*
X983987Y1601407D2*
X993139D1*
X1010875D2*
X1020232D1*
X1038280D2*
X1039780D1*
X1061763D2*
X1070648D1*
X1080947D2*
X1090052D1*
X1108892D2*
X1119280D1*
X1138405D2*
X1154734D1*
X1174780D2*
X1182280D1*
X1197848D2*
X1206910D1*
X1227239D2*
X1236938D1*
X1251280D2*
X1258780D1*
X1274348D2*
X1283410D1*
X1303739D2*
X1313438D1*
X1335279D2*
X1344280D1*
X1380280D2*
X1387780D1*
X984692Y1599907D2*
X994176D1*
X1009308D2*
X1019526D1*
X1036445D2*
X1041943D1*
X1060318D2*
X1070044D1*
X1081529D2*
X1091340D1*
X1107876D2*
X1119280D1*
X1139154D2*
X1154078D1*
X1174780D2*
X1182280D1*
X1198545D2*
X1208920D1*
X1225847D2*
X1236121D1*
X1251280D2*
X1258780D1*
X1275045D2*
X1285420D1*
X1302347D2*
X1312621D1*
X1335280D2*
X1344280D1*
X1380280D2*
X1387780D1*
X985476Y1598407D2*
X997377D1*
X1006745D2*
X1018656D1*
X1035060D2*
X1045458D1*
X1056628D2*
X1069350D1*
X1082208D2*
X1094706D1*
X1104680D2*
X1119280D1*
X1139905D2*
X1153374D1*
X1174780D2*
X1182280D1*
X1199442D2*
X1212411D1*
X1222486D2*
X1235213D1*
X1251280D2*
X1258780D1*
X1275942D2*
X1288911D1*
X1298986D2*
X1311713D1*
X1335280D2*
X1344280D1*
X1380280D2*
X1387780D1*
X986420Y1596907D2*
X1002287D1*
X1002720D2*
X1017727D1*
X1034657D2*
X1051000D1*
X1051059D2*
X1068521D1*
X1082982D2*
X1099718D1*
X1099771D2*
X1119280D1*
X1140654D2*
X1152648D1*
X1174780D2*
X1182280D1*
X1200591D2*
X1217808D1*
X1217800D2*
X1234149D1*
X1251280D2*
X1258780D1*
X1277091D2*
X1294308D1*
X1294300D2*
X1310649D1*
X1335280D2*
X1344280D1*
X1380280D2*
X1387780D1*
X987639Y1595407D2*
X1016648D1*
X1035798D2*
X1067382D1*
X1083928D2*
X1119280D1*
X1141405D2*
X1151965D1*
X1174780D2*
X1182280D1*
X1201978D2*
X1232749D1*
X1251280D2*
X1258780D1*
X1278478D2*
X1309249D1*
X1335280D2*
X1344280D1*
X1380280D2*
X1387780D1*
X989217Y1593907D2*
X1015199D1*
X1037355D2*
X1065749D1*
X1085201D2*
X1119280D1*
X1142154D2*
X1151467D1*
X1174780D2*
X1182280D1*
X1203706D2*
X1230930D1*
X1251280D2*
X1258780D1*
X1280206D2*
X1307430D1*
X1335280D2*
X1344280D1*
X1380280D2*
X1387780D1*
X991246Y1592407D2*
X1013249D1*
X1039572D2*
X1063568D1*
X1086993D2*
X1107004D1*
X1110280D2*
X1119280D1*
X1142905D2*
X1151190D1*
X1174780D2*
X1182280D1*
X1206010D2*
X1228647D1*
X1251280D2*
X1258780D1*
X1282510D2*
X1305147D1*
X1335280D2*
X1344280D1*
X1380280D2*
X1387780D1*
X993673Y1590907D2*
X1010861D1*
X1042492D2*
X1060837D1*
X1089440D2*
X1104977D1*
X1110280D2*
X1119280D1*
X1143654D2*
X1151542D1*
X1174780D2*
X1182280D1*
X1208970D2*
X1225867D1*
X1251280D2*
X1258780D1*
X1285470D2*
X1302367D1*
X1335280D2*
X1344280D1*
X1380280D2*
X1387780D1*
X996280Y1589407D2*
X1008280D1*
X1045780D2*
X1057780D1*
X1092280D2*
X1102780D1*
X1110280D2*
X1119280D1*
X1144405D2*
X1152121D1*
X1174780D2*
X1182280D1*
X1212280D2*
X1222780D1*
X1251280D2*
X1258780D1*
X1288780D2*
X1299280D1*
X1335280D2*
X1344280D1*
X1380280D2*
X1387780D1*
X1110280Y1587907D2*
X1119280D1*
X1145154D2*
X1152915D1*
X1110280Y1586407D2*
X1119280D1*
X1145905D2*
X1153841D1*
X1110280Y1584907D2*
X1119280D1*
X1146654D2*
X1154744D1*
X1110280Y1583407D2*
X1119280D1*
X1147405D2*
X1155582D1*
X1110280Y1581907D2*
X1119280D1*
X1148154D2*
X1156376D1*
X1110280Y1580407D2*
X1119280D1*
X1148905D2*
X1157143D1*
X1110280Y1578907D2*
X1119280D1*
X1149654D2*
X1157901D1*
X1110280Y1577407D2*
X1119280D1*
X1150405D2*
X1158653D1*
X1110280Y1575907D2*
X1119280D1*
X1151159D2*
X1159400D1*
X1110280Y1574407D2*
X1119280D1*
X1151949D2*
X1160110D1*
X1110280Y1572907D2*
X1119280D1*
X1152824D2*
X1160735D1*
X1110280Y1571407D2*
X1119280D1*
X1153780D2*
X1161280D1*
X873532Y1898225D2*
X879532D1*
X873532Y1896725D2*
X879532D1*
X873532Y1895225D2*
X879532D1*
X851032Y1893725D2*
X855532D1*
X873532D2*
X879532D1*
X849648Y1892225D2*
X856225D1*
X873532D2*
X879532D1*
X848622Y1890725D2*
X856650D1*
X873532D2*
X879532D1*
X848299Y1889225D2*
X856811D1*
X873532D2*
X879532D1*
X848508Y1887725D2*
X856676D1*
X873532D2*
X879532D1*
X849631Y1886225D2*
X856203D1*
X873532D2*
X879532D1*
X851032Y1884725D2*
X855532D1*
X873532D2*
X879532D1*
X873532Y1883225D2*
X879532D1*
X873532Y1881725D2*
X879532D1*
X873532Y1880225D2*
X879532D1*
X873532Y1878725D2*
X879532D1*
X873532Y1877225D2*
X879532D1*
X873532Y1875725D2*
X879532D1*
X873532Y1874225D2*
X879532D1*
X873532Y1872725D2*
X879532D1*
X873532Y1871225D2*
X879532D1*
X873532Y1869725D2*
X879532D1*
X753532Y1868225D2*
X765532D1*
X803032D2*
X815032D1*
X873532D2*
X879532D1*
X906532D2*
X918532D1*
X966532D2*
X978532D1*
X750141Y1866725D2*
X768238D1*
X800384D2*
X817800D1*
X825532D2*
X833032D1*
X849532D2*
X855532D1*
X873532D2*
X879532D1*
X903884D2*
X921300D1*
X929032D2*
X936532D1*
X963416D2*
X981930D1*
X747385Y1865225D2*
X770615D1*
X798205D2*
X820415D1*
X825257D2*
X833032D1*
X849532D2*
X855532D1*
X873532D2*
X879532D1*
X901705D2*
X923915D1*
X928757D2*
X936532D1*
X960682D2*
X984738D1*
X745356Y1863725D2*
X772611D1*
X796615D2*
X822965D1*
X824730D2*
X833032D1*
X849532D2*
X855532D1*
X873532D2*
X879532D1*
X900115D2*
X926465D1*
X928230D2*
X936532D1*
X958364D2*
X986958D1*
X743881Y1862225D2*
X753827D1*
X763738D2*
X774302D1*
X795453D2*
X806384D1*
X816464D2*
X833032D1*
X849532D2*
X855532D1*
X873532D2*
X879532D1*
X898953D2*
X909884D1*
X919964D2*
X936532D1*
X956460D2*
X968622D1*
X976443D2*
X988793D1*
X742680Y1860725D2*
X751456D1*
X766109D2*
X775711D1*
X794527D2*
X804205D1*
X819160D2*
X833032D1*
X849532D2*
X855532D1*
X873532D2*
X879532D1*
X898027D2*
X907705D1*
X922660D2*
X936532D1*
X954934D2*
X965368D1*
X979697D2*
X990385D1*
X741628Y1859225D2*
X749512D1*
X768059D2*
X776841D1*
X793759D2*
X802621D1*
X821354D2*
X833032D1*
X849532D2*
X855532D1*
X873532D2*
X879532D1*
X897259D2*
X906121D1*
X924854D2*
X936532D1*
X953706D2*
X962869D1*
X982196D2*
X991744D1*
X740803Y1857725D2*
X748012D1*
X769605D2*
X777775D1*
X793177D2*
X801512D1*
X822942D2*
X833032D1*
X849532D2*
X855532D1*
X873532D2*
X879532D1*
X896677D2*
X905012D1*
X926442D2*
X936532D1*
X952612D2*
X960940D1*
X984131D2*
X992848D1*
X740161Y1856225D2*
X746963D1*
X770793D2*
X778601D1*
X792831D2*
X800777D1*
X824053D2*
X833032D1*
X849532D2*
X855532D1*
X873532D2*
X879532D1*
X896331D2*
X904277D1*
X927553D2*
X936532D1*
X951609D2*
X959473D1*
X985644D2*
X993727D1*
X739581Y1854725D2*
X746224D1*
X771700D2*
X779329D1*
X792658D2*
X800368D1*
X824788D2*
X833032D1*
X849532D2*
X855532D1*
X873532D2*
X879532D1*
X896158D2*
X903868D1*
X928288D2*
X936532D1*
X950847D2*
X958446D1*
X986811D2*
X994411D1*
X739100Y1853225D2*
X745604D1*
X772346D2*
X779896D1*
X792581D2*
X800171D1*
X825197D2*
X833032D1*
X849532D2*
X855532D1*
X873532D2*
X879532D1*
X896081D2*
X903671D1*
X928697D2*
X936532D1*
X950349D2*
X957717D1*
X987708D2*
X994971D1*
X738800Y1851725D2*
X745104D1*
X772720D2*
X780237D1*
X792551D2*
X800086D1*
X825394D2*
X833032D1*
X849532D2*
X855532D1*
X873532D2*
X879532D1*
X896051D2*
X903586D1*
X928894D2*
X936532D1*
X949939D2*
X957101D1*
X988348D2*
X995511D1*
X738646Y1850225D2*
X744774D1*
X772912D2*
X780408D1*
X792539D2*
X800052D1*
X825479D2*
X833032D1*
X849532D2*
X855532D1*
X873532D2*
X879532D1*
X896039D2*
X903552D1*
X928979D2*
X936532D1*
X949484D2*
X956607D1*
X988719D2*
X995975D1*
X738577Y1848725D2*
X780484D1*
X792535D2*
X800039D1*
X825513D2*
X833032D1*
X849532D2*
X855532D1*
X873532D2*
X879532D1*
X896035D2*
X903539D1*
X929013D2*
X936532D1*
X949061D2*
X956302D1*
X988902D2*
X996269D1*
X738549Y1847225D2*
X780514D1*
X792533D2*
X800035D1*
X825526D2*
X833032D1*
X849532D2*
X855532D1*
X873532D2*
X879532D1*
X896033D2*
X903535D1*
X929026D2*
X936532D1*
X948791D2*
X956147D1*
X988982D2*
X996420D1*
X738538Y1845725D2*
X780526D1*
X792533D2*
X800033D1*
X825530D2*
X833032D1*
X849532D2*
X855532D1*
X873532D2*
X879532D1*
X896033D2*
X903533D1*
X929030D2*
X936532D1*
X948699D2*
X956083D1*
X989014D2*
X996482D1*
X738532Y1844225D2*
X780524D1*
X792533D2*
X800033D1*
X825532D2*
X833032D1*
X849532D2*
X855532D1*
X873532D2*
X879532D1*
X896033D2*
X903533D1*
X929032D2*
X936532D1*
X948825D2*
X956108D1*
X989020D2*
X996457D1*
X773027Y1842725D2*
X780473D1*
X792532D2*
X800033D1*
X825532D2*
X833032D1*
X849532D2*
X855532D1*
X873532D2*
X879532D1*
X896032D2*
X903533D1*
X929032D2*
X936532D1*
X949158D2*
X956288D1*
X988972D2*
X996277D1*
X772974Y1841225D2*
X780282D1*
X792532D2*
X800032D1*
X825532D2*
X833032D1*
X849532D2*
X855532D1*
X873532D2*
X879532D1*
X896032D2*
X903532D1*
X929032D2*
X936532D1*
X949538D2*
X956649D1*
X988776D2*
X995916D1*
X772777Y1839725D2*
X779918D1*
X792532D2*
X800032D1*
X825532D2*
X833032D1*
X849532D2*
X855532D1*
X873532D2*
X879532D1*
X896032D2*
X903532D1*
X929032D2*
X936532D1*
X949854D2*
X957091D1*
X988359D2*
X995480D1*
X772359Y1838225D2*
X779480D1*
X792532D2*
X800032D1*
X825532D2*
X833032D1*
X849532D2*
X855532D1*
X873532D2*
X879532D1*
X896032D2*
X903532D1*
X929032D2*
X936532D1*
X950236D2*
X957602D1*
X987725D2*
X995021D1*
X741532Y1836725D2*
X744532D1*
X771725D2*
X779022D1*
X792532D2*
X800032D1*
X825532D2*
X833032D1*
X849532D2*
X855532D1*
X873532D2*
X879532D1*
X896032D2*
X903532D1*
X929032D2*
X936532D1*
X950855D2*
X958350D1*
X986854D2*
X994465D1*
X740167Y1835225D2*
X745403D1*
X770848D2*
X778465D1*
X792532D2*
X800032D1*
X825532D2*
X833032D1*
X849532D2*
X855532D1*
X873532D2*
X879532D1*
X896032D2*
X903532D1*
X929032D2*
X936532D1*
X951684D2*
X959419D1*
X985710D2*
X993767D1*
X739540Y1833725D2*
X746758D1*
X769622D2*
X777767D1*
X792532D2*
X800032D1*
X825532D2*
X833032D1*
X849532D2*
X855532D1*
X873532D2*
X879532D1*
X896032D2*
X903532D1*
X929032D2*
X936532D1*
X952590D2*
X960847D1*
X984244D2*
X992870D1*
X740374Y1832225D2*
X748992D1*
X768098D2*
X776870D1*
X792532D2*
X800032D1*
X825532D2*
X833032D1*
X849532D2*
X855532D1*
X873532D2*
X879532D1*
X896032D2*
X903532D1*
X929032D2*
X936532D1*
X953609D2*
X963036D1*
X982039D2*
X991727D1*
X1014532D2*
X1019032D1*
X741413Y1830725D2*
X752778D1*
X764392D2*
X775721D1*
X792532D2*
X800032D1*
X825532D2*
X833032D1*
X849532D2*
X855532D1*
X873532D2*
X879532D1*
X896032D2*
X903532D1*
X929032D2*
X936532D1*
X954859D2*
X966864D1*
X978205D2*
X990399D1*
X1013327D2*
X1020238D1*
X742806Y1829225D2*
X758558D1*
X758817D2*
X774334D1*
X792532D2*
X800032D1*
X825532D2*
X833032D1*
X849532D2*
X855532D1*
X873532D2*
X879532D1*
X896032D2*
X903532D1*
X929032D2*
X936532D1*
X956408D2*
X972831D1*
X972235D2*
X988912D1*
X1012456D2*
X1021109D1*
X744620Y1827725D2*
X772606D1*
X792532D2*
X800032D1*
X825532D2*
X833032D1*
X849532D2*
X855532D1*
X873532D2*
X879532D1*
X896032D2*
X903532D1*
X929032D2*
X936532D1*
X958313D2*
X987137D1*
X1011870D2*
X1021695D1*
X746824Y1826225D2*
X770302D1*
X792532D2*
X800032D1*
X825532D2*
X833032D1*
X849532D2*
X855532D1*
X873532D2*
X879532D1*
X896032D2*
X903532D1*
X929032D2*
X936532D1*
X960636D2*
X984814D1*
X1011853D2*
X1021712D1*
X749356Y1824725D2*
X767342D1*
X792532D2*
X800032D1*
X825532D2*
X833032D1*
X849532D2*
X855532D1*
X873532D2*
X879532D1*
X896032D2*
X903532D1*
X929032D2*
X936532D1*
X963435D2*
X981846D1*
X1012475D2*
X1021090D1*
X752032Y1823225D2*
X764032D1*
X792532D2*
X800032D1*
X825532D2*
X833032D1*
X849532D2*
X855532D1*
X873532D2*
X879532D1*
X896032D2*
X903532D1*
X929032D2*
X936532D1*
X966532D2*
X978532D1*
X1013422D2*
X1020143D1*
X1014532Y1821725D2*
X1019032D1*
X740529Y1739907D2*
Y1738407D1*
Y1736907D1*
Y1735407D1*
Y1733907D1*
Y1732407D1*
Y1730907D1*
Y1729407D1*
Y1727907D1*
Y1726407D1*
Y1724907D1*
Y1723407D1*
Y1721907D1*
Y1720407D1*
Y1718907D1*
Y1717407D1*
Y1715907D1*
Y1714407D1*
Y1712907D1*
Y1711407D1*
Y1709907D1*
Y1708407D1*
Y1706907D1*
Y1705407D1*
Y1703907D1*
Y1702407D1*
Y1700907D1*
Y1699407D1*
Y1697907D1*
Y1696407D1*
Y1694907D1*
Y1693407D1*
Y1691907D1*
Y1690407D1*
Y1688907D1*
Y1687407D1*
Y1685907D1*
Y1684407D1*
Y1682907D1*
Y1681407D1*
Y1679907D1*
Y1678407D1*
Y1676907D1*
X748029Y1739907D2*
Y1738407D1*
Y1736907D1*
Y1735407D1*
Y1733907D1*
Y1732407D1*
Y1730907D1*
Y1729407D1*
Y1727907D1*
Y1726407D1*
Y1724907D1*
Y1723407D1*
Y1721907D1*
Y1720407D1*
Y1718907D1*
X748035Y1717407D1*
X748092Y1715907D1*
X748324Y1714407D1*
X748836Y1712907D1*
X749529Y1711407D1*
X871029Y1739907D2*
Y1738407D1*
Y1736907D1*
Y1735407D1*
Y1733907D1*
Y1732407D1*
Y1730907D1*
Y1729407D1*
Y1727907D1*
Y1726407D1*
Y1724907D1*
Y1723407D1*
Y1721907D1*
Y1720407D1*
Y1718907D1*
X871023Y1717407D1*
X870966Y1715907D1*
X870734Y1714407D1*
X870221Y1712907D1*
X869529Y1711407D1*
X880029Y1739907D2*
Y1738407D1*
Y1736907D1*
Y1735407D1*
Y1733907D1*
Y1732407D1*
Y1730907D1*
Y1729407D1*
Y1727907D1*
Y1726407D1*
Y1724907D1*
Y1723407D1*
Y1721907D1*
Y1720407D1*
Y1718907D1*
Y1717407D1*
Y1715907D1*
Y1714407D1*
Y1712907D1*
Y1711407D1*
Y1709907D1*
Y1708407D1*
Y1706907D1*
Y1705407D1*
Y1703907D1*
Y1702407D1*
Y1700907D1*
Y1699407D1*
Y1697907D1*
Y1696407D1*
Y1694907D1*
Y1693407D1*
Y1691907D1*
Y1690407D1*
Y1688907D1*
Y1687407D1*
Y1685907D1*
Y1684407D1*
Y1682907D1*
Y1681407D1*
Y1679907D1*
Y1678407D1*
Y1676907D1*
X1279029Y1739907D2*
Y1738407D1*
Y1736907D1*
Y1735407D1*
Y1733907D1*
Y1732407D1*
Y1730907D1*
Y1729407D1*
Y1727907D1*
Y1726407D1*
Y1724907D1*
Y1723407D1*
Y1721907D1*
Y1720407D1*
Y1718907D1*
Y1717407D1*
Y1715907D1*
Y1714407D1*
Y1712907D1*
Y1711407D1*
Y1709907D1*
Y1708407D1*
Y1706907D1*
Y1705407D1*
Y1703907D1*
Y1702407D1*
Y1700907D1*
Y1699407D1*
Y1697907D1*
Y1696407D1*
Y1694907D1*
Y1693407D1*
Y1691907D1*
Y1690407D1*
Y1688907D1*
Y1687407D1*
Y1685907D1*
Y1684407D1*
Y1682907D1*
Y1681407D1*
Y1679907D1*
Y1678407D1*
Y1676907D1*
X1286529Y1739907D2*
Y1738407D1*
Y1736907D1*
Y1735407D1*
Y1733907D1*
Y1732407D1*
Y1730907D1*
Y1729407D1*
Y1727907D1*
Y1726407D1*
Y1724907D1*
Y1723407D1*
Y1721907D1*
Y1720407D1*
Y1718907D1*
Y1717407D1*
Y1715907D1*
Y1714407D1*
Y1712907D1*
Y1711407D1*
Y1709907D1*
Y1708407D1*
Y1706907D1*
Y1705407D1*
Y1703907D1*
Y1702407D1*
Y1700907D1*
Y1699407D1*
Y1697907D1*
Y1696407D1*
Y1694907D1*
Y1693407D1*
Y1691907D1*
Y1690407D1*
Y1688907D1*
Y1687407D1*
Y1685907D1*
Y1684407D1*
Y1682907D1*
Y1681407D1*
Y1679907D1*
Y1678407D1*
Y1676907D1*
X791529Y1738407D2*
X790611Y1736907D1*
X789861Y1735407D1*
X789289Y1733907D1*
X789468Y1732407D1*
X789940Y1730907D1*
X790663Y1729407D1*
X791529Y1727907D1*
X796029Y1738407D2*
X797234Y1736907D1*
X798105Y1735407D1*
X798692Y1733907D1*
X798708Y1732407D1*
X798086Y1730907D1*
X797139Y1729407D1*
X796029Y1727907D1*
X1141029Y1738407D2*
X1137124Y1736907D1*
X1133928Y1735407D1*
X1131362Y1733907D1*
X1130042Y1732407D1*
X1129515Y1730907D1*
X1129234Y1729407D1*
X1129108Y1727907D1*
X1129056Y1726407D1*
X1129029Y1724907D1*
X1154529Y1738407D2*
X1158851Y1736907D1*
X1162461Y1735407D1*
X1165288Y1733907D1*
X1167488Y1732407D1*
X1169311Y1730907D1*
X1170940Y1729407D1*
X1172440Y1727907D1*
X1173763Y1726407D1*
X1174858Y1724907D1*
X1175779Y1723407D1*
X1176600Y1721907D1*
X1177327Y1720407D1*
X1177898Y1718907D1*
X1178292Y1717407D1*
X1178654Y1715907D1*
X1179089Y1714407D1*
X1179504Y1712907D1*
X1179778Y1711407D1*
X1179921Y1709907D1*
X1179986Y1708407D1*
X1180007Y1706907D1*
X1179965Y1705407D1*
X1179777Y1703907D1*
X1179419Y1702407D1*
X1179029Y1700907D1*
X1178715Y1699407D1*
X1178379Y1697907D1*
X1177903Y1696407D1*
X1177295Y1694907D1*
X1176606Y1693407D1*
X1175829Y1691907D1*
X1174893Y1690407D1*
X1173734Y1688907D1*
X1172405Y1687407D1*
X1170974Y1685907D1*
X1169446Y1684407D1*
X1167702Y1682907D1*
X1165541Y1681407D1*
X1162818Y1679907D1*
X1159562Y1678407D1*
X1156029Y1676907D1*
X1579029Y1738407D2*
X1578111Y1736907D1*
X1577361Y1735407D1*
X1576789Y1733907D1*
X1576968Y1732407D1*
X1577440Y1730907D1*
X1578163Y1729407D1*
X1579029Y1727907D1*
X1583529Y1738407D2*
X1584734Y1736907D1*
X1585605Y1735407D1*
X1586192Y1733907D1*
X1586208Y1732407D1*
X1585586Y1730907D1*
X1584639Y1729407D1*
X1583529Y1727907D1*
X1601529Y1738407D2*
X1600611Y1736907D1*
X1599861Y1735407D1*
X1599289Y1733907D1*
X1599468Y1732407D1*
X1599940Y1730907D1*
X1600663Y1729407D1*
X1601529Y1727907D1*
X1606029Y1738407D2*
X1607234Y1736907D1*
X1608105Y1735407D1*
X1608692Y1733907D1*
X1608708Y1732407D1*
X1608086Y1730907D1*
X1607139Y1729407D1*
X1606029Y1727907D1*
X935529Y1736907D2*
Y1735407D1*
Y1733907D1*
Y1732407D1*
Y1730907D1*
Y1729407D1*
Y1727907D1*
Y1726407D1*
Y1724907D1*
Y1723407D1*
Y1721907D1*
Y1720407D1*
Y1718907D1*
Y1717407D1*
Y1715907D1*
Y1714407D1*
Y1712907D1*
Y1711407D1*
Y1709907D1*
Y1708407D1*
Y1706907D1*
Y1705407D1*
Y1703907D1*
Y1702407D1*
Y1700907D1*
Y1699407D1*
Y1697907D1*
Y1696407D1*
Y1694907D1*
Y1693407D1*
Y1691907D1*
Y1690407D1*
Y1688907D1*
Y1687407D1*
Y1685907D1*
Y1684407D1*
Y1682907D1*
Y1681407D1*
Y1679907D1*
Y1678407D1*
Y1676907D1*
X943029Y1736907D2*
Y1735407D1*
Y1733907D1*
Y1732407D1*
Y1730907D1*
Y1729407D1*
Y1727907D1*
Y1726407D1*
Y1724907D1*
Y1723407D1*
Y1721907D1*
Y1720407D1*
Y1718907D1*
Y1717407D1*
Y1715907D1*
Y1714407D1*
X974529Y1736907D2*
Y1735407D1*
Y1733907D1*
Y1732407D1*
Y1730907D1*
Y1729407D1*
Y1727907D1*
Y1726407D1*
Y1724907D1*
Y1723407D1*
Y1721907D1*
Y1720407D1*
Y1718907D1*
Y1717407D1*
Y1715907D1*
Y1714407D1*
X983529Y1736907D2*
Y1735407D1*
Y1733907D1*
Y1732407D1*
Y1730907D1*
Y1729407D1*
Y1727907D1*
Y1726407D1*
Y1724907D1*
Y1723407D1*
Y1721907D1*
Y1720407D1*
Y1718907D1*
Y1717407D1*
Y1715907D1*
Y1714407D1*
Y1712907D1*
Y1711407D1*
Y1709907D1*
Y1708407D1*
Y1706907D1*
Y1705407D1*
Y1703907D1*
Y1702407D1*
Y1700907D1*
Y1699407D1*
Y1697907D1*
Y1696407D1*
Y1694907D1*
Y1693407D1*
Y1691907D1*
Y1690407D1*
Y1688907D1*
Y1687407D1*
Y1685907D1*
Y1684407D1*
Y1682907D1*
Y1681407D1*
Y1679907D1*
Y1678407D1*
Y1676907D1*
X1307529Y1736907D2*
X1304650Y1735407D1*
X1302341Y1733907D1*
X1300602Y1732407D1*
X1299327Y1730907D1*
X1298383Y1729407D1*
X1297724Y1727907D1*
X1297346Y1726407D1*
X1297161Y1724907D1*
X1297080Y1723407D1*
X1297048Y1721907D1*
X1297036Y1720407D1*
X1297037Y1718907D1*
X1297088Y1717407D1*
X1297285Y1715907D1*
X1297702Y1714407D1*
X1298337Y1712907D1*
X1299219Y1711407D1*
X1300516Y1709907D1*
X1302215Y1708407D1*
X1307129Y1706907D1*
X1314725Y1705407D1*
X1324029Y1703907D1*
Y1702407D1*
Y1700907D1*
Y1699407D1*
Y1697907D1*
Y1696407D1*
Y1694907D1*
Y1693407D1*
Y1691907D1*
Y1690407D1*
Y1688907D1*
Y1687407D1*
Y1685907D1*
Y1684407D1*
Y1682907D1*
Y1681407D1*
Y1679907D1*
Y1678407D1*
Y1676907D1*
X1331529Y1736907D2*
Y1735407D1*
Y1733907D1*
Y1732407D1*
Y1730907D1*
Y1729407D1*
Y1727907D1*
Y1726407D1*
Y1724907D1*
Y1723407D1*
Y1721907D1*
Y1720407D1*
Y1718907D1*
Y1717407D1*
Y1715907D1*
Y1714407D1*
Y1712907D1*
Y1711407D1*
Y1709907D1*
Y1708407D1*
Y1706907D1*
Y1705407D1*
Y1703907D1*
Y1702407D1*
Y1700907D1*
Y1699407D1*
Y1697907D1*
Y1696407D1*
Y1694907D1*
Y1693407D1*
Y1691907D1*
Y1690407D1*
Y1688907D1*
Y1687407D1*
Y1685907D1*
Y1684407D1*
Y1682907D1*
Y1681407D1*
Y1679907D1*
Y1678407D1*
Y1676907D1*
X1366029Y1736907D2*
X1366778Y1735407D1*
X1367407Y1733907D1*
X1368038Y1732407D1*
X1368710Y1730907D1*
X1369376Y1729407D1*
X1369967Y1727907D1*
X1370495Y1726407D1*
X1371074Y1724907D1*
X1371730Y1723407D1*
X1372434Y1721907D1*
X1373160Y1720407D1*
X1373855Y1718907D1*
X1374459Y1717407D1*
X1374992Y1715907D1*
X1375573Y1714407D1*
X1376230Y1712907D1*
X1376934Y1711407D1*
X1377660Y1709907D1*
X1378355Y1708407D1*
X1378959Y1706907D1*
X1379492Y1705407D1*
X1380073Y1703907D1*
X1380730Y1702407D1*
X1381434Y1700907D1*
X1382160Y1699407D1*
X1382855Y1697907D1*
X1383459Y1696407D1*
X1383992Y1694907D1*
X1384573Y1693407D1*
X1385230Y1691907D1*
X1385934Y1690407D1*
X1386660Y1688907D1*
X1387355Y1687407D1*
X1387959Y1685907D1*
X1388492Y1684407D1*
X1389073Y1682907D1*
X1389724Y1681407D1*
X1390381Y1679907D1*
X1390969Y1678407D1*
X1391495Y1676907D1*
X1392074Y1675407D1*
X1392730Y1673907D1*
X1393439Y1672407D1*
X1394210Y1670907D1*
X1395077Y1669407D1*
X1396029Y1667907D1*
X1372029Y1736907D2*
X1372599Y1735407D1*
X1373243Y1733907D1*
X1373940Y1732407D1*
X1374663Y1730907D1*
X1375356Y1729407D1*
X1375959Y1727907D1*
X1376492Y1726407D1*
X1377073Y1724907D1*
X1377730Y1723407D1*
X1378434Y1721907D1*
X1379160Y1720407D1*
X1379855Y1718907D1*
X1380459Y1717407D1*
X1380992Y1715907D1*
X1381573Y1714407D1*
X1382230Y1712907D1*
X1382934Y1711407D1*
X1383660Y1709907D1*
X1384355Y1708407D1*
X1384959Y1706907D1*
X1385492Y1705407D1*
X1386073Y1703907D1*
X1386724Y1702407D1*
X1387381Y1700907D1*
X1387969Y1699407D1*
X1388495Y1697907D1*
X1389074Y1696407D1*
X1389730Y1694907D1*
X1390434Y1693407D1*
X1391160Y1691907D1*
X1391855Y1690407D1*
X1392459Y1688907D1*
X1392992Y1687407D1*
X1393573Y1685907D1*
X1394230Y1684407D1*
X1394934Y1682907D1*
X1395660Y1681407D1*
X1396355Y1679907D1*
X1396959Y1678407D1*
X1397492Y1676907D1*
X1398073Y1675407D1*
X1398730Y1673907D1*
X1399438Y1672407D1*
X1400210Y1670907D1*
X1401077Y1669407D1*
X1402029Y1667907D1*
X1508529Y1736907D2*
Y1735407D1*
Y1733907D1*
Y1732407D1*
Y1730907D1*
Y1729407D1*
Y1727907D1*
Y1726407D1*
Y1724907D1*
Y1723407D1*
Y1721907D1*
Y1720407D1*
Y1718907D1*
Y1717407D1*
Y1715907D1*
Y1714407D1*
Y1712907D1*
Y1711407D1*
Y1709907D1*
Y1708407D1*
Y1706907D1*
Y1705407D1*
Y1703907D1*
Y1702407D1*
Y1700907D1*
Y1699407D1*
Y1697907D1*
Y1696407D1*
Y1694907D1*
Y1693407D1*
Y1691907D1*
Y1690407D1*
Y1688907D1*
Y1687407D1*
Y1685907D1*
Y1684407D1*
Y1682907D1*
Y1681407D1*
Y1679907D1*
Y1678407D1*
X1517529Y1736907D2*
Y1735407D1*
Y1733907D1*
Y1732407D1*
Y1730907D1*
Y1729407D1*
Y1727907D1*
Y1726407D1*
Y1724907D1*
Y1723407D1*
Y1721907D1*
Y1720407D1*
Y1718907D1*
Y1717407D1*
Y1715907D1*
Y1714407D1*
Y1712907D1*
Y1711407D1*
Y1709907D1*
Y1708407D1*
Y1706907D1*
Y1705407D1*
Y1703907D1*
X1517535Y1702407D1*
X1517592Y1700907D1*
X1517824Y1699407D1*
X1518336Y1697907D1*
X1519029Y1696407D1*
X1561029Y1736907D2*
X1559529Y1735407D1*
X1558029Y1733907D1*
X1556529Y1732407D1*
X1555029Y1730907D1*
X1553529Y1729407D1*
X1552029Y1727907D1*
X1550529Y1726407D1*
X1549029Y1724907D1*
X1547529Y1723407D1*
X1546023Y1721907D1*
X1544470Y1720407D1*
X1542779Y1718907D1*
X1540920Y1717407D1*
X1539035Y1715907D1*
X1537274Y1714407D1*
X1535635Y1712907D1*
X1534071Y1711407D1*
X1532545Y1709907D1*
X1531034Y1708407D1*
X1529531Y1706907D1*
X1528030Y1705407D1*
X1526529Y1703907D1*
X1525023Y1702407D1*
X1523466Y1700907D1*
X1521734Y1699407D1*
X1519721Y1697907D1*
X1517529Y1696407D1*
X1562529Y1736907D2*
Y1735407D1*
Y1733907D1*
Y1732407D1*
Y1730907D1*
Y1729407D1*
Y1727907D1*
Y1726407D1*
Y1724907D1*
Y1723407D1*
Y1721907D1*
Y1720407D1*
Y1718907D1*
Y1717407D1*
Y1715907D1*
Y1714407D1*
Y1712907D1*
Y1711407D1*
Y1709907D1*
Y1708407D1*
Y1706907D1*
Y1705407D1*
Y1703907D1*
Y1702407D1*
Y1700907D1*
Y1699407D1*
Y1697907D1*
Y1696407D1*
Y1694907D1*
Y1693407D1*
Y1691907D1*
Y1690407D1*
Y1688907D1*
Y1687407D1*
Y1685907D1*
Y1684407D1*
Y1682907D1*
Y1681407D1*
Y1679907D1*
Y1678407D1*
Y1676907D1*
X1670529Y1736907D2*
Y1735407D1*
Y1733907D1*
Y1732407D1*
Y1730907D1*
Y1729407D1*
X1703529Y1736907D2*
Y1735407D1*
Y1733907D1*
Y1732407D1*
Y1730907D1*
Y1729407D1*
Y1727907D1*
Y1726407D1*
Y1724907D1*
Y1723407D1*
Y1721907D1*
Y1720407D1*
Y1718907D1*
Y1717407D1*
Y1715907D1*
Y1714407D1*
Y1712907D1*
Y1711407D1*
Y1709907D1*
Y1708407D1*
Y1706907D1*
Y1705407D1*
Y1703907D1*
Y1702407D1*
Y1700907D1*
Y1699407D1*
Y1697907D1*
Y1696407D1*
Y1694907D1*
Y1693407D1*
Y1691907D1*
Y1690407D1*
Y1688907D1*
Y1687407D1*
Y1685907D1*
Y1684407D1*
Y1682907D1*
Y1681407D1*
Y1679907D1*
Y1678407D1*
Y1676907D1*
X1025529Y1729407D2*
Y1727907D1*
Y1726407D1*
Y1724907D1*
Y1723407D1*
Y1721907D1*
Y1720407D1*
Y1718907D1*
Y1717407D1*
Y1715907D1*
Y1714407D1*
X1018029D1*
Y1712907D1*
Y1711407D1*
Y1709907D1*
Y1708407D1*
Y1706907D1*
X1025529D1*
Y1705407D1*
Y1703907D1*
Y1702407D1*
Y1700907D1*
Y1699407D1*
Y1697907D1*
Y1696407D1*
Y1694907D1*
Y1693407D1*
Y1691907D1*
Y1690407D1*
Y1688907D1*
Y1687407D1*
Y1685907D1*
Y1684407D1*
Y1682907D1*
Y1681407D1*
Y1679907D1*
Y1678407D1*
Y1676907D1*
X1033029Y1729407D2*
Y1727907D1*
Y1726407D1*
Y1724907D1*
Y1723407D1*
Y1721907D1*
Y1720407D1*
Y1718907D1*
Y1717407D1*
Y1715907D1*
X1043529Y1714407D1*
X1145529Y1730907D2*
X1141323Y1729407D1*
X1137441Y1727907D1*
X1133904Y1726407D1*
X1130529Y1724907D1*
X1150029Y1730907D2*
X1153996Y1729407D1*
X1157443Y1727907D1*
X1160302Y1726407D1*
X1162621Y1724907D1*
X1164396Y1723407D1*
X1165707Y1721907D1*
X1166721Y1720407D1*
X1167579Y1718907D1*
X1168325Y1717407D1*
X1168949Y1715907D1*
X1169482Y1714407D1*
X1170013Y1712907D1*
X1170474Y1711407D1*
X1170766Y1709907D1*
X1170911Y1708407D1*
X1170926Y1706907D1*
X1170763Y1705407D1*
X1170414Y1703907D1*
X1170027Y1702407D1*
X1169709Y1700907D1*
X1169326Y1699407D1*
X1168706Y1697907D1*
X1167878Y1696407D1*
X1166971Y1694907D1*
X1165952Y1693407D1*
X1164690Y1691907D1*
X1162995Y1690407D1*
X1160306Y1688907D1*
X1155616Y1687407D1*
X1148335Y1685907D1*
X1139529Y1684407D1*
X1436529Y1729407D2*
Y1727907D1*
Y1726407D1*
Y1724907D1*
Y1723407D1*
Y1721907D1*
Y1720407D1*
Y1718907D1*
Y1717407D1*
Y1715907D1*
Y1714407D1*
X1429029D1*
Y1712907D1*
Y1711407D1*
Y1709907D1*
Y1708407D1*
Y1706907D1*
X1436529D1*
Y1705407D1*
Y1703907D1*
Y1702407D1*
Y1700907D1*
Y1699407D1*
Y1697907D1*
Y1696407D1*
Y1694907D1*
Y1693407D1*
Y1691907D1*
Y1690407D1*
Y1688907D1*
Y1687407D1*
Y1685907D1*
Y1684407D1*
Y1682907D1*
Y1681407D1*
Y1679907D1*
Y1678407D1*
Y1676907D1*
X1444029Y1729407D2*
Y1727907D1*
Y1726407D1*
Y1724907D1*
Y1723407D1*
Y1721907D1*
Y1720407D1*
Y1718907D1*
Y1717407D1*
Y1715907D1*
Y1714407D1*
X1451529D1*
Y1712907D1*
Y1711407D1*
Y1709907D1*
Y1708407D1*
Y1706907D1*
X1444029D1*
Y1705407D1*
Y1703907D1*
Y1702407D1*
Y1700907D1*
Y1699407D1*
Y1697907D1*
Y1696407D1*
Y1694907D1*
Y1693407D1*
Y1691907D1*
Y1690407D1*
Y1688907D1*
Y1687407D1*
Y1685907D1*
Y1684407D1*
Y1682907D1*
Y1681407D1*
Y1679907D1*
Y1678407D1*
Y1676907D1*
X1316529Y1729407D2*
X1312681Y1727907D1*
X1309678Y1726407D1*
X1307439Y1724907D1*
X1306703Y1723407D1*
X1306312Y1721907D1*
X1306144Y1720407D1*
X1306145Y1718907D1*
X1306288Y1717407D1*
X1307364Y1715907D1*
X1311400Y1714407D1*
X1317750Y1712907D1*
X1325529Y1711407D1*
X1322529Y1729407D2*
Y1727907D1*
Y1726407D1*
Y1724907D1*
Y1723407D1*
Y1721907D1*
Y1720407D1*
Y1718907D1*
Y1717407D1*
Y1715907D1*
Y1714407D1*
Y1712907D1*
X1313529Y1711407D1*
X1694529Y1729407D2*
Y1727907D1*
Y1726407D1*
Y1724907D1*
Y1723407D1*
Y1721907D1*
Y1720407D1*
Y1718907D1*
Y1717407D1*
Y1715907D1*
Y1714407D1*
Y1712907D1*
X1553529Y1718907D2*
X1552261Y1717407D1*
X1551133Y1715907D1*
X1550015Y1714407D1*
X1548725Y1712907D1*
X1547173Y1711407D1*
X1545378Y1709907D1*
X1543520Y1708407D1*
X1541768Y1706907D1*
X1540133Y1705407D1*
X1538570Y1703907D1*
X1537044Y1702407D1*
X1535529Y1700907D1*
X1533972Y1699407D1*
X1532280Y1697907D1*
X1530420Y1696407D1*
X1528535Y1694907D1*
X1526774Y1693407D1*
X1525135Y1691907D1*
X1523571Y1690407D1*
X1522045Y1688907D1*
X1520534Y1687407D1*
X1519025Y1685907D1*
X1517471Y1684407D1*
X1515778Y1682907D1*
X1513906Y1681407D1*
X1511960Y1679907D1*
X1510029Y1678407D1*
X1555029Y1718907D2*
Y1717407D1*
Y1715907D1*
Y1714407D1*
Y1712907D1*
Y1711407D1*
Y1709907D1*
Y1708407D1*
Y1706907D1*
Y1705407D1*
Y1703907D1*
Y1702407D1*
Y1700907D1*
Y1699407D1*
Y1697907D1*
Y1696407D1*
Y1694907D1*
Y1693407D1*
Y1691907D1*
Y1690407D1*
Y1688907D1*
Y1687407D1*
Y1685907D1*
Y1684407D1*
Y1682907D1*
Y1681407D1*
Y1679907D1*
Y1678407D1*
Y1676907D1*
X757029Y1715907D2*
X753753Y1714407D1*
X750227Y1712907D1*
X746529Y1711407D1*
X766029Y1715907D2*
X768914Y1714407D1*
X771269Y1712907D1*
X773153Y1711407D1*
X774649Y1709907D1*
X775810Y1708407D1*
X776705Y1706907D1*
X777345Y1705407D1*
X777722Y1703907D1*
X777957Y1702407D1*
X778228Y1700907D1*
X778613Y1699407D1*
X778957Y1697907D1*
X779032Y1696407D1*
X778813Y1694907D1*
X778493Y1693407D1*
X778252Y1691907D1*
X778070Y1690407D1*
X777813Y1688907D1*
X777371Y1687407D1*
X776726Y1685907D1*
X775852Y1684407D1*
X774713Y1682907D1*
X773336Y1681407D1*
X771684Y1679907D1*
X769704Y1678407D1*
X767529Y1676907D1*
X808029Y1715907D2*
X806640Y1714407D1*
X806218Y1712907D1*
X806578Y1711407D1*
X807219Y1709907D1*
X808029Y1708407D1*
X815529Y1715907D2*
X817305Y1714407D1*
X819331Y1712907D1*
X821529Y1711407D1*
X853029Y1715907D2*
X850150Y1714407D1*
X847841Y1712907D1*
X846102Y1711407D1*
X844821Y1709907D1*
X843824Y1708407D1*
X842974Y1706907D1*
X842237Y1705407D1*
X841667Y1703907D1*
X841325Y1702407D1*
X841153Y1700907D1*
X841078Y1699407D1*
X841047Y1697907D1*
X841035Y1696407D1*
X841031Y1694907D1*
X841035Y1693407D1*
X841088Y1691907D1*
X841285Y1690407D1*
X841696Y1688907D1*
X842278Y1687407D1*
X842958Y1685907D1*
X843731Y1684407D1*
X844677Y1682907D1*
X845950Y1681407D1*
X847742Y1679907D1*
X850189Y1678407D1*
X853029Y1676907D1*
X862029Y1715907D2*
X865200Y1714407D1*
X868154Y1712907D1*
X871029Y1711407D1*
X1045029Y1715907D2*
X1043529Y1714407D1*
X1052529Y1715907D2*
X1054305Y1714407D1*
X1056331Y1712907D1*
X1058529Y1711407D1*
X1097529Y1715907D2*
X1094253Y1714407D1*
X1090727Y1712907D1*
X1087029Y1711407D1*
X1106529Y1715907D2*
X1109414Y1714407D1*
X1111769Y1712907D1*
X1113653Y1711407D1*
X1115149Y1709907D1*
X1116310Y1708407D1*
X1117205Y1706907D1*
X1117845Y1705407D1*
X1118222Y1703907D1*
X1118457Y1702407D1*
X1118728Y1700907D1*
X1119113Y1699407D1*
X1119457Y1697907D1*
X1119532Y1696407D1*
X1119313Y1694907D1*
X1118993Y1693407D1*
X1118752Y1691907D1*
X1118570Y1690407D1*
X1118313Y1688907D1*
X1117871Y1687407D1*
X1117226Y1685907D1*
X1116352Y1684407D1*
X1115213Y1682907D1*
X1113836Y1681407D1*
X1112184Y1679907D1*
X1110204Y1678407D1*
X1108029Y1676907D1*
X1196529Y1715907D2*
X1194405Y1714407D1*
X1192552Y1712907D1*
X1191619Y1711407D1*
X1191578Y1709907D1*
X1192029Y1708407D1*
X1207029Y1715907D2*
X1209908Y1714407D1*
X1212211Y1712907D1*
X1213897Y1711407D1*
X1215170Y1709907D1*
X1215613Y1708407D1*
X1215847Y1706907D1*
X1215895Y1705407D1*
X1215689Y1703907D1*
X1215242Y1702407D1*
X1214082Y1700907D1*
X1212545Y1699407D1*
X1210483Y1697907D1*
X1207844Y1696407D1*
X1204804Y1694907D1*
X1201786Y1693407D1*
X1199242Y1691907D1*
X1197143Y1690407D1*
X1196157Y1688907D1*
X1195867Y1687407D1*
X1198335Y1685907D1*
X1202213Y1684407D1*
X1207029Y1682907D1*
X1471029Y1715907D2*
X1468144Y1714407D1*
X1465788Y1712907D1*
X1463905Y1711407D1*
X1462409Y1709907D1*
X1461242Y1708407D1*
X1460294Y1706907D1*
X1459463Y1705407D1*
X1458733Y1703907D1*
X1458166Y1702407D1*
X1457824Y1700907D1*
X1457653Y1699407D1*
X1457577Y1697907D1*
X1457546Y1696407D1*
X1457529Y1694907D1*
X1483029Y1715907D2*
X1485914Y1714407D1*
X1488275Y1712907D1*
X1490205Y1711407D1*
X1491846Y1709907D1*
X1493227Y1708407D1*
X1494339Y1706907D1*
X1495216Y1705407D1*
X1495849Y1703907D1*
X1496223Y1702407D1*
X1496457Y1700907D1*
X1496722Y1699407D1*
X1497061Y1697907D1*
X1497266Y1696407D1*
X1497173Y1694907D1*
X1496923Y1693407D1*
X1496673Y1691907D1*
X1496363Y1690407D1*
X1495898Y1688907D1*
X1495293Y1687407D1*
X1494599Y1685907D1*
X1493770Y1684407D1*
X1492632Y1682907D1*
X1490998Y1681407D1*
X1488818Y1679907D1*
X1486086Y1678407D1*
X1483029Y1676907D1*
X790029Y1714407D2*
Y1712907D1*
Y1711407D1*
Y1709907D1*
Y1708407D1*
Y1706907D1*
Y1705407D1*
Y1703907D1*
Y1702407D1*
Y1700907D1*
Y1699407D1*
Y1697907D1*
Y1696407D1*
Y1694907D1*
Y1693407D1*
Y1691907D1*
Y1690407D1*
Y1688907D1*
Y1687407D1*
Y1685907D1*
Y1684407D1*
Y1682907D1*
Y1681407D1*
Y1679907D1*
Y1678407D1*
Y1676907D1*
X797529Y1714407D2*
Y1712907D1*
Y1711407D1*
Y1709907D1*
Y1708407D1*
Y1706907D1*
Y1705407D1*
Y1703907D1*
Y1702407D1*
Y1700907D1*
Y1699407D1*
Y1697907D1*
Y1696407D1*
Y1694907D1*
Y1693407D1*
Y1691907D1*
Y1690407D1*
Y1688907D1*
Y1687407D1*
Y1685907D1*
Y1684407D1*
Y1682907D1*
Y1681407D1*
Y1679907D1*
Y1678407D1*
Y1676907D1*
X821529Y1714407D2*
X820826Y1712907D1*
X820029Y1711407D1*
X830529Y1714407D2*
Y1712907D1*
Y1711407D1*
Y1709907D1*
Y1708407D1*
Y1706907D1*
Y1705407D1*
Y1703907D1*
Y1702407D1*
Y1700907D1*
Y1699407D1*
Y1697907D1*
Y1696407D1*
Y1694907D1*
Y1693407D1*
Y1691907D1*
Y1690407D1*
Y1688907D1*
Y1687407D1*
Y1685907D1*
Y1684407D1*
Y1682907D1*
Y1681407D1*
Y1679907D1*
Y1678407D1*
Y1676907D1*
X886029Y1714407D2*
X886959Y1712907D1*
X887814Y1711407D1*
X888618Y1709907D1*
X889389Y1708407D1*
X890149Y1706907D1*
X890901Y1705407D1*
X891654Y1703907D1*
X892403Y1702407D1*
X893154Y1700907D1*
X893903Y1699407D1*
X894654Y1697907D1*
X895403Y1696407D1*
X896154Y1694907D1*
X896903Y1693407D1*
X897654Y1691907D1*
X898403Y1690407D1*
X899154Y1688907D1*
X899903Y1687407D1*
X900654Y1685907D1*
X901403Y1684407D1*
X902154Y1682907D1*
X902903Y1681407D1*
X903654Y1679907D1*
X904403Y1678407D1*
X905154Y1676907D1*
X905903Y1675407D1*
X906654Y1673907D1*
X907403Y1672407D1*
X908154Y1670907D1*
X908903Y1669407D1*
X909654Y1667907D1*
X910403Y1666407D1*
X911154Y1664907D1*
X911908Y1663407D1*
X912698Y1661907D1*
X913573Y1660407D1*
X914529Y1658907D1*
X895029Y1714407D2*
X895599Y1712907D1*
X896243Y1711407D1*
X896940Y1709907D1*
X897669Y1708407D1*
X898408Y1706907D1*
X899150Y1705407D1*
X899851Y1703907D1*
X900458Y1702407D1*
X900991Y1700907D1*
X901573Y1699407D1*
X902230Y1697907D1*
X902934Y1696407D1*
X903666Y1694907D1*
X904412Y1693407D1*
X905200Y1691907D1*
X906074Y1690407D1*
X907029Y1688907D1*
X917529Y1714407D2*
X916779Y1712907D1*
X916150Y1711407D1*
X915520Y1709907D1*
X914848Y1708407D1*
X914182Y1706907D1*
X913590Y1705407D1*
X913069Y1703907D1*
X912536Y1702407D1*
X912025Y1700907D1*
X911542Y1699407D1*
X911026Y1697907D1*
X910521Y1696407D1*
X910035Y1694907D1*
X909468Y1693407D1*
X908780Y1691907D1*
X907955Y1690407D1*
X907029Y1688907D1*
X926529Y1714407D2*
X925599Y1712907D1*
X924743Y1711407D1*
X923946Y1709907D1*
X923221Y1708407D1*
X922605Y1706907D1*
X922068Y1705407D1*
X921485Y1703907D1*
X920834Y1702407D1*
X920177Y1700907D1*
X919589Y1699407D1*
X919062Y1697907D1*
X918483Y1696407D1*
X917833Y1694907D1*
X917177Y1693407D1*
X916589Y1691907D1*
X916062Y1690407D1*
X915483Y1688907D1*
X914828Y1687407D1*
X914124Y1685907D1*
X913398Y1684407D1*
X912715Y1682907D1*
X912216Y1681407D1*
X911939Y1679907D1*
X912291Y1678407D1*
X912871Y1676907D1*
X913664Y1675407D1*
X914590Y1673907D1*
X915493Y1672407D1*
X916331Y1670907D1*
X917125Y1669407D1*
X917892Y1667907D1*
X918650Y1666407D1*
X919402Y1664907D1*
X920149Y1663407D1*
X920860Y1661907D1*
X921484Y1660407D1*
X922029Y1658907D1*
X1058529Y1714407D2*
X1057826Y1712907D1*
X1057029Y1711407D1*
X1067529Y1714407D2*
Y1712907D1*
Y1711407D1*
Y1709907D1*
Y1708407D1*
Y1706907D1*
Y1705407D1*
Y1703907D1*
Y1702407D1*
Y1700907D1*
Y1699407D1*
Y1697907D1*
Y1696407D1*
Y1694907D1*
Y1693407D1*
Y1691907D1*
Y1690407D1*
Y1688907D1*
Y1687407D1*
Y1685907D1*
Y1684407D1*
Y1682907D1*
Y1681407D1*
Y1679907D1*
Y1678407D1*
Y1676907D1*
X1081029Y1714407D2*
Y1712907D1*
Y1711407D1*
Y1709907D1*
Y1708407D1*
Y1706907D1*
Y1705407D1*
Y1703907D1*
Y1702407D1*
Y1700907D1*
Y1699407D1*
Y1697907D1*
Y1696407D1*
Y1694907D1*
Y1693407D1*
Y1691907D1*
Y1690407D1*
Y1688907D1*
Y1687407D1*
Y1685907D1*
Y1684407D1*
Y1682907D1*
Y1681407D1*
Y1679907D1*
Y1678407D1*
Y1676907D1*
X1088529Y1714407D2*
X1089232Y1712907D1*
X1090029Y1711407D1*
X1228029Y1714407D2*
Y1712907D1*
Y1711407D1*
Y1709907D1*
Y1708407D1*
Y1706907D1*
Y1705407D1*
Y1703907D1*
Y1702407D1*
Y1700907D1*
Y1699407D1*
Y1697907D1*
Y1696407D1*
X1228035Y1694907D1*
X1228087Y1693407D1*
X1228279Y1691907D1*
X1228644Y1690407D1*
X1229081Y1688907D1*
X1229540Y1687407D1*
X1230097Y1685907D1*
X1230795Y1684407D1*
X1231703Y1682907D1*
X1232960Y1681407D1*
X1234746Y1679907D1*
X1237191Y1678407D1*
X1240029Y1676907D1*
X1235529Y1714407D2*
Y1712907D1*
Y1711407D1*
Y1709907D1*
Y1708407D1*
Y1706907D1*
Y1705407D1*
Y1703907D1*
Y1702407D1*
Y1700907D1*
Y1699407D1*
Y1697907D1*
X1235535Y1696407D1*
X1235587Y1694907D1*
X1235779Y1693407D1*
X1236144Y1691907D1*
X1236593Y1690407D1*
X1237198Y1688907D1*
X1238081Y1687407D1*
X1241474Y1685907D1*
X1246867Y1684407D1*
X1253529Y1682907D1*
X1258029Y1714407D2*
Y1712907D1*
Y1711407D1*
Y1709907D1*
Y1708407D1*
Y1706907D1*
Y1705407D1*
Y1703907D1*
Y1702407D1*
Y1700907D1*
Y1699407D1*
X1258023Y1697907D1*
X1257970Y1696407D1*
X1257779Y1694907D1*
X1257420Y1693407D1*
X1257029Y1691907D1*
X1256703Y1690407D1*
X1256376Y1688907D1*
X1255428Y1687407D1*
X1252061Y1685907D1*
X1246683Y1684407D1*
X1240029Y1682907D1*
X1265529Y1714407D2*
Y1712907D1*
Y1711407D1*
Y1709907D1*
Y1708407D1*
Y1706907D1*
Y1705407D1*
Y1703907D1*
Y1702407D1*
Y1700907D1*
Y1699407D1*
Y1697907D1*
X1265523Y1696407D1*
X1265470Y1694907D1*
X1265279Y1693407D1*
X1264920Y1691907D1*
X1264529Y1690407D1*
X1264215Y1688907D1*
X1263879Y1687407D1*
X1263397Y1685907D1*
X1262737Y1684407D1*
X1261844Y1682907D1*
X1260594Y1681407D1*
X1258810Y1679907D1*
X1256367Y1678407D1*
X1253529Y1676907D1*
X1577529Y1714407D2*
Y1712907D1*
Y1711407D1*
Y1709907D1*
Y1708407D1*
Y1706907D1*
Y1705407D1*
Y1703907D1*
Y1702407D1*
Y1700907D1*
Y1699407D1*
Y1697907D1*
Y1696407D1*
Y1694907D1*
Y1693407D1*
Y1691907D1*
Y1690407D1*
Y1688907D1*
Y1687407D1*
Y1685907D1*
Y1684407D1*
Y1682907D1*
Y1681407D1*
Y1679907D1*
Y1678407D1*
Y1676907D1*
X1585029Y1714407D2*
Y1712907D1*
Y1711407D1*
Y1709907D1*
Y1708407D1*
Y1706907D1*
Y1705407D1*
Y1703907D1*
Y1702407D1*
Y1700907D1*
Y1699407D1*
Y1697907D1*
Y1696407D1*
Y1694907D1*
Y1693407D1*
Y1691907D1*
Y1690407D1*
Y1688907D1*
Y1687407D1*
Y1685907D1*
Y1684407D1*
Y1682907D1*
Y1681407D1*
Y1679907D1*
Y1678407D1*
Y1676907D1*
X1600029Y1714407D2*
Y1712907D1*
Y1711407D1*
Y1709907D1*
Y1708407D1*
Y1706907D1*
Y1705407D1*
Y1703907D1*
Y1702407D1*
Y1700907D1*
Y1699407D1*
Y1697907D1*
Y1696407D1*
Y1694907D1*
Y1693407D1*
Y1691907D1*
Y1690407D1*
Y1688907D1*
Y1687407D1*
Y1685907D1*
Y1684407D1*
Y1682907D1*
Y1681407D1*
Y1679907D1*
Y1678407D1*
Y1676907D1*
Y1675407D1*
Y1673907D1*
Y1672407D1*
Y1670907D1*
Y1669407D1*
Y1667907D1*
Y1666407D1*
Y1664907D1*
Y1663407D1*
Y1661907D1*
Y1660407D1*
Y1658907D1*
X1607529Y1714407D2*
Y1712907D1*
Y1711407D1*
Y1709907D1*
Y1708407D1*
Y1706907D1*
Y1705407D1*
Y1703907D1*
Y1702407D1*
Y1700907D1*
Y1699407D1*
Y1697907D1*
Y1696407D1*
Y1694907D1*
Y1693407D1*
Y1691907D1*
Y1690407D1*
Y1688907D1*
Y1687407D1*
Y1685907D1*
Y1684407D1*
Y1682907D1*
Y1681407D1*
Y1679907D1*
Y1678407D1*
Y1676907D1*
Y1675407D1*
Y1673907D1*
Y1672407D1*
Y1670907D1*
Y1669407D1*
Y1667907D1*
Y1666407D1*
Y1664907D1*
Y1663407D1*
Y1661907D1*
Y1660407D1*
Y1658907D1*
X1622529Y1714407D2*
Y1712907D1*
Y1711407D1*
Y1709907D1*
Y1708407D1*
Y1706907D1*
Y1705407D1*
Y1703907D1*
Y1702407D1*
Y1700907D1*
Y1699407D1*
Y1697907D1*
Y1696407D1*
X1622535Y1694907D1*
X1622587Y1693407D1*
X1622779Y1691907D1*
X1623144Y1690407D1*
X1623581Y1688907D1*
X1624040Y1687407D1*
X1624597Y1685907D1*
X1625295Y1684407D1*
X1626203Y1682907D1*
X1627460Y1681407D1*
X1629246Y1679907D1*
X1631691Y1678407D1*
X1634529Y1676907D1*
X1630029Y1714407D2*
Y1712907D1*
Y1711407D1*
Y1709907D1*
Y1708407D1*
Y1706907D1*
Y1705407D1*
Y1703907D1*
Y1702407D1*
Y1700907D1*
Y1699407D1*
Y1697907D1*
X1630035Y1696407D1*
X1630087Y1694907D1*
X1630279Y1693407D1*
X1630644Y1691907D1*
X1631093Y1690407D1*
X1631698Y1688907D1*
X1632581Y1687407D1*
X1635974Y1685907D1*
X1641367Y1684407D1*
X1648029Y1682907D1*
X1652529Y1714407D2*
Y1712907D1*
Y1711407D1*
Y1709907D1*
Y1708407D1*
Y1706907D1*
Y1705407D1*
Y1703907D1*
Y1702407D1*
Y1700907D1*
Y1699407D1*
X1652523Y1697907D1*
X1652470Y1696407D1*
X1652279Y1694907D1*
X1651920Y1693407D1*
X1651529Y1691907D1*
X1651203Y1690407D1*
X1650876Y1688907D1*
X1649928Y1687407D1*
X1646561Y1685907D1*
X1641183Y1684407D1*
X1634529Y1682907D1*
X1660029Y1714407D2*
Y1712907D1*
Y1711407D1*
Y1709907D1*
Y1708407D1*
Y1706907D1*
Y1705407D1*
Y1703907D1*
Y1702407D1*
Y1700907D1*
Y1699407D1*
Y1697907D1*
X1660023Y1696407D1*
X1659970Y1694907D1*
X1659779Y1693407D1*
X1659420Y1691907D1*
X1659029Y1690407D1*
X1658715Y1688907D1*
X1658379Y1687407D1*
X1657897Y1685907D1*
X1657237Y1684407D1*
X1656344Y1682907D1*
X1655094Y1681407D1*
X1653310Y1679907D1*
X1650867Y1678407D1*
X1648029Y1676907D1*
X1670529Y1712907D2*
Y1711407D1*
Y1709907D1*
Y1708407D1*
Y1706907D1*
Y1705407D1*
X1040529Y1712907D2*
Y1711407D1*
Y1709907D1*
Y1708407D1*
Y1706907D1*
X1033029D1*
Y1705407D1*
Y1703907D1*
Y1702407D1*
Y1700907D1*
Y1699407D1*
Y1697907D1*
Y1696407D1*
Y1694907D1*
Y1693407D1*
Y1691907D1*
Y1690407D1*
Y1688907D1*
Y1687407D1*
Y1685907D1*
Y1684407D1*
Y1682907D1*
Y1681407D1*
Y1679907D1*
Y1678407D1*
Y1676907D1*
X1043529Y1712907D2*
X1043805Y1711407D1*
X1044331Y1709907D1*
X1045029Y1708407D1*
X757029Y1709907D2*
X754381Y1708407D1*
X752202Y1706907D1*
X750617Y1705407D1*
X749508Y1703907D1*
X748774Y1702407D1*
X748364Y1700907D1*
X748167Y1699407D1*
X748082Y1697907D1*
X748048Y1696407D1*
X748042Y1694907D1*
X748096Y1693407D1*
X748344Y1691907D1*
X748958Y1690407D1*
X750034Y1688907D1*
X751767Y1687407D1*
X754692Y1685907D1*
X759159Y1684407D1*
X764529Y1682907D1*
X760029Y1709907D2*
X762728Y1708407D1*
X765053Y1706907D1*
X766858Y1705407D1*
X768184Y1703907D1*
X769155Y1702407D1*
X769826Y1700907D1*
X770209Y1699407D1*
X770396Y1697907D1*
X770471Y1696407D1*
X770451Y1694907D1*
X770267Y1693407D1*
X769853Y1691907D1*
X769214Y1690407D1*
X768262Y1688907D1*
X766991Y1687407D1*
X763887Y1685907D1*
X759396Y1684407D1*
X754029Y1682907D1*
X811029Y1709907D2*
X809529Y1708407D1*
X815529Y1709907D2*
X816972Y1708407D1*
X818274Y1706907D1*
X819356Y1705407D1*
X820221Y1703907D1*
X820850Y1702407D1*
X821218Y1700907D1*
X821399Y1699407D1*
X821478Y1697907D1*
X821510Y1696407D1*
X821522Y1694907D1*
X821527Y1693407D1*
X821528Y1691907D1*
X821529Y1690407D1*
Y1688907D1*
Y1687407D1*
Y1685907D1*
Y1684407D1*
Y1682907D1*
Y1681407D1*
Y1679907D1*
Y1678407D1*
Y1676907D1*
X859029Y1709907D2*
X856330Y1708407D1*
X854011Y1706907D1*
X852252Y1705407D1*
X851065Y1703907D1*
X850262Y1702407D1*
X849616Y1700907D1*
X849110Y1699407D1*
X848801Y1697907D1*
X848650Y1696407D1*
X848633Y1694907D1*
X848801Y1693407D1*
X849208Y1691907D1*
X849845Y1690407D1*
X850802Y1688907D1*
X852090Y1687407D1*
X855455Y1685907D1*
X860467Y1684407D1*
X866529Y1682907D1*
X862029Y1709907D2*
X864677Y1708407D1*
X866856Y1706907D1*
X868440Y1705407D1*
X869555Y1703907D1*
X870343Y1702407D1*
X870937Y1700907D1*
X871441Y1699407D1*
X871847Y1697907D1*
X871687Y1696407D1*
X871425Y1694907D1*
X871173Y1693407D1*
X870857Y1691907D1*
X870333Y1690407D1*
X869456Y1688907D1*
X868254Y1687407D1*
X865330Y1685907D1*
X861110Y1684407D1*
X856029Y1682907D1*
X1048029Y1709907D2*
X1046529Y1708407D1*
X1052529Y1709907D2*
X1053972Y1708407D1*
X1055274Y1706907D1*
X1056356Y1705407D1*
X1057221Y1703907D1*
X1057850Y1702407D1*
X1058218Y1700907D1*
X1058399Y1699407D1*
X1058478Y1697907D1*
X1058510Y1696407D1*
X1058522Y1694907D1*
X1058527Y1693407D1*
X1058528Y1691907D1*
X1058529Y1690407D1*
Y1688907D1*
Y1687407D1*
Y1685907D1*
Y1684407D1*
Y1682907D1*
Y1681407D1*
Y1679907D1*
Y1678407D1*
Y1676907D1*
X1097529Y1709907D2*
X1094881Y1708407D1*
X1092702Y1706907D1*
X1091117Y1705407D1*
X1090008Y1703907D1*
X1089274Y1702407D1*
X1088864Y1700907D1*
X1088667Y1699407D1*
X1088582Y1697907D1*
X1088548Y1696407D1*
X1088542Y1694907D1*
X1088596Y1693407D1*
X1088844Y1691907D1*
X1089458Y1690407D1*
X1090534Y1688907D1*
X1092267Y1687407D1*
X1095192Y1685907D1*
X1099659Y1684407D1*
X1105029Y1682907D1*
X1100529Y1709907D2*
X1103228Y1708407D1*
X1105553Y1706907D1*
X1107358Y1705407D1*
X1108684Y1703907D1*
X1109655Y1702407D1*
X1110326Y1700907D1*
X1110709Y1699407D1*
X1110896Y1697907D1*
X1110971Y1696407D1*
X1110951Y1694907D1*
X1110767Y1693407D1*
X1110353Y1691907D1*
X1109714Y1690407D1*
X1108762Y1688907D1*
X1107491Y1687407D1*
X1104387Y1685907D1*
X1099896Y1684407D1*
X1094529Y1682907D1*
X1199529Y1709907D2*
X1198029Y1708407D1*
X1202529Y1709907D2*
X1204876Y1708407D1*
X1206762Y1706907D1*
X1207509Y1705407D1*
X1205924Y1703907D1*
X1203533Y1702407D1*
X1200484Y1700907D1*
X1197388Y1699407D1*
X1194730Y1697907D1*
X1192624Y1696407D1*
X1191004Y1694907D1*
X1189787Y1693407D1*
X1188867Y1691907D1*
X1188224Y1690407D1*
X1187902Y1688907D1*
X1187916Y1687407D1*
X1188253Y1685907D1*
X1188855Y1684407D1*
X1189720Y1682907D1*
X1190905Y1681407D1*
X1192454Y1679907D1*
X1194384Y1678407D1*
X1196529Y1676907D1*
X1475529Y1709907D2*
X1472830Y1708407D1*
X1470511Y1706907D1*
X1468758Y1705407D1*
X1467427Y1703907D1*
X1466961Y1702407D1*
X1466698Y1700907D1*
X1466529Y1699407D1*
X1478529Y1709907D2*
X1481228Y1708407D1*
X1483553Y1706907D1*
X1485364Y1705407D1*
X1486748Y1703907D1*
X1487965Y1702407D1*
X1489224Y1700907D1*
X1490529Y1699407D1*
X943029Y1706907D2*
Y1705407D1*
Y1703907D1*
Y1702407D1*
Y1700907D1*
Y1699407D1*
Y1697907D1*
Y1696407D1*
Y1694907D1*
Y1693407D1*
Y1691907D1*
Y1690407D1*
Y1688907D1*
Y1687407D1*
Y1685907D1*
Y1684407D1*
Y1682907D1*
Y1681407D1*
Y1679907D1*
Y1678407D1*
Y1676907D1*
X974529Y1706907D2*
Y1705407D1*
Y1703907D1*
Y1702407D1*
Y1700907D1*
Y1699407D1*
Y1697907D1*
Y1696407D1*
Y1694907D1*
Y1693407D1*
Y1691907D1*
Y1690407D1*
Y1688907D1*
Y1687407D1*
Y1685907D1*
Y1684407D1*
Y1682907D1*
Y1681407D1*
Y1679907D1*
Y1678407D1*
Y1676907D1*
X1694529Y1705407D2*
Y1703907D1*
Y1702407D1*
Y1700907D1*
Y1699407D1*
Y1697907D1*
Y1696407D1*
Y1694907D1*
Y1693407D1*
Y1691907D1*
Y1690407D1*
Y1688907D1*
Y1687407D1*
Y1685907D1*
Y1684407D1*
Y1682907D1*
Y1681407D1*
Y1679907D1*
Y1678407D1*
Y1676907D1*
X1489029Y1694907D2*
X1488966Y1693407D1*
X1488715Y1691907D1*
X1488100Y1690407D1*
X1487012Y1688907D1*
X1485568Y1687407D1*
X1481877Y1685907D1*
X1476309Y1684407D1*
X1469529Y1682907D1*
X1129029Y1690407D2*
Y1688907D1*
X1129035Y1687407D1*
X1129093Y1685907D1*
X1129349Y1684407D1*
X1129835Y1682907D1*
X1131337Y1681407D1*
X1133695Y1679907D1*
X1137080Y1678407D1*
X1141029Y1676907D1*
X1132029Y1690407D2*
X1135356Y1688907D1*
X1140789Y1687407D1*
X1149078Y1685907D1*
X1159029Y1684407D1*
X1211529Y1688907D2*
X1210495Y1687407D1*
X1207363Y1685907D1*
X1202494Y1684407D1*
X1196529Y1682907D1*
X1213029Y1688907D2*
X1214741Y1687407D1*
X1216239Y1685907D1*
X1216806Y1684407D1*
X1216554Y1682907D1*
X1215437Y1681407D1*
X1213742Y1679907D1*
X1211342Y1678407D1*
X1208529Y1676907D1*
X1463529Y1688907D2*
X1461694Y1687407D1*
X1460310Y1685907D1*
X1459906Y1684407D1*
X1461047Y1682907D1*
X1462605Y1681407D1*
X1464821Y1679907D1*
X1467742Y1678407D1*
X1471029Y1676907D1*
X1465029Y1688907D2*
X1467192Y1687407D1*
X1470707Y1685907D1*
X1476249Y1684407D1*
X1483029Y1682907D1*
X748029Y1681407D2*
Y1679907D1*
Y1678407D1*
Y1676907D1*
X749529Y1681407D2*
X751305Y1679907D1*
X753331Y1678407D1*
X755529Y1676907D1*
X869529Y1681407D2*
X867753Y1679907D1*
X865727Y1678407D1*
X863529Y1676907D1*
X871029Y1681407D2*
Y1679907D1*
Y1678407D1*
Y1676907D1*
X1088529Y1681407D2*
Y1679907D1*
Y1678407D1*
Y1676907D1*
X1090029Y1681407D2*
X1091805Y1679907D1*
X1093831Y1678407D1*
X1096029Y1676907D1*
X996280Y1649407D2*
X993574Y1647907D1*
X991203Y1646407D1*
X989253Y1644907D1*
X987707Y1643407D1*
X986513Y1641907D1*
X985553Y1640407D1*
X984717Y1638907D1*
X983985Y1637407D1*
X983411Y1635907D1*
X983017Y1634407D1*
X982654Y1632907D1*
X982219Y1631407D1*
X981804Y1629907D1*
X981531Y1628407D1*
X981387Y1626907D1*
X981322Y1625407D1*
X981296Y1623907D1*
X981285Y1622407D1*
X981281Y1620907D1*
X981280Y1619407D1*
Y1617907D1*
Y1616407D1*
Y1614907D1*
Y1613407D1*
X981285Y1611907D1*
X981338Y1610407D1*
X981529Y1608907D1*
X981894Y1607407D1*
X982332Y1605907D1*
X982790Y1604407D1*
X983341Y1602907D1*
X983987Y1601407D1*
X984692Y1599907D1*
X985476Y1598407D1*
X986420Y1596907D1*
X987639Y1595407D1*
X989217Y1593907D1*
X991246Y1592407D1*
X993673Y1590907D1*
X996280Y1589407D1*
X1008280Y1649407D2*
X1010979Y1647907D1*
X1013303Y1646407D1*
X1015115Y1644907D1*
X1016493Y1643407D1*
X1017655Y1641907D1*
X1018692Y1640407D1*
X1019512Y1638907D1*
X1020152Y1637407D1*
X1020737Y1635907D1*
X1021271Y1634407D1*
X1021762Y1632907D1*
X1022275Y1631407D1*
X1022728Y1629907D1*
X1023018Y1628407D1*
X1023168Y1626907D1*
X1023235Y1625407D1*
X1023263Y1623907D1*
X1023274Y1622407D1*
X1023278Y1620907D1*
X1023279Y1619407D1*
Y1617907D1*
Y1616407D1*
X1023280Y1614907D1*
X1023274Y1613407D1*
X1023221Y1611907D1*
X1023030Y1610407D1*
X1022665Y1608907D1*
X1022227Y1607407D1*
X1021775Y1605907D1*
X1021270Y1604407D1*
X1020764Y1602907D1*
X1020232Y1601407D1*
X1019526Y1599907D1*
X1018656Y1598407D1*
X1017727Y1596907D1*
X1016648Y1595407D1*
X1015199Y1593907D1*
X1013249Y1592407D1*
X1010861Y1590907D1*
X1008280Y1589407D1*
X1363780Y1649407D2*
X1360901Y1647907D1*
X1358592Y1646407D1*
X1356853Y1644907D1*
X1355577Y1643407D1*
X1354633Y1641907D1*
X1353974Y1640407D1*
X1353596Y1638907D1*
X1353411Y1637407D1*
X1353331Y1635907D1*
X1353298Y1634407D1*
X1353286Y1632907D1*
X1353288Y1631407D1*
X1353339Y1629907D1*
X1353535Y1628407D1*
X1353953Y1626907D1*
X1354587Y1625407D1*
X1355470Y1623907D1*
X1356766Y1622407D1*
X1358466Y1620907D1*
X1363380Y1619407D1*
X1370975Y1617907D1*
X1380280Y1616407D1*
Y1614907D1*
Y1613407D1*
Y1611907D1*
Y1610407D1*
Y1608907D1*
Y1607407D1*
Y1605907D1*
Y1604407D1*
Y1602907D1*
Y1601407D1*
Y1599907D1*
Y1598407D1*
Y1596907D1*
Y1595407D1*
Y1593907D1*
Y1592407D1*
Y1590907D1*
Y1589407D1*
X1387780Y1649407D2*
Y1647907D1*
Y1646407D1*
Y1644907D1*
Y1643407D1*
Y1641907D1*
Y1640407D1*
Y1638907D1*
Y1637407D1*
Y1635907D1*
Y1634407D1*
Y1632907D1*
Y1631407D1*
Y1629907D1*
Y1628407D1*
Y1626907D1*
Y1625407D1*
Y1623907D1*
Y1622407D1*
Y1620907D1*
Y1619407D1*
Y1617907D1*
Y1616407D1*
Y1614907D1*
Y1613407D1*
Y1611907D1*
Y1610407D1*
Y1608907D1*
Y1607407D1*
Y1605907D1*
Y1604407D1*
Y1602907D1*
Y1601407D1*
Y1599907D1*
Y1598407D1*
Y1596907D1*
Y1595407D1*
Y1593907D1*
Y1592407D1*
Y1590907D1*
Y1589407D1*
X1000780Y1643407D2*
X998131Y1641907D1*
X995952Y1640407D1*
X994368Y1638907D1*
X993253Y1637407D1*
X992466Y1635907D1*
X991865Y1634407D1*
X991309Y1632907D1*
X990839Y1631407D1*
X990544Y1629907D1*
X990392Y1628407D1*
X990324Y1626907D1*
X990296Y1625407D1*
X990285Y1623907D1*
X990282Y1622407D1*
X990280Y1620907D1*
Y1619407D1*
Y1617907D1*
Y1616407D1*
Y1614907D1*
Y1613407D1*
X990285Y1611907D1*
X990338Y1610407D1*
X990529Y1608907D1*
X990894Y1607407D1*
X991332Y1605907D1*
X991790Y1604407D1*
X992353Y1602907D1*
X993139Y1601407D1*
X994176Y1599907D1*
X997377Y1598407D1*
X1002287Y1596907D1*
X1008280Y1595407D1*
X1005280Y1643407D2*
X1006780Y1641907D1*
X1008274Y1640407D1*
X1009715Y1638907D1*
X1010971Y1637407D1*
X1011915Y1635907D1*
X1012612Y1634407D1*
X1013217Y1632907D1*
X1013707Y1631407D1*
X1014010Y1629907D1*
X1014165Y1628407D1*
X1014235Y1626907D1*
X1014263Y1625407D1*
X1014274Y1623907D1*
X1014277Y1622407D1*
X1014279Y1620907D1*
Y1619407D1*
Y1617907D1*
X1014280Y1616407D1*
Y1614907D1*
Y1613407D1*
X1014274Y1611907D1*
X1014221Y1610407D1*
X1014030Y1608907D1*
X1013665Y1607407D1*
X1013221Y1605907D1*
X1012710Y1604407D1*
X1011962Y1602907D1*
X1010875Y1601407D1*
X1009308Y1599907D1*
X1006745Y1598407D1*
X1002720Y1596907D1*
X997780Y1595407D1*
X1174780Y1641907D2*
Y1640407D1*
Y1638907D1*
Y1637407D1*
Y1635907D1*
Y1634407D1*
Y1632907D1*
Y1631407D1*
Y1629907D1*
Y1628407D1*
Y1626907D1*
X1182280Y1641907D2*
Y1640407D1*
Y1638907D1*
Y1637407D1*
Y1635907D1*
Y1634407D1*
Y1632907D1*
Y1631407D1*
Y1629907D1*
Y1628407D1*
Y1626907D1*
X1189780D1*
Y1625407D1*
Y1623907D1*
Y1622407D1*
Y1620907D1*
Y1619407D1*
X1182280D1*
Y1617907D1*
Y1616407D1*
Y1614907D1*
Y1613407D1*
Y1611907D1*
Y1610407D1*
Y1608907D1*
Y1607407D1*
Y1605907D1*
Y1604407D1*
Y1602907D1*
Y1601407D1*
Y1599907D1*
Y1598407D1*
Y1596907D1*
Y1595407D1*
Y1593907D1*
Y1592407D1*
Y1590907D1*
Y1589407D1*
X1251280Y1641907D2*
Y1640407D1*
Y1638907D1*
Y1637407D1*
Y1635907D1*
Y1634407D1*
Y1632907D1*
Y1631407D1*
Y1629907D1*
Y1628407D1*
Y1626907D1*
X1243780D1*
Y1625407D1*
Y1623907D1*
Y1622407D1*
Y1620907D1*
Y1619407D1*
X1251280D1*
Y1617907D1*
Y1616407D1*
Y1614907D1*
Y1613407D1*
Y1611907D1*
Y1610407D1*
Y1608907D1*
Y1607407D1*
Y1605907D1*
Y1604407D1*
Y1602907D1*
Y1601407D1*
Y1599907D1*
Y1598407D1*
Y1596907D1*
Y1595407D1*
Y1593907D1*
Y1592407D1*
Y1590907D1*
Y1589407D1*
X1258780Y1641907D2*
Y1640407D1*
Y1638907D1*
Y1637407D1*
Y1635907D1*
Y1634407D1*
Y1632907D1*
Y1631407D1*
Y1629907D1*
Y1628407D1*
Y1626907D1*
X1266280D1*
Y1625407D1*
Y1623907D1*
Y1622407D1*
Y1620907D1*
Y1619407D1*
X1258780D1*
Y1617907D1*
Y1616407D1*
Y1614907D1*
Y1613407D1*
Y1611907D1*
Y1610407D1*
Y1608907D1*
Y1607407D1*
Y1605907D1*
Y1604407D1*
Y1602907D1*
Y1601407D1*
Y1599907D1*
Y1598407D1*
Y1596907D1*
Y1595407D1*
Y1593907D1*
Y1592407D1*
Y1590907D1*
Y1589407D1*
X1372780Y1641907D2*
X1368932Y1640407D1*
X1365928Y1638907D1*
X1363689Y1637407D1*
X1362954Y1635907D1*
X1362562Y1634407D1*
X1362395Y1632907D1*
X1362396Y1631407D1*
X1362538Y1629907D1*
X1363615Y1628407D1*
X1367651Y1626907D1*
X1374000Y1625407D1*
X1381780Y1623907D1*
X1378780Y1641907D2*
Y1640407D1*
Y1638907D1*
Y1637407D1*
Y1635907D1*
Y1634407D1*
Y1632907D1*
Y1631407D1*
Y1629907D1*
Y1628407D1*
Y1626907D1*
Y1625407D1*
X1369780Y1623907D1*
X1045780Y1628407D2*
X1042895Y1626907D1*
X1040539Y1625407D1*
X1038656Y1623907D1*
X1037159Y1622407D1*
X1035993Y1620907D1*
X1035045Y1619407D1*
X1034214Y1617907D1*
X1033483Y1616407D1*
X1032916Y1614907D1*
X1032575Y1613407D1*
X1032404Y1611907D1*
X1032328Y1610407D1*
X1032297Y1608907D1*
X1032280Y1607407D1*
X1057780Y1628407D2*
X1060664Y1626907D1*
X1063026Y1625407D1*
X1064956Y1623907D1*
X1066597Y1622407D1*
X1067978Y1620907D1*
X1069090Y1619407D1*
X1069966Y1617907D1*
X1070599Y1616407D1*
X1070974Y1614907D1*
X1071208Y1613407D1*
X1071473Y1611907D1*
X1071811Y1610407D1*
X1072017Y1608907D1*
X1071923Y1607407D1*
X1071674Y1605907D1*
X1071423Y1604407D1*
X1071114Y1602907D1*
X1070648Y1601407D1*
X1070044Y1599907D1*
X1069350Y1598407D1*
X1068521Y1596907D1*
X1067382Y1595407D1*
X1065749Y1593907D1*
X1063568Y1592407D1*
X1060837Y1590907D1*
X1057780Y1589407D1*
X1092280Y1628407D2*
X1089401Y1626907D1*
X1087092Y1625407D1*
X1085353Y1623907D1*
X1084071Y1622407D1*
X1083075Y1620907D1*
X1082224Y1619407D1*
X1081487Y1617907D1*
X1080918Y1616407D1*
X1080575Y1614907D1*
X1080404Y1613407D1*
X1080328Y1611907D1*
X1080298Y1610407D1*
X1080286Y1608907D1*
X1080282Y1607407D1*
X1080286Y1605907D1*
X1080338Y1604407D1*
X1080535Y1602907D1*
X1080947Y1601407D1*
X1081529Y1599907D1*
X1082208Y1598407D1*
X1082982Y1596907D1*
X1083928Y1595407D1*
X1085201Y1593907D1*
X1086993Y1592407D1*
X1089440Y1590907D1*
X1092280Y1589407D1*
X1101280Y1628407D2*
X1104451Y1626907D1*
X1107405Y1625407D1*
X1110280Y1623907D1*
X1212280Y1628407D2*
X1208882Y1626907D1*
X1206074Y1625407D1*
X1203859Y1623907D1*
X1202072Y1622407D1*
X1200624Y1620907D1*
X1199485Y1619407D1*
X1198593Y1617907D1*
X1197903Y1616407D1*
X1197342Y1614907D1*
X1196801Y1613407D1*
X1196337Y1611907D1*
X1196049Y1610407D1*
X1195950Y1608907D1*
X1196074Y1607407D1*
X1196411Y1605907D1*
X1196838Y1604407D1*
X1197292Y1602907D1*
X1197848Y1601407D1*
X1198545Y1599907D1*
X1199442Y1598407D1*
X1200591Y1596907D1*
X1201978Y1595407D1*
X1203706Y1593907D1*
X1206010Y1592407D1*
X1208970Y1590907D1*
X1212280Y1589407D1*
X1222780Y1628407D2*
X1226177Y1626907D1*
X1228979Y1625407D1*
X1231147Y1623907D1*
X1232796Y1622407D1*
X1234076Y1620907D1*
X1235189Y1619407D1*
X1236199Y1617907D1*
X1236958Y1616407D1*
X1237409Y1614907D1*
X1237686Y1613407D1*
X1238014Y1611907D1*
X1238566Y1610407D1*
X1239280Y1608907D1*
X1238587Y1607407D1*
X1238150Y1605907D1*
X1237874Y1604407D1*
X1237533Y1602907D1*
X1236938Y1601407D1*
X1236121Y1599907D1*
X1235213Y1598407D1*
X1234149Y1596907D1*
X1232749Y1595407D1*
X1230930Y1593907D1*
X1228647Y1592407D1*
X1225867Y1590907D1*
X1222780Y1589407D1*
X1288780Y1628407D2*
X1285382Y1626907D1*
X1282574Y1625407D1*
X1280359Y1623907D1*
X1278572Y1622407D1*
X1277124Y1620907D1*
X1275985Y1619407D1*
X1275093Y1617907D1*
X1274403Y1616407D1*
X1273842Y1614907D1*
X1273301Y1613407D1*
X1272837Y1611907D1*
X1272549Y1610407D1*
X1272450Y1608907D1*
X1272574Y1607407D1*
X1272911Y1605907D1*
X1273338Y1604407D1*
X1273792Y1602907D1*
X1274348Y1601407D1*
X1275045Y1599907D1*
X1275942Y1598407D1*
X1277091Y1596907D1*
X1278478Y1595407D1*
X1280206Y1593907D1*
X1282510Y1592407D1*
X1285470Y1590907D1*
X1288780Y1589407D1*
X1299280Y1628407D2*
X1302677Y1626907D1*
X1305479Y1625407D1*
X1307647Y1623907D1*
X1309296Y1622407D1*
X1310576Y1620907D1*
X1311689Y1619407D1*
X1312699Y1617907D1*
X1313458Y1616407D1*
X1313909Y1614907D1*
X1314186Y1613407D1*
X1314514Y1611907D1*
X1315066Y1610407D1*
X1315780Y1608907D1*
X1315087Y1607407D1*
X1314650Y1605907D1*
X1314374Y1604407D1*
X1314033Y1602907D1*
X1313438Y1601407D1*
X1312621Y1599907D1*
X1311713Y1598407D1*
X1310649Y1596907D1*
X1309249Y1595407D1*
X1307430Y1593907D1*
X1305147Y1592407D1*
X1302367Y1590907D1*
X1299280Y1589407D1*
X1321780Y1628407D2*
X1320391Y1626907D1*
X1319968Y1625407D1*
X1320329Y1623907D1*
X1320970Y1622407D1*
X1321780Y1620907D1*
X1329280Y1628407D2*
X1331055Y1626907D1*
X1333082Y1625407D1*
X1335280Y1623907D1*
X1110280Y1626907D2*
X1109576Y1625407D1*
X1108780Y1623907D1*
X1119280Y1626907D2*
Y1625407D1*
Y1623907D1*
Y1622407D1*
Y1620907D1*
Y1619407D1*
Y1617907D1*
Y1616407D1*
Y1614907D1*
Y1613407D1*
Y1611907D1*
Y1610407D1*
Y1608907D1*
Y1607407D1*
Y1605907D1*
Y1604407D1*
Y1602907D1*
Y1601407D1*
Y1599907D1*
Y1598407D1*
Y1596907D1*
Y1595407D1*
Y1593907D1*
Y1592407D1*
Y1590907D1*
Y1589407D1*
Y1587907D1*
Y1586407D1*
Y1584907D1*
Y1583407D1*
Y1581907D1*
Y1580407D1*
Y1578907D1*
Y1577407D1*
Y1575907D1*
Y1574407D1*
Y1572907D1*
Y1571407D1*
X1125280Y1626907D2*
X1126210Y1625407D1*
X1127065Y1623907D1*
X1127868Y1622407D1*
X1128640Y1620907D1*
X1129400Y1619407D1*
X1130152Y1617907D1*
X1130905Y1616407D1*
X1131654Y1614907D1*
X1132405Y1613407D1*
X1133154Y1611907D1*
X1133905Y1610407D1*
X1134654Y1608907D1*
X1135405Y1607407D1*
X1136154Y1605907D1*
X1136905Y1604407D1*
X1137654Y1602907D1*
X1138405Y1601407D1*
X1139154Y1599907D1*
X1139905Y1598407D1*
X1140654Y1596907D1*
X1141405Y1595407D1*
X1142154Y1593907D1*
X1142905Y1592407D1*
X1143654Y1590907D1*
X1144405Y1589407D1*
X1145154Y1587907D1*
X1145905Y1586407D1*
X1146654Y1584907D1*
X1147405Y1583407D1*
X1148154Y1581907D1*
X1148905Y1580407D1*
X1149654Y1578907D1*
X1150405Y1577407D1*
X1151159Y1575907D1*
X1151949Y1574407D1*
X1152824Y1572907D1*
X1153780Y1571407D1*
X1134280Y1626907D2*
X1134849Y1625407D1*
X1135494Y1623907D1*
X1136191Y1622407D1*
X1136919Y1620907D1*
X1137659Y1619407D1*
X1138401Y1617907D1*
X1139102Y1616407D1*
X1139708Y1614907D1*
X1140242Y1613407D1*
X1140824Y1611907D1*
X1141480Y1610407D1*
X1142184Y1608907D1*
X1142917Y1607407D1*
X1143663Y1605907D1*
X1144450Y1604407D1*
X1145324Y1602907D1*
X1146280Y1601407D1*
X1156780Y1626907D2*
X1156030Y1625407D1*
X1155401Y1623907D1*
X1154771Y1622407D1*
X1154098Y1620907D1*
X1153432Y1619407D1*
X1152841Y1617907D1*
X1152319Y1616407D1*
X1151787Y1614907D1*
X1151275Y1613407D1*
X1150792Y1611907D1*
X1150277Y1610407D1*
X1149772Y1608907D1*
X1149285Y1607407D1*
X1148719Y1605907D1*
X1148031Y1604407D1*
X1147205Y1602907D1*
X1146280Y1601407D1*
X1335280Y1626907D2*
X1334576Y1625407D1*
X1333780Y1623907D1*
X1344280Y1626907D2*
Y1625407D1*
Y1623907D1*
Y1622407D1*
Y1620907D1*
Y1619407D1*
Y1617907D1*
Y1616407D1*
Y1614907D1*
Y1613407D1*
Y1611907D1*
Y1610407D1*
Y1608907D1*
Y1607407D1*
Y1605907D1*
Y1604407D1*
Y1602907D1*
Y1601407D1*
Y1599907D1*
Y1598407D1*
Y1596907D1*
Y1595407D1*
Y1593907D1*
Y1592407D1*
Y1590907D1*
Y1589407D1*
X1164280Y1626907D2*
X1164042Y1625407D1*
X1163617Y1623907D1*
X1163038Y1622407D1*
X1162410Y1620907D1*
X1161833Y1619407D1*
X1161311Y1617907D1*
X1160733Y1616407D1*
X1160084Y1614907D1*
X1159427Y1613407D1*
X1158839Y1611907D1*
X1158313Y1610407D1*
X1157734Y1608907D1*
X1157084Y1607407D1*
X1156427Y1605907D1*
X1155839Y1604407D1*
X1155313Y1602907D1*
X1154734Y1601407D1*
X1154078Y1599907D1*
X1153374Y1598407D1*
X1152648Y1596907D1*
X1151965Y1595407D1*
X1151467Y1593907D1*
X1151190Y1592407D1*
X1151542Y1590907D1*
X1152121Y1589407D1*
X1152915Y1587907D1*
X1153841Y1586407D1*
X1154744Y1584907D1*
X1155582Y1583407D1*
X1156376Y1581907D1*
X1157143Y1580407D1*
X1157901Y1578907D1*
X1158653Y1577407D1*
X1159400Y1575907D1*
X1160110Y1574407D1*
X1160735Y1572907D1*
X1161280Y1571407D1*
X1167280Y1626907D2*
Y1625407D1*
Y1623907D1*
Y1622407D1*
Y1620907D1*
Y1619407D1*
X1174780D1*
Y1617907D1*
Y1616407D1*
Y1614907D1*
Y1613407D1*
Y1611907D1*
Y1610407D1*
Y1608907D1*
Y1607407D1*
Y1605907D1*
Y1604407D1*
Y1602907D1*
Y1601407D1*
Y1599907D1*
Y1598407D1*
Y1596907D1*
Y1595407D1*
Y1593907D1*
Y1592407D1*
Y1590907D1*
Y1589407D1*
X1050280Y1622407D2*
X1047580Y1620907D1*
X1045262Y1619407D1*
X1043509Y1617907D1*
X1042177Y1616407D1*
X1041712Y1614907D1*
X1041449Y1613407D1*
X1041280Y1611907D1*
X1053280Y1622407D2*
X1055979Y1620907D1*
X1058303Y1619407D1*
X1060115Y1617907D1*
X1061499Y1616407D1*
X1062716Y1614907D1*
X1063975Y1613407D1*
X1065280Y1611907D1*
X1098280Y1622407D2*
X1095580Y1620907D1*
X1093262Y1619407D1*
X1091503Y1617907D1*
X1090316Y1616407D1*
X1089513Y1614907D1*
X1088867Y1613407D1*
X1088361Y1611907D1*
X1088051Y1610407D1*
X1087901Y1608907D1*
X1087883Y1607407D1*
X1088052Y1605907D1*
X1088459Y1604407D1*
X1089095Y1602907D1*
X1090052Y1601407D1*
X1091340Y1599907D1*
X1094706Y1598407D1*
X1099718Y1596907D1*
X1105780Y1595407D1*
X1101280Y1622407D2*
X1103928Y1620907D1*
X1106107Y1619407D1*
X1107691Y1617907D1*
X1108806Y1616407D1*
X1109593Y1614907D1*
X1110188Y1613407D1*
X1110691Y1611907D1*
X1111098Y1610407D1*
X1110938Y1608907D1*
X1110675Y1607407D1*
X1110423Y1605907D1*
X1110114Y1604407D1*
X1109637Y1602907D1*
X1108892Y1601407D1*
X1107876Y1599907D1*
X1104680Y1598407D1*
X1099771Y1596907D1*
X1093780Y1595407D1*
X1218280Y1622407D2*
X1214375Y1620907D1*
X1211173Y1619407D1*
X1208866Y1617907D1*
X1207296Y1616407D1*
X1206220Y1614907D1*
X1205506Y1613407D1*
X1205108Y1611907D1*
X1204915Y1610407D1*
X1204838Y1608907D1*
X1204857Y1607407D1*
X1205042Y1605907D1*
X1205455Y1604407D1*
X1206100Y1602907D1*
X1206910Y1601407D1*
X1208920Y1599907D1*
X1212411Y1598407D1*
X1217808Y1596907D1*
X1224280Y1595407D1*
X1218280Y1622407D2*
X1221159Y1620907D1*
X1223710Y1619407D1*
X1225689Y1617907D1*
X1227114Y1616407D1*
X1228179Y1614907D1*
X1229011Y1613407D1*
X1229619Y1611907D1*
X1229970Y1610407D1*
X1230094Y1608907D1*
X1229974Y1607407D1*
X1229594Y1605907D1*
X1229018Y1604407D1*
X1228284Y1602907D1*
X1227239Y1601407D1*
X1225847Y1599907D1*
X1222486Y1598407D1*
X1217800Y1596907D1*
X1212280Y1595407D1*
X1294780Y1622407D2*
X1290875Y1620907D1*
X1287673Y1619407D1*
X1285366Y1617907D1*
X1283796Y1616407D1*
X1282720Y1614907D1*
X1282006Y1613407D1*
X1281608Y1611907D1*
X1281415Y1610407D1*
X1281338Y1608907D1*
X1281357Y1607407D1*
X1281542Y1605907D1*
X1281955Y1604407D1*
X1282600Y1602907D1*
X1283410Y1601407D1*
X1285420Y1599907D1*
X1288911Y1598407D1*
X1294308Y1596907D1*
X1300780Y1595407D1*
X1294780Y1622407D2*
X1297659Y1620907D1*
X1300210Y1619407D1*
X1302189Y1617907D1*
X1303614Y1616407D1*
X1304679Y1614907D1*
X1305511Y1613407D1*
X1306119Y1611907D1*
X1306470Y1610407D1*
X1306594Y1608907D1*
X1306474Y1607407D1*
X1306094Y1605907D1*
X1305518Y1604407D1*
X1304784Y1602907D1*
X1303739Y1601407D1*
X1302347Y1599907D1*
X1298986Y1598407D1*
X1294300Y1596907D1*
X1288780Y1595407D1*
X1324780Y1622407D2*
X1323280Y1620907D1*
X1329280Y1622407D2*
X1330722Y1620907D1*
X1332024Y1619407D1*
X1333106Y1617907D1*
X1333972Y1616407D1*
X1334601Y1614907D1*
X1334968Y1613407D1*
X1335150Y1611907D1*
X1335229Y1610407D1*
X1335261Y1608907D1*
X1335273Y1607407D1*
X1335277Y1605907D1*
X1335279Y1604407D1*
Y1602907D1*
Y1601407D1*
X1335280Y1599907D1*
Y1598407D1*
Y1596907D1*
Y1595407D1*
Y1593907D1*
Y1592407D1*
Y1590907D1*
Y1589407D1*
X1063780Y1607407D2*
X1063717Y1605907D1*
X1063466Y1604407D1*
X1062851Y1602907D1*
X1061763Y1601407D1*
X1060318Y1599907D1*
X1056628Y1598407D1*
X1051059Y1596907D1*
X1044280Y1595407D1*
X1038280Y1601407D2*
X1036445Y1599907D1*
X1035060Y1598407D1*
X1034657Y1596907D1*
X1035798Y1595407D1*
X1037355Y1593907D1*
X1039572Y1592407D1*
X1042492Y1590907D1*
X1045780Y1589407D1*
X1039780Y1601407D2*
X1041943Y1599907D1*
X1045458Y1598407D1*
X1051000Y1596907D1*
X1057780Y1595407D1*
X1108780Y1593907D2*
X1107004Y1592407D1*
X1104977Y1590907D1*
X1102780Y1589407D1*
X1110280Y1593907D2*
Y1592407D1*
Y1590907D1*
Y1589407D1*
Y1587907D1*
Y1586407D1*
Y1584907D1*
Y1583407D1*
Y1581907D1*
Y1580407D1*
Y1578907D1*
Y1577407D1*
Y1575907D1*
Y1574407D1*
Y1572907D1*
Y1571407D1*
X873532Y1898225D2*
Y1896725D1*
Y1895225D1*
Y1893725D1*
Y1892225D1*
Y1890725D1*
Y1889225D1*
Y1887725D1*
Y1886225D1*
Y1884725D1*
Y1883225D1*
Y1881725D1*
Y1880225D1*
Y1878725D1*
Y1877225D1*
Y1875725D1*
Y1874225D1*
Y1872725D1*
Y1871225D1*
Y1869725D1*
Y1868225D1*
Y1866725D1*
Y1865225D1*
Y1863725D1*
Y1862225D1*
Y1860725D1*
Y1859225D1*
Y1857725D1*
Y1856225D1*
Y1854725D1*
Y1853225D1*
Y1851725D1*
Y1850225D1*
Y1848725D1*
Y1847225D1*
Y1845725D1*
Y1844225D1*
Y1842725D1*
Y1841225D1*
Y1839725D1*
Y1838225D1*
Y1836725D1*
Y1835225D1*
Y1833725D1*
Y1832225D1*
Y1830725D1*
Y1829225D1*
Y1827725D1*
Y1826225D1*
Y1824725D1*
Y1823225D1*
X879532Y1898225D2*
Y1896725D1*
Y1895225D1*
Y1893725D1*
Y1892225D1*
Y1890725D1*
Y1889225D1*
Y1887725D1*
Y1886225D1*
Y1884725D1*
Y1883225D1*
Y1881725D1*
Y1880225D1*
Y1878725D1*
Y1877225D1*
Y1875725D1*
Y1874225D1*
Y1872725D1*
Y1871225D1*
Y1869725D1*
Y1868225D1*
Y1866725D1*
Y1865225D1*
Y1863725D1*
Y1862225D1*
Y1860725D1*
Y1859225D1*
Y1857725D1*
Y1856225D1*
Y1854725D1*
Y1853225D1*
Y1851725D1*
Y1850225D1*
Y1848725D1*
Y1847225D1*
Y1845725D1*
Y1844225D1*
Y1842725D1*
Y1841225D1*
Y1839725D1*
Y1838225D1*
Y1836725D1*
Y1835225D1*
Y1833725D1*
Y1832225D1*
Y1830725D1*
Y1829225D1*
Y1827725D1*
Y1826225D1*
Y1824725D1*
Y1823225D1*
X851032Y1893725D2*
X849648Y1892225D1*
X848622Y1890725D1*
X848299Y1889225D1*
X848508Y1887725D1*
X849631Y1886225D1*
X851032Y1884725D1*
X855532Y1893725D2*
X856225Y1892225D1*
X856650Y1890725D1*
X856811Y1889225D1*
X856676Y1887725D1*
X856203Y1886225D1*
X855532Y1884725D1*
X753532Y1868225D2*
X750141Y1866725D1*
X747385Y1865225D1*
X745356Y1863725D1*
X743881Y1862225D1*
X742680Y1860725D1*
X741628Y1859225D1*
X740803Y1857725D1*
X740161Y1856225D1*
X739581Y1854725D1*
X739100Y1853225D1*
X738800Y1851725D1*
X738646Y1850225D1*
X738577Y1848725D1*
X738549Y1847225D1*
X738538Y1845725D1*
X738532Y1844225D1*
X765532Y1868225D2*
X768238Y1866725D1*
X770615Y1865225D1*
X772611Y1863725D1*
X774302Y1862225D1*
X775711Y1860725D1*
X776841Y1859225D1*
X777775Y1857725D1*
X778601Y1856225D1*
X779329Y1854725D1*
X779896Y1853225D1*
X780237Y1851725D1*
X780408Y1850225D1*
X780484Y1848725D1*
X780514Y1847225D1*
X780526Y1845725D1*
X780524Y1844225D1*
X780473Y1842725D1*
X780282Y1841225D1*
X779918Y1839725D1*
X779480Y1838225D1*
X779022Y1836725D1*
X778465Y1835225D1*
X777767Y1833725D1*
X776870Y1832225D1*
X775721Y1830725D1*
X774334Y1829225D1*
X772606Y1827725D1*
X770302Y1826225D1*
X767342Y1824725D1*
X764032Y1823225D1*
X803032Y1868225D2*
X800384Y1866725D1*
X798205Y1865225D1*
X796615Y1863725D1*
X795453Y1862225D1*
X794527Y1860725D1*
X793759Y1859225D1*
X793177Y1857725D1*
X792831Y1856225D1*
X792658Y1854725D1*
X792581Y1853225D1*
X792551Y1851725D1*
X792539Y1850225D1*
X792535Y1848725D1*
X792533Y1847225D1*
Y1845725D1*
Y1844225D1*
X792532Y1842725D1*
Y1841225D1*
Y1839725D1*
Y1838225D1*
Y1836725D1*
Y1835225D1*
Y1833725D1*
Y1832225D1*
Y1830725D1*
Y1829225D1*
Y1827725D1*
Y1826225D1*
Y1824725D1*
Y1823225D1*
X815032Y1868225D2*
X817800Y1866725D1*
X820415Y1865225D1*
X822965Y1863725D1*
X825532Y1862225D1*
X906532Y1868225D2*
X903884Y1866725D1*
X901705Y1865225D1*
X900115Y1863725D1*
X898953Y1862225D1*
X898027Y1860725D1*
X897259Y1859225D1*
X896677Y1857725D1*
X896331Y1856225D1*
X896158Y1854725D1*
X896081Y1853225D1*
X896051Y1851725D1*
X896039Y1850225D1*
X896035Y1848725D1*
X896033Y1847225D1*
Y1845725D1*
Y1844225D1*
X896032Y1842725D1*
Y1841225D1*
Y1839725D1*
Y1838225D1*
Y1836725D1*
Y1835225D1*
Y1833725D1*
Y1832225D1*
Y1830725D1*
Y1829225D1*
Y1827725D1*
Y1826225D1*
Y1824725D1*
Y1823225D1*
X918532Y1868225D2*
X921300Y1866725D1*
X923915Y1865225D1*
X926465Y1863725D1*
X929032Y1862225D1*
X966532Y1868225D2*
X963416Y1866725D1*
X960682Y1865225D1*
X958364Y1863725D1*
X956460Y1862225D1*
X954934Y1860725D1*
X953706Y1859225D1*
X952612Y1857725D1*
X951609Y1856225D1*
X950847Y1854725D1*
X950349Y1853225D1*
X949939Y1851725D1*
X949484Y1850225D1*
X949061Y1848725D1*
X948791Y1847225D1*
X948699Y1845725D1*
X948825Y1844225D1*
X949158Y1842725D1*
X949538Y1841225D1*
X949854Y1839725D1*
X950236Y1838225D1*
X950855Y1836725D1*
X951684Y1835225D1*
X952590Y1833725D1*
X953609Y1832225D1*
X954859Y1830725D1*
X956408Y1829225D1*
X958313Y1827725D1*
X960636Y1826225D1*
X963435Y1824725D1*
X966532Y1823225D1*
X978532Y1868225D2*
X981930Y1866725D1*
X984738Y1865225D1*
X986958Y1863725D1*
X988793Y1862225D1*
X990385Y1860725D1*
X991744Y1859225D1*
X992848Y1857725D1*
X993727Y1856225D1*
X994411Y1854725D1*
X994971Y1853225D1*
X995511Y1851725D1*
X995975Y1850225D1*
X996269Y1848725D1*
X996420Y1847225D1*
X996482Y1845725D1*
X996457Y1844225D1*
X996277Y1842725D1*
X995916Y1841225D1*
X995480Y1839725D1*
X995021Y1838225D1*
X994465Y1836725D1*
X993767Y1835225D1*
X992870Y1833725D1*
X991727Y1832225D1*
X990399Y1830725D1*
X988912Y1829225D1*
X987137Y1827725D1*
X984814Y1826225D1*
X981846Y1824725D1*
X978532Y1823225D1*
X825532Y1866725D2*
X825257Y1865225D1*
X824730Y1863725D1*
X824032Y1862225D1*
X833032Y1866725D2*
Y1865225D1*
Y1863725D1*
Y1862225D1*
Y1860725D1*
Y1859225D1*
Y1857725D1*
Y1856225D1*
Y1854725D1*
Y1853225D1*
Y1851725D1*
Y1850225D1*
Y1848725D1*
Y1847225D1*
Y1845725D1*
Y1844225D1*
Y1842725D1*
Y1841225D1*
Y1839725D1*
Y1838225D1*
Y1836725D1*
Y1835225D1*
Y1833725D1*
Y1832225D1*
Y1830725D1*
Y1829225D1*
Y1827725D1*
Y1826225D1*
Y1824725D1*
Y1823225D1*
X849532Y1866725D2*
Y1865225D1*
Y1863725D1*
Y1862225D1*
Y1860725D1*
Y1859225D1*
Y1857725D1*
Y1856225D1*
Y1854725D1*
Y1853225D1*
Y1851725D1*
Y1850225D1*
Y1848725D1*
Y1847225D1*
Y1845725D1*
Y1844225D1*
Y1842725D1*
Y1841225D1*
Y1839725D1*
Y1838225D1*
Y1836725D1*
Y1835225D1*
Y1833725D1*
Y1832225D1*
Y1830725D1*
Y1829225D1*
Y1827725D1*
Y1826225D1*
Y1824725D1*
Y1823225D1*
X855532Y1866725D2*
Y1865225D1*
Y1863725D1*
Y1862225D1*
Y1860725D1*
Y1859225D1*
Y1857725D1*
Y1856225D1*
Y1854725D1*
Y1853225D1*
Y1851725D1*
Y1850225D1*
Y1848725D1*
Y1847225D1*
Y1845725D1*
Y1844225D1*
Y1842725D1*
Y1841225D1*
Y1839725D1*
Y1838225D1*
Y1836725D1*
Y1835225D1*
Y1833725D1*
Y1832225D1*
Y1830725D1*
Y1829225D1*
Y1827725D1*
Y1826225D1*
Y1824725D1*
Y1823225D1*
X929032Y1866725D2*
X928757Y1865225D1*
X928230Y1863725D1*
X927532Y1862225D1*
X936532Y1866725D2*
Y1865225D1*
Y1863725D1*
Y1862225D1*
Y1860725D1*
Y1859225D1*
Y1857725D1*
Y1856225D1*
Y1854725D1*
Y1853225D1*
Y1851725D1*
Y1850225D1*
Y1848725D1*
Y1847225D1*
Y1845725D1*
Y1844225D1*
Y1842725D1*
Y1841225D1*
Y1839725D1*
Y1838225D1*
Y1836725D1*
Y1835225D1*
Y1833725D1*
Y1832225D1*
Y1830725D1*
Y1829225D1*
Y1827725D1*
Y1826225D1*
Y1824725D1*
Y1823225D1*
X756532Y1863725D2*
X753827Y1862225D1*
X751456Y1860725D1*
X749512Y1859225D1*
X748012Y1857725D1*
X746963Y1856225D1*
X746224Y1854725D1*
X745604Y1853225D1*
X745104Y1851725D1*
X744774Y1850225D1*
X744532Y1848725D1*
X761032Y1863725D2*
X763738Y1862225D1*
X766109Y1860725D1*
X768059Y1859225D1*
X769605Y1857725D1*
X770793Y1856225D1*
X771700Y1854725D1*
X772346Y1853225D1*
X772720Y1851725D1*
X772912Y1850225D1*
X773032Y1848725D1*
X809032Y1863725D2*
X806384Y1862225D1*
X804205Y1860725D1*
X802621Y1859225D1*
X801512Y1857725D1*
X800777Y1856225D1*
X800368Y1854725D1*
X800171Y1853225D1*
X800086Y1851725D1*
X800052Y1850225D1*
X800039Y1848725D1*
X800035Y1847225D1*
X800033Y1845725D1*
Y1844225D1*
Y1842725D1*
X800032Y1841225D1*
Y1839725D1*
Y1838225D1*
Y1836725D1*
Y1835225D1*
Y1833725D1*
Y1832225D1*
Y1830725D1*
Y1829225D1*
Y1827725D1*
Y1826225D1*
Y1824725D1*
Y1823225D1*
X813532Y1863725D2*
X816464Y1862225D1*
X819160Y1860725D1*
X821354Y1859225D1*
X822942Y1857725D1*
X824053Y1856225D1*
X824788Y1854725D1*
X825197Y1853225D1*
X825394Y1851725D1*
X825479Y1850225D1*
X825513Y1848725D1*
X825526Y1847225D1*
X825530Y1845725D1*
X825532Y1844225D1*
Y1842725D1*
Y1841225D1*
Y1839725D1*
Y1838225D1*
Y1836725D1*
Y1835225D1*
Y1833725D1*
Y1832225D1*
Y1830725D1*
Y1829225D1*
Y1827725D1*
Y1826225D1*
Y1824725D1*
Y1823225D1*
X912532Y1863725D2*
X909884Y1862225D1*
X907705Y1860725D1*
X906121Y1859225D1*
X905012Y1857725D1*
X904277Y1856225D1*
X903868Y1854725D1*
X903671Y1853225D1*
X903586Y1851725D1*
X903552Y1850225D1*
X903539Y1848725D1*
X903535Y1847225D1*
X903533Y1845725D1*
Y1844225D1*
Y1842725D1*
X903532Y1841225D1*
Y1839725D1*
Y1838225D1*
Y1836725D1*
Y1835225D1*
Y1833725D1*
Y1832225D1*
Y1830725D1*
Y1829225D1*
Y1827725D1*
Y1826225D1*
Y1824725D1*
Y1823225D1*
X917032Y1863725D2*
X919964Y1862225D1*
X922660Y1860725D1*
X924854Y1859225D1*
X926442Y1857725D1*
X927553Y1856225D1*
X928288Y1854725D1*
X928697Y1853225D1*
X928894Y1851725D1*
X928979Y1850225D1*
X929013Y1848725D1*
X929026Y1847225D1*
X929030Y1845725D1*
X929032Y1844225D1*
Y1842725D1*
Y1841225D1*
Y1839725D1*
Y1838225D1*
Y1836725D1*
Y1835225D1*
Y1833725D1*
Y1832225D1*
Y1830725D1*
Y1829225D1*
Y1827725D1*
Y1826225D1*
Y1824725D1*
Y1823225D1*
X972532Y1863725D2*
X968622Y1862225D1*
X965368Y1860725D1*
X962869Y1859225D1*
X960940Y1857725D1*
X959473Y1856225D1*
X958446Y1854725D1*
X957717Y1853225D1*
X957101Y1851725D1*
X956607Y1850225D1*
X956302Y1848725D1*
X956147Y1847225D1*
X956083Y1845725D1*
X956108Y1844225D1*
X956288Y1842725D1*
X956649Y1841225D1*
X957091Y1839725D1*
X957602Y1838225D1*
X958350Y1836725D1*
X959419Y1835225D1*
X960847Y1833725D1*
X963036Y1832225D1*
X966864Y1830725D1*
X972831Y1829225D1*
X980032Y1827725D1*
X972532Y1863725D2*
X976443Y1862225D1*
X979697Y1860725D1*
X982196Y1859225D1*
X984131Y1857725D1*
X985644Y1856225D1*
X986811Y1854725D1*
X987708Y1853225D1*
X988348Y1851725D1*
X988719Y1850225D1*
X988902Y1848725D1*
X988982Y1847225D1*
X989014Y1845725D1*
X989020Y1844225D1*
X988972Y1842725D1*
X988776Y1841225D1*
X988359Y1839725D1*
X987725Y1838225D1*
X986854Y1836725D1*
X985710Y1835225D1*
X984244Y1833725D1*
X982039Y1832225D1*
X978205Y1830725D1*
X972235Y1829225D1*
X965032Y1827725D1*
X773032Y1844225D2*
X773027Y1842725D1*
X772974Y1841225D1*
X772777Y1839725D1*
X772359Y1838225D1*
X771725Y1836725D1*
X770848Y1835225D1*
X769622Y1833725D1*
X768098Y1832225D1*
X764392Y1830725D1*
X758817Y1829225D1*
X752032Y1827725D1*
X741532Y1836725D2*
X740167Y1835225D1*
X739540Y1833725D1*
X740374Y1832225D1*
X741413Y1830725D1*
X742806Y1829225D1*
X744620Y1827725D1*
X746824Y1826225D1*
X749356Y1824725D1*
X752032Y1823225D1*
X744532Y1836725D2*
X745403Y1835225D1*
X746758Y1833725D1*
X748992Y1832225D1*
X752778Y1830725D1*
X758558Y1829225D1*
X765532Y1827725D1*
X1014532Y1832225D2*
X1013327Y1830725D1*
X1012456Y1829225D1*
X1011870Y1827725D1*
X1011853Y1826225D1*
X1012475Y1824725D1*
X1013422Y1823225D1*
X1014532Y1821725D1*
X1019032Y1832225D2*
X1020238Y1830725D1*
X1021109Y1829225D1*
X1021695Y1827725D1*
X1021712Y1826225D1*
X1021090Y1824725D1*
X1020143Y1823225D1*
X1019032Y1821725D1*
X1676560Y2978405D2*
D79*
X1677986Y2981257D1*
X1680871Y2984142D1*
X1683723Y2985568D1*
X1689460D1*
X1692345Y2984142D1*
X1695197Y2981257D1*
X1696656Y2978405D1*
X1698082Y2974094D1*
Y2966898D1*
X1696656Y2962620D1*
X1695197Y2959735D1*
X1692345Y2956883D1*
X1689460Y2955424D1*
X1683723D1*
X1680871Y2956883D1*
X1677986Y2959735D1*
X1676560Y2962620D1*
X1660133Y2985535D2*
X1664411Y2984109D1*
X1665870Y2981257D1*
Y2978372D1*
X1664411Y2975520D1*
X1661559Y2974061D1*
X1655822Y2972635D1*
X1651511Y2971209D1*
X1648659Y2968324D1*
X1647233Y2965472D1*
Y2961161D1*
X1648659Y2958309D1*
X1650085Y2956850D1*
X1654396Y2955424D1*
X1660133D1*
X1664411Y2956850D1*
X1665870Y2958309D1*
X1667296Y2961161D1*
Y2965472D1*
X1665870Y2968324D1*
X1662985Y2971209D1*
X1658707Y2972635D1*
X1652970Y2974061D1*
X1650085Y2975520D1*
X1648659Y2978372D1*
Y2981257D1*
X1650085Y2984109D1*
X1654396Y2985535D1*
X1660133D1*
X2030994Y1730253D2*
Y1700109D1*
X2020946D1*
X2016635Y1701568D1*
X2013750Y1704420D1*
X2012324Y1707305D1*
X2010898Y1711583D1*
Y1718779D1*
X2012324Y1723090D1*
X2013750Y1725942D1*
X2016635Y1728827D1*
X2020946Y1730253D1*
X2030994D1*
X2001635Y1724483D2*
X1998750Y1725942D1*
X1994439Y1730220D1*
Y1700109D1*
X2341224Y1825909D2*
X2371368D1*
Y1815861D1*
X2369909Y1811550D1*
X2367057Y1808665D1*
X2364172Y1807239D1*
X2359894Y1805813D1*
X2352698D1*
X2348387Y1807239D1*
X2345535Y1808665D1*
X2342650Y1811550D1*
X2341224Y1815861D1*
Y1825909D1*
X2348420Y1795090D2*
X2346994D1*
X2344109Y1793664D1*
X2342683Y1792238D1*
X2341257Y1789353D1*
Y1783616D1*
X2342683Y1780764D1*
X2344109Y1779339D1*
X2346994Y1777879D1*
X2349846D1*
X2352731Y1779339D1*
X2357009Y1782190D1*
X2371368Y1796549D1*
Y1776453D1*
X2034984Y1930253D2*
Y1900109D1*
X2024936D1*
X2020625Y1901568D1*
X2017740Y1904420D1*
X2016314Y1907305D1*
X2014888Y1911583D1*
Y1918779D1*
X2016314Y1923090D1*
X2017740Y1925942D1*
X2020625Y1928827D1*
X2024936Y1930253D1*
X2034984D1*
X2002739Y1930220D2*
X1986987D1*
X1995576Y1918746D1*
X1991265D1*
X1988413Y1917320D1*
X1986987Y1915894D1*
X1985528Y1911583D1*
Y1908731D1*
X1986987Y1904420D1*
X1989839Y1901535D1*
X1994150Y1900109D1*
X1998461D1*
X2002739Y1901535D1*
X2004165Y1902994D1*
X2005624Y1905846D1*
X2035697Y2117753D2*
Y2087609D1*
X2025649D1*
X2021338Y2089068D1*
X2018453Y2091920D1*
X2017027Y2094805D1*
X2015601Y2099083D1*
Y2106279D1*
X2017027Y2110590D1*
X2018453Y2113442D1*
X2021338Y2116327D1*
X2025649Y2117753D1*
X2035697D1*
X1991978Y2087609D2*
Y2117720D1*
X2006337Y2097657D1*
X1984815D1*
X1502503Y3610776D2*
X1489603D1*
X1485292Y3612235D1*
X1483833Y3613661D1*
X1482407Y3616513D1*
Y3619398D1*
X1483833Y3622250D1*
X1485292Y3623709D1*
X1489603Y3625135D1*
X1502503D1*
Y3594991D1*
X1492455Y3610776D2*
X1482407Y3594991D1*
X1471685Y3617939D2*
Y3619364D1*
X1470259Y3622250D1*
X1468833Y3623676D1*
X1465948Y3625101D1*
X1460211D1*
X1457359Y3623676D1*
X1455933Y3622250D1*
X1454474Y3619364D1*
Y3616513D1*
X1455933Y3613628D1*
X1458785Y3609350D1*
X1473144Y3594991D1*
X1453048D1*
X1501774Y3773276D2*
X1488874D1*
X1484563Y3774735D1*
X1483104Y3776161D1*
X1481678Y3779013D1*
Y3781898D1*
X1483104Y3784750D1*
X1484563Y3786209D1*
X1488874Y3787635D1*
X1501774D1*
Y3757491D1*
X1491726Y3773276D2*
X1481678Y3757491D1*
X1455203Y3783324D2*
X1456629Y3786176D1*
X1460940Y3787601D1*
X1463792D1*
X1468103Y3786176D1*
X1470988Y3781864D1*
X1472414Y3774702D1*
Y3767539D1*
X1470988Y3761802D1*
X1468103Y3758917D1*
X1463792Y3757491D1*
X1462366D1*
X1458088Y3758917D1*
X1455203Y3761802D1*
X1453777Y3766113D1*
Y3767539D1*
X1455203Y3771850D1*
X1458088Y3774702D1*
X1462366Y3776128D1*
X1463792D1*
X1468103Y3774702D1*
X1470988Y3771850D1*
X1472414Y3767539D1*
X1226790Y2948276D2*
X1213890D1*
X1209579Y2949735D1*
X1208120Y2951161D1*
X1206694Y2954013D1*
Y2956898D1*
X1208120Y2959750D1*
X1209579Y2961209D1*
X1213890Y2962635D1*
X1226790D1*
Y2932491D1*
X1216742Y2948276D2*
X1206694Y2932491D1*
X1178761Y2952587D2*
X1180220Y2948276D1*
X1183072Y2945391D1*
X1187383Y2943965D1*
X1188809D1*
X1193120Y2945391D1*
X1195972Y2948276D1*
X1197431Y2952587D1*
Y2954013D1*
X1195972Y2958324D1*
X1193120Y2961176D1*
X1188809Y2962601D1*
X1187383D1*
X1183072Y2961176D1*
X1180220Y2958324D1*
X1178761Y2952587D1*
Y2945391D1*
X1180220Y2938228D1*
X1183072Y2933917D1*
X1187383Y2932491D1*
X1190235D1*
X1194546Y2933917D1*
X1195972Y2936802D1*
X1235733Y2598276D2*
X1222833D1*
X1218522Y2599735D1*
X1217063Y2601161D1*
X1215637Y2604013D1*
Y2606898D1*
X1217063Y2609750D1*
X1218522Y2611209D1*
X1222833Y2612635D1*
X1235733D1*
Y2582491D1*
X1225685Y2598276D2*
X1215637Y2582491D1*
X1206374Y2606864D2*
X1203489Y2608324D1*
X1199178Y2612601D1*
Y2582491D1*
X1181292Y2612601D2*
X1185603Y2611176D1*
X1188488Y2606864D1*
X1189914Y2599702D1*
Y2595391D1*
X1188488Y2588228D1*
X1185603Y2583917D1*
X1181292Y2582491D1*
X1178440D1*
X1174129Y2583917D1*
X1171277Y2588228D1*
X1169818Y2595391D1*
Y2599702D1*
X1171277Y2606864D1*
X1174129Y2611176D1*
X1178440Y2612601D1*
X1181292D1*
X1171277Y2606864D2*
X1188488Y2588228D1*
X1229283Y3123276D2*
X1216383D1*
X1212072Y3124735D1*
X1210613Y3126161D1*
X1209187Y3129013D1*
Y3131898D1*
X1210613Y3134750D1*
X1212072Y3136209D1*
X1216383Y3137635D1*
X1229283D1*
Y3107491D1*
X1219235Y3123276D2*
X1209187Y3107491D1*
X1199924Y3131864D2*
X1197039Y3133324D1*
X1192728Y3137601D1*
Y3107491D1*
X1183464Y3131864D2*
X1180579Y3133324D1*
X1176268Y3137601D1*
Y3107491D1*
X1235733Y2773276D2*
X1222833D1*
X1218522Y2774735D1*
X1217063Y2776161D1*
X1215637Y2779013D1*
Y2781898D1*
X1217063Y2784750D1*
X1218522Y2786209D1*
X1222833Y2787635D1*
X1235733D1*
Y2757491D1*
X1225685Y2773276D2*
X1215637Y2757491D1*
X1206374Y2781864D2*
X1203489Y2783324D1*
X1199178Y2787601D1*
Y2757491D1*
X1188455Y2780439D2*
Y2781864D1*
X1187029Y2784750D1*
X1185603Y2786176D1*
X1182718Y2787601D1*
X1176981D1*
X1174129Y2786176D1*
X1172703Y2784750D1*
X1171244Y2781864D1*
Y2779013D1*
X1172703Y2776128D1*
X1175555Y2771850D1*
X1189914Y2757491D1*
X1169818D1*
X1235733Y3285776D2*
X1222833D1*
X1218522Y3287235D1*
X1217063Y3288661D1*
X1215637Y3291513D1*
Y3294398D1*
X1217063Y3297250D1*
X1218522Y3298709D1*
X1222833Y3300135D1*
X1235733D1*
Y3269991D1*
X1225685Y3285776D2*
X1215637Y3269991D1*
X1206374Y3294364D2*
X1203489Y3295824D1*
X1199178Y3300101D1*
Y3269991D1*
X1187029Y3300101D2*
X1171277D1*
X1179866Y3288628D1*
X1175555D1*
X1172703Y3287202D1*
X1171277Y3285776D1*
X1169818Y3281465D1*
Y3278613D1*
X1171277Y3274302D1*
X1174129Y3271417D1*
X1178440Y3269991D1*
X1182751D1*
X1187029Y3271417D1*
X1188455Y3272876D1*
X1189914Y3275728D1*
X1686446Y2685776D2*
X1673546D1*
X1669235Y2687235D1*
X1667776Y2688661D1*
X1666350Y2691513D1*
Y2694398D1*
X1667776Y2697250D1*
X1669235Y2698709D1*
X1673546Y2700135D1*
X1686446D1*
Y2669991D1*
X1676398Y2685776D2*
X1666350Y2669991D1*
X1657087Y2694364D2*
X1654202Y2695824D1*
X1649891Y2700101D1*
Y2669991D1*
X1626268D2*
Y2700101D1*
X1640627Y2680039D1*
X1619105D1*
X2118098Y3215038D2*
X2120950Y3217923D1*
X2125261Y3219349D1*
X2130998D1*
X2135309Y3217923D1*
X2138194Y3215038D1*
Y3212186D1*
X2136735Y3209301D1*
X2135309Y3207875D1*
X2132457Y3206449D1*
X2123835Y3203564D1*
X2120950Y3202138D1*
X2119524Y3200679D1*
X2118098Y3197827D1*
Y3193516D1*
X2120950Y3190664D1*
X2125261Y3189205D1*
X2130998D1*
X2135309Y3190664D1*
X2138194Y3193516D1*
X2108834Y3219349D2*
Y3189205D1*
X2098786D1*
X2094475Y3190664D1*
X2091590Y3193516D1*
X2090164Y3196401D1*
X2088738Y3200679D1*
Y3207875D1*
X2090164Y3212186D1*
X2091590Y3215038D1*
X2094475Y3217923D1*
X2098786Y3219349D1*
X2108834D1*
X2079475Y3213579D2*
X2076590Y3215038D1*
X2072279Y3219316D1*
Y3189205D1*
X1932129Y1317503D2*
D80*
Y1217023D1*
X1965622Y1317503D2*
X1898636D1*
X1867757D2*
Y1217023D1*
X1800771Y1317503D2*
Y1217023D1*
X1867757Y1269639D2*
X1800771D1*
X1769892Y1317503D2*
Y1217023D1*
X1672027Y1303132D2*
X1681533Y1312749D1*
X1695903Y1317503D1*
X1715027D1*
X1729397Y1312749D1*
X1739014Y1303132D1*
Y1293626D1*
X1734150Y1284009D1*
X1729397Y1279256D1*
X1719890Y1274503D1*
X1691150Y1264886D1*
X1681533Y1260133D1*
X1676780Y1255269D1*
X1672027Y1245763D1*
Y1231393D1*
X1681533Y1221886D1*
X1695903Y1217023D1*
X1715027D1*
X1729397Y1221886D1*
X1739014Y1231393D1*
X1476960Y1303132D2*
X1486466Y1312749D1*
X1500836Y1317503D1*
X1519959D1*
X1534330Y1312749D1*
X1543946Y1303132D1*
Y1293626D1*
X1539083Y1284009D1*
X1534330Y1279256D1*
X1524823Y1274503D1*
X1496083Y1264886D1*
X1486466Y1260133D1*
X1481713Y1255269D1*
X1476960Y1245763D1*
Y1231393D1*
X1486466Y1221886D1*
X1500836Y1217023D1*
X1519959D1*
X1534330Y1221886D1*
X1543946Y1231393D1*
X1446081Y1317503D2*
Y1217023D1*
X1415203Y1317503D2*
Y1217023D1*
X1381709D1*
X1367339Y1221886D1*
X1357722Y1231393D1*
X1352969Y1241010D1*
X1348216Y1255269D1*
Y1279256D1*
X1352969Y1293626D1*
X1357722Y1303132D1*
X1367339Y1312749D1*
X1381709Y1317503D1*
X1415203D1*
X1255215D2*
X1317338D1*
Y1217023D1*
X1255215D1*
X1317338Y1269639D2*
X1279091D1*
X1093641Y1317503D2*
Y1217023D1*
X1127134Y1317503D2*
X1060148D1*
X1000529D2*
X1010146Y1312749D1*
X1019652Y1303132D1*
X1024516Y1293626D1*
X1029269Y1279256D1*
Y1255269D1*
X1024516Y1241010D1*
X1019652Y1231393D1*
X1010146Y1221886D1*
X1000529Y1217023D1*
X981406D1*
X971899Y1221886D1*
X962282Y1231393D1*
X957529Y1241010D1*
X952776Y1255269D1*
Y1279256D1*
X957529Y1293626D1*
X962282Y1303132D1*
X971899Y1312749D1*
X981406Y1317503D1*
X1000529D1*
X2023280Y1131126D2*
X2028033Y1140632D1*
X2037650Y1150249D1*
X2047157Y1155003D1*
X2066280D1*
X2075897Y1150249D1*
X2085403Y1140632D1*
X2090267Y1131126D1*
X2095020Y1116756D1*
Y1092769D1*
X2090267Y1078510D1*
X2085403Y1068893D1*
X2075897Y1059386D1*
X2066280Y1054523D1*
X2047157D1*
X2037650Y1059386D1*
X2028033Y1068893D1*
X2023280Y1078510D1*
X1963661Y1155003D2*
X1973278Y1150249D1*
X1982785Y1140632D1*
X1987648Y1131126D1*
X1992402Y1116756D1*
Y1092769D1*
X1987648Y1078510D1*
X1982785Y1068893D1*
X1973278Y1059386D1*
X1963661Y1054523D1*
X1944538D1*
X1935032Y1059386D1*
X1925415Y1068893D1*
X1920662Y1078510D1*
X1915909Y1092769D1*
Y1116756D1*
X1920662Y1131126D1*
X1925415Y1140632D1*
X1935032Y1150249D1*
X1944538Y1155003D1*
X1963661D1*
X1818043D2*
Y1054523D1*
X1885030Y1155003D1*
Y1054523D1*
X1720178Y1140632D2*
X1729685Y1150249D1*
X1744055Y1155003D1*
X1763178D1*
X1777548Y1150249D1*
X1787165Y1140632D1*
Y1131126D1*
X1782301Y1121509D1*
X1777548Y1116756D1*
X1768042Y1112003D1*
X1739302Y1102386D1*
X1729685Y1097633D1*
X1724931Y1092769D1*
X1720178Y1083263D1*
Y1068893D1*
X1729685Y1059386D1*
X1744055Y1054523D1*
X1763178D1*
X1777548Y1059386D1*
X1787165Y1068893D1*
X1660560Y1155003D2*
X1670177Y1150249D1*
X1679683Y1140632D1*
X1684547Y1131126D1*
X1689300Y1116756D1*
Y1092769D1*
X1684547Y1078510D1*
X1679683Y1068893D1*
X1670177Y1059386D1*
X1660560Y1054523D1*
X1641436D1*
X1631930Y1059386D1*
X1622313Y1068893D1*
X1617560Y1078510D1*
X1612807Y1092769D1*
Y1116756D1*
X1617560Y1131126D1*
X1622313Y1140632D1*
X1631930Y1150249D1*
X1641436Y1155003D1*
X1660560D1*
X1581928D2*
Y1054523D1*
X1524558D1*
X1431557Y1155003D2*
X1493680D1*
Y1054523D1*
X1431557D1*
X1493680Y1107139D2*
X1455433D1*
X1241243Y1155003D2*
X1303477D1*
Y1054523D1*
Y1107139D2*
X1265230D1*
X1210365D2*
X1167365D1*
X1152995Y1112003D1*
X1148131Y1116756D1*
X1143378Y1126262D1*
Y1135879D1*
X1148131Y1145386D1*
X1152995Y1150249D1*
X1167365Y1155003D1*
X1210365D1*
Y1054523D1*
X1176871Y1107139D2*
X1143378Y1054523D1*
X1083759Y1155003D2*
X1093376Y1150249D1*
X1102883Y1140632D1*
X1107746Y1131126D1*
X1112499Y1116756D1*
Y1092769D1*
X1107746Y1078510D1*
X1102883Y1068893D1*
X1093376Y1059386D1*
X1083759Y1054523D1*
X1064636D1*
X1055130Y1059386D1*
X1045513Y1068893D1*
X1040760Y1078510D1*
X1036006Y1092769D1*
Y1116756D1*
X1040760Y1131126D1*
X1045513Y1140632D1*
X1055130Y1150249D1*
X1064636Y1155003D1*
X1083759D1*
X938141D2*
Y1054523D1*
X1005128Y1155003D1*
Y1054523D1*
X873769Y1155003D2*
Y1054523D1*
X907263Y1155003D2*
X840276D1*
X1248681Y3224680D2*
D81*
X1244834Y3226626D1*
X1239086Y3232330D1*
Y3192182D1*
X1215239Y3232330D2*
X1220987Y3230429D1*
X1224833Y3224680D1*
X1226735Y3215130D1*
Y3209382D1*
X1224833Y3199831D1*
X1220987Y3194083D1*
X1215239Y3192182D1*
X1211436D1*
X1205688Y3194083D1*
X1201885Y3199831D1*
X1199940Y3209382D1*
Y3215130D1*
X1201885Y3224680D1*
X1205688Y3230429D1*
X1211436Y3232330D1*
X1215239D1*
X1201885Y3224680D2*
X1224833Y3199831D1*
X1187589Y3232374D2*
Y3192182D1*
X1160794Y3232374D2*
X1187589Y3205579D1*
X1178038Y3215174D2*
X1160794Y3192182D1*
X1249002Y2530397D2*
X1245156Y2532342D1*
X1239408Y2538046D1*
Y2497899D1*
X1215560Y2538046D2*
X1221308Y2536145D1*
X1225155Y2530397D1*
X1227056Y2520846D1*
Y2515098D1*
X1225155Y2505548D1*
X1221308Y2499800D1*
X1215560Y2497899D1*
X1211758D1*
X1206010Y2499800D1*
X1202207Y2505548D1*
X1200261Y2515098D1*
Y2520846D1*
X1202207Y2530397D1*
X1206010Y2536145D1*
X1211758Y2538046D1*
X1215560D1*
X1202207Y2530397D2*
X1225155Y2505548D1*
X1187910Y2538091D2*
Y2497899D1*
X1161115Y2538091D2*
X1187910Y2511296D1*
X1178360Y2520891D2*
X1161115Y2497899D1*
X1693850Y2619367D2*
X1690003Y2621312D1*
X1684255Y2627016D1*
Y2586868D1*
X1660408Y2627016D2*
X1666156Y2625115D1*
X1670003Y2619367D1*
X1671904Y2609816D1*
Y2604068D1*
X1670003Y2594518D1*
X1666156Y2588770D1*
X1660408Y2586868D1*
X1656605D1*
X1650857Y2588770D1*
X1647055Y2594518D1*
X1645109Y2604068D1*
Y2609816D1*
X1647055Y2619367D1*
X1650857Y2625115D1*
X1656605Y2627016D1*
X1660408D1*
X1647055Y2619367D2*
X1670003Y2594518D1*
X1632758Y2627060D2*
Y2586868D1*
X1605963Y2627060D2*
X1632758Y2600266D1*
X1623207Y2609860D2*
X1605963Y2586868D1*
X1245189Y2707065D2*
X1241342Y2709010D1*
X1235594Y2714714D1*
Y2674567D1*
X1211746Y2714714D2*
X1217494Y2712813D1*
X1221341Y2707065D1*
X1223242Y2697514D1*
Y2691766D1*
X1221341Y2682216D1*
X1217494Y2676468D1*
X1211746Y2674567D1*
X1207944D1*
X1202196Y2676468D1*
X1198393Y2682216D1*
X1196448Y2691766D1*
Y2697514D1*
X1198393Y2707065D1*
X1202196Y2712813D1*
X1207944Y2714714D1*
X1211746D1*
X1198393Y2707065D2*
X1221341Y2682216D1*
X1184096Y2714759D2*
Y2674567D1*
X1157302Y2714759D2*
X1184096Y2687964D1*
X1174546Y2697559D2*
X1157302Y2674567D1*
X1246460Y2882463D2*
X1242614Y2884408D1*
X1236866Y2890112D1*
Y2849964D1*
X1213018Y2890112D2*
X1218766Y2888211D1*
X1222613Y2882463D1*
X1224514Y2872912D1*
Y2867164D1*
X1222613Y2857613D1*
X1218766Y2851865D1*
X1213018Y2849964D1*
X1209216D1*
X1203468Y2851865D1*
X1199665Y2857613D1*
X1197719Y2867164D1*
Y2872912D1*
X1199665Y2882463D1*
X1203468Y2888211D1*
X1209216Y2890112D1*
X1213018D1*
X1199665Y2882463D2*
X1222613Y2857613D1*
X1185368Y2890156D2*
Y2849964D1*
X1158573Y2890156D2*
X1185368Y2863361D1*
X1175818Y2872956D2*
X1158573Y2849964D1*
X1245189Y3055317D2*
X1241342Y3057262D1*
X1235594Y3062966D1*
Y3022818D1*
X1211746Y3062966D2*
X1217494Y3061065D1*
X1221341Y3055317D1*
X1223242Y3045766D1*
Y3040018D1*
X1221341Y3030468D1*
X1217494Y3024720D1*
X1211746Y3022818D1*
X1207944D1*
X1202196Y3024720D1*
X1198393Y3030468D1*
X1196448Y3040018D1*
Y3045766D1*
X1198393Y3055317D1*
X1202196Y3061065D1*
X1207944Y3062966D1*
X1211746D1*
X1198393Y3055317D2*
X1221341Y3030468D1*
X1184096Y3063010D2*
Y3022818D1*
X1157302Y3063010D2*
X1184096Y3036216D1*
X1174546Y3045811D2*
X1157302Y3022818D1*
X1494263Y3710778D2*
X1490416Y3712723D1*
X1484668Y3718427D1*
Y3678279D1*
X1472317Y3718471D2*
Y3678279D1*
X1445522Y3718471D2*
X1472317Y3691676D1*
X1462766Y3701271D2*
X1445522Y3678279D1*
X1499154Y3543641D2*
X1495307Y3545587D1*
X1489559Y3551290D1*
Y3511143D1*
X1477208Y3551335D2*
Y3511143D1*
X1450413Y3551335D2*
X1477208Y3524540D1*
X1467657Y3534135D2*
X1450413Y3511143D1*
X589408Y1941040D2*
X591309Y1944842D1*
X595156Y1948689D1*
X598958Y1950591D1*
X606607D1*
X610454Y1948689D1*
X614257Y1944842D1*
X616202Y1941040D1*
X618103Y1935292D1*
Y1925697D1*
X616202Y1919993D1*
X614257Y1916147D1*
X610454Y1912344D1*
X606607Y1910399D1*
X598958D1*
X595156Y1912344D1*
X591309Y1916147D1*
X589408Y1919993D1*
Y1925697D1*
X598958D1*
X550261Y1950591D2*
Y1910399D1*
X577056Y1950591D1*
Y1910399D1*
X537910Y1950591D2*
Y1910399D1*
X524513D1*
X518765Y1912344D1*
X514918Y1916147D1*
X513017Y1919993D1*
X511115Y1925697D1*
Y1935292D1*
X513017Y1941040D1*
X514918Y1944842D1*
X518765Y1948689D1*
X524513Y1950591D1*
X537910D1*
X616204Y1831444D2*
X599004D1*
X593256Y1833389D1*
X591310Y1835291D1*
X589409Y1839093D1*
Y1842940D1*
X591310Y1846742D1*
X593256Y1848688D1*
X599004Y1850589D1*
X616204D1*
Y1810397D1*
X602806Y1831444D2*
X589409Y1810397D1*
X577057Y1850589D2*
X550263Y1810397D1*
Y1850589D2*
X577057Y1810397D1*
X537911Y1850589D2*
Y1810397D1*
X524514D1*
X518766Y1812343D1*
X514919Y1816145D1*
X513018Y1819992D1*
X511117Y1825696D1*
Y1835291D1*
X513018Y1841039D1*
X514919Y1844841D1*
X518766Y1848688D1*
X524514Y1850589D1*
X537911D1*
X602806Y1750589D2*
Y1710397D1*
X616204Y1750589D2*
X589409D1*
X577057D2*
X550263Y1710397D1*
Y1750589D2*
X577057Y1710397D1*
X537911Y1750589D2*
Y1710397D1*
X524514D1*
X518766Y1712343D1*
X514919Y1716145D1*
X513018Y1719992D1*
X511117Y1725696D1*
Y1735291D1*
X513018Y1741039D1*
X514919Y1744841D1*
X518766Y1748688D1*
X524514Y1750589D1*
X537911D1*
X1616318Y2284745D2*
Y2286646D1*
X1614417Y2290493D1*
X1612516Y2292394D1*
X1608669Y2294296D1*
X1601020D1*
X1597217Y2292394D1*
X1595316Y2290493D1*
X1593370Y2286646D1*
Y2282844D1*
X1595316Y2278997D1*
X1599118Y2273293D1*
X1618264Y2254148D1*
X1591469D1*
X1567622Y2294296D2*
X1573370Y2292394D1*
X1577217Y2286646D1*
X1579118Y2277096D1*
Y2271348D1*
X1577217Y2261797D1*
X1573370Y2256049D1*
X1567622Y2254148D1*
X1563819D1*
X1558071Y2256049D1*
X1554269Y2261797D1*
X1552323Y2271348D1*
Y2277096D1*
X1554269Y2286646D1*
X1558071Y2292394D1*
X1563819Y2294296D1*
X1567622D1*
X1554269Y2286646D2*
X1577217Y2261797D1*
X1538026Y2284745D2*
Y2286646D1*
X1536125Y2290493D1*
X1534224Y2292394D1*
X1530377Y2294296D1*
X1522728D1*
X1518925Y2292394D1*
X1517024Y2290493D1*
X1515078Y2286646D1*
Y2282844D1*
X1517024Y2278997D1*
X1520826Y2273293D1*
X1539972Y2254148D1*
X1513177D1*
X1481680D2*
Y2294296D1*
X1500826Y2267545D1*
X1472130D1*
X1459778Y2274222D2*
X1437670D1*
X1413823Y2294296D2*
X1419571Y2292394D1*
X1423418Y2286646D1*
X1425319Y2277096D1*
Y2271348D1*
X1423418Y2261797D1*
X1419571Y2256049D1*
X1413823Y2254148D1*
X1410020D1*
X1404272Y2256049D1*
X1400470Y2261797D1*
X1398524Y2271348D1*
Y2277096D1*
X1400470Y2286646D1*
X1404272Y2292394D1*
X1410020Y2294296D1*
X1413823D1*
X1400470Y2286646D2*
X1423418Y2261797D1*
X1363225Y2288592D2*
X1365126Y2292394D1*
X1370874Y2294296D1*
X1374677D1*
X1380425Y2292394D1*
X1384272Y2286646D1*
X1386173Y2277096D1*
Y2267545D1*
X1384272Y2259896D1*
X1380425Y2256049D1*
X1374677Y2254148D1*
X1372776D1*
X1367072Y2256049D1*
X1363225Y2259896D1*
X1361324Y2265644D1*
Y2267545D1*
X1363225Y2273293D1*
X1367072Y2277096D1*
X1372776Y2278997D1*
X1374677D1*
X1380425Y2277096D1*
X1384272Y2273293D1*
X1386173Y2267545D1*
X1348972Y2274222D2*
X1326865D1*
X1312568Y2284745D2*
Y2286646D1*
X1310666Y2290493D1*
X1308765Y2292394D1*
X1304918Y2294296D1*
X1297269D1*
X1293467Y2292394D1*
X1291565Y2290493D1*
X1289620Y2286646D1*
Y2282844D1*
X1291565Y2278997D1*
X1295368Y2273293D1*
X1314513Y2254148D1*
X1287719D1*
X1265817Y2294296D2*
X1271520Y2292394D1*
X1273466Y2288592D1*
Y2284745D1*
X1271520Y2280943D1*
X1267718Y2278997D1*
X1260069Y2277096D1*
X1254321Y2275195D1*
X1250518Y2271348D1*
X1248617Y2267545D1*
Y2261797D1*
X1250518Y2257995D1*
X1252419Y2256049D1*
X1258167Y2254148D1*
X1265817D1*
X1271520Y2256049D1*
X1273466Y2257995D1*
X1275367Y2261797D1*
Y2267545D1*
X1273466Y2271348D1*
X1269619Y2275195D1*
X1263915Y2277096D1*
X1256266Y2278997D1*
X1252419Y2280943D1*
X1250518Y2284745D1*
Y2288592D1*
X1252419Y2292394D1*
X1258167Y2294296D1*
X1265817D1*
X2479076Y3521962D2*
D82*
Y3471722D1*
X2457521D1*
X2450336Y3474154D1*
X2447959Y3476530D1*
X2445583Y3481283D1*
Y3488468D1*
X2447959Y3493277D1*
X2450336Y3495653D1*
X2457521Y3498030D1*
X2450336Y3500462D1*
X2447959Y3502838D1*
X2445583Y3507592D1*
Y3512400D1*
X2447959Y3517153D1*
X2450336Y3519585D1*
X2457521Y3521962D1*
X2479076D1*
Y3498030D2*
X2457521D1*
X2430144Y3505215D2*
Y3481283D1*
X2427767Y3474154D1*
X2422959Y3471722D1*
X2415774D1*
X2411020Y3474154D1*
X2403835Y3481283D1*
Y3505215D2*
Y3471722D1*
X2381211Y3521962D2*
Y3481283D1*
X2378834Y3474154D1*
X2374026Y3471722D1*
X2369273D1*
X2388396Y3505215D2*
X2371649D1*
X2346649Y3521962D2*
Y3481283D1*
X2344272Y3474154D1*
X2339464Y3471722D1*
X2334710D1*
X2353834Y3505215D2*
X2337087D1*
X2307333D2*
X2312086Y3502838D1*
X2316895Y3498030D1*
X2319271Y3490845D1*
Y3486092D1*
X2316895Y3478907D1*
X2312086Y3474154D1*
X2307333Y3471722D1*
X2300148D1*
X2295339Y3474154D1*
X2290586Y3478907D1*
X2288154Y3486092D1*
Y3490845D1*
X2290586Y3498030D1*
X2295339Y3502838D1*
X2300148Y3505215D1*
X2307333D1*
X2272715D2*
Y3471722D1*
Y3495653D2*
X2265530Y3502838D1*
X2260722Y3505215D1*
X2253592D1*
X2248783Y3502838D1*
X2246407Y3495653D1*
Y3471722D1*
X2192666D2*
X2211844Y3521962D1*
X2230968Y3471722D1*
X2223783Y3488468D2*
X2199851D1*
X715717Y3498030D2*
X694217D1*
X687032Y3500461D1*
X684600Y3502838D1*
X682224Y3507591D1*
Y3512400D1*
X684600Y3517153D1*
X687032Y3519585D1*
X694217Y3521961D1*
X715717D1*
Y3471721D1*
X698971Y3498030D2*
X682224Y3471721D1*
X666785Y3490845D2*
X638100D1*
Y3495653D1*
X640476Y3500461D1*
X642853Y3502838D1*
X647661Y3505215D1*
X654846D1*
X659600Y3502838D1*
X664408Y3498030D1*
X666785Y3490845D1*
Y3486091D1*
X664408Y3478906D1*
X659600Y3474153D1*
X654846Y3471721D1*
X647661D1*
X642853Y3474153D1*
X638100Y3478906D1*
X596352Y3498030D2*
X598729Y3502838D1*
X605914Y3505215D1*
X613099D1*
X620284Y3502838D1*
X622661Y3498030D1*
X620284Y3493276D1*
X615475Y3490845D1*
X603537Y3488468D1*
X598729Y3486091D1*
X596352Y3481283D1*
Y3478906D1*
X598729Y3474153D1*
X605914Y3471721D1*
X613099D1*
X620284Y3474153D1*
X622661Y3478906D1*
X580913Y3490845D2*
X552228D1*
Y3495653D1*
X554605Y3500461D1*
X556981Y3502838D1*
X561790Y3505215D1*
X568975D1*
X573728Y3502838D1*
X578536Y3498030D1*
X580913Y3490845D1*
Y3486091D1*
X578536Y3478906D1*
X573728Y3474153D1*
X568975Y3471721D1*
X561790D1*
X556981Y3474153D1*
X552228Y3478906D1*
X529604Y3521961D2*
Y3481283D1*
X527227Y3474153D1*
X522419Y3471721D1*
X517666D1*
X536789Y3505215D2*
X520042D1*
X1055274Y3490711D2*
Y3440471D1*
X1033719D1*
X1026534Y3442903D1*
X1024157Y3445280D1*
X1021781Y3450033D1*
Y3457218D1*
X1024157Y3462026D1*
X1026534Y3464403D1*
X1033719Y3466780D1*
X1026534Y3469211D1*
X1024157Y3471588D1*
X1021781Y3476341D1*
Y3481150D1*
X1024157Y3485903D1*
X1026534Y3488335D1*
X1033719Y3490711D1*
X1055274D1*
Y3466780D2*
X1033719D1*
X1006342Y3490711D2*
Y3454841D1*
X1003965Y3447656D1*
X999156Y3442903D1*
X991971Y3440471D1*
X987218D1*
X980033Y3442903D1*
X975225Y3447656D1*
X972848Y3454841D1*
Y3490711D1*
X923916Y3483526D2*
X928669Y3488335D1*
X935854Y3490711D1*
X945415D1*
X952600Y3488335D1*
X957409Y3483526D1*
Y3478773D1*
X954977Y3473965D1*
X952600Y3471588D1*
X947847Y3469211D1*
X933477Y3464403D1*
X928669Y3462026D1*
X926292Y3459595D1*
X923916Y3454841D1*
Y3447656D1*
X928669Y3442903D1*
X935854Y3440471D1*
X945415D1*
X952600Y3442903D1*
X957409Y3447656D1*
X1986713Y3490711D2*
X1974720Y3440471D1*
X1962782Y3490711D1*
X1950844Y3440471D1*
X1938850Y3490711D1*
X1923411D2*
Y3440471D1*
X1876855Y3490711D2*
X1907972D1*
Y3440471D1*
Y3466780D2*
X1888848D1*
X1861416Y3490711D2*
Y3440471D1*
X2029781Y733277D2*
D81*
X1989589Y748620D1*
X2029781Y763919D1*
X2016384Y758171D2*
Y739025D1*
X2029781Y713277D2*
X1989633Y694131D1*
Y720926D1*
X1931050Y732985D2*
X1890858Y748328D1*
X1931050Y763627D1*
X1917653Y757879D2*
Y738733D1*
X1896606Y697686D2*
X1892804Y699587D1*
X1890903Y705335D1*
Y709138D1*
X1892804Y714886D1*
X1898552Y718733D1*
X1908102Y720634D1*
X1917653D1*
X1925302Y718733D1*
X1929149Y714886D1*
X1931050Y709138D1*
Y707237D1*
X1929149Y701533D1*
X1925302Y697686D1*
X1919554Y695785D1*
X1917653D1*
X1911905Y697686D1*
X1908102Y701533D1*
X1906201Y707237D1*
Y709138D1*
X1908102Y714886D1*
X1911905Y718733D1*
X1917653Y720634D1*
X1833468Y735994D2*
X1793276Y751337D1*
X1833468Y766635D1*
X1820070Y760887D2*
Y741742D1*
X1793320Y700695D2*
Y719796D1*
X1810520Y721697D1*
X1808618Y719796D1*
X1806673Y714048D1*
Y708344D1*
X1808618Y702596D1*
X1812421Y698749D1*
X1818169Y696848D1*
X1821972D1*
X1827720Y698749D1*
X1831566Y702596D1*
X1833468Y708344D1*
Y714048D1*
X1831566Y719796D1*
X1829621Y721697D1*
X1825818Y723642D1*
X1733972Y739844D2*
X1693780Y755187D1*
X1733972Y770485D1*
X1720574Y764737D2*
Y745592D1*
X1733972Y708347D2*
X1693824D1*
X1720574Y727493D1*
Y698797D1*
X1636134Y739478D2*
X1595942Y754821D1*
X1636134Y770119D1*
X1622736Y764371D2*
Y745226D1*
X1595986Y723280D2*
Y702278D1*
X1611285Y713729D1*
Y707981D1*
X1613186Y704179D1*
X1615087Y702278D1*
X1620835Y700332D1*
X1624638D1*
X1630386Y702278D1*
X1634233Y706080D1*
X1636134Y711828D1*
Y717576D1*
X1634233Y723280D1*
X1632287Y725181D1*
X1628485Y727127D1*
X1536128Y739478D2*
X1495936Y754821D1*
X1536127Y770119D1*
X1522730Y764371D2*
Y745226D1*
X1505530Y725181D2*
X1503629D1*
X1499782Y723280D1*
X1497881Y721379D1*
X1495980Y717532D1*
Y709883D1*
X1497881Y706080D1*
X1499782Y704179D1*
X1503629Y702233D1*
X1507432D1*
X1511278Y704179D1*
X1516982Y707981D1*
X1536128Y727127D1*
X1536127Y700332D1*
X1442372Y722278D2*
X1402180Y737621D1*
X1442372Y752920D1*
X1428974Y747172D2*
Y728026D1*
X1409873Y709927D2*
X1407928Y706080D1*
X1402224Y700332D1*
X1442372D1*
X1329865Y739478D2*
X1289673Y754821D1*
X1329864Y770119D1*
X1316467Y764371D2*
Y745226D1*
X1289717Y715631D2*
X1291618Y721379D1*
X1297366Y725225D1*
X1306917Y727127D1*
X1312665D1*
X1322215Y725225D1*
X1327963Y721379D1*
X1329865Y715631D1*
Y711828D1*
X1327963Y706080D1*
X1322215Y702278D1*
X1312665Y700332D1*
X1306917D1*
X1297366Y702278D1*
X1291618Y706080D1*
X1289717Y711828D1*
Y715631D1*
X1297366Y702278D2*
X1322215Y725225D1*
X1189666Y766273D2*
X1229858D1*
Y752875D1*
X1227913Y747127D1*
X1224110Y743281D1*
X1220263Y741379D1*
X1214560Y739478D1*
X1204965D1*
X1199217Y741379D1*
X1195414Y743281D1*
X1191568Y747127D1*
X1189666Y752875D1*
Y766273D1*
X1189710Y715631D2*
X1191612Y721379D1*
X1197360Y725225D1*
X1206910Y727127D1*
X1212658D1*
X1222209Y725225D1*
X1227957Y721379D1*
X1229858Y715631D1*
Y711828D1*
X1227957Y706080D1*
X1222209Y702278D1*
X1212658Y700332D1*
X1206910D1*
X1197360Y702278D1*
X1191612Y706080D1*
X1189710Y711828D1*
Y715631D1*
X1197360Y702278D2*
X1222209Y725225D1*
X1089660Y749073D2*
X1129852D1*
Y735675D1*
X1127906Y729927D1*
X1124104Y726081D1*
X1120257Y724179D1*
X1114553Y722278D1*
X1104959D1*
X1099210Y724180D1*
X1095408Y726081D1*
X1091561Y729928D1*
X1089660Y735676D1*
Y749073D1*
X1097353Y709927D2*
X1095408Y706080D1*
X1089704Y700332D1*
X1129852D1*
X989654Y766273D2*
X1029846D1*
Y752875D1*
X1027900Y747127D1*
X1024098Y743281D1*
X1020251Y741379D1*
X1014547Y739478D1*
X1004952D1*
X999204Y741379D1*
X995402Y743281D1*
X991555Y747127D1*
X989654Y752875D1*
Y766273D1*
X999248Y725181D2*
X997347D1*
X993500Y723280D1*
X991599Y721379D1*
X989698Y717532D1*
Y709883D1*
X991599Y706080D1*
X993500Y704179D1*
X997347Y702233D1*
X1001150D1*
X1004996Y704179D1*
X1010700Y707981D1*
X1029846Y727127D1*
Y700332D1*
X899198Y778624D2*
X895395Y780525D1*
X891549Y784372D1*
X889647Y788175D1*
Y795824D1*
X891549Y799671D1*
X895395Y803473D1*
X899198Y805419D1*
X904946Y807320D1*
X914541D1*
X920245Y805419D1*
X924091Y803473D1*
X927894Y799671D1*
X929839Y795824D1*
Y788175D1*
X927894Y784372D1*
X924091Y780525D1*
X920245Y778624D1*
X914541D1*
Y788175D1*
X889647Y739478D2*
X929839D1*
X889647Y766273D1*
X929839D1*
X889647Y727127D2*
X929839D1*
Y713729D1*
X927894Y707981D1*
X924091Y704135D1*
X920244Y702233D1*
X914541Y700332D1*
X904946D1*
X899198Y702233D1*
X895395Y704135D1*
X891549Y707981D1*
X889647Y713729D1*
Y727127D1*
M02*
