M48
INCH
T01C0.0157
T02C0.028
T03C0.0354
T04C0.038
T05C0.0394
T06C0.0433
T07C0.0472
T08C0.0492
T09C0.0512
%
T01
X+013151Y+008685
X+016153Y+011180
X+016880Y+010792
X+017426Y+012540
X+017782Y+012858
X+018573Y+012845
X+019465Y+011446
X+016054Y+012540
X+013565Y+012697
X+012551Y+012678
X+012496Y+013633
X+012562Y+016203
X+013091Y+017572
X+012562Y+018451
X+015528Y+016784
X+016562Y+017673
X+019033Y+020659
X+020133Y+020933
X+018916Y+028498
X+018263Y+029950
X+018254Y+030437
X+018750Y+030407
X+018706Y+032480
X+016169Y+030030
X+017197Y+028037
X+008562Y+018062
X+007562Y+015216
T02
X+018778Y+036437
X+019778Y+036437
X+010403Y+036437
X+009403Y+036437
T03
X+004562Y+014687
X+005562Y+014687
X+006562Y+014687
X+007562Y+014687
X+008562Y+014687
X+009562Y+014687
X+010562Y+014687
X+011562Y+014687
X+012562Y+014687
X+013562Y+014687
X+014562Y+014687
X+015562Y+014687
X+016562Y+014687
X+017562Y+014687
X+018562Y+014687
X+019562Y+014687
X+020562Y+014687
X+021562Y+014687
X+022562Y+014687
X+023562Y+014687
X+023562Y+021687
X+022562Y+021687
X+021562Y+021687
X+020562Y+021687
X+019562Y+021687
X+018562Y+021687
X+017562Y+021687
X+016562Y+021687
X+015562Y+021687
X+014562Y+021687
X+013562Y+021687
X+012562Y+021687
X+011562Y+021687
X+010562Y+021687
X+009562Y+021687
X+008562Y+021687
X+007562Y+021687
X+006562Y+021687
X+005562Y+021687
X+004562Y+021687
T04
X+012778Y+035312
X+012778Y+036937
X+016778Y+036937
X+016778Y+035312
X+014028Y+032062
X+014028Y+030437
X+014028Y+028687
X+014028Y+026937
X+014528Y+026062
X+014028Y+025187
X+010028Y+025187
X+010028Y+026937
X+010028Y+028687
X+010028Y+030437
X+010028Y+032062
X+018528Y+026062
T05
X+007028Y+036812
X+005256Y+036812
X+022381Y+036812
X+024153Y+036812
T06
X+004528Y+019312
X+004528Y+018312
X+004528Y+017312
X+006528Y+023687
X+007528Y+023687
X+008528Y+023687
X+009528Y+023687
X+010528Y+023687
X+011528Y+023687
X+012528Y+023687
X+013528Y+023687
X+014528Y+023687
X+015528Y+023687
X+016528Y+023687
X+017528Y+023687
X+018528Y+023687
X+019528Y+023687
X+020528Y+023687
X+021528Y+023687
X+022528Y+023687
X+023528Y+023687
X+024528Y+023687
X+024528Y+033687
X+023528Y+033687
X+022528Y+033687
X+021528Y+033687
X+020528Y+033687
X+019528Y+033687
X+018528Y+033687
X+017528Y+033687
X+016528Y+033687
X+015528Y+033687
X+014528Y+033687
X+013528Y+033687
X+012528Y+033687
X+011528Y+033687
X+010528Y+033687
X+009528Y+033687
X+008528Y+033687
X+007528Y+033687
X+006528Y+033687
T07
X+022302Y+016312
X+022278Y+018312
X+022278Y+020187
X+024403Y+020187
X+024403Y+015837
X+017952Y+016312
X+017927Y+018312
X+017927Y+020187
T08
X+023775Y+030604
X+023775Y+027459
T09
X+007520Y+035828
X+004764Y+035828
X+021889Y+035828
X+024645Y+035828
T00
M30
