G04 DipTrace 3.3.1.3*
G04 TopSilk.gbr*
%MOIN*%
G04 #@! TF.FileFunction,Legend,Top*
G04 #@! TF.Part,Single*
%ADD10C,0.009843*%
%ADD12C,0.003*%
%ADD18C,0.005906*%
%ADD79C,0.004632*%
%ADD80C,0.015439*%
%ADD81C,0.006176*%
%ADD82C,0.00772*%
%FSLAX26Y26*%
G04*
G70*
G90*
G75*
G01*
G04 TopSilk*
%LPD*%
X502781Y1981182D2*
D10*
X402776D1*
Y1681220D1*
X502781D1*
Y1981182D1*
X776706Y3632002D2*
Y3782006D1*
X451680Y3632002D2*
X451715Y3782006D1*
X776706D2*
X451680D1*
X776706Y3544496D2*
Y3519487D1*
X451680D1*
Y3544496D1*
X2489206Y3632002D2*
Y3782006D1*
X2164180Y3632002D2*
X2164215Y3782006D1*
X2489206D2*
X2164180D1*
X2489206Y3544496D2*
Y3519487D1*
X2164180D1*
Y3544496D1*
X406220Y2218701D2*
X2522461D1*
Y1418701D1*
X406220D1*
Y2218701D1*
G36*
X2473692Y1684194D2*
X2448692Y1671694D1*
Y1696696D1*
D1*
X2473692Y1684194D1*
G37*
X2448692D2*
D18*
X2417442D1*
G36*
X2473692Y1931357D2*
X2448692Y1918857D1*
Y1943857D1*
D1*
X2473692Y1931357D1*
G37*
X2448692D2*
D18*
X2417442D1*
G36*
X2481490Y2700773D2*
X2456490Y2688273D1*
Y2713274D1*
D1*
X2481490Y2700773D1*
G37*
X2456490D2*
D18*
X2425240D1*
G36*
X2481490Y3045803D2*
X2456490Y3033303D1*
Y3058303D1*
D1*
X2481490Y3045803D1*
G37*
X2456490D2*
D18*
X2425240D1*
X602776Y3281201D2*
D10*
Y3418701D1*
X2502776D1*
Y2318701D1*
X602776D1*
Y2443701D1*
X2185546Y3229598D2*
D12*
X2245546D1*
X2185546Y3228098D2*
X2245546D1*
X2185546Y3226598D2*
X2245546D1*
X2185546Y3225098D2*
X2245546D1*
X2185546Y3223598D2*
X2245546D1*
X2185546Y3222098D2*
X2245546D1*
X2185546Y3220598D2*
X2194841D1*
X2214046D2*
X2223341D1*
X2238046D2*
X2245546D1*
X2185546Y3219098D2*
X2193963D1*
X2214046D2*
X2222463D1*
X2238046D2*
X2245546D1*
X2185546Y3217598D2*
X2193461D1*
X2214046D2*
X2221961D1*
X2238046D2*
X2245546D1*
X2185546Y3216098D2*
X2193218D1*
X2214046D2*
X2221718D1*
X2238046D2*
X2245546D1*
X2185546Y3214598D2*
X2193112D1*
X2214046D2*
X2221612D1*
X2238046D2*
X2245546D1*
X2185546Y3213098D2*
X2193070D1*
X2214046D2*
X2221570D1*
X2238046D2*
X2245546D1*
X2185546Y3211598D2*
X2193054D1*
X2214046D2*
X2221554D1*
X2238046D2*
X2245546D1*
X2185546Y3210098D2*
X2193049D1*
X2214046D2*
X2221549D1*
X2238046D2*
X2245546D1*
X2185546Y3208598D2*
X2193047D1*
X2214046D2*
X2221547D1*
X2238046D2*
X2245546D1*
X2185546Y3207098D2*
X2193046D1*
X2214046D2*
X2221546D1*
X2238046D2*
X2245546D1*
X2185546Y3205598D2*
X2193046D1*
X2214046D2*
X2221546D1*
X2238046D2*
X2245546D1*
X2185546Y3204098D2*
X2193046D1*
X2214046D2*
X2221546D1*
X2238046D2*
X2245546D1*
X2185552Y3202598D2*
X2193046D1*
X2214052D2*
X2221546D1*
X2238052D2*
X2245546D1*
X2185609Y3201098D2*
X2193046D1*
X2214109D2*
X2221546D1*
X2238109D2*
X2245546D1*
X2185841Y3199598D2*
X2193046D1*
X2214341D2*
X2221546D1*
X2238341D2*
X2245546D1*
X2186354Y3198098D2*
X2193046D1*
X2214854D2*
X2221546D1*
X2238854D2*
X2245546D1*
X2187046Y3196598D2*
X2193046D1*
X2215546D2*
X2221546D1*
X2239546D2*
X2245546D1*
X2194546Y3187598D2*
X2199046D1*
X2230546D2*
X2233546D1*
X2193052Y3186098D2*
X2199958D1*
X2227205D2*
X2236944D1*
X2191605Y3184598D2*
X2200650D1*
X2224590D2*
X2239746D1*
X2190302Y3183098D2*
X2201081D1*
X2222735D2*
X2241913D1*
X2189219Y3181598D2*
X2200449D1*
X2221332D2*
X2243557D1*
X2188348Y3180098D2*
X2199073D1*
X2220146D2*
X2244783D1*
X2187666Y3178598D2*
X2197648D1*
X2219140D2*
X2245706D1*
X2187107Y3177098D2*
X2196379D1*
X2218264D2*
X2246356D1*
X2186567Y3175598D2*
X2195423D1*
X2217457D2*
X2227603D1*
X2236483D2*
X2246731D1*
X2186103Y3174098D2*
X2194718D1*
X2216685D2*
X2226301D1*
X2237732D2*
X2246915D1*
X2185809Y3172598D2*
X2194117D1*
X2215925D2*
X2225213D1*
X2238623D2*
X2246995D1*
X2185664Y3171098D2*
X2193678D1*
X2215167D2*
X2224295D1*
X2239129D2*
X2247027D1*
X2185649Y3169598D2*
X2193440D1*
X2214368D2*
X2223469D1*
X2239374D2*
X2247039D1*
X2185812Y3168098D2*
X2193795D1*
X2213475D2*
X2222689D1*
X2239474D2*
X2247044D1*
X2186161Y3166598D2*
X2194338D1*
X2212497D2*
X2221927D1*
X2239457D2*
X2247045D1*
X2186547Y3165098D2*
X2195077D1*
X2211443D2*
X2221174D1*
X2239223D2*
X2247040D1*
X2186860Y3163598D2*
X2196009D1*
X2210249D2*
X2220421D1*
X2238620D2*
X2246987D1*
X2187196Y3162098D2*
X2198699D1*
X2207269D2*
X2219666D1*
X2237630D2*
X2246790D1*
X2187677Y3160598D2*
X2202900D1*
X2202856D2*
X2218868D1*
X2236387D2*
X2246372D1*
X2188338Y3159098D2*
X2217975D1*
X2235046D2*
X2245738D1*
X2189225Y3157598D2*
X2216997D1*
X2235971D2*
X2244868D1*
X2190425Y3156098D2*
X2215967D1*
X2236788D2*
X2243736D1*
X2192052Y3154598D2*
X2214677D1*
X2237468D2*
X2242426D1*
X2194309Y3153098D2*
X2212867D1*
X2238046D2*
X2241046D1*
X2197248Y3151598D2*
X2210566D1*
X2200546Y3150098D2*
X2208046D1*
X2185546Y3138098D2*
X2245546D1*
X2185546Y3136598D2*
X2245546D1*
X2185546Y3135098D2*
X2245546D1*
X2185546Y3133598D2*
X2245546D1*
X2185546Y3132098D2*
X2245546D1*
X2185546Y3130598D2*
X2245546D1*
X2214046Y3129098D2*
X2221847D1*
X2238046D2*
X2245546D1*
X2214046Y3127598D2*
X2220850D1*
X2238046D2*
X2245546D1*
X2214046Y3126098D2*
X2220541D1*
X2238046D2*
X2245546D1*
X2214046Y3124598D2*
X2220784D1*
X2238046D2*
X2245546D1*
X2214046Y3123098D2*
X2221095D1*
X2238040D2*
X2245546D1*
X2214052Y3121598D2*
X2221329D1*
X2237987D2*
X2245546D1*
X2214105Y3120098D2*
X2221513D1*
X2237784D2*
X2245546D1*
X2214296Y3118598D2*
X2221850D1*
X2237422D2*
X2245546D1*
X2214655Y3117098D2*
X2222437D1*
X2236487D2*
X2245540D1*
X2215045Y3115598D2*
X2224847D1*
X2233575D2*
X2245487D1*
X2215366Y3114098D2*
X2228720D1*
X2228875D2*
X2245290D1*
X2215754Y3112598D2*
X2244872D1*
X2216427Y3111098D2*
X2244238D1*
X2217453Y3109598D2*
X2243356D1*
X2218775Y3108098D2*
X2242109D1*
X2220405Y3106598D2*
X2240327D1*
X2222376Y3105098D2*
X2237883D1*
X2224546Y3103598D2*
X2235046D1*
X2197546Y3096098D2*
X2202046D1*
X2194898Y3094598D2*
X2202046D1*
X2230546D2*
X2233546D1*
X2192713Y3093098D2*
X2202028D1*
X2230546D2*
X2236431D1*
X2191076Y3091598D2*
X2201864D1*
X2230552D2*
X2238787D1*
X2189776Y3090098D2*
X2201478D1*
X2230622D2*
X2240670D1*
X2188682Y3088598D2*
X2199966D1*
X2230798D2*
X2242166D1*
X2187882Y3087098D2*
X2198163D1*
X2231691D2*
X2243327D1*
X2187371Y3085598D2*
X2196432D1*
X2233606D2*
X2244222D1*
X2186955Y3084098D2*
X2195000D1*
X2235623D2*
X2244862D1*
X2186499Y3082598D2*
X2193971D1*
X2237304D2*
X2245233D1*
X2186075Y3081098D2*
X2193242D1*
X2238626D2*
X2245415D1*
X2185799Y3079598D2*
X2192676D1*
X2214046D2*
X2220046D1*
X2239101D2*
X2245495D1*
X2185660Y3078098D2*
X2192237D1*
X2214046D2*
X2220278D1*
X2239357D2*
X2245527D1*
X2185647Y3076598D2*
X2192391D1*
X2214040D2*
X2220655D1*
X2239466D2*
X2245539D1*
X2185812Y3075098D2*
X2192652D1*
X2213987D2*
X2221102D1*
X2239454D2*
X2245544D1*
X2186161Y3073598D2*
X2192909D1*
X2213790D2*
X2221621D1*
X2239216D2*
X2245539D1*
X2186547Y3072098D2*
X2193277D1*
X2213361D2*
X2222445D1*
X2238739D2*
X2245487D1*
X2186860Y3070598D2*
X2193828D1*
X2212762D2*
X2223609D1*
X2237176D2*
X2245290D1*
X2187196Y3069098D2*
X2195151D1*
X2211458D2*
X2226425D1*
X2234585D2*
X2244878D1*
X2187677Y3067598D2*
X2198218D1*
X2207839D2*
X2230383D1*
X2230687D2*
X2244297D1*
X2188338Y3066098D2*
X2202691D1*
X2202472D2*
X2215308D1*
X2218841D2*
X2243611D1*
X2189219Y3064598D2*
X2214878D1*
X2219469D2*
X2242779D1*
X2190361Y3063098D2*
X2214228D1*
X2220524D2*
X2241596D1*
X2191738Y3061598D2*
X2213242D1*
X2222012D2*
X2239834D1*
X2193391Y3060098D2*
X2211647D1*
X2223915D2*
X2237555D1*
X2195371Y3058598D2*
X2209311D1*
X2226046D2*
X2235046D1*
X2197546Y3057098D2*
X2206546D1*
X2185546Y3046598D2*
X2187046D1*
X2229046D2*
X2233546D1*
X2185546Y3045098D2*
X2188778D1*
X2229046D2*
X2236245D1*
X2185546Y3043598D2*
X2190650D1*
X2229046D2*
X2238570D1*
X2185546Y3042098D2*
X2192538D1*
X2229069D2*
X2240375D1*
X2185546Y3040598D2*
X2194301D1*
X2229140D2*
X2241707D1*
X2185546Y3039098D2*
X2195946D1*
X2229796D2*
X2242731D1*
X2185546Y3037598D2*
X2197562D1*
X2231718D2*
X2243593D1*
X2185546Y3036098D2*
X2199280D1*
X2233918D2*
X2244335D1*
X2185546Y3034598D2*
X2201149D1*
X2235914D2*
X2244907D1*
X2185546Y3033098D2*
X2203038D1*
X2237480D2*
X2245250D1*
X2185546Y3031598D2*
X2204806D1*
X2238697D2*
X2245421D1*
X2185546Y3030098D2*
X2206499D1*
X2239134D2*
X2245497D1*
X2185546Y3028598D2*
X2191546D1*
X2196052D2*
X2208254D1*
X2239371D2*
X2245528D1*
X2185546Y3027098D2*
X2191546D1*
X2197605D2*
X2210145D1*
X2239472D2*
X2245540D1*
X2185546Y3025598D2*
X2191546D1*
X2199296D2*
X2212098D1*
X2239456D2*
X2245544D1*
X2185546Y3024098D2*
X2191546D1*
X2201155D2*
X2214113D1*
X2239217D2*
X2245539D1*
X2185546Y3022598D2*
X2191546D1*
X2203040D2*
X2216392D1*
X2238739D2*
X2245487D1*
X2185546Y3021098D2*
X2191546D1*
X2204807D2*
X2219235D1*
X2237409D2*
X2245296D1*
X2185546Y3019598D2*
X2191546D1*
X2206499D2*
X2223176D1*
X2234085D2*
X2244931D1*
X2185546Y3018098D2*
X2191546D1*
X2208259D2*
X2228641D1*
X2229095D2*
X2244488D1*
X2185546Y3016598D2*
X2191546D1*
X2210198D2*
X2243977D1*
X2185546Y3015098D2*
X2191546D1*
X2212295D2*
X2243223D1*
X2185552Y3013598D2*
X2191546D1*
X2214543D2*
X2242095D1*
X2185609Y3012098D2*
X2191546D1*
X2217124D2*
X2240450D1*
X2185841Y3010598D2*
X2191546D1*
X2220390D2*
X2237978D1*
X2186354Y3009098D2*
X2191546D1*
X2224496D2*
X2234533D1*
X2187046Y3007598D2*
X2191546D1*
X2229046D2*
X2230546D1*
X2200546Y2992598D2*
X2208046D1*
X2200546Y2991098D2*
X2208046D1*
X2200546Y2989598D2*
X2208046D1*
X2200546Y2988098D2*
X2208046D1*
X2200546Y2986598D2*
X2208046D1*
X2200546Y2985098D2*
X2208046D1*
X2200546Y2983598D2*
X2208046D1*
X2200546Y2982098D2*
X2208046D1*
X2200546Y2980598D2*
X2208046D1*
X2200546Y2979098D2*
X2208046D1*
X2200546Y2977598D2*
X2208046D1*
X2200546Y2976098D2*
X2208046D1*
X2200546Y2974598D2*
X2208046D1*
X2200546Y2973098D2*
X2208046D1*
X2200546Y2971598D2*
X2208046D1*
X2185546Y2956598D2*
X2245546D1*
X2185546Y2955098D2*
X2245546D1*
X2185546Y2953598D2*
X2245546D1*
X2185546Y2952098D2*
X2245546D1*
X2185546Y2950598D2*
X2245546D1*
X2185546Y2949098D2*
X2245546D1*
X2185546Y2947598D2*
X2194841D1*
X2238046D2*
X2245546D1*
X2185546Y2946098D2*
X2193963D1*
X2238046D2*
X2245546D1*
X2185546Y2944598D2*
X2193461D1*
X2238046D2*
X2245546D1*
X2185546Y2943098D2*
X2193218D1*
X2238046D2*
X2245546D1*
X2185546Y2941598D2*
X2193118D1*
X2238046D2*
X2245546D1*
X2185546Y2940098D2*
X2193129D1*
X2238046D2*
X2245546D1*
X2185546Y2938598D2*
X2193304D1*
X2238046D2*
X2245546D1*
X2185552Y2937098D2*
X2193658D1*
X2238046D2*
X2245546D1*
X2185605Y2935598D2*
X2194040D1*
X2238046D2*
X2245546D1*
X2185796Y2934098D2*
X2194301D1*
X2238040D2*
X2245546D1*
X2186155Y2932598D2*
X2194446D1*
X2237987D2*
X2245546D1*
X2186540Y2931098D2*
X2194562D1*
X2237790D2*
X2245540D1*
X2186807Y2929598D2*
X2194786D1*
X2237378D2*
X2245487D1*
X2186999Y2928098D2*
X2195214D1*
X2236797D2*
X2245296D1*
X2187254Y2926598D2*
X2195852D1*
X2236117D2*
X2244931D1*
X2187645Y2925098D2*
X2196730D1*
X2235338D2*
X2244494D1*
X2188098Y2923598D2*
X2197921D1*
X2234345D2*
X2244035D1*
X2188608Y2922098D2*
X2199490D1*
X2232936D2*
X2243478D1*
X2189304Y2920598D2*
X2201520D1*
X2230998D2*
X2242780D1*
X2190171Y2919098D2*
X2203980D1*
X2228582D2*
X2241883D1*
X2191099Y2917598D2*
X2206711D1*
X2225870D2*
X2240740D1*
X2192172Y2916098D2*
X2239418D1*
X2193569Y2914598D2*
X2237990D1*
X2195339Y2913098D2*
X2236457D1*
X2197461Y2911598D2*
X2234663D1*
X2200031Y2910098D2*
X2232331D1*
X2203139Y2908598D2*
X2229361D1*
X2206546Y2907098D2*
X2226046D1*
X2185546Y2893598D2*
X2245546D1*
X2185546Y2892098D2*
X2245546D1*
X2185546Y2890598D2*
X2245546D1*
X2185546Y2889098D2*
X2245546D1*
X2185546Y2887598D2*
X2245546D1*
X2185546Y2886098D2*
X2245546D1*
X2185546Y2884598D2*
X2194841D1*
X2214046D2*
X2223341D1*
X2238046D2*
X2245546D1*
X2185546Y2883098D2*
X2193963D1*
X2214046D2*
X2222463D1*
X2238046D2*
X2245546D1*
X2185546Y2881598D2*
X2193461D1*
X2214046D2*
X2221961D1*
X2238046D2*
X2245546D1*
X2185546Y2880098D2*
X2193218D1*
X2214046D2*
X2221718D1*
X2238046D2*
X2245546D1*
X2185546Y2878598D2*
X2193112D1*
X2214046D2*
X2221612D1*
X2238046D2*
X2245546D1*
X2185546Y2877098D2*
X2193070D1*
X2214046D2*
X2221570D1*
X2238046D2*
X2245546D1*
X2185546Y2875598D2*
X2193054D1*
X2214046D2*
X2221554D1*
X2238046D2*
X2245546D1*
X2185546Y2874098D2*
X2193049D1*
X2214046D2*
X2221549D1*
X2238046D2*
X2245546D1*
X2185546Y2872598D2*
X2193047D1*
X2214046D2*
X2221547D1*
X2238046D2*
X2245546D1*
X2185546Y2871098D2*
X2193046D1*
X2214046D2*
X2221546D1*
X2238046D2*
X2245546D1*
X2185546Y2869598D2*
X2193046D1*
X2214046D2*
X2221546D1*
X2238046D2*
X2245546D1*
X2185546Y2868098D2*
X2193046D1*
X2214046D2*
X2221546D1*
X2238046D2*
X2245546D1*
X2185552Y2866598D2*
X2193046D1*
X2214052D2*
X2221546D1*
X2238052D2*
X2245546D1*
X2185609Y2865098D2*
X2193046D1*
X2214109D2*
X2221546D1*
X2238109D2*
X2245546D1*
X2185841Y2863598D2*
X2193046D1*
X2214341D2*
X2221546D1*
X2238341D2*
X2245546D1*
X2186354Y2862098D2*
X2193046D1*
X2214854D2*
X2221546D1*
X2238854D2*
X2245546D1*
X2187046Y2860598D2*
X2193046D1*
X2215546D2*
X2221546D1*
X2239546D2*
X2245546D1*
X2244046Y2856098D2*
X2245546D1*
X2240348Y2854598D2*
X2245546D1*
X2236864Y2853098D2*
X2245546D1*
X2233455Y2851598D2*
X2245534D1*
X2229999Y2850098D2*
X2245411D1*
X2226569Y2848598D2*
X2245112D1*
X2223240Y2847098D2*
X2243513D1*
X2219905Y2845598D2*
X2241113D1*
X2216480Y2844098D2*
X2238154D1*
X2213063Y2842598D2*
X2234903D1*
X2209738Y2841098D2*
X2231436D1*
X2206404Y2839598D2*
X2227828D1*
X2202980Y2838098D2*
X2224186D1*
X2199568Y2836598D2*
X2220597D1*
X2196296Y2835098D2*
X2217020D1*
X2193153Y2833598D2*
X2213250D1*
X2190086Y2832098D2*
X2209214D1*
X2187046Y2830598D2*
X2205046D1*
X2189585Y2829098D2*
X2208616D1*
X2192526Y2827598D2*
X2212260D1*
X2195703Y2826098D2*
X2215957D1*
X2198921Y2824598D2*
X2219680D1*
X2202213Y2823098D2*
X2223373D1*
X2205621Y2821598D2*
X2226976D1*
X2209032Y2820098D2*
X2230509D1*
X2212355Y2818598D2*
X2234078D1*
X2215688Y2817098D2*
X2237612D1*
X2219112Y2815598D2*
X2240764D1*
X2222529Y2814098D2*
X2243435D1*
X2225854Y2812598D2*
X2244691D1*
X2229188Y2811098D2*
X2245147D1*
X2232612Y2809598D2*
X2245382D1*
X2236028Y2808098D2*
X2245484D1*
X2239323Y2806598D2*
X2245525D1*
X2242546Y2805098D2*
X2245546D1*
X2185546Y2796098D2*
X2245546D1*
X2185546Y2794598D2*
X2245546D1*
X2185546Y2793098D2*
X2245546D1*
X2185546Y2791598D2*
X2245546D1*
X2185546Y2790098D2*
X2245546D1*
X2185546Y2788598D2*
X2245546D1*
X2215171Y2787098D2*
X2221546D1*
X2214057Y2785598D2*
X2223052D1*
X2212590Y2784098D2*
X2224605D1*
X2210872Y2782598D2*
X2226296D1*
X2208971Y2781098D2*
X2228155D1*
X2207012Y2779598D2*
X2230040D1*
X2205048Y2778098D2*
X2231801D1*
X2203045Y2776598D2*
X2217040D1*
X2221546D2*
X2233440D1*
X2201090Y2775098D2*
X2215487D1*
X2223046D2*
X2235010D1*
X2199248Y2773598D2*
X2213796D1*
X2224546D2*
X2236589D1*
X2197408Y2772098D2*
X2211937D1*
X2226052D2*
X2238290D1*
X2195475Y2770598D2*
X2210046D1*
X2227605D2*
X2240147D1*
X2193510Y2769098D2*
X2208232D1*
X2229296D2*
X2241974D1*
X2191553Y2767598D2*
X2206402D1*
X2231155D2*
X2243487D1*
X2189609Y2766098D2*
X2204479D1*
X2233040D2*
X2244688D1*
X2187909Y2764598D2*
X2202562D1*
X2234801D2*
X2245130D1*
X2186536Y2763098D2*
X2200738D1*
X2236440D2*
X2245369D1*
X2186026Y2761598D2*
X2198904D1*
X2238004D2*
X2245477D1*
X2185750Y2760098D2*
X2196980D1*
X2239530D2*
X2245520D1*
X2185626Y2758598D2*
X2195062D1*
X2241040D2*
X2245537D1*
X2185575Y2757098D2*
X2193233D1*
X2242544D2*
X2245543D1*
X2185556Y2755598D2*
X2191358D1*
X2244046D2*
X2245546D1*
X2185549Y2754098D2*
X2189278D1*
X2185546Y2752598D2*
X2187046D1*
X2185546Y2743598D2*
X2245546D1*
X2185546Y2742098D2*
X2245546D1*
X2185552Y2740598D2*
X2245546D1*
X2185609Y2739098D2*
X2245546D1*
X2185841Y2737598D2*
X2245546D1*
X2186354Y2736098D2*
X2245546D1*
X2187046Y2734598D2*
X2245546D1*
X2238046Y2727098D2*
X2245546D1*
X2238046Y2725598D2*
X2245546D1*
X2238046Y2724098D2*
X2245546D1*
X2238046Y2722598D2*
X2245546D1*
X2238046Y2721098D2*
X2245546D1*
X2238046Y2719598D2*
X2245546D1*
X2238046Y2718098D2*
X2245546D1*
X2238046Y2716598D2*
X2245546D1*
X2238046Y2715098D2*
X2245546D1*
X2238046Y2713598D2*
X2245546D1*
X2238046Y2712098D2*
X2245546D1*
X2185546Y2710598D2*
X2245546D1*
X2185546Y2709098D2*
X2245546D1*
X2185546Y2707598D2*
X2245546D1*
X2185546Y2706098D2*
X2245546D1*
X2185546Y2704598D2*
X2245546D1*
X2185546Y2703098D2*
X2245546D1*
X2185546Y2701598D2*
X2245546D1*
X2238046Y2700098D2*
X2245546D1*
X2238046Y2698598D2*
X2245546D1*
X2238046Y2697098D2*
X2245546D1*
X2238046Y2695598D2*
X2245546D1*
X2238046Y2694098D2*
X2245546D1*
X2238046Y2692598D2*
X2245546D1*
X2238046Y2691098D2*
X2245546D1*
X2238046Y2689598D2*
X2245546D1*
X2238046Y2688098D2*
X2245546D1*
X2238046Y2686598D2*
X2245546D1*
X2238046Y2685098D2*
X2245546D1*
X2209546Y2679098D2*
X2224546D1*
X2205917Y2677598D2*
X2228001D1*
X2202737Y2676098D2*
X2231001D1*
X2200128Y2674598D2*
X2233581D1*
X2198025Y2673098D2*
X2235800D1*
X2196241Y2671598D2*
X2237653D1*
X2194626Y2670098D2*
X2239158D1*
X2193132Y2668598D2*
X2209904D1*
X2224483D2*
X2240378D1*
X2191811Y2667098D2*
X2206277D1*
X2227232D2*
X2241474D1*
X2190723Y2665598D2*
X2203390D1*
X2229623D2*
X2242528D1*
X2189849Y2664098D2*
X2201193D1*
X2231629D2*
X2243476D1*
X2189166Y2662598D2*
X2199540D1*
X2233368D2*
X2244285D1*
X2188607Y2661098D2*
X2198304D1*
X2234915D2*
X2244942D1*
X2188067Y2659598D2*
X2197328D1*
X2236213D2*
X2245490D1*
X2187597Y2658098D2*
X2196486D1*
X2237173D2*
X2246027D1*
X2187251Y2656598D2*
X2195752D1*
X2237876D2*
X2246490D1*
X2186908Y2655098D2*
X2195178D1*
X2238482D2*
X2246783D1*
X2186481Y2653598D2*
X2194783D1*
X2238973D2*
X2246934D1*
X2186069Y2652098D2*
X2194421D1*
X2239277D2*
X2247002D1*
X2185797Y2650598D2*
X2193991D1*
X2239432D2*
X2247029D1*
X2185654Y2649098D2*
X2193629D1*
X2239501D2*
X2247040D1*
X2185595Y2647598D2*
X2193547D1*
X2239529D2*
X2247044D1*
X2185620Y2646098D2*
X2193763D1*
X2239540D2*
X2247045D1*
X2185801Y2644598D2*
X2194088D1*
X2239538D2*
X2247046D1*
X2186157Y2643098D2*
X2194376D1*
X2239487D2*
X2247040D1*
X2186546Y2641598D2*
X2194696D1*
X2239296D2*
X2246987D1*
X2186860Y2640098D2*
X2195121D1*
X2238931D2*
X2246796D1*
X2187190Y2638598D2*
X2195583D1*
X2238494D2*
X2246431D1*
X2187619Y2637098D2*
X2196051D1*
X2238035D2*
X2245994D1*
X2188088Y2635598D2*
X2196612D1*
X2237478D2*
X2245535D1*
X2188609Y2634098D2*
X2197311D1*
X2236786D2*
X2244984D1*
X2189356Y2632598D2*
X2198204D1*
X2235946D2*
X2244343D1*
X2190383Y2631098D2*
X2199321D1*
X2235037D2*
X2243683D1*
X2191546Y2629598D2*
X2200546D1*
X2234236D2*
X2243079D1*
X2233546Y2628098D2*
X2242546D1*
X2200546Y2616098D2*
X2208046D1*
X2200546Y2614598D2*
X2208046D1*
X2200546Y2613098D2*
X2208046D1*
X2200546Y2611598D2*
X2208046D1*
X2200546Y2610098D2*
X2208046D1*
X2200546Y2608598D2*
X2208046D1*
X2200546Y2607098D2*
X2208046D1*
X2200546Y2605598D2*
X2208046D1*
X2200546Y2604098D2*
X2208046D1*
X2200546Y2602598D2*
X2208046D1*
X2200546Y2601098D2*
X2208046D1*
X2200546Y2599598D2*
X2208046D1*
X2200546Y2598098D2*
X2208046D1*
X2200546Y2596598D2*
X2208046D1*
X2200546Y2595098D2*
X2208046D1*
X2244046Y2587598D2*
X2245546D1*
X2240348Y2586098D2*
X2245546D1*
X2236864Y2584598D2*
X2245546D1*
X2233455Y2583098D2*
X2245534D1*
X2229999Y2581598D2*
X2245411D1*
X2226569Y2580098D2*
X2245112D1*
X2223240Y2578598D2*
X2243513D1*
X2219905Y2577098D2*
X2241113D1*
X2216480Y2575598D2*
X2238154D1*
X2213063Y2574098D2*
X2234903D1*
X2209738Y2572598D2*
X2231436D1*
X2206404Y2571098D2*
X2227828D1*
X2202980Y2569598D2*
X2224186D1*
X2199568Y2568098D2*
X2220597D1*
X2196296Y2566598D2*
X2217020D1*
X2193153Y2565098D2*
X2213250D1*
X2190086Y2563598D2*
X2209214D1*
X2187046Y2562098D2*
X2205046D1*
X2189585Y2560598D2*
X2208616D1*
X2192526Y2559098D2*
X2212260D1*
X2195703Y2557598D2*
X2215957D1*
X2198921Y2556098D2*
X2219680D1*
X2202213Y2554598D2*
X2223373D1*
X2205621Y2553098D2*
X2226976D1*
X2209032Y2551598D2*
X2230509D1*
X2212355Y2550098D2*
X2234078D1*
X2215688Y2548598D2*
X2237612D1*
X2219112Y2547098D2*
X2240764D1*
X2222529Y2545598D2*
X2243435D1*
X2225854Y2544098D2*
X2244691D1*
X2229188Y2542598D2*
X2245147D1*
X2232612Y2541098D2*
X2245382D1*
X2236028Y2539598D2*
X2245484D1*
X2239323Y2538098D2*
X2245525D1*
X2242546Y2536598D2*
X2245546D1*
X2185546Y2527598D2*
X2245546D1*
X2185546Y2526098D2*
X2245546D1*
X2185546Y2524598D2*
X2245546D1*
X2185546Y2523098D2*
X2245546D1*
X2185546Y2521598D2*
X2245546D1*
X2185546Y2520098D2*
X2245546D1*
X2185546Y2518598D2*
X2194841D1*
X2214046D2*
X2223341D1*
X2238046D2*
X2245546D1*
X2185546Y2517098D2*
X2193963D1*
X2214046D2*
X2222463D1*
X2238046D2*
X2245546D1*
X2185546Y2515598D2*
X2193461D1*
X2214046D2*
X2221961D1*
X2238046D2*
X2245546D1*
X2185546Y2514098D2*
X2193218D1*
X2214046D2*
X2221718D1*
X2238046D2*
X2245546D1*
X2185546Y2512598D2*
X2193112D1*
X2214046D2*
X2221612D1*
X2238046D2*
X2245546D1*
X2185546Y2511098D2*
X2193070D1*
X2214046D2*
X2221570D1*
X2238046D2*
X2245546D1*
X2185546Y2509598D2*
X2193054D1*
X2214046D2*
X2221554D1*
X2238046D2*
X2245546D1*
X2185546Y2508098D2*
X2193049D1*
X2214046D2*
X2221549D1*
X2238046D2*
X2245546D1*
X2185546Y2506598D2*
X2193047D1*
X2214046D2*
X2221547D1*
X2238046D2*
X2245546D1*
X2185546Y2505098D2*
X2193046D1*
X2214046D2*
X2221546D1*
X2238046D2*
X2245546D1*
X2185546Y2503598D2*
X2193046D1*
X2214046D2*
X2221546D1*
X2238046D2*
X2245546D1*
X2185546Y2502098D2*
X2193046D1*
X2214046D2*
X2221546D1*
X2238046D2*
X2245546D1*
X2185552Y2500598D2*
X2193046D1*
X2214052D2*
X2221546D1*
X2238052D2*
X2245546D1*
X2185609Y2499098D2*
X2193046D1*
X2214109D2*
X2221546D1*
X2238109D2*
X2245546D1*
X2185841Y2497598D2*
X2193046D1*
X2214341D2*
X2221546D1*
X2238341D2*
X2245546D1*
X2186354Y2496098D2*
X2193046D1*
X2214854D2*
X2221546D1*
X2238854D2*
X2245546D1*
X2187046Y2494598D2*
X2193046D1*
X2215546D2*
X2221546D1*
X2239546D2*
X2245546D1*
X2084463Y2103514D2*
X2144463D1*
X2084463Y2102014D2*
X2144463D1*
X2084463Y2100514D2*
X2144463D1*
X2084463Y2099014D2*
X2144463D1*
X2084463Y2097514D2*
X2144463D1*
X2084463Y2096014D2*
X2144463D1*
X2112963Y2094514D2*
X2120764D1*
X2136963D2*
X2144463D1*
X2112963Y2093014D2*
X2119767D1*
X2136963D2*
X2144463D1*
X2112963Y2091514D2*
X2119459D1*
X2136963D2*
X2144463D1*
X2112963Y2090014D2*
X2119701D1*
X2136963D2*
X2144463D1*
X2112963Y2088514D2*
X2120012D1*
X2136957D2*
X2144463D1*
X2112969Y2087014D2*
X2120246D1*
X2136905D2*
X2144463D1*
X2113022Y2085514D2*
X2120430D1*
X2136702D2*
X2144463D1*
X2113213Y2084014D2*
X2120767D1*
X2136339D2*
X2144463D1*
X2113572Y2082514D2*
X2121354D1*
X2135404D2*
X2144457D1*
X2113963Y2081014D2*
X2123764D1*
X2132492D2*
X2144405D1*
X2114283Y2079514D2*
X2127637D1*
X2127792D2*
X2144208D1*
X2114672Y2078014D2*
X2143790D1*
X2115344Y2076514D2*
X2143155D1*
X2116370Y2075014D2*
X2142273D1*
X2117693Y2073514D2*
X2141026D1*
X2119322Y2072014D2*
X2139244D1*
X2121293Y2070514D2*
X2136801D1*
X2123463Y2069014D2*
X2133963D1*
X2085963Y2060014D2*
X2121963D1*
X2138463D2*
X2144463D1*
X2085271Y2058514D2*
X2121963D1*
X2137264D2*
X2145156D1*
X2084846Y2057014D2*
X2121963D1*
X2136267D2*
X2145581D1*
X2084685Y2055514D2*
X2121963D1*
X2135982D2*
X2145741D1*
X2084820Y2054014D2*
X2121963D1*
X2136499D2*
X2145606D1*
X2085293Y2052514D2*
X2121963D1*
X2137389D2*
X2145134D1*
X2085963Y2051014D2*
X2121963D1*
X2138463D2*
X2144463D1*
X2084463Y2010514D2*
X2144463D1*
X2084463Y2009014D2*
X2144463D1*
X2084463Y2007514D2*
X2144463D1*
X2084463Y2006014D2*
X2144463D1*
X2084463Y2004514D2*
X2144463D1*
X2084463Y2003014D2*
X2144463D1*
X2112963Y2001514D2*
X2120764D1*
X2136963D2*
X2144463D1*
X2112963Y2000014D2*
X2119767D1*
X2136963D2*
X2144463D1*
X2112963Y1998514D2*
X2119459D1*
X2136963D2*
X2144463D1*
X2112963Y1997014D2*
X2119701D1*
X2136963D2*
X2144463D1*
X2112963Y1995514D2*
X2120012D1*
X2136957D2*
X2144463D1*
X2112969Y1994014D2*
X2120246D1*
X2136905D2*
X2144463D1*
X2113022Y1992514D2*
X2120430D1*
X2136702D2*
X2144463D1*
X2113213Y1991014D2*
X2120767D1*
X2136339D2*
X2144463D1*
X2113572Y1989514D2*
X2121354D1*
X2135404D2*
X2144457D1*
X2113963Y1988014D2*
X2123764D1*
X2132492D2*
X2144405D1*
X2114283Y1986514D2*
X2127637D1*
X2127792D2*
X2144208D1*
X2114672Y1985014D2*
X2143790D1*
X2115344Y1983514D2*
X2143155D1*
X2116370Y1982014D2*
X2142273D1*
X2117693Y1980514D2*
X2141026D1*
X2119322Y1979014D2*
X2139244D1*
X2121293Y1977514D2*
X2136801D1*
X2123463Y1976014D2*
X2133963D1*
X2085963Y1967014D2*
X2121963D1*
X2138463D2*
X2144463D1*
X2085271Y1965514D2*
X2121963D1*
X2137264D2*
X2145156D1*
X2084846Y1964014D2*
X2121963D1*
X2136267D2*
X2145581D1*
X2084685Y1962514D2*
X2121963D1*
X2135982D2*
X2145741D1*
X2084820Y1961014D2*
X2121963D1*
X2136499D2*
X2145606D1*
X2085293Y1959514D2*
X2121963D1*
X2137389D2*
X2145134D1*
X2085963Y1958014D2*
X2121963D1*
X2138463D2*
X2144463D1*
X2099463Y1947514D2*
X2108463D1*
X2096758Y1946014D2*
X2111861D1*
X2094381Y1944514D2*
X2114663D1*
X2092384Y1943014D2*
X2116831D1*
X2090693Y1941514D2*
X2118474D1*
X2089285Y1940014D2*
X2119706D1*
X2088161Y1938514D2*
X2120682D1*
X2087274Y1937014D2*
X2098264D1*
X2111111D2*
X2121523D1*
X2086586Y1935514D2*
X2095945D1*
X2113290D2*
X2122257D1*
X2086026Y1934014D2*
X2094193D1*
X2114875D2*
X2122826D1*
X2085485Y1932514D2*
X2092861D1*
X2115984D2*
X2123167D1*
X2085020Y1931014D2*
X2092340D1*
X2116719D2*
X2123339D1*
X2084727Y1929514D2*
X2091904D1*
X2117128D2*
X2123415D1*
X2084581Y1928014D2*
X2091485D1*
X2117325D2*
X2123445D1*
X2084566Y1926514D2*
X2091246D1*
X2117404D2*
X2123457D1*
X2084730Y1925014D2*
X2091332D1*
X2117385D2*
X2123461D1*
X2085084Y1923514D2*
X2091624D1*
X2117201D2*
X2123457D1*
X2085517Y1922014D2*
X2092017D1*
X2116793D2*
X2123404D1*
X2085970Y1920514D2*
X2092546D1*
X2116218D2*
X2123212D1*
X2086481Y1919014D2*
X2093219D1*
X2115584D2*
X2122840D1*
X2086993Y1917514D2*
X2094040D1*
X2114991D2*
X2122394D1*
X2087463Y1916014D2*
X2094963D1*
X2114463D2*
X2121963D1*
X2100963Y1908514D2*
X2108463D1*
X2097566Y1907014D2*
X2111574D1*
X2094763Y1905514D2*
X2114255D1*
X2092596Y1904014D2*
X2116388D1*
X2090953Y1902514D2*
X2117979D1*
X2089720Y1901014D2*
X2119259D1*
X2088745Y1899514D2*
X2120394D1*
X2087903Y1898014D2*
X2097789D1*
X2109668D2*
X2121374D1*
X2087163Y1896514D2*
X2096115D1*
X2112040D2*
X2122190D1*
X2086542Y1895014D2*
X2094645D1*
X2113984D2*
X2122798D1*
X2086009Y1893514D2*
X2093510D1*
X2115477D2*
X2123157D1*
X2085479Y1892014D2*
X2092689D1*
X2116641D2*
X2123335D1*
X2085018Y1890514D2*
X2092073D1*
X2117064D2*
X2123413D1*
X2084726Y1889014D2*
X2091559D1*
X2117293D2*
X2123445D1*
X2084581Y1887514D2*
X2091147D1*
X2117391D2*
X2123457D1*
X2084566Y1886014D2*
X2091311D1*
X2117380D2*
X2123461D1*
X2084729Y1884514D2*
X2091626D1*
X2117199D2*
X2123457D1*
X2085084Y1883014D2*
X2092075D1*
X2116781D2*
X2123404D1*
X2085517Y1881514D2*
X2092809D1*
X2116090D2*
X2123208D1*
X2085975Y1880014D2*
X2093996D1*
X2115174D2*
X2122796D1*
X2086531Y1878514D2*
X2095575D1*
X2113034D2*
X2122214D1*
X2087229Y1877014D2*
X2099432D1*
X2109753D2*
X2121535D1*
X2088126Y1875514D2*
X2104942D1*
X2105030D2*
X2120761D1*
X2089269Y1874014D2*
X2119821D1*
X2090597Y1872514D2*
X2118603D1*
X2092076Y1871014D2*
X2117025D1*
X2093776Y1869514D2*
X2114997D1*
X2095777Y1868014D2*
X2112569D1*
X2097963Y1866514D2*
X2109963D1*
X2120463Y1832014D2*
X2142963D1*
X2120463Y1830514D2*
X2142963D1*
X2120463Y1829014D2*
X2142963D1*
X2120463Y1827514D2*
X2142963D1*
X2120463Y1826014D2*
X2142963D1*
X2120463Y1818514D2*
X2142963D1*
X2120525Y1817014D2*
X2142963D1*
X2120758Y1815514D2*
X2142963D1*
X2121271Y1814014D2*
X2142963D1*
X2121963Y1812514D2*
X2142963D1*
X2084463Y1800514D2*
X2144463D1*
X2084463Y1799014D2*
X2144463D1*
X2084463Y1797514D2*
X2144463D1*
X2084463Y1796014D2*
X2144463D1*
X2084463Y1794514D2*
X2144463D1*
X2084463Y1793014D2*
X2144463D1*
X2112963Y1791514D2*
X2120764D1*
X2136963D2*
X2144463D1*
X2112963Y1790014D2*
X2119767D1*
X2136963D2*
X2144463D1*
X2112963Y1788514D2*
X2119459D1*
X2136963D2*
X2144463D1*
X2112963Y1787014D2*
X2119701D1*
X2136963D2*
X2144463D1*
X2112963Y1785514D2*
X2120012D1*
X2136957D2*
X2144463D1*
X2112969Y1784014D2*
X2120246D1*
X2136905D2*
X2144463D1*
X2113022Y1782514D2*
X2120430D1*
X2136702D2*
X2144463D1*
X2113213Y1781014D2*
X2120767D1*
X2136339D2*
X2144463D1*
X2113572Y1779514D2*
X2121354D1*
X2135404D2*
X2144457D1*
X2113963Y1778014D2*
X2123764D1*
X2132492D2*
X2144405D1*
X2114283Y1776514D2*
X2127637D1*
X2127792D2*
X2144208D1*
X2114672Y1775014D2*
X2143790D1*
X2115344Y1773514D2*
X2143155D1*
X2116370Y1772014D2*
X2142273D1*
X2117693Y1770514D2*
X2141026D1*
X2119322Y1769014D2*
X2139244D1*
X2121293Y1767514D2*
X2136801D1*
X2123463Y1766014D2*
X2133963D1*
X2096463Y1757014D2*
X2121963D1*
X2093764Y1755514D2*
X2121963D1*
X2091439Y1754014D2*
X2121963D1*
X2089634Y1752514D2*
X2121963D1*
X2088308Y1751014D2*
X2121963D1*
X2087331Y1749514D2*
X2121963D1*
X2086607Y1748014D2*
X2096821D1*
X2086033Y1746514D2*
X2094695D1*
X2085487Y1745014D2*
X2093059D1*
X2085021Y1743514D2*
X2092434D1*
X2084727Y1742014D2*
X2091943D1*
X2084576Y1740514D2*
X2091500D1*
X2084513Y1739014D2*
X2091251D1*
X2084538Y1737514D2*
X2091334D1*
X2084719Y1736014D2*
X2091631D1*
X2085074Y1734514D2*
X2092076D1*
X2085463Y1733014D2*
X2092797D1*
X2085783Y1731514D2*
X2093842D1*
X2086166Y1730014D2*
X2095109D1*
X2086792Y1728514D2*
X2121963D1*
X2087679Y1727014D2*
X2121963D1*
X2088847Y1725514D2*
X2121963D1*
X2090583Y1724014D2*
X2121963D1*
X2093235Y1722514D2*
X2121963D1*
X2096842Y1721014D2*
X2121963D1*
X2100963Y1719514D2*
X2121963D1*
X2084463Y1706014D2*
X2121963D1*
X2084463Y1704514D2*
X2121963D1*
X2084463Y1703014D2*
X2121952D1*
X2084463Y1701514D2*
X2121837D1*
X2084463Y1700014D2*
X2121565D1*
X2084463Y1698514D2*
X2120396D1*
X2105778Y1697014D2*
X2118963D1*
X2110729Y1695514D2*
X2120400D1*
X2114503Y1694014D2*
X2121649D1*
X2116219Y1692514D2*
X2122540D1*
X2116873Y1691014D2*
X2123046D1*
X2117211Y1689514D2*
X2123291D1*
X2117306Y1688014D2*
X2123397D1*
X2117134Y1686514D2*
X2123439D1*
X2116644Y1685014D2*
X2123455D1*
X2115963Y1683514D2*
X2123460D1*
X2118963Y1682014D2*
X2123463D1*
X2066463Y1674514D2*
X2121963D1*
X2066463Y1673014D2*
X2121963D1*
X2066463Y1671514D2*
X2121952D1*
X2066463Y1670014D2*
X2121837D1*
X2066463Y1668514D2*
X2121565D1*
X2066463Y1667014D2*
X2120396D1*
X2090520Y1665514D2*
X2099583D1*
X2109843D2*
X2118963D1*
X2089219Y1664014D2*
X2097032D1*
X2112394D2*
X2119945D1*
X2088131Y1662514D2*
X2095060D1*
X2114367D2*
X2120940D1*
X2087212Y1661014D2*
X2093682D1*
X2115739D2*
X2121905D1*
X2086392Y1659514D2*
X2092751D1*
X2116764D2*
X2122650D1*
X2085665Y1658014D2*
X2092044D1*
X2117124D2*
X2123090D1*
X2085100Y1656514D2*
X2091298D1*
X2117318D2*
X2123307D1*
X2084759Y1655014D2*
X2090463D1*
X2117401D2*
X2123403D1*
X2084593Y1653514D2*
X2091213D1*
X2117378D2*
X2123441D1*
X2084570Y1652014D2*
X2091848D1*
X2117142D2*
X2123455D1*
X2084731Y1650514D2*
X2092554D1*
X2116680D2*
X2123455D1*
X2085084Y1649014D2*
X2093414D1*
X2115323D2*
X2123404D1*
X2085523Y1647514D2*
X2095671D1*
X2113504D2*
X2123207D1*
X2086033Y1646014D2*
X2099295D1*
X2109065D2*
X2122790D1*
X2086781Y1644514D2*
X2104296D1*
X2103159D2*
X2122155D1*
X2087838Y1643014D2*
X2121279D1*
X2089131Y1641514D2*
X2120082D1*
X2090650Y1640014D2*
X2118456D1*
X2092575Y1638514D2*
X2116200D1*
X2095086Y1637014D2*
X2113261D1*
X2097963Y1635514D2*
X2109963D1*
X2085963Y1625014D2*
X2147463D1*
X2085271Y1623514D2*
X2147463D1*
X2084846Y1622014D2*
X2147463D1*
X2084685Y1620514D2*
X2147463D1*
X2084820Y1619014D2*
X2147463D1*
X2085293Y1617514D2*
X2147463D1*
X2085963Y1616014D2*
X2147463D1*
X2099463Y1605514D2*
X2108463D1*
X2096352Y1604014D2*
X2111861D1*
X2093672Y1602514D2*
X2114663D1*
X2091544Y1601014D2*
X2116831D1*
X2090000Y1599514D2*
X2118474D1*
X2088864Y1598014D2*
X2119706D1*
X2087950Y1596514D2*
X2120682D1*
X2087181Y1595014D2*
X2096469D1*
X2102463D2*
X2106963D1*
X2111111D2*
X2121523D1*
X2086548Y1593514D2*
X2095028D1*
X2102463D2*
X2106963D1*
X2113290D2*
X2122257D1*
X2086011Y1592014D2*
X2093772D1*
X2102463D2*
X2106963D1*
X2114875D2*
X2122826D1*
X2085479Y1590514D2*
X2092828D1*
X2102463D2*
X2106963D1*
X2115984D2*
X2123167D1*
X2085019Y1589014D2*
X2092136D1*
X2102463D2*
X2106963D1*
X2116719D2*
X2123339D1*
X2084726Y1587514D2*
X2091585D1*
X2102463D2*
X2106963D1*
X2117128D2*
X2123415D1*
X2084581Y1586014D2*
X2091153D1*
X2102463D2*
X2106963D1*
X2117325D2*
X2123445D1*
X2084566Y1584514D2*
X2091308D1*
X2102463D2*
X2106963D1*
X2117404D2*
X2123457D1*
X2084729Y1583014D2*
X2091569D1*
X2102463D2*
X2106963D1*
X2117379D2*
X2123461D1*
X2085078Y1581514D2*
X2091826D1*
X2102463D2*
X2106963D1*
X2117142D2*
X2123457D1*
X2085465Y1580014D2*
X2092188D1*
X2102463D2*
X2106981D1*
X2116680D2*
X2123404D1*
X2085778Y1578514D2*
X2092844D1*
X2102463D2*
X2107152D1*
X2115397D2*
X2123208D1*
X2086113Y1577014D2*
X2093802D1*
X2102463D2*
X2107561D1*
X2113417D2*
X2122790D1*
X2086595Y1575514D2*
X2094810D1*
X2102463D2*
X2109314D1*
X2110481D2*
X2122155D1*
X2087255Y1574014D2*
X2095697D1*
X2102463D2*
X2121285D1*
X2088136Y1572514D2*
X2095980D1*
X2102463D2*
X2120146D1*
X2089272Y1571014D2*
X2095730D1*
X2102469D2*
X2118757D1*
X2090592Y1569514D2*
X2095412D1*
X2102526D2*
X2116973D1*
X2092010Y1568014D2*
X2095162D1*
X2102758D2*
X2114437D1*
X2093463Y1566514D2*
X2094963D1*
X2103271D2*
X2110965D1*
X2103963Y1565014D2*
X2106963D1*
X2120463Y1557514D2*
X2142963D1*
X2120463Y1556014D2*
X2142963D1*
X2120463Y1554514D2*
X2142963D1*
X2120463Y1553014D2*
X2142963D1*
X2120463Y1551514D2*
X2142963D1*
X2120463Y1544014D2*
X2142963D1*
X2120525Y1542514D2*
X2142963D1*
X2120758Y1541014D2*
X2142963D1*
X2121271Y1539514D2*
X2142963D1*
X2121963Y1538014D2*
X2142963D1*
X2185546Y3229598D2*
Y3228098D1*
Y3226598D1*
Y3225098D1*
Y3223598D1*
Y3222098D1*
Y3220598D1*
Y3219098D1*
Y3217598D1*
Y3216098D1*
Y3214598D1*
Y3213098D1*
Y3211598D1*
Y3210098D1*
Y3208598D1*
Y3207098D1*
Y3205598D1*
Y3204098D1*
X2185552Y3202598D1*
X2185609Y3201098D1*
X2185841Y3199598D1*
X2186354Y3198098D1*
X2187046Y3196598D1*
X2245546Y3229598D2*
Y3228098D1*
Y3226598D1*
Y3225098D1*
Y3223598D1*
Y3222098D1*
Y3220598D1*
Y3219098D1*
Y3217598D1*
Y3216098D1*
Y3214598D1*
Y3213098D1*
Y3211598D1*
Y3210098D1*
Y3208598D1*
Y3207098D1*
Y3205598D1*
Y3204098D1*
Y3202598D1*
Y3201098D1*
Y3199598D1*
Y3198098D1*
Y3196598D1*
X2196046Y3222098D2*
X2194841Y3220598D1*
X2193963Y3219098D1*
X2193461Y3217598D1*
X2193218Y3216098D1*
X2193112Y3214598D1*
X2193070Y3213098D1*
X2193054Y3211598D1*
X2193049Y3210098D1*
X2193047Y3208598D1*
X2193046Y3207098D1*
Y3205598D1*
Y3204098D1*
Y3202598D1*
Y3201098D1*
Y3199598D1*
Y3198098D1*
Y3196598D1*
X2214046Y3222098D2*
Y3220598D1*
Y3219098D1*
Y3217598D1*
Y3216098D1*
Y3214598D1*
Y3213098D1*
Y3211598D1*
Y3210098D1*
Y3208598D1*
Y3207098D1*
Y3205598D1*
Y3204098D1*
X2214052Y3202598D1*
X2214109Y3201098D1*
X2214341Y3199598D1*
X2214854Y3198098D1*
X2215546Y3196598D1*
X2224546Y3222098D2*
X2223341Y3220598D1*
X2222463Y3219098D1*
X2221961Y3217598D1*
X2221718Y3216098D1*
X2221612Y3214598D1*
X2221570Y3213098D1*
X2221554Y3211598D1*
X2221549Y3210098D1*
X2221547Y3208598D1*
X2221546Y3207098D1*
Y3205598D1*
Y3204098D1*
Y3202598D1*
Y3201098D1*
Y3199598D1*
Y3198098D1*
Y3196598D1*
X2238046Y3222098D2*
Y3220598D1*
Y3219098D1*
Y3217598D1*
Y3216098D1*
Y3214598D1*
Y3213098D1*
Y3211598D1*
Y3210098D1*
Y3208598D1*
Y3207098D1*
Y3205598D1*
Y3204098D1*
X2238052Y3202598D1*
X2238109Y3201098D1*
X2238341Y3199598D1*
X2238854Y3198098D1*
X2239546Y3196598D1*
X2194546Y3187598D2*
X2193052Y3186098D1*
X2191605Y3184598D1*
X2190302Y3183098D1*
X2189219Y3181598D1*
X2188348Y3180098D1*
X2187666Y3178598D1*
X2187107Y3177098D1*
X2186567Y3175598D1*
X2186103Y3174098D1*
X2185809Y3172598D1*
X2185664Y3171098D1*
X2185649Y3169598D1*
X2185812Y3168098D1*
X2186161Y3166598D1*
X2186547Y3165098D1*
X2186860Y3163598D1*
X2187196Y3162098D1*
X2187677Y3160598D1*
X2188338Y3159098D1*
X2189225Y3157598D1*
X2190425Y3156098D1*
X2192052Y3154598D1*
X2194309Y3153098D1*
X2197248Y3151598D1*
X2200546Y3150098D1*
X2199046Y3187598D2*
X2199958Y3186098D1*
X2200650Y3184598D1*
X2201081Y3183098D1*
X2200449Y3181598D1*
X2199073Y3180098D1*
X2197648Y3178598D1*
X2196379Y3177098D1*
X2195423Y3175598D1*
X2194718Y3174098D1*
X2194117Y3172598D1*
X2193678Y3171098D1*
X2193440Y3169598D1*
X2193795Y3168098D1*
X2194338Y3166598D1*
X2195077Y3165098D1*
X2196009Y3163598D1*
X2198699Y3162098D1*
X2202900Y3160598D1*
X2208046Y3159098D1*
X2230546Y3187598D2*
X2227205Y3186098D1*
X2224590Y3184598D1*
X2222735Y3183098D1*
X2221332Y3181598D1*
X2220146Y3180098D1*
X2219140Y3178598D1*
X2218264Y3177098D1*
X2217457Y3175598D1*
X2216685Y3174098D1*
X2215925Y3172598D1*
X2215167Y3171098D1*
X2214368Y3169598D1*
X2213475Y3168098D1*
X2212497Y3166598D1*
X2211443Y3165098D1*
X2210249Y3163598D1*
X2207269Y3162098D1*
X2202856Y3160598D1*
X2197546Y3159098D1*
X2233546Y3187598D2*
X2236944Y3186098D1*
X2239746Y3184598D1*
X2241913Y3183098D1*
X2243557Y3181598D1*
X2244783Y3180098D1*
X2245706Y3178598D1*
X2246356Y3177098D1*
X2246731Y3175598D1*
X2246915Y3174098D1*
X2246995Y3172598D1*
X2247027Y3171098D1*
X2247039Y3169598D1*
X2247044Y3168098D1*
X2247045Y3166598D1*
X2247040Y3165098D1*
X2246987Y3163598D1*
X2246790Y3162098D1*
X2246372Y3160598D1*
X2245738Y3159098D1*
X2244868Y3157598D1*
X2243736Y3156098D1*
X2242426Y3154598D1*
X2241046Y3153098D1*
X2229046Y3177098D2*
X2227603Y3175598D1*
X2226301Y3174098D1*
X2225213Y3172598D1*
X2224295Y3171098D1*
X2223469Y3169598D1*
X2222689Y3168098D1*
X2221927Y3166598D1*
X2221174Y3165098D1*
X2220421Y3163598D1*
X2219666Y3162098D1*
X2218868Y3160598D1*
X2217975Y3159098D1*
X2216997Y3157598D1*
X2215967Y3156098D1*
X2214677Y3154598D1*
X2212867Y3153098D1*
X2210566Y3151598D1*
X2208046Y3150098D1*
X2235046Y3177098D2*
X2236483Y3175598D1*
X2237732Y3174098D1*
X2238623Y3172598D1*
X2239129Y3171098D1*
X2239374Y3169598D1*
X2239474Y3168098D1*
X2239457Y3166598D1*
X2239223Y3165098D1*
X2238620Y3163598D1*
X2237630Y3162098D1*
X2236387Y3160598D1*
X2235046Y3159098D1*
X2235971Y3157598D1*
X2236788Y3156098D1*
X2237468Y3154598D1*
X2238046Y3153098D1*
X2185546Y3138098D2*
Y3136598D1*
Y3135098D1*
Y3133598D1*
Y3132098D1*
Y3130598D1*
X2245546Y3138098D2*
Y3136598D1*
Y3135098D1*
Y3133598D1*
Y3132098D1*
Y3130598D1*
Y3129098D1*
Y3127598D1*
Y3126098D1*
Y3124598D1*
Y3123098D1*
Y3121598D1*
Y3120098D1*
Y3118598D1*
X2245540Y3117098D1*
X2245487Y3115598D1*
X2245290Y3114098D1*
X2244872Y3112598D1*
X2244238Y3111098D1*
X2243356Y3109598D1*
X2242109Y3108098D1*
X2240327Y3106598D1*
X2237883Y3105098D1*
X2235046Y3103598D1*
X2214046Y3130598D2*
Y3129098D1*
Y3127598D1*
Y3126098D1*
Y3124598D1*
Y3123098D1*
X2214052Y3121598D1*
X2214105Y3120098D1*
X2214296Y3118598D1*
X2214655Y3117098D1*
X2215045Y3115598D1*
X2215366Y3114098D1*
X2215754Y3112598D1*
X2216427Y3111098D1*
X2217453Y3109598D1*
X2218775Y3108098D1*
X2220405Y3106598D1*
X2222376Y3105098D1*
X2224546Y3103598D1*
X2223046Y3130598D2*
X2221847Y3129098D1*
X2220850Y3127598D1*
X2220541Y3126098D1*
X2220784Y3124598D1*
X2221095Y3123098D1*
X2221329Y3121598D1*
X2221513Y3120098D1*
X2221850Y3118598D1*
X2222437Y3117098D1*
X2224847Y3115598D1*
X2228720Y3114098D1*
X2233546Y3112598D1*
X2238046Y3130598D2*
Y3129098D1*
Y3127598D1*
Y3126098D1*
Y3124598D1*
X2238040Y3123098D1*
X2237987Y3121598D1*
X2237784Y3120098D1*
X2237422Y3118598D1*
X2236487Y3117098D1*
X2233575Y3115598D1*
X2228875Y3114098D1*
X2223046Y3112598D1*
X2197546Y3096098D2*
X2194898Y3094598D1*
X2192713Y3093098D1*
X2191076Y3091598D1*
X2189776Y3090098D1*
X2188682Y3088598D1*
X2187882Y3087098D1*
X2187371Y3085598D1*
X2186955Y3084098D1*
X2186499Y3082598D1*
X2186075Y3081098D1*
X2185799Y3079598D1*
X2185660Y3078098D1*
X2185647Y3076598D1*
X2185812Y3075098D1*
X2186161Y3073598D1*
X2186547Y3072098D1*
X2186860Y3070598D1*
X2187196Y3069098D1*
X2187677Y3067598D1*
X2188338Y3066098D1*
X2189219Y3064598D1*
X2190361Y3063098D1*
X2191738Y3061598D1*
X2193391Y3060098D1*
X2195371Y3058598D1*
X2197546Y3057098D1*
X2202046Y3096098D2*
Y3094598D1*
X2202028Y3093098D1*
X2201864Y3091598D1*
X2201478Y3090098D1*
X2199966Y3088598D1*
X2198163Y3087098D1*
X2196432Y3085598D1*
X2195000Y3084098D1*
X2193971Y3082598D1*
X2193242Y3081098D1*
X2192676Y3079598D1*
X2192237Y3078098D1*
X2192391Y3076598D1*
X2192652Y3075098D1*
X2192909Y3073598D1*
X2193277Y3072098D1*
X2193828Y3070598D1*
X2195151Y3069098D1*
X2198218Y3067598D1*
X2202691Y3066098D1*
X2208046Y3064598D1*
X2230546Y3094598D2*
Y3093098D1*
X2230552Y3091598D1*
X2230622Y3090098D1*
X2230798Y3088598D1*
X2231691Y3087098D1*
X2233606Y3085598D1*
X2235623Y3084098D1*
X2237304Y3082598D1*
X2238626Y3081098D1*
X2239101Y3079598D1*
X2239357Y3078098D1*
X2239466Y3076598D1*
X2239454Y3075098D1*
X2239216Y3073598D1*
X2238739Y3072098D1*
X2237176Y3070598D1*
X2234585Y3069098D1*
X2230687Y3067598D1*
X2226046Y3066098D1*
X2233546Y3094598D2*
X2236431Y3093098D1*
X2238787Y3091598D1*
X2240670Y3090098D1*
X2242166Y3088598D1*
X2243327Y3087098D1*
X2244222Y3085598D1*
X2244862Y3084098D1*
X2245233Y3082598D1*
X2245415Y3081098D1*
X2245495Y3079598D1*
X2245527Y3078098D1*
X2245539Y3076598D1*
X2245544Y3075098D1*
X2245539Y3073598D1*
X2245487Y3072098D1*
X2245290Y3070598D1*
X2244878Y3069098D1*
X2244297Y3067598D1*
X2243611Y3066098D1*
X2242779Y3064598D1*
X2241596Y3063098D1*
X2239834Y3061598D1*
X2237555Y3060098D1*
X2235046Y3058598D1*
X2214046Y3079598D2*
Y3078098D1*
X2214040Y3076598D1*
X2213987Y3075098D1*
X2213790Y3073598D1*
X2213361Y3072098D1*
X2212762Y3070598D1*
X2211458Y3069098D1*
X2207839Y3067598D1*
X2202472Y3066098D1*
X2196046Y3064598D1*
X2220046Y3079598D2*
X2220278Y3078098D1*
X2220655Y3076598D1*
X2221102Y3075098D1*
X2221621Y3073598D1*
X2222445Y3072098D1*
X2223609Y3070598D1*
X2226425Y3069098D1*
X2230383Y3067598D1*
X2235046Y3066098D1*
X2215546Y3067598D2*
X2215308Y3066098D1*
X2214878Y3064598D1*
X2214228Y3063098D1*
X2213242Y3061598D1*
X2211647Y3060098D1*
X2209311Y3058598D1*
X2206546Y3057098D1*
X2218546Y3067598D2*
X2218841Y3066098D1*
X2219469Y3064598D1*
X2220524Y3063098D1*
X2222012Y3061598D1*
X2223915Y3060098D1*
X2226046Y3058598D1*
X2185546Y3046598D2*
Y3045098D1*
Y3043598D1*
Y3042098D1*
Y3040598D1*
Y3039098D1*
Y3037598D1*
Y3036098D1*
Y3034598D1*
Y3033098D1*
Y3031598D1*
Y3030098D1*
Y3028598D1*
Y3027098D1*
Y3025598D1*
Y3024098D1*
Y3022598D1*
Y3021098D1*
Y3019598D1*
Y3018098D1*
Y3016598D1*
Y3015098D1*
X2185552Y3013598D1*
X2185609Y3012098D1*
X2185841Y3010598D1*
X2186354Y3009098D1*
X2187046Y3007598D1*
Y3046598D2*
X2188778Y3045098D1*
X2190650Y3043598D1*
X2192538Y3042098D1*
X2194301Y3040598D1*
X2195946Y3039098D1*
X2197562Y3037598D1*
X2199280Y3036098D1*
X2201149Y3034598D1*
X2203038Y3033098D1*
X2204806Y3031598D1*
X2206499Y3030098D1*
X2208254Y3028598D1*
X2210145Y3027098D1*
X2212098Y3025598D1*
X2214113Y3024098D1*
X2216392Y3022598D1*
X2219235Y3021098D1*
X2223176Y3019598D1*
X2228641Y3018098D1*
X2235046Y3016598D1*
X2229046Y3046598D2*
Y3045098D1*
Y3043598D1*
X2229069Y3042098D1*
X2229140Y3040598D1*
X2229796Y3039098D1*
X2231718Y3037598D1*
X2233918Y3036098D1*
X2235914Y3034598D1*
X2237480Y3033098D1*
X2238697Y3031598D1*
X2239134Y3030098D1*
X2239371Y3028598D1*
X2239472Y3027098D1*
X2239456Y3025598D1*
X2239217Y3024098D1*
X2238739Y3022598D1*
X2237409Y3021098D1*
X2234085Y3019598D1*
X2229095Y3018098D1*
X2223046Y3016598D1*
X2233546Y3046598D2*
X2236245Y3045098D1*
X2238570Y3043598D1*
X2240375Y3042098D1*
X2241707Y3040598D1*
X2242731Y3039098D1*
X2243593Y3037598D1*
X2244335Y3036098D1*
X2244907Y3034598D1*
X2245250Y3033098D1*
X2245421Y3031598D1*
X2245497Y3030098D1*
X2245528Y3028598D1*
X2245540Y3027098D1*
X2245544Y3025598D1*
X2245539Y3024098D1*
X2245487Y3022598D1*
X2245296Y3021098D1*
X2244931Y3019598D1*
X2244488Y3018098D1*
X2243977Y3016598D1*
X2243223Y3015098D1*
X2242095Y3013598D1*
X2240450Y3012098D1*
X2237978Y3010598D1*
X2234533Y3009098D1*
X2230546Y3007598D1*
X2191546Y3030098D2*
Y3028598D1*
Y3027098D1*
Y3025598D1*
Y3024098D1*
Y3022598D1*
Y3021098D1*
Y3019598D1*
Y3018098D1*
Y3016598D1*
Y3015098D1*
Y3013598D1*
Y3012098D1*
Y3010598D1*
Y3009098D1*
Y3007598D1*
X2194546Y3030098D2*
X2196052Y3028598D1*
X2197605Y3027098D1*
X2199296Y3025598D1*
X2201155Y3024098D1*
X2203040Y3022598D1*
X2204807Y3021098D1*
X2206499Y3019598D1*
X2208259Y3018098D1*
X2210198Y3016598D1*
X2212295Y3015098D1*
X2214543Y3013598D1*
X2217124Y3012098D1*
X2220390Y3010598D1*
X2224496Y3009098D1*
X2229046Y3007598D1*
X2200546Y2992598D2*
Y2991098D1*
Y2989598D1*
Y2988098D1*
Y2986598D1*
Y2985098D1*
Y2983598D1*
Y2982098D1*
Y2980598D1*
Y2979098D1*
Y2977598D1*
Y2976098D1*
Y2974598D1*
Y2973098D1*
Y2971598D1*
X2208046Y2992598D2*
Y2991098D1*
Y2989598D1*
Y2988098D1*
Y2986598D1*
Y2985098D1*
Y2983598D1*
Y2982098D1*
Y2980598D1*
Y2979098D1*
Y2977598D1*
Y2976098D1*
Y2974598D1*
Y2973098D1*
Y2971598D1*
X2185546Y2956598D2*
Y2955098D1*
Y2953598D1*
Y2952098D1*
Y2950598D1*
Y2949098D1*
Y2947598D1*
Y2946098D1*
Y2944598D1*
Y2943098D1*
Y2941598D1*
Y2940098D1*
Y2938598D1*
X2185552Y2937098D1*
X2185605Y2935598D1*
X2185796Y2934098D1*
X2186155Y2932598D1*
X2186540Y2931098D1*
X2186807Y2929598D1*
X2186999Y2928098D1*
X2187254Y2926598D1*
X2187645Y2925098D1*
X2188098Y2923598D1*
X2188608Y2922098D1*
X2189304Y2920598D1*
X2190171Y2919098D1*
X2191099Y2917598D1*
X2192172Y2916098D1*
X2193569Y2914598D1*
X2195339Y2913098D1*
X2197461Y2911598D1*
X2200031Y2910098D1*
X2203139Y2908598D1*
X2206546Y2907098D1*
X2245546Y2956598D2*
Y2955098D1*
Y2953598D1*
Y2952098D1*
Y2950598D1*
Y2949098D1*
Y2947598D1*
Y2946098D1*
Y2944598D1*
Y2943098D1*
Y2941598D1*
Y2940098D1*
Y2938598D1*
Y2937098D1*
Y2935598D1*
Y2934098D1*
Y2932598D1*
X2245540Y2931098D1*
X2245487Y2929598D1*
X2245296Y2928098D1*
X2244931Y2926598D1*
X2244494Y2925098D1*
X2244035Y2923598D1*
X2243478Y2922098D1*
X2242780Y2920598D1*
X2241883Y2919098D1*
X2240740Y2917598D1*
X2239418Y2916098D1*
X2237990Y2914598D1*
X2236457Y2913098D1*
X2234663Y2911598D1*
X2232331Y2910098D1*
X2229361Y2908598D1*
X2226046Y2907098D1*
X2196046Y2949098D2*
X2194841Y2947598D1*
X2193963Y2946098D1*
X2193461Y2944598D1*
X2193218Y2943098D1*
X2193118Y2941598D1*
X2193129Y2940098D1*
X2193304Y2938598D1*
X2193658Y2937098D1*
X2194040Y2935598D1*
X2194301Y2934098D1*
X2194446Y2932598D1*
X2194562Y2931098D1*
X2194786Y2929598D1*
X2195214Y2928098D1*
X2195852Y2926598D1*
X2196730Y2925098D1*
X2197921Y2923598D1*
X2199490Y2922098D1*
X2201520Y2920598D1*
X2203980Y2919098D1*
X2206711Y2917598D1*
X2209546Y2916098D1*
X2238046Y2949098D2*
Y2947598D1*
Y2946098D1*
Y2944598D1*
Y2943098D1*
Y2941598D1*
Y2940098D1*
Y2938598D1*
Y2937098D1*
Y2935598D1*
X2238040Y2934098D1*
X2237987Y2932598D1*
X2237790Y2931098D1*
X2237378Y2929598D1*
X2236797Y2928098D1*
X2236117Y2926598D1*
X2235338Y2925098D1*
X2234345Y2923598D1*
X2232936Y2922098D1*
X2230998Y2920598D1*
X2228582Y2919098D1*
X2225870Y2917598D1*
X2223046Y2916098D1*
X2185546Y2893598D2*
Y2892098D1*
Y2890598D1*
Y2889098D1*
Y2887598D1*
Y2886098D1*
Y2884598D1*
Y2883098D1*
Y2881598D1*
Y2880098D1*
Y2878598D1*
Y2877098D1*
Y2875598D1*
Y2874098D1*
Y2872598D1*
Y2871098D1*
Y2869598D1*
Y2868098D1*
X2185552Y2866598D1*
X2185609Y2865098D1*
X2185841Y2863598D1*
X2186354Y2862098D1*
X2187046Y2860598D1*
X2245546Y2893598D2*
Y2892098D1*
Y2890598D1*
Y2889098D1*
Y2887598D1*
Y2886098D1*
Y2884598D1*
Y2883098D1*
Y2881598D1*
Y2880098D1*
Y2878598D1*
Y2877098D1*
Y2875598D1*
Y2874098D1*
Y2872598D1*
Y2871098D1*
Y2869598D1*
Y2868098D1*
Y2866598D1*
Y2865098D1*
Y2863598D1*
Y2862098D1*
Y2860598D1*
X2196046Y2886098D2*
X2194841Y2884598D1*
X2193963Y2883098D1*
X2193461Y2881598D1*
X2193218Y2880098D1*
X2193112Y2878598D1*
X2193070Y2877098D1*
X2193054Y2875598D1*
X2193049Y2874098D1*
X2193047Y2872598D1*
X2193046Y2871098D1*
Y2869598D1*
Y2868098D1*
Y2866598D1*
Y2865098D1*
Y2863598D1*
Y2862098D1*
Y2860598D1*
X2214046Y2886098D2*
Y2884598D1*
Y2883098D1*
Y2881598D1*
Y2880098D1*
Y2878598D1*
Y2877098D1*
Y2875598D1*
Y2874098D1*
Y2872598D1*
Y2871098D1*
Y2869598D1*
Y2868098D1*
X2214052Y2866598D1*
X2214109Y2865098D1*
X2214341Y2863598D1*
X2214854Y2862098D1*
X2215546Y2860598D1*
X2224546Y2886098D2*
X2223341Y2884598D1*
X2222463Y2883098D1*
X2221961Y2881598D1*
X2221718Y2880098D1*
X2221612Y2878598D1*
X2221570Y2877098D1*
X2221554Y2875598D1*
X2221549Y2874098D1*
X2221547Y2872598D1*
X2221546Y2871098D1*
Y2869598D1*
Y2868098D1*
Y2866598D1*
Y2865098D1*
Y2863598D1*
Y2862098D1*
Y2860598D1*
X2238046Y2886098D2*
Y2884598D1*
Y2883098D1*
Y2881598D1*
Y2880098D1*
Y2878598D1*
Y2877098D1*
Y2875598D1*
Y2874098D1*
Y2872598D1*
Y2871098D1*
Y2869598D1*
Y2868098D1*
X2238052Y2866598D1*
X2238109Y2865098D1*
X2238341Y2863598D1*
X2238854Y2862098D1*
X2239546Y2860598D1*
X2244046Y2856098D2*
X2240348Y2854598D1*
X2236864Y2853098D1*
X2233455Y2851598D1*
X2229999Y2850098D1*
X2226569Y2848598D1*
X2223240Y2847098D1*
X2219905Y2845598D1*
X2216480Y2844098D1*
X2213063Y2842598D1*
X2209738Y2841098D1*
X2206404Y2839598D1*
X2202980Y2838098D1*
X2199568Y2836598D1*
X2196296Y2835098D1*
X2193153Y2833598D1*
X2190086Y2832098D1*
X2187046Y2830598D1*
X2189585Y2829098D1*
X2192526Y2827598D1*
X2195703Y2826098D1*
X2198921Y2824598D1*
X2202213Y2823098D1*
X2205621Y2821598D1*
X2209032Y2820098D1*
X2212355Y2818598D1*
X2215688Y2817098D1*
X2219112Y2815598D1*
X2222529Y2814098D1*
X2225854Y2812598D1*
X2229188Y2811098D1*
X2232612Y2809598D1*
X2236028Y2808098D1*
X2239323Y2806598D1*
X2242546Y2805098D1*
X2245546Y2856098D2*
Y2854598D1*
Y2853098D1*
X2245534Y2851598D1*
X2245411Y2850098D1*
X2245112Y2848598D1*
X2243513Y2847098D1*
X2241113Y2845598D1*
X2238154Y2844098D1*
X2234903Y2842598D1*
X2231436Y2841098D1*
X2227828Y2839598D1*
X2224186Y2838098D1*
X2220597Y2836598D1*
X2217020Y2835098D1*
X2213250Y2833598D1*
X2209214Y2832098D1*
X2205046Y2830598D1*
X2208616Y2829098D1*
X2212260Y2827598D1*
X2215957Y2826098D1*
X2219680Y2824598D1*
X2223373Y2823098D1*
X2226976Y2821598D1*
X2230509Y2820098D1*
X2234078Y2818598D1*
X2237612Y2817098D1*
X2240764Y2815598D1*
X2243435Y2814098D1*
X2244691Y2812598D1*
X2245147Y2811098D1*
X2245382Y2809598D1*
X2245484Y2808098D1*
X2245525Y2806598D1*
X2245546Y2805098D1*
X2185546Y2796098D2*
Y2794598D1*
Y2793098D1*
Y2791598D1*
Y2790098D1*
Y2788598D1*
X2245546Y2796098D2*
Y2794598D1*
Y2793098D1*
Y2791598D1*
Y2790098D1*
Y2788598D1*
X2215546D2*
X2215171Y2787098D1*
X2214057Y2785598D1*
X2212590Y2784098D1*
X2210872Y2782598D1*
X2208971Y2781098D1*
X2207012Y2779598D1*
X2205048Y2778098D1*
X2203045Y2776598D1*
X2201090Y2775098D1*
X2199248Y2773598D1*
X2197408Y2772098D1*
X2195475Y2770598D1*
X2193510Y2769098D1*
X2191553Y2767598D1*
X2189609Y2766098D1*
X2187909Y2764598D1*
X2186536Y2763098D1*
X2186026Y2761598D1*
X2185750Y2760098D1*
X2185626Y2758598D1*
X2185575Y2757098D1*
X2185556Y2755598D1*
X2185549Y2754098D1*
X2185546Y2752598D1*
X2220046Y2788598D2*
X2221546Y2787098D1*
X2223052Y2785598D1*
X2224605Y2784098D1*
X2226296Y2782598D1*
X2228155Y2781098D1*
X2230040Y2779598D1*
X2231801Y2778098D1*
X2233440Y2776598D1*
X2235010Y2775098D1*
X2236589Y2773598D1*
X2238290Y2772098D1*
X2240147Y2770598D1*
X2241974Y2769098D1*
X2243487Y2767598D1*
X2244688Y2766098D1*
X2245130Y2764598D1*
X2245369Y2763098D1*
X2245477Y2761598D1*
X2245520Y2760098D1*
X2245537Y2758598D1*
X2245543Y2757098D1*
X2245546Y2755598D1*
X2218546Y2778098D2*
X2217040Y2776598D1*
X2215487Y2775098D1*
X2213796Y2773598D1*
X2211937Y2772098D1*
X2210046Y2770598D1*
X2208232Y2769098D1*
X2206402Y2767598D1*
X2204479Y2766098D1*
X2202562Y2764598D1*
X2200738Y2763098D1*
X2198904Y2761598D1*
X2196980Y2760098D1*
X2195062Y2758598D1*
X2193233Y2757098D1*
X2191358Y2755598D1*
X2189278Y2754098D1*
X2187046Y2752598D1*
X2220046Y2778098D2*
X2221546Y2776598D1*
X2223046Y2775098D1*
X2224546Y2773598D1*
X2226052Y2772098D1*
X2227605Y2770598D1*
X2229296Y2769098D1*
X2231155Y2767598D1*
X2233040Y2766098D1*
X2234801Y2764598D1*
X2236440Y2763098D1*
X2238004Y2761598D1*
X2239530Y2760098D1*
X2241040Y2758598D1*
X2242544Y2757098D1*
X2244046Y2755598D1*
X2185546Y2743598D2*
Y2742098D1*
X2185552Y2740598D1*
X2185609Y2739098D1*
X2185841Y2737598D1*
X2186354Y2736098D1*
X2187046Y2734598D1*
X2245546Y2743598D2*
Y2742098D1*
Y2740598D1*
Y2739098D1*
Y2737598D1*
Y2736098D1*
Y2734598D1*
X2238046Y2727098D2*
Y2725598D1*
Y2724098D1*
Y2722598D1*
Y2721098D1*
Y2719598D1*
Y2718098D1*
Y2716598D1*
Y2715098D1*
Y2713598D1*
Y2712098D1*
Y2710598D1*
X2245546Y2727098D2*
Y2725598D1*
Y2724098D1*
Y2722598D1*
Y2721098D1*
Y2719598D1*
Y2718098D1*
Y2716598D1*
Y2715098D1*
Y2713598D1*
Y2712098D1*
Y2710598D1*
Y2709098D1*
Y2707598D1*
Y2706098D1*
Y2704598D1*
Y2703098D1*
Y2701598D1*
Y2700098D1*
Y2698598D1*
Y2697098D1*
Y2695598D1*
Y2694098D1*
Y2692598D1*
Y2691098D1*
Y2689598D1*
Y2688098D1*
Y2686598D1*
Y2685098D1*
X2185546Y2710598D2*
Y2709098D1*
Y2707598D1*
Y2706098D1*
Y2704598D1*
Y2703098D1*
Y2701598D1*
X2238046D2*
Y2700098D1*
Y2698598D1*
Y2697098D1*
Y2695598D1*
Y2694098D1*
Y2692598D1*
Y2691098D1*
Y2689598D1*
Y2688098D1*
Y2686598D1*
Y2685098D1*
X2209546Y2679098D2*
X2205917Y2677598D1*
X2202737Y2676098D1*
X2200128Y2674598D1*
X2198025Y2673098D1*
X2196241Y2671598D1*
X2194626Y2670098D1*
X2193132Y2668598D1*
X2191811Y2667098D1*
X2190723Y2665598D1*
X2189849Y2664098D1*
X2189166Y2662598D1*
X2188607Y2661098D1*
X2188067Y2659598D1*
X2187597Y2658098D1*
X2187251Y2656598D1*
X2186908Y2655098D1*
X2186481Y2653598D1*
X2186069Y2652098D1*
X2185797Y2650598D1*
X2185654Y2649098D1*
X2185595Y2647598D1*
X2185620Y2646098D1*
X2185801Y2644598D1*
X2186157Y2643098D1*
X2186546Y2641598D1*
X2186860Y2640098D1*
X2187190Y2638598D1*
X2187619Y2637098D1*
X2188088Y2635598D1*
X2188609Y2634098D1*
X2189356Y2632598D1*
X2190383Y2631098D1*
X2191546Y2629598D1*
X2224546Y2679098D2*
X2228001Y2677598D1*
X2231001Y2676098D1*
X2233581Y2674598D1*
X2235800Y2673098D1*
X2237653Y2671598D1*
X2239158Y2670098D1*
X2240378Y2668598D1*
X2241474Y2667098D1*
X2242528Y2665598D1*
X2243476Y2664098D1*
X2244285Y2662598D1*
X2244942Y2661098D1*
X2245490Y2659598D1*
X2246027Y2658098D1*
X2246490Y2656598D1*
X2246783Y2655098D1*
X2246934Y2653598D1*
X2247002Y2652098D1*
X2247029Y2650598D1*
X2247040Y2649098D1*
X2247044Y2647598D1*
X2247045Y2646098D1*
X2247046Y2644598D1*
X2247040Y2643098D1*
X2246987Y2641598D1*
X2246796Y2640098D1*
X2246431Y2638598D1*
X2245994Y2637098D1*
X2245535Y2635598D1*
X2244984Y2634098D1*
X2244343Y2632598D1*
X2243683Y2631098D1*
X2243079Y2629598D1*
X2242546Y2628098D1*
X2214046Y2670098D2*
X2209904Y2668598D1*
X2206277Y2667098D1*
X2203390Y2665598D1*
X2201193Y2664098D1*
X2199540Y2662598D1*
X2198304Y2661098D1*
X2197328Y2659598D1*
X2196486Y2658098D1*
X2195752Y2656598D1*
X2195178Y2655098D1*
X2194783Y2653598D1*
X2194421Y2652098D1*
X2193991Y2650598D1*
X2193629Y2649098D1*
X2193547Y2647598D1*
X2193763Y2646098D1*
X2194088Y2644598D1*
X2194376Y2643098D1*
X2194696Y2641598D1*
X2195121Y2640098D1*
X2195583Y2638598D1*
X2196051Y2637098D1*
X2196612Y2635598D1*
X2197311Y2634098D1*
X2198204Y2632598D1*
X2199321Y2631098D1*
X2200546Y2629598D1*
X2221546Y2670098D2*
X2224483Y2668598D1*
X2227232Y2667098D1*
X2229623Y2665598D1*
X2231629Y2664098D1*
X2233368Y2662598D1*
X2234915Y2661098D1*
X2236213Y2659598D1*
X2237173Y2658098D1*
X2237876Y2656598D1*
X2238482Y2655098D1*
X2238973Y2653598D1*
X2239277Y2652098D1*
X2239432Y2650598D1*
X2239501Y2649098D1*
X2239529Y2647598D1*
X2239540Y2646098D1*
X2239538Y2644598D1*
X2239487Y2643098D1*
X2239296Y2641598D1*
X2238931Y2640098D1*
X2238494Y2638598D1*
X2238035Y2637098D1*
X2237478Y2635598D1*
X2236786Y2634098D1*
X2235946Y2632598D1*
X2235037Y2631098D1*
X2234236Y2629598D1*
X2233546Y2628098D1*
X2200546Y2616098D2*
Y2614598D1*
Y2613098D1*
Y2611598D1*
Y2610098D1*
Y2608598D1*
Y2607098D1*
Y2605598D1*
Y2604098D1*
Y2602598D1*
Y2601098D1*
Y2599598D1*
Y2598098D1*
Y2596598D1*
Y2595098D1*
X2208046Y2616098D2*
Y2614598D1*
Y2613098D1*
Y2611598D1*
Y2610098D1*
Y2608598D1*
Y2607098D1*
Y2605598D1*
Y2604098D1*
Y2602598D1*
Y2601098D1*
Y2599598D1*
Y2598098D1*
Y2596598D1*
Y2595098D1*
X2244046Y2587598D2*
X2240348Y2586098D1*
X2236864Y2584598D1*
X2233455Y2583098D1*
X2229999Y2581598D1*
X2226569Y2580098D1*
X2223240Y2578598D1*
X2219905Y2577098D1*
X2216480Y2575598D1*
X2213063Y2574098D1*
X2209738Y2572598D1*
X2206404Y2571098D1*
X2202980Y2569598D1*
X2199568Y2568098D1*
X2196296Y2566598D1*
X2193153Y2565098D1*
X2190086Y2563598D1*
X2187046Y2562098D1*
X2189585Y2560598D1*
X2192526Y2559098D1*
X2195703Y2557598D1*
X2198921Y2556098D1*
X2202213Y2554598D1*
X2205621Y2553098D1*
X2209032Y2551598D1*
X2212355Y2550098D1*
X2215688Y2548598D1*
X2219112Y2547098D1*
X2222529Y2545598D1*
X2225854Y2544098D1*
X2229188Y2542598D1*
X2232612Y2541098D1*
X2236028Y2539598D1*
X2239323Y2538098D1*
X2242546Y2536598D1*
X2245546Y2587598D2*
Y2586098D1*
Y2584598D1*
X2245534Y2583098D1*
X2245411Y2581598D1*
X2245112Y2580098D1*
X2243513Y2578598D1*
X2241113Y2577098D1*
X2238154Y2575598D1*
X2234903Y2574098D1*
X2231436Y2572598D1*
X2227828Y2571098D1*
X2224186Y2569598D1*
X2220597Y2568098D1*
X2217020Y2566598D1*
X2213250Y2565098D1*
X2209214Y2563598D1*
X2205046Y2562098D1*
X2208616Y2560598D1*
X2212260Y2559098D1*
X2215957Y2557598D1*
X2219680Y2556098D1*
X2223373Y2554598D1*
X2226976Y2553098D1*
X2230509Y2551598D1*
X2234078Y2550098D1*
X2237612Y2548598D1*
X2240764Y2547098D1*
X2243435Y2545598D1*
X2244691Y2544098D1*
X2245147Y2542598D1*
X2245382Y2541098D1*
X2245484Y2539598D1*
X2245525Y2538098D1*
X2245546Y2536598D1*
X2185546Y2527598D2*
Y2526098D1*
Y2524598D1*
Y2523098D1*
Y2521598D1*
Y2520098D1*
Y2518598D1*
Y2517098D1*
Y2515598D1*
Y2514098D1*
Y2512598D1*
Y2511098D1*
Y2509598D1*
Y2508098D1*
Y2506598D1*
Y2505098D1*
Y2503598D1*
Y2502098D1*
X2185552Y2500598D1*
X2185609Y2499098D1*
X2185841Y2497598D1*
X2186354Y2496098D1*
X2187046Y2494598D1*
X2245546Y2527598D2*
Y2526098D1*
Y2524598D1*
Y2523098D1*
Y2521598D1*
Y2520098D1*
Y2518598D1*
Y2517098D1*
Y2515598D1*
Y2514098D1*
Y2512598D1*
Y2511098D1*
Y2509598D1*
Y2508098D1*
Y2506598D1*
Y2505098D1*
Y2503598D1*
Y2502098D1*
Y2500598D1*
Y2499098D1*
Y2497598D1*
Y2496098D1*
Y2494598D1*
X2196046Y2520098D2*
X2194841Y2518598D1*
X2193963Y2517098D1*
X2193461Y2515598D1*
X2193218Y2514098D1*
X2193112Y2512598D1*
X2193070Y2511098D1*
X2193054Y2509598D1*
X2193049Y2508098D1*
X2193047Y2506598D1*
X2193046Y2505098D1*
Y2503598D1*
Y2502098D1*
Y2500598D1*
Y2499098D1*
Y2497598D1*
Y2496098D1*
Y2494598D1*
X2214046Y2520098D2*
Y2518598D1*
Y2517098D1*
Y2515598D1*
Y2514098D1*
Y2512598D1*
Y2511098D1*
Y2509598D1*
Y2508098D1*
Y2506598D1*
Y2505098D1*
Y2503598D1*
Y2502098D1*
X2214052Y2500598D1*
X2214109Y2499098D1*
X2214341Y2497598D1*
X2214854Y2496098D1*
X2215546Y2494598D1*
X2224546Y2520098D2*
X2223341Y2518598D1*
X2222463Y2517098D1*
X2221961Y2515598D1*
X2221718Y2514098D1*
X2221612Y2512598D1*
X2221570Y2511098D1*
X2221554Y2509598D1*
X2221549Y2508098D1*
X2221547Y2506598D1*
X2221546Y2505098D1*
Y2503598D1*
Y2502098D1*
Y2500598D1*
Y2499098D1*
Y2497598D1*
Y2496098D1*
Y2494598D1*
X2238046Y2520098D2*
Y2518598D1*
Y2517098D1*
Y2515598D1*
Y2514098D1*
Y2512598D1*
Y2511098D1*
Y2509598D1*
Y2508098D1*
Y2506598D1*
Y2505098D1*
Y2503598D1*
Y2502098D1*
X2238052Y2500598D1*
X2238109Y2499098D1*
X2238341Y2497598D1*
X2238854Y2496098D1*
X2239546Y2494598D1*
X2084463Y2103514D2*
Y2102014D1*
Y2100514D1*
Y2099014D1*
Y2097514D1*
Y2096014D1*
X2144463Y2103514D2*
Y2102014D1*
Y2100514D1*
Y2099014D1*
Y2097514D1*
Y2096014D1*
Y2094514D1*
Y2093014D1*
Y2091514D1*
Y2090014D1*
Y2088514D1*
Y2087014D1*
Y2085514D1*
Y2084014D1*
X2144457Y2082514D1*
X2144405Y2081014D1*
X2144208Y2079514D1*
X2143790Y2078014D1*
X2143155Y2076514D1*
X2142273Y2075014D1*
X2141026Y2073514D1*
X2139244Y2072014D1*
X2136801Y2070514D1*
X2133963Y2069014D1*
X2112963Y2096014D2*
Y2094514D1*
Y2093014D1*
Y2091514D1*
Y2090014D1*
Y2088514D1*
X2112969Y2087014D1*
X2113022Y2085514D1*
X2113213Y2084014D1*
X2113572Y2082514D1*
X2113963Y2081014D1*
X2114283Y2079514D1*
X2114672Y2078014D1*
X2115344Y2076514D1*
X2116370Y2075014D1*
X2117693Y2073514D1*
X2119322Y2072014D1*
X2121293Y2070514D1*
X2123463Y2069014D1*
X2121963Y2096014D2*
X2120764Y2094514D1*
X2119767Y2093014D1*
X2119459Y2091514D1*
X2119701Y2090014D1*
X2120012Y2088514D1*
X2120246Y2087014D1*
X2120430Y2085514D1*
X2120767Y2084014D1*
X2121354Y2082514D1*
X2123764Y2081014D1*
X2127637Y2079514D1*
X2132463Y2078014D1*
X2136963Y2096014D2*
Y2094514D1*
Y2093014D1*
Y2091514D1*
Y2090014D1*
X2136957Y2088514D1*
X2136905Y2087014D1*
X2136702Y2085514D1*
X2136339Y2084014D1*
X2135404Y2082514D1*
X2132492Y2081014D1*
X2127792Y2079514D1*
X2121963Y2078014D1*
X2085963Y2060014D2*
X2085271Y2058514D1*
X2084846Y2057014D1*
X2084685Y2055514D1*
X2084820Y2054014D1*
X2085293Y2052514D1*
X2085963Y2051014D1*
X2121963Y2060014D2*
Y2058514D1*
Y2057014D1*
Y2055514D1*
Y2054014D1*
Y2052514D1*
Y2051014D1*
X2138463Y2060014D2*
X2137264Y2058514D1*
X2136267Y2057014D1*
X2135982Y2055514D1*
X2136499Y2054014D1*
X2137389Y2052514D1*
X2138463Y2051014D1*
X2144463Y2060014D2*
X2145156Y2058514D1*
X2145581Y2057014D1*
X2145741Y2055514D1*
X2145606Y2054014D1*
X2145134Y2052514D1*
X2144463Y2051014D1*
X2084463Y2010514D2*
Y2009014D1*
Y2007514D1*
Y2006014D1*
Y2004514D1*
Y2003014D1*
X2144463Y2010514D2*
Y2009014D1*
Y2007514D1*
Y2006014D1*
Y2004514D1*
Y2003014D1*
Y2001514D1*
Y2000014D1*
Y1998514D1*
Y1997014D1*
Y1995514D1*
Y1994014D1*
Y1992514D1*
Y1991014D1*
X2144457Y1989514D1*
X2144405Y1988014D1*
X2144208Y1986514D1*
X2143790Y1985014D1*
X2143155Y1983514D1*
X2142273Y1982014D1*
X2141026Y1980514D1*
X2139244Y1979014D1*
X2136801Y1977514D1*
X2133963Y1976014D1*
X2112963Y2003014D2*
Y2001514D1*
Y2000014D1*
Y1998514D1*
Y1997014D1*
Y1995514D1*
X2112969Y1994014D1*
X2113022Y1992514D1*
X2113213Y1991014D1*
X2113572Y1989514D1*
X2113963Y1988014D1*
X2114283Y1986514D1*
X2114672Y1985014D1*
X2115344Y1983514D1*
X2116370Y1982014D1*
X2117693Y1980514D1*
X2119322Y1979014D1*
X2121293Y1977514D1*
X2123463Y1976014D1*
X2121963Y2003014D2*
X2120764Y2001514D1*
X2119767Y2000014D1*
X2119459Y1998514D1*
X2119701Y1997014D1*
X2120012Y1995514D1*
X2120246Y1994014D1*
X2120430Y1992514D1*
X2120767Y1991014D1*
X2121354Y1989514D1*
X2123764Y1988014D1*
X2127637Y1986514D1*
X2132463Y1985014D1*
X2136963Y2003014D2*
Y2001514D1*
Y2000014D1*
Y1998514D1*
Y1997014D1*
X2136957Y1995514D1*
X2136905Y1994014D1*
X2136702Y1992514D1*
X2136339Y1991014D1*
X2135404Y1989514D1*
X2132492Y1988014D1*
X2127792Y1986514D1*
X2121963Y1985014D1*
X2085963Y1967014D2*
X2085271Y1965514D1*
X2084846Y1964014D1*
X2084685Y1962514D1*
X2084820Y1961014D1*
X2085293Y1959514D1*
X2085963Y1958014D1*
X2121963Y1967014D2*
Y1965514D1*
Y1964014D1*
Y1962514D1*
Y1961014D1*
Y1959514D1*
Y1958014D1*
X2138463Y1967014D2*
X2137264Y1965514D1*
X2136267Y1964014D1*
X2135982Y1962514D1*
X2136499Y1961014D1*
X2137389Y1959514D1*
X2138463Y1958014D1*
X2144463Y1967014D2*
X2145156Y1965514D1*
X2145581Y1964014D1*
X2145741Y1962514D1*
X2145606Y1961014D1*
X2145134Y1959514D1*
X2144463Y1958014D1*
X2099463Y1947514D2*
X2096758Y1946014D1*
X2094381Y1944514D1*
X2092384Y1943014D1*
X2090693Y1941514D1*
X2089285Y1940014D1*
X2088161Y1938514D1*
X2087274Y1937014D1*
X2086586Y1935514D1*
X2086026Y1934014D1*
X2085485Y1932514D1*
X2085020Y1931014D1*
X2084727Y1929514D1*
X2084581Y1928014D1*
X2084566Y1926514D1*
X2084730Y1925014D1*
X2085084Y1923514D1*
X2085517Y1922014D1*
X2085970Y1920514D1*
X2086481Y1919014D1*
X2086993Y1917514D1*
X2087463Y1916014D1*
X2108463Y1947514D2*
X2111861Y1946014D1*
X2114663Y1944514D1*
X2116831Y1943014D1*
X2118474Y1941514D1*
X2119706Y1940014D1*
X2120682Y1938514D1*
X2121523Y1937014D1*
X2122257Y1935514D1*
X2122826Y1934014D1*
X2123167Y1932514D1*
X2123339Y1931014D1*
X2123415Y1929514D1*
X2123445Y1928014D1*
X2123457Y1926514D1*
X2123461Y1925014D1*
X2123457Y1923514D1*
X2123404Y1922014D1*
X2123212Y1920514D1*
X2122840Y1919014D1*
X2122394Y1917514D1*
X2121963Y1916014D1*
X2100963Y1938514D2*
X2098264Y1937014D1*
X2095945Y1935514D1*
X2094193Y1934014D1*
X2092861Y1932514D1*
X2092340Y1931014D1*
X2091904Y1929514D1*
X2091485Y1928014D1*
X2091246Y1926514D1*
X2091332Y1925014D1*
X2091624Y1923514D1*
X2092017Y1922014D1*
X2092546Y1920514D1*
X2093219Y1919014D1*
X2094040Y1917514D1*
X2094963Y1916014D1*
X2108463Y1938514D2*
X2111111Y1937014D1*
X2113290Y1935514D1*
X2114875Y1934014D1*
X2115984Y1932514D1*
X2116719Y1931014D1*
X2117128Y1929514D1*
X2117325Y1928014D1*
X2117404Y1926514D1*
X2117385Y1925014D1*
X2117201Y1923514D1*
X2116793Y1922014D1*
X2116218Y1920514D1*
X2115584Y1919014D1*
X2114991Y1917514D1*
X2114463Y1916014D1*
X2100963Y1908514D2*
X2097566Y1907014D1*
X2094763Y1905514D1*
X2092596Y1904014D1*
X2090953Y1902514D1*
X2089720Y1901014D1*
X2088745Y1899514D1*
X2087903Y1898014D1*
X2087163Y1896514D1*
X2086542Y1895014D1*
X2086009Y1893514D1*
X2085479Y1892014D1*
X2085018Y1890514D1*
X2084726Y1889014D1*
X2084581Y1887514D1*
X2084566Y1886014D1*
X2084729Y1884514D1*
X2085084Y1883014D1*
X2085517Y1881514D1*
X2085975Y1880014D1*
X2086531Y1878514D1*
X2087229Y1877014D1*
X2088126Y1875514D1*
X2089269Y1874014D1*
X2090597Y1872514D1*
X2092076Y1871014D1*
X2093776Y1869514D1*
X2095777Y1868014D1*
X2097963Y1866514D1*
X2108463Y1908514D2*
X2111574Y1907014D1*
X2114255Y1905514D1*
X2116388Y1904014D1*
X2117979Y1902514D1*
X2119259Y1901014D1*
X2120394Y1899514D1*
X2121374Y1898014D1*
X2122190Y1896514D1*
X2122798Y1895014D1*
X2123157Y1893514D1*
X2123335Y1892014D1*
X2123413Y1890514D1*
X2123445Y1889014D1*
X2123457Y1887514D1*
X2123461Y1886014D1*
X2123457Y1884514D1*
X2123404Y1883014D1*
X2123208Y1881514D1*
X2122796Y1880014D1*
X2122214Y1878514D1*
X2121535Y1877014D1*
X2120761Y1875514D1*
X2119821Y1874014D1*
X2118603Y1872514D1*
X2117025Y1871014D1*
X2114997Y1869514D1*
X2112569Y1868014D1*
X2109963Y1866514D1*
X2099463Y1899514D2*
X2097789Y1898014D1*
X2096115Y1896514D1*
X2094645Y1895014D1*
X2093510Y1893514D1*
X2092689Y1892014D1*
X2092073Y1890514D1*
X2091559Y1889014D1*
X2091147Y1887514D1*
X2091311Y1886014D1*
X2091626Y1884514D1*
X2092075Y1883014D1*
X2092809Y1881514D1*
X2093996Y1880014D1*
X2095575Y1878514D1*
X2099432Y1877014D1*
X2104942Y1875514D1*
X2111463Y1874014D1*
X2106963Y1899514D2*
X2109668Y1898014D1*
X2112040Y1896514D1*
X2113984Y1895014D1*
X2115477Y1893514D1*
X2116641Y1892014D1*
X2117064Y1890514D1*
X2117293Y1889014D1*
X2117391Y1887514D1*
X2117380Y1886014D1*
X2117199Y1884514D1*
X2116781Y1883014D1*
X2116090Y1881514D1*
X2115174Y1880014D1*
X2113034Y1878514D1*
X2109753Y1877014D1*
X2105030Y1875514D1*
X2099463Y1874014D1*
X2120463Y1832014D2*
Y1830514D1*
Y1829014D1*
Y1827514D1*
Y1826014D1*
X2142963Y1832014D2*
Y1830514D1*
Y1829014D1*
Y1827514D1*
Y1826014D1*
X2120463Y1818514D2*
X2120525Y1817014D1*
X2120758Y1815514D1*
X2121271Y1814014D1*
X2121963Y1812514D1*
X2142963Y1818514D2*
Y1817014D1*
Y1815514D1*
Y1814014D1*
Y1812514D1*
X2084463Y1800514D2*
Y1799014D1*
Y1797514D1*
Y1796014D1*
Y1794514D1*
Y1793014D1*
X2144463Y1800514D2*
Y1799014D1*
Y1797514D1*
Y1796014D1*
Y1794514D1*
Y1793014D1*
Y1791514D1*
Y1790014D1*
Y1788514D1*
Y1787014D1*
Y1785514D1*
Y1784014D1*
Y1782514D1*
Y1781014D1*
X2144457Y1779514D1*
X2144405Y1778014D1*
X2144208Y1776514D1*
X2143790Y1775014D1*
X2143155Y1773514D1*
X2142273Y1772014D1*
X2141026Y1770514D1*
X2139244Y1769014D1*
X2136801Y1767514D1*
X2133963Y1766014D1*
X2112963Y1793014D2*
Y1791514D1*
Y1790014D1*
Y1788514D1*
Y1787014D1*
Y1785514D1*
X2112969Y1784014D1*
X2113022Y1782514D1*
X2113213Y1781014D1*
X2113572Y1779514D1*
X2113963Y1778014D1*
X2114283Y1776514D1*
X2114672Y1775014D1*
X2115344Y1773514D1*
X2116370Y1772014D1*
X2117693Y1770514D1*
X2119322Y1769014D1*
X2121293Y1767514D1*
X2123463Y1766014D1*
X2121963Y1793014D2*
X2120764Y1791514D1*
X2119767Y1790014D1*
X2119459Y1788514D1*
X2119701Y1787014D1*
X2120012Y1785514D1*
X2120246Y1784014D1*
X2120430Y1782514D1*
X2120767Y1781014D1*
X2121354Y1779514D1*
X2123764Y1778014D1*
X2127637Y1776514D1*
X2132463Y1775014D1*
X2136963Y1793014D2*
Y1791514D1*
Y1790014D1*
Y1788514D1*
Y1787014D1*
X2136957Y1785514D1*
X2136905Y1784014D1*
X2136702Y1782514D1*
X2136339Y1781014D1*
X2135404Y1779514D1*
X2132492Y1778014D1*
X2127792Y1776514D1*
X2121963Y1775014D1*
X2096463Y1757014D2*
X2093764Y1755514D1*
X2091439Y1754014D1*
X2089634Y1752514D1*
X2088308Y1751014D1*
X2087331Y1749514D1*
X2086607Y1748014D1*
X2086033Y1746514D1*
X2085487Y1745014D1*
X2085021Y1743514D1*
X2084727Y1742014D1*
X2084576Y1740514D1*
X2084513Y1739014D1*
X2084538Y1737514D1*
X2084719Y1736014D1*
X2085074Y1734514D1*
X2085463Y1733014D1*
X2085783Y1731514D1*
X2086166Y1730014D1*
X2086792Y1728514D1*
X2087679Y1727014D1*
X2088847Y1725514D1*
X2090583Y1724014D1*
X2093235Y1722514D1*
X2096842Y1721014D1*
X2100963Y1719514D1*
X2121963Y1757014D2*
Y1755514D1*
Y1754014D1*
Y1752514D1*
Y1751014D1*
Y1749514D1*
X2099463D2*
X2096821Y1748014D1*
X2094695Y1746514D1*
X2093059Y1745014D1*
X2092434Y1743514D1*
X2091943Y1742014D1*
X2091500Y1740514D1*
X2091251Y1739014D1*
X2091334Y1737514D1*
X2091631Y1736014D1*
X2092076Y1734514D1*
X2092797Y1733014D1*
X2093842Y1731514D1*
X2095109Y1730014D1*
X2096463Y1728514D1*
X2121963D2*
Y1727014D1*
Y1725514D1*
Y1724014D1*
Y1722514D1*
Y1721014D1*
Y1719514D1*
X2084463Y1706014D2*
Y1704514D1*
Y1703014D1*
Y1701514D1*
Y1700014D1*
Y1698514D1*
X2121963Y1706014D2*
Y1704514D1*
X2121952Y1703014D1*
X2121837Y1701514D1*
X2121565Y1700014D1*
X2120396Y1698514D1*
X2118963Y1697014D1*
X2120400Y1695514D1*
X2121649Y1694014D1*
X2122540Y1692514D1*
X2123046Y1691014D1*
X2123291Y1689514D1*
X2123397Y1688014D1*
X2123439Y1686514D1*
X2123455Y1685014D1*
X2123460Y1683514D1*
X2123463Y1682014D1*
X2099463Y1698514D2*
X2105778Y1697014D1*
X2110729Y1695514D1*
X2114503Y1694014D1*
X2116219Y1692514D1*
X2116873Y1691014D1*
X2117211Y1689514D1*
X2117306Y1688014D1*
X2117134Y1686514D1*
X2116644Y1685014D1*
X2115963Y1683514D1*
X2118963Y1682014D1*
X2066463Y1674514D2*
Y1673014D1*
Y1671514D1*
Y1670014D1*
Y1668514D1*
Y1667014D1*
X2121963Y1674514D2*
Y1673014D1*
X2121952Y1671514D1*
X2121837Y1670014D1*
X2121565Y1668514D1*
X2120396Y1667014D1*
X2118963Y1665514D1*
X2119945Y1664014D1*
X2120940Y1662514D1*
X2121905Y1661014D1*
X2122650Y1659514D1*
X2123090Y1658014D1*
X2123307Y1656514D1*
X2123403Y1655014D1*
X2123441Y1653514D1*
X2123455Y1652014D1*
Y1650514D1*
X2123404Y1649014D1*
X2123207Y1647514D1*
X2122790Y1646014D1*
X2122155Y1644514D1*
X2121279Y1643014D1*
X2120082Y1641514D1*
X2118456Y1640014D1*
X2116200Y1638514D1*
X2113261Y1637014D1*
X2109963Y1635514D1*
X2091963Y1667014D2*
X2090520Y1665514D1*
X2089219Y1664014D1*
X2088131Y1662514D1*
X2087212Y1661014D1*
X2086392Y1659514D1*
X2085665Y1658014D1*
X2085100Y1656514D1*
X2084759Y1655014D1*
X2084593Y1653514D1*
X2084570Y1652014D1*
X2084731Y1650514D1*
X2085084Y1649014D1*
X2085523Y1647514D1*
X2086033Y1646014D1*
X2086781Y1644514D1*
X2087838Y1643014D1*
X2089131Y1641514D1*
X2090650Y1640014D1*
X2092575Y1638514D1*
X2095086Y1637014D1*
X2097963Y1635514D1*
X2102463Y1667014D2*
X2099583Y1665514D1*
X2097032Y1664014D1*
X2095060Y1662514D1*
X2093682Y1661014D1*
X2092751Y1659514D1*
X2092044Y1658014D1*
X2091298Y1656514D1*
X2090463Y1655014D1*
X2091213Y1653514D1*
X2091848Y1652014D1*
X2092554Y1650514D1*
X2093414Y1649014D1*
X2095671Y1647514D1*
X2099295Y1646014D1*
X2104296Y1644514D1*
X2109963Y1643014D1*
X2106963Y1667014D2*
X2109843Y1665514D1*
X2112394Y1664014D1*
X2114367Y1662514D1*
X2115739Y1661014D1*
X2116764Y1659514D1*
X2117124Y1658014D1*
X2117318Y1656514D1*
X2117401Y1655014D1*
X2117378Y1653514D1*
X2117142Y1652014D1*
X2116680Y1650514D1*
X2115323Y1649014D1*
X2113504Y1647514D1*
X2109065Y1646014D1*
X2103159Y1644514D1*
X2096463Y1643014D1*
X2085963Y1625014D2*
X2085271Y1623514D1*
X2084846Y1622014D1*
X2084685Y1620514D1*
X2084820Y1619014D1*
X2085293Y1617514D1*
X2085963Y1616014D1*
X2147463Y1625014D2*
Y1623514D1*
Y1622014D1*
Y1620514D1*
Y1619014D1*
Y1617514D1*
Y1616014D1*
X2099463Y1605514D2*
X2096352Y1604014D1*
X2093672Y1602514D1*
X2091544Y1601014D1*
X2090000Y1599514D1*
X2088864Y1598014D1*
X2087950Y1596514D1*
X2087181Y1595014D1*
X2086548Y1593514D1*
X2086011Y1592014D1*
X2085479Y1590514D1*
X2085019Y1589014D1*
X2084726Y1587514D1*
X2084581Y1586014D1*
X2084566Y1584514D1*
X2084729Y1583014D1*
X2085078Y1581514D1*
X2085465Y1580014D1*
X2085778Y1578514D1*
X2086113Y1577014D1*
X2086595Y1575514D1*
X2087255Y1574014D1*
X2088136Y1572514D1*
X2089272Y1571014D1*
X2090592Y1569514D1*
X2092010Y1568014D1*
X2093463Y1566514D1*
X2108463Y1605514D2*
X2111861Y1604014D1*
X2114663Y1602514D1*
X2116831Y1601014D1*
X2118474Y1599514D1*
X2119706Y1598014D1*
X2120682Y1596514D1*
X2121523Y1595014D1*
X2122257Y1593514D1*
X2122826Y1592014D1*
X2123167Y1590514D1*
X2123339Y1589014D1*
X2123415Y1587514D1*
X2123445Y1586014D1*
X2123457Y1584514D1*
X2123461Y1583014D1*
X2123457Y1581514D1*
X2123404Y1580014D1*
X2123208Y1578514D1*
X2122790Y1577014D1*
X2122155Y1575514D1*
X2121285Y1574014D1*
X2120146Y1572514D1*
X2118757Y1571014D1*
X2116973Y1569514D1*
X2114437Y1568014D1*
X2110965Y1566514D1*
X2106963Y1565014D1*
X2097963Y1596514D2*
X2096469Y1595014D1*
X2095028Y1593514D1*
X2093772Y1592014D1*
X2092828Y1590514D1*
X2092136Y1589014D1*
X2091585Y1587514D1*
X2091153Y1586014D1*
X2091308Y1584514D1*
X2091569Y1583014D1*
X2091826Y1581514D1*
X2092188Y1580014D1*
X2092844Y1578514D1*
X2093802Y1577014D1*
X2094810Y1575514D1*
X2095697Y1574014D1*
X2095980Y1572514D1*
X2095730Y1571014D1*
X2095412Y1569514D1*
X2095162Y1568014D1*
X2094963Y1566514D1*
X2102463Y1596514D2*
Y1595014D1*
Y1593514D1*
Y1592014D1*
Y1590514D1*
Y1589014D1*
Y1587514D1*
Y1586014D1*
Y1584514D1*
Y1583014D1*
Y1581514D1*
Y1580014D1*
Y1578514D1*
Y1577014D1*
Y1575514D1*
Y1574014D1*
Y1572514D1*
X2102469Y1571014D1*
X2102526Y1569514D1*
X2102758Y1568014D1*
X2103271Y1566514D1*
X2103963Y1565014D1*
X2106963Y1596514D2*
Y1595014D1*
Y1593514D1*
Y1592014D1*
Y1590514D1*
Y1589014D1*
Y1587514D1*
Y1586014D1*
Y1584514D1*
Y1583014D1*
Y1581514D1*
X2106981Y1580014D1*
X2107152Y1578514D1*
X2107561Y1577014D1*
X2109314Y1575514D1*
X2111463Y1574014D1*
X2108463Y1596514D2*
X2111111Y1595014D1*
X2113290Y1593514D1*
X2114875Y1592014D1*
X2115984Y1590514D1*
X2116719Y1589014D1*
X2117128Y1587514D1*
X2117325Y1586014D1*
X2117404Y1584514D1*
X2117379Y1583014D1*
X2117142Y1581514D1*
X2116680Y1580014D1*
X2115397Y1578514D1*
X2113417Y1577014D1*
X2110481Y1575514D1*
X2106963Y1574014D1*
X2120463Y1557514D2*
Y1556014D1*
Y1554514D1*
Y1553014D1*
Y1551514D1*
X2142963Y1557514D2*
Y1556014D1*
Y1554514D1*
Y1553014D1*
Y1551514D1*
X2120463Y1544014D2*
X2120525Y1542514D1*
X2120758Y1541014D1*
X2121271Y1539514D1*
X2121963Y1538014D1*
X2142963Y1544014D2*
Y1542514D1*
Y1541014D1*
Y1539514D1*
Y1538014D1*
X546885Y3494953D2*
D79*
X559785D1*
X564096Y3496412D1*
X565555Y3497838D1*
X566981Y3500690D1*
Y3503575D1*
X565555Y3506427D1*
X564096Y3507886D1*
X559785Y3509312D1*
X546885D1*
Y3479168D1*
X556933Y3494953D2*
X566981Y3479168D1*
X594881Y3509312D2*
X576244D1*
Y3479168D1*
X594881D1*
X576244Y3494953D2*
X587718D1*
X624241Y3505001D2*
X621389Y3507886D1*
X617078Y3509312D1*
X611341D1*
X607030Y3507886D1*
X604145Y3505001D1*
Y3502149D1*
X605604Y3499264D1*
X607030Y3497838D1*
X609882Y3496412D1*
X618504Y3493527D1*
X621389Y3492101D1*
X622815Y3490642D1*
X624241Y3487790D1*
Y3483479D1*
X621389Y3480627D1*
X617078Y3479168D1*
X611341D1*
X607030Y3480627D1*
X604145Y3483479D1*
X652141Y3509312D2*
X633504D1*
Y3479168D1*
X652141D1*
X633504Y3494953D2*
X644978D1*
X671453Y3509312D2*
Y3479168D1*
X661405Y3509312D2*
X681501D1*
X2240770D2*
Y3479168D1*
X2253703D1*
X2258014Y3480627D1*
X2259440Y3482053D1*
X2260866Y3484905D1*
Y3489216D1*
X2259440Y3492101D1*
X2258014Y3493527D1*
X2253703Y3494953D1*
X2258014Y3496412D1*
X2259440Y3497838D1*
X2260866Y3500690D1*
Y3503575D1*
X2259440Y3506427D1*
X2258014Y3507886D1*
X2253703Y3509312D1*
X2240770D1*
Y3494953D2*
X2253703D1*
X2270129Y3499264D2*
Y3484905D1*
X2271555Y3480627D1*
X2274440Y3479168D1*
X2278751D1*
X2281603Y3480627D1*
X2285914Y3484905D1*
Y3499264D2*
Y3479168D1*
X2299489Y3509312D2*
Y3484905D1*
X2300915Y3480627D1*
X2303800Y3479168D1*
X2306652D1*
X2295178Y3499264D2*
X2305226D1*
X2320226Y3509312D2*
Y3484905D1*
X2321652Y3480627D1*
X2324537Y3479168D1*
X2327389D1*
X2315915Y3499264D2*
X2325963D1*
X2343816D2*
X2340964Y3497838D1*
X2338079Y3494953D1*
X2336653Y3490642D1*
Y3487790D1*
X2338079Y3483479D1*
X2340964Y3480627D1*
X2343816Y3479168D1*
X2348127D1*
X2351012Y3480627D1*
X2353864Y3483479D1*
X2355323Y3487790D1*
Y3490642D1*
X2353864Y3494953D1*
X2351012Y3497838D1*
X2348127Y3499264D1*
X2343816D1*
X2364586D2*
Y3479168D1*
Y3493527D2*
X2368897Y3497838D1*
X2371783Y3499264D1*
X2376060D1*
X2378945Y3497838D1*
X2380371Y3493527D1*
Y3479168D1*
X2412616D2*
X2401109Y3509312D1*
X2389635Y3479168D1*
X2393946Y3489216D2*
X2408305D1*
X978580Y1315537D2*
D80*
Y1215057D1*
X945087Y1315537D2*
X1012074D1*
X1042952D2*
Y1215057D1*
X1109939Y1315537D2*
Y1215057D1*
X1042952Y1267673D2*
X1109939D1*
X1140817Y1315537D2*
Y1215057D1*
X1238683Y1301167D2*
X1229176Y1310784D1*
X1214806Y1315537D1*
X1195683D1*
X1181313Y1310784D1*
X1171696Y1301167D1*
Y1291660D1*
X1176560Y1282043D1*
X1181313Y1277290D1*
X1190819Y1272537D1*
X1219559Y1262920D1*
X1229176Y1258167D1*
X1233929Y1253303D1*
X1238683Y1243797D1*
Y1229427D1*
X1229176Y1219920D1*
X1214806Y1215057D1*
X1195683D1*
X1181313Y1219920D1*
X1171696Y1229427D1*
X1433750Y1301167D2*
X1424243Y1310784D1*
X1409873Y1315537D1*
X1390750D1*
X1376380Y1310784D1*
X1366763Y1301167D1*
Y1291660D1*
X1371627Y1282043D1*
X1376380Y1277290D1*
X1385886Y1272537D1*
X1414626Y1262920D1*
X1424243Y1258167D1*
X1428997Y1253303D1*
X1433750Y1243797D1*
Y1229427D1*
X1424243Y1219920D1*
X1409873Y1215057D1*
X1390750D1*
X1376380Y1219920D1*
X1366763Y1229427D1*
X1464628Y1315537D2*
Y1215057D1*
X1495507Y1315537D2*
Y1215057D1*
X1529000D1*
X1543370Y1219920D1*
X1552987Y1229427D1*
X1557740Y1239044D1*
X1562493Y1253303D1*
Y1277290D1*
X1557740Y1291660D1*
X1552987Y1301167D1*
X1543370Y1310784D1*
X1529000Y1315537D1*
X1495507D1*
X1655495D2*
X1593372D1*
Y1215057D1*
X1655495D1*
X1593372Y1267673D2*
X1631618D1*
X1817069Y1315537D2*
Y1215057D1*
X1783575Y1315537D2*
X1850562D1*
X1910181D2*
X1900564Y1310784D1*
X1891057Y1301167D1*
X1886194Y1291660D1*
X1881440Y1277290D1*
Y1253303D1*
X1886194Y1239044D1*
X1891057Y1229427D1*
X1900564Y1219920D1*
X1910181Y1215057D1*
X1929304D1*
X1938810Y1219920D1*
X1948427Y1229427D1*
X1953180Y1239044D1*
X1957933Y1253303D1*
Y1277290D1*
X1953180Y1291660D1*
X1948427Y1301167D1*
X1938810Y1310784D1*
X1929304Y1315537D1*
X1910181D1*
X954327Y1129160D2*
X949574Y1138667D1*
X939957Y1148284D1*
X930450Y1153037D1*
X911327D1*
X901710Y1148284D1*
X892204Y1138667D1*
X887340Y1129160D1*
X882587Y1114790D1*
Y1090803D1*
X887340Y1076544D1*
X892204Y1066927D1*
X901710Y1057420D1*
X911327Y1052557D1*
X930450D1*
X939957Y1057420D1*
X949574Y1066927D1*
X954327Y1076544D1*
X1013946Y1153037D2*
X1004329Y1148284D1*
X994822Y1138667D1*
X989959Y1129160D1*
X985205Y1114790D1*
Y1090803D1*
X989959Y1076544D1*
X994822Y1066927D1*
X1004329Y1057420D1*
X1013946Y1052557D1*
X1033069D1*
X1042575Y1057420D1*
X1052192Y1066927D1*
X1056945Y1076544D1*
X1061698Y1090803D1*
Y1114790D1*
X1056945Y1129160D1*
X1052192Y1138667D1*
X1042575Y1148284D1*
X1033069Y1153037D1*
X1013946D1*
X1159564D2*
Y1052557D1*
X1092577Y1153037D1*
Y1052557D1*
X1257429Y1138667D2*
X1247922Y1148284D1*
X1233552Y1153037D1*
X1214429D1*
X1200059Y1148284D1*
X1190442Y1138667D1*
Y1129160D1*
X1195306Y1119543D1*
X1200059Y1114790D1*
X1209565Y1110037D1*
X1238306Y1100420D1*
X1247922Y1095667D1*
X1252676Y1090803D1*
X1257429Y1081297D1*
Y1066927D1*
X1247922Y1057420D1*
X1233552Y1052557D1*
X1214429D1*
X1200059Y1057420D1*
X1190442Y1066927D1*
X1317047Y1153037D2*
X1307431Y1148284D1*
X1297924Y1138667D1*
X1293060Y1129160D1*
X1288307Y1114790D1*
Y1090803D1*
X1293060Y1076544D1*
X1297924Y1066927D1*
X1307431Y1057420D1*
X1317047Y1052557D1*
X1336171D1*
X1345677Y1057420D1*
X1355294Y1066927D1*
X1360047Y1076544D1*
X1364800Y1090803D1*
Y1114790D1*
X1360047Y1129160D1*
X1355294Y1138667D1*
X1345677Y1148284D1*
X1336171Y1153037D1*
X1317047D1*
X1395679D2*
Y1052557D1*
X1453049D1*
X1546050Y1153037D2*
X1483927D1*
Y1052557D1*
X1546050D1*
X1483927Y1105173D2*
X1522174D1*
X1674130D2*
X1717130D1*
X1731500Y1110037D1*
X1736364Y1114790D1*
X1741117Y1124297D1*
Y1133913D1*
X1736364Y1143420D1*
X1731500Y1148284D1*
X1717130Y1153037D1*
X1674130D1*
Y1052557D1*
X1707624Y1105173D2*
X1741117Y1052557D1*
X1834119Y1153037D2*
X1771996D1*
Y1052557D1*
X1834119D1*
X1771996Y1105173D2*
X1810242D1*
X1941601Y1052557D2*
X1903244Y1153037D1*
X1864997Y1052557D1*
X1879367Y1086050D2*
X1927231D1*
X1972479Y1105173D2*
X2015479D1*
X2029849Y1110037D1*
X2034713Y1114790D1*
X2039466Y1124297D1*
Y1133913D1*
X2034713Y1143420D1*
X2029849Y1148284D1*
X2015479Y1153037D1*
X1972479D1*
Y1052557D1*
X2005972Y1105173D2*
X2039466Y1052557D1*
X2463886Y1897709D2*
D81*
X2435190D1*
X2429442Y1895807D1*
X2425639Y1891961D1*
X2423694Y1886213D1*
Y1882410D1*
X2425639Y1876662D1*
X2429442Y1872815D1*
X2435190Y1870914D1*
X2463886D1*
X2458138Y1831768D2*
X2461984Y1835570D1*
X2463886Y1841319D1*
Y1848968D1*
X2461984Y1854716D1*
X2458138Y1858563D1*
X2454335D1*
X2450488Y1856617D1*
X2448587Y1854716D1*
X2446686Y1850913D1*
X2442839Y1839417D1*
X2440938Y1835571D1*
X2438992Y1833669D1*
X2435190Y1831768D1*
X2429442D1*
X2425639Y1835571D1*
X2423694Y1841319D1*
Y1848968D1*
X2425639Y1854716D1*
X2429442Y1858563D1*
X2463886Y1819417D2*
X2423694D1*
Y1802173D1*
X2425639Y1796424D1*
X2427541Y1794523D1*
X2431343Y1792622D1*
X2437091D1*
X2440938Y1794523D1*
X2442839Y1796424D1*
X2444740Y1802172D1*
X2446686Y1796424D1*
X2448587Y1794523D1*
X2452390Y1792622D1*
X2456236D1*
X2460039Y1794523D1*
X2461984Y1796424D1*
X2463886Y1802172D1*
Y1819417D1*
X2444740D2*
Y1802172D1*
X2443768Y1780271D2*
Y1758163D1*
X2454335Y1717115D2*
X2458138Y1719017D1*
X2461984Y1722863D1*
X2463886Y1726666D1*
Y1734315D1*
X2461984Y1738162D1*
X2458138Y1741965D1*
X2454335Y1743910D1*
X2448587Y1745811D1*
X2438992D1*
X2433289Y1743910D1*
X2429442Y1741965D1*
X2425639Y1738162D1*
X2423694Y1734315D1*
Y1726666D1*
X2425639Y1722863D1*
X2429442Y1719017D1*
X2433289Y1717115D1*
X2458286Y3012155D2*
X2431492D1*
X2450637D2*
X2456385Y3006407D1*
X2458286Y3002560D1*
Y2996856D1*
X2456385Y2993009D1*
X2450637Y2991108D1*
X2431492D1*
X2450637D2*
X2456385Y2985360D1*
X2458286Y2981513D1*
Y2975810D1*
X2456385Y2971963D1*
X2450637Y2970017D1*
X2431492D1*
X2471684Y2957666D2*
X2469782Y2955765D1*
X2471684Y2953819D1*
X2473629Y2955765D1*
X2471684Y2957666D1*
X2458286Y2955765D2*
X2431492D1*
X2452538Y2918476D2*
X2456385Y2922322D1*
X2458286Y2926169D1*
Y2931873D1*
X2456385Y2935720D1*
X2452538Y2939522D1*
X2446790Y2941468D1*
X2442988D1*
X2437240Y2939522D1*
X2433437Y2935720D1*
X2431492Y2931873D1*
Y2926169D1*
X2433437Y2922323D1*
X2437240Y2918476D1*
X2458286Y2906124D2*
X2431492D1*
X2446790D2*
X2452538Y2904179D1*
X2456385Y2900376D1*
X2458286Y2896530D1*
Y2890782D1*
Y2868880D2*
X2456385Y2872682D1*
X2452538Y2876529D1*
X2446790Y2878430D1*
X2442988D1*
X2437240Y2876529D1*
X2433437Y2872682D1*
X2431492Y2868880D1*
Y2863132D1*
X2433437Y2859285D1*
X2437240Y2855482D1*
X2442988Y2853537D1*
X2446790D1*
X2452538Y2855482D1*
X2456385Y2859285D1*
X2458286Y2863132D1*
Y2868880D1*
X2471684Y2841185D2*
X2442988D1*
X2437240Y2839284D1*
X2433437Y2835437D1*
X2431492Y2829689D1*
Y2825887D1*
X2433437Y2820139D1*
X2437240Y2816292D1*
X2442988Y2814391D1*
X2471684D1*
X2465936Y2775245D2*
X2469782Y2779047D1*
X2471684Y2784795D1*
Y2792444D1*
X2469782Y2798193D1*
X2465936Y2802039D1*
X2462133D1*
X2458286Y2800094D1*
X2456385Y2798193D1*
X2454484Y2794390D1*
X2450637Y2782894D1*
X2448736Y2779047D1*
X2446790Y2777146D1*
X2442988Y2775245D1*
X2437240D1*
X2433437Y2779047D1*
X2431492Y2784795D1*
Y2792444D1*
X2433437Y2798193D1*
X2437240Y2802039D1*
X2471684Y2762893D2*
X2431492D1*
Y2745649D1*
X2433437Y2739901D1*
X2435338Y2738000D1*
X2439141Y2736099D1*
X2444889D1*
X2448736Y2738000D1*
X2450637Y2739901D1*
X2452538Y2745649D1*
X2454484Y2739901D1*
X2456385Y2738000D1*
X2460188Y2736099D1*
X2464034D1*
X2467837Y2738000D1*
X2469782Y2739901D1*
X2471684Y2745649D1*
Y2762893D1*
X2452538D2*
Y2745649D1*
X1115392Y2629402D2*
D82*
X1153638D1*
X1160823Y2627025D1*
X1163200Y2624593D1*
X1165632Y2619840D1*
Y2615032D1*
X1163200Y2610279D1*
X1160823Y2607902D1*
X1153638Y2605470D1*
X1148885D1*
X1115392Y2644841D2*
X1165632D1*
Y2673526D1*
X1127330Y2724835D2*
X1122577Y2722459D1*
X1117768Y2717650D1*
X1115392Y2712897D1*
Y2703335D1*
X1117768Y2698527D1*
X1122577Y2693774D1*
X1127330Y2691342D1*
X1134515Y2688965D1*
X1146509D1*
X1153638Y2691342D1*
X1158447Y2693774D1*
X1163200Y2698527D1*
X1165632Y2703335D1*
Y2712897D1*
X1163200Y2717650D1*
X1158447Y2722458D1*
X1153638Y2724835D1*
X1115392Y2764206D2*
X1153638D1*
X1160823Y2761829D1*
X1163200Y2759398D1*
X1165632Y2754644D1*
Y2749836D1*
X1163200Y2745083D1*
X1160823Y2742706D1*
X1153638Y2740274D1*
X1148885D1*
X1115392Y2779645D2*
X1165632D1*
Y2808330D1*
X1127330Y2859639D2*
X1122577Y2857263D1*
X1117768Y2852454D1*
X1115392Y2847701D1*
Y2838139D1*
X1117768Y2833331D1*
X1122577Y2828578D1*
X1127330Y2826146D1*
X1134515Y2823769D1*
X1146509D1*
X1153638Y2826146D1*
X1158447Y2828578D1*
X1163200Y2833331D1*
X1165632Y2838139D1*
Y2847701D1*
X1163200Y2852454D1*
X1158447Y2857263D1*
X1153638Y2859639D1*
X1115392Y2899010D2*
X1153638D1*
X1160823Y2896634D1*
X1163200Y2894202D1*
X1165632Y2889449D1*
Y2884640D1*
X1163200Y2879887D1*
X1160823Y2877510D1*
X1153638Y2875079D1*
X1148885D1*
X1115392Y2914450D2*
X1165632D1*
Y2943134D1*
X1127330Y2994444D2*
X1122577Y2992067D1*
X1117768Y2987259D1*
X1115392Y2982505D1*
Y2972944D1*
X1117768Y2968135D1*
X1122577Y2963382D1*
X1127330Y2960950D1*
X1134515Y2958574D1*
X1146509D1*
X1153638Y2960950D1*
X1158447Y2963382D1*
X1163200Y2968135D1*
X1165632Y2972944D1*
Y2982505D1*
X1163200Y2987259D1*
X1158447Y2992067D1*
X1153638Y2994444D1*
X1115392Y3033815D2*
X1153638D1*
X1160823Y3031438D1*
X1163200Y3029006D1*
X1165632Y3024253D1*
Y3019444D1*
X1163200Y3014691D1*
X1160823Y3012315D1*
X1153638Y3009883D1*
X1148885D1*
X1115392Y3049254D2*
X1165632D1*
Y3077939D1*
X1127330Y3129248D2*
X1122577Y3126871D1*
X1117768Y3122063D1*
X1115392Y3117310D1*
Y3107748D1*
X1117768Y3102940D1*
X1122577Y3098186D1*
X1127330Y3095755D1*
X1134515Y3093378D1*
X1146509D1*
X1153638Y3095755D1*
X1158447Y3098186D1*
X1163200Y3102940D1*
X1165632Y3107748D1*
Y3117310D1*
X1163200Y3122063D1*
X1158447Y3126871D1*
X1153638Y3129248D1*
X565810Y1945583D2*
D81*
X563909Y1949386D1*
X560062Y1953233D1*
X556259Y1955134D1*
X548610D1*
X544763Y1953233D1*
X540961Y1949386D1*
X539015Y1945583D1*
X537114Y1939835D1*
Y1930240D1*
X539015Y1924537D1*
X540961Y1920690D1*
X544763Y1916887D1*
X548610Y1914942D1*
X556259D1*
X560062Y1916887D1*
X563909Y1920690D1*
X565810Y1924537D1*
Y1930240D1*
X556259D1*
X604956Y1955134D2*
Y1914942D1*
X578161Y1955134D1*
Y1914942D1*
X617308Y1955134D2*
Y1914942D1*
X630705D1*
X636453Y1916887D1*
X640300Y1920690D1*
X642201Y1924537D1*
X644102Y1930240D1*
Y1939835D1*
X642201Y1945583D1*
X640300Y1949386D1*
X636453Y1953233D1*
X630705Y1955134D1*
X617308D1*
X543363Y1835988D2*
X560563D1*
X566311Y1837934D1*
X568257Y1839835D1*
X570158Y1843638D1*
Y1847485D1*
X568257Y1851287D1*
X566311Y1853233D1*
X560563Y1855134D1*
X543363D1*
Y1814942D1*
X556761Y1835988D2*
X570158Y1814942D1*
X582510Y1855134D2*
X609304Y1814942D1*
Y1855134D2*
X582510Y1814942D1*
X621656Y1855134D2*
Y1814942D1*
X635053D1*
X640801Y1816887D1*
X644648Y1820690D1*
X646549Y1824537D1*
X648450Y1830240D1*
Y1839835D1*
X646549Y1845583D1*
X644648Y1849386D1*
X640801Y1853233D1*
X635053Y1855134D1*
X621656D1*
X556761Y1755134D2*
Y1714942D1*
X543363Y1755134D2*
X570158D1*
X582510D2*
X609304Y1714942D1*
Y1755134D2*
X582510Y1714942D1*
X621656Y1755134D2*
Y1714942D1*
X635053D1*
X640801Y1716887D1*
X644648Y1720690D1*
X646549Y1724537D1*
X648450Y1730240D1*
Y1739835D1*
X646549Y1745583D1*
X644648Y1749386D1*
X640801Y1753233D1*
X635053Y1755134D1*
X621656D1*
X2019108Y772704D2*
X2022910Y774606D1*
X2026757Y778452D1*
X2028658Y782255D1*
Y789904D1*
X2026757Y793751D1*
X2022910Y797553D1*
X2019108Y799499D1*
X2013360Y801400D1*
X2003765D1*
X1998061Y799499D1*
X1994214Y797553D1*
X1990412Y793751D1*
X1988466Y789904D1*
Y782255D1*
X1990412Y778452D1*
X1994214Y774606D1*
X1998061Y772704D1*
X2003765D1*
Y782255D1*
X2028658Y733558D2*
X1988466D1*
X2028658Y760353D1*
X1988466D1*
X2028658Y721207D2*
X1988466D1*
Y707810D1*
X1990412Y702062D1*
X1994214Y698215D1*
X1998061Y696314D1*
X2003765Y694412D1*
X2013360D1*
X2019108Y696314D1*
X2022910Y698215D1*
X2026757Y702062D1*
X2028658Y707810D1*
Y721207D1*
X1929883Y746917D2*
Y766018D1*
X1912683Y767919D1*
X1914585Y766018D1*
X1916530Y760270D1*
Y754566D1*
X1914585Y748818D1*
X1910782Y744971D1*
X1905034Y743070D1*
X1901232D1*
X1895483Y744971D1*
X1891637Y748818D1*
X1889735Y754566D1*
Y760270D1*
X1891637Y766018D1*
X1893582Y767919D1*
X1897385Y769865D1*
X1929927Y730719D2*
X1889735Y715420D1*
X1929927Y700122D1*
X1785775Y735975D2*
X1825967Y751318D1*
X1785775Y766617D1*
X1799172Y760869D2*
Y741723D1*
X1825923Y714073D2*
X1824021Y719777D1*
X1820219Y721723D1*
X1816372D1*
X1812570Y719777D1*
X1810624Y715975D1*
X1808723Y708325D1*
X1806821Y702577D1*
X1802975Y698775D1*
X1799172Y696874D1*
X1793424D1*
X1789622Y698775D1*
X1787676Y700676D1*
X1785775Y706424D1*
Y714073D1*
X1787676Y719777D1*
X1789622Y721723D1*
X1793424Y723624D1*
X1799172D1*
X1802975Y721723D1*
X1806821Y717876D1*
X1808723Y712172D1*
X1810624Y704523D1*
X1812570Y700676D1*
X1816372Y698775D1*
X1820219D1*
X1824021Y700676D1*
X1825923Y706424D1*
Y714073D1*
X1686406Y733613D2*
X1726598Y748956D1*
X1686406Y764255D1*
X1699804Y758507D2*
Y739361D1*
X1713201Y696368D2*
X1707453Y698314D1*
X1703606Y702116D1*
X1701705Y707864D1*
Y709766D1*
X1703606Y715514D1*
X1707453Y719316D1*
X1713201Y721262D1*
X1715102D1*
X1720850Y719316D1*
X1724653Y715514D1*
X1726554Y709766D1*
Y707864D1*
X1724653Y702116D1*
X1720850Y698314D1*
X1713201Y696368D1*
X1703606D1*
X1694056Y698314D1*
X1688308Y702116D1*
X1686406Y707864D1*
Y711667D1*
X1688308Y717415D1*
X1692154Y719316D1*
X1588441Y739519D2*
X1628633Y754861D1*
X1588441Y770160D1*
X1601838Y764412D2*
Y745267D1*
X1620939Y727167D2*
X1622885Y723321D1*
X1628589Y717572D1*
X1588441Y717573D1*
X1620939Y705221D2*
X1622885Y701374D1*
X1628589Y695626D1*
X1588441D1*
X1488435Y751979D2*
X1528627Y767322D1*
X1488435Y782621D1*
X1501832Y776873D2*
Y757727D1*
X1520933Y739628D2*
X1522879Y735781D1*
X1528582Y730033D1*
X1488435D1*
X1528582Y706186D2*
X1526681Y711934D1*
X1520933Y715780D1*
X1511383Y717682D1*
X1505635D1*
X1496084Y715781D1*
X1490336Y711934D1*
X1488435Y706186D1*
Y702383D1*
X1490336Y696635D1*
X1496084Y692833D1*
X1505635Y690887D1*
X1511383D1*
X1520933Y692833D1*
X1526681Y696635D1*
X1528582Y702383D1*
Y706186D1*
X1520933Y692833D2*
X1496084Y715781D1*
X1388428Y753574D2*
X1428620Y768917D1*
X1388428Y784215D1*
X1401826Y778467D2*
Y759322D1*
X1420927Y741222D2*
X1422872Y737376D1*
X1428576Y731628D1*
X1388428D1*
X1419026Y717331D2*
X1420927D1*
X1424774Y715429D1*
X1426675Y713528D1*
X1428576Y709681D1*
Y702032D1*
X1426675Y698230D1*
X1424774Y696328D1*
X1420927Y694383D1*
X1417124D1*
X1413278Y696328D1*
X1407574Y700131D1*
X1388428Y719276D1*
Y692482D1*
X1328614Y763900D2*
X1288422D1*
Y750503D1*
X1290368Y744755D1*
X1294170Y740908D1*
X1298017Y739007D1*
X1303721Y737106D1*
X1313315D1*
X1319064Y739007D1*
X1322866Y740908D1*
X1326713Y744755D1*
X1328614Y750503D1*
Y763900D1*
X1288422Y717105D2*
X1328570Y697960D1*
Y724754D1*
X1228608Y760062D2*
X1188416D1*
Y746664D1*
X1190361Y740916D1*
X1194164Y737070D1*
X1198011Y735168D1*
X1203714Y733267D1*
X1213309D1*
X1219057Y735168D1*
X1222860Y737070D1*
X1226707Y740916D1*
X1228608Y746664D1*
Y760062D1*
X1222860Y697968D2*
X1226662Y699869D1*
X1228564Y705617D1*
Y709420D1*
X1226662Y715168D1*
X1220914Y719014D1*
X1211364Y720916D1*
X1201813D1*
X1194164Y719014D1*
X1190317Y715168D1*
X1188416Y709420D1*
Y707518D1*
X1190317Y701815D1*
X1194164Y697968D1*
X1199912Y696066D1*
X1201813D1*
X1207561Y697968D1*
X1211364Y701814D1*
X1213265Y707518D1*
Y709420D1*
X1211364Y715168D1*
X1207561Y719014D1*
X1201813Y720916D1*
X1128602Y761597D2*
X1088410D1*
X1088409Y748200D1*
X1090355Y742452D1*
X1094158Y738605D1*
X1098004Y736704D1*
X1103708Y734802D1*
X1113303D1*
X1119051Y736704D1*
X1122853Y738605D1*
X1126700Y742452D1*
X1128602Y748200D1*
Y761597D1*
X1128557Y699503D2*
Y718604D1*
X1111357Y720506D1*
X1113259Y718604D1*
X1115204Y712856D1*
Y707152D1*
X1113259Y701404D1*
X1109456Y697558D1*
X1103708Y695656D1*
X1099906D1*
X1094158Y697558D1*
X1090311Y701404D1*
X1088410Y707153D1*
Y712856D1*
X1090311Y718604D1*
X1092256Y720506D1*
X1096059Y722451D1*
X1028595Y766321D2*
X988403D1*
Y752924D1*
X990349Y747176D1*
X994151Y743329D1*
X997998Y741428D1*
X1003702Y739527D1*
X1013297D1*
X1019045Y741428D1*
X1022847Y743329D1*
X1026694Y747176D1*
X1028595Y752924D1*
Y766321D1*
X988403Y708030D2*
X1028551D1*
X1001801Y727175D1*
Y698480D1*
X928589Y769865D2*
X888397D1*
Y756467D1*
X890342Y750719D1*
X894145Y746873D1*
X897992Y744971D1*
X903695Y743070D1*
X913290D1*
X919038Y744971D1*
X922841Y746873D1*
X926688Y750719D1*
X928589Y756467D1*
Y769865D1*
X928545Y726872D2*
Y705870D1*
X913246Y717321D1*
Y711573D1*
X911345Y707771D1*
X909444Y705870D1*
X903696Y703924D1*
X899893D1*
X894145Y705870D1*
X890298Y709672D1*
X888397Y715420D1*
Y721168D1*
X890298Y726872D1*
X892244Y728773D1*
X896046Y730719D1*
M02*
