%TF.GenerationSoftware,KiCad,Pcbnew,8.0.9*%
%TF.CreationDate,2025-04-05T23:41:59-05:00*%
%TF.ProjectId,Atari-SIO-Socket-Assembly-Jig,41746172-692d-4534-994f-2d536f636b65,rev?*%
%TF.SameCoordinates,Original*%
%TF.FileFunction,Legend,Top*%
%TF.FilePolarity,Positive*%
%FSLAX46Y46*%
G04 Gerber Fmt 4.6, Leading zero omitted, Abs format (unit mm)*
G04 Created by KiCad (PCBNEW 8.0.9) date 2025-04-05 23:41:59*
%MOMM*%
%LPD*%
G01*
G04 APERTURE LIST*
%ADD10C,0.150000*%
G04 APERTURE END LIST*
D10*
X131861160Y-69418200D02*
X132004017Y-69465819D01*
X132004017Y-69465819D02*
X132242112Y-69465819D01*
X132242112Y-69465819D02*
X132337350Y-69418200D01*
X132337350Y-69418200D02*
X132384969Y-69370580D01*
X132384969Y-69370580D02*
X132432588Y-69275342D01*
X132432588Y-69275342D02*
X132432588Y-69180104D01*
X132432588Y-69180104D02*
X132384969Y-69084866D01*
X132384969Y-69084866D02*
X132337350Y-69037247D01*
X132337350Y-69037247D02*
X132242112Y-68989628D01*
X132242112Y-68989628D02*
X132051636Y-68942009D01*
X132051636Y-68942009D02*
X131956398Y-68894390D01*
X131956398Y-68894390D02*
X131908779Y-68846771D01*
X131908779Y-68846771D02*
X131861160Y-68751533D01*
X131861160Y-68751533D02*
X131861160Y-68656295D01*
X131861160Y-68656295D02*
X131908779Y-68561057D01*
X131908779Y-68561057D02*
X131956398Y-68513438D01*
X131956398Y-68513438D02*
X132051636Y-68465819D01*
X132051636Y-68465819D02*
X132289731Y-68465819D01*
X132289731Y-68465819D02*
X132432588Y-68513438D01*
X132861160Y-69465819D02*
X132861160Y-68465819D01*
X133527826Y-68465819D02*
X133718302Y-68465819D01*
X133718302Y-68465819D02*
X133813540Y-68513438D01*
X133813540Y-68513438D02*
X133908778Y-68608676D01*
X133908778Y-68608676D02*
X133956397Y-68799152D01*
X133956397Y-68799152D02*
X133956397Y-69132485D01*
X133956397Y-69132485D02*
X133908778Y-69322961D01*
X133908778Y-69322961D02*
X133813540Y-69418200D01*
X133813540Y-69418200D02*
X133718302Y-69465819D01*
X133718302Y-69465819D02*
X133527826Y-69465819D01*
X133527826Y-69465819D02*
X133432588Y-69418200D01*
X133432588Y-69418200D02*
X133337350Y-69322961D01*
X133337350Y-69322961D02*
X133289731Y-69132485D01*
X133289731Y-69132485D02*
X133289731Y-68799152D01*
X133289731Y-68799152D02*
X133337350Y-68608676D01*
X133337350Y-68608676D02*
X133432588Y-68513438D01*
X133432588Y-68513438D02*
X133527826Y-68465819D01*
X135432588Y-68465819D02*
X135432588Y-69180104D01*
X135432588Y-69180104D02*
X135384969Y-69322961D01*
X135384969Y-69322961D02*
X135289731Y-69418200D01*
X135289731Y-69418200D02*
X135146874Y-69465819D01*
X135146874Y-69465819D02*
X135051636Y-69465819D01*
X136337350Y-69465819D02*
X136337350Y-68942009D01*
X136337350Y-68942009D02*
X136289731Y-68846771D01*
X136289731Y-68846771D02*
X136194493Y-68799152D01*
X136194493Y-68799152D02*
X136004017Y-68799152D01*
X136004017Y-68799152D02*
X135908779Y-68846771D01*
X136337350Y-69418200D02*
X136242112Y-69465819D01*
X136242112Y-69465819D02*
X136004017Y-69465819D01*
X136004017Y-69465819D02*
X135908779Y-69418200D01*
X135908779Y-69418200D02*
X135861160Y-69322961D01*
X135861160Y-69322961D02*
X135861160Y-69227723D01*
X135861160Y-69227723D02*
X135908779Y-69132485D01*
X135908779Y-69132485D02*
X136004017Y-69084866D01*
X136004017Y-69084866D02*
X136242112Y-69084866D01*
X136242112Y-69084866D02*
X136337350Y-69037247D01*
X137242112Y-69418200D02*
X137146874Y-69465819D01*
X137146874Y-69465819D02*
X136956398Y-69465819D01*
X136956398Y-69465819D02*
X136861160Y-69418200D01*
X136861160Y-69418200D02*
X136813541Y-69370580D01*
X136813541Y-69370580D02*
X136765922Y-69275342D01*
X136765922Y-69275342D02*
X136765922Y-68989628D01*
X136765922Y-68989628D02*
X136813541Y-68894390D01*
X136813541Y-68894390D02*
X136861160Y-68846771D01*
X136861160Y-68846771D02*
X136956398Y-68799152D01*
X136956398Y-68799152D02*
X137146874Y-68799152D01*
X137146874Y-68799152D02*
X137242112Y-68846771D01*
X137670684Y-69465819D02*
X137670684Y-68465819D01*
X137765922Y-69084866D02*
X138051636Y-69465819D01*
X138051636Y-68799152D02*
X137670684Y-69180104D01*
X139194494Y-69180104D02*
X139670684Y-69180104D01*
X139099256Y-69465819D02*
X139432589Y-68465819D01*
X139432589Y-68465819D02*
X139765922Y-69465819D01*
X140051637Y-69418200D02*
X140146875Y-69465819D01*
X140146875Y-69465819D02*
X140337351Y-69465819D01*
X140337351Y-69465819D02*
X140432589Y-69418200D01*
X140432589Y-69418200D02*
X140480208Y-69322961D01*
X140480208Y-69322961D02*
X140480208Y-69275342D01*
X140480208Y-69275342D02*
X140432589Y-69180104D01*
X140432589Y-69180104D02*
X140337351Y-69132485D01*
X140337351Y-69132485D02*
X140194494Y-69132485D01*
X140194494Y-69132485D02*
X140099256Y-69084866D01*
X140099256Y-69084866D02*
X140051637Y-68989628D01*
X140051637Y-68989628D02*
X140051637Y-68942009D01*
X140051637Y-68942009D02*
X140099256Y-68846771D01*
X140099256Y-68846771D02*
X140194494Y-68799152D01*
X140194494Y-68799152D02*
X140337351Y-68799152D01*
X140337351Y-68799152D02*
X140432589Y-68846771D01*
X140861161Y-69418200D02*
X140956399Y-69465819D01*
X140956399Y-69465819D02*
X141146875Y-69465819D01*
X141146875Y-69465819D02*
X141242113Y-69418200D01*
X141242113Y-69418200D02*
X141289732Y-69322961D01*
X141289732Y-69322961D02*
X141289732Y-69275342D01*
X141289732Y-69275342D02*
X141242113Y-69180104D01*
X141242113Y-69180104D02*
X141146875Y-69132485D01*
X141146875Y-69132485D02*
X141004018Y-69132485D01*
X141004018Y-69132485D02*
X140908780Y-69084866D01*
X140908780Y-69084866D02*
X140861161Y-68989628D01*
X140861161Y-68989628D02*
X140861161Y-68942009D01*
X140861161Y-68942009D02*
X140908780Y-68846771D01*
X140908780Y-68846771D02*
X141004018Y-68799152D01*
X141004018Y-68799152D02*
X141146875Y-68799152D01*
X141146875Y-68799152D02*
X141242113Y-68846771D01*
X142099256Y-69418200D02*
X142004018Y-69465819D01*
X142004018Y-69465819D02*
X141813542Y-69465819D01*
X141813542Y-69465819D02*
X141718304Y-69418200D01*
X141718304Y-69418200D02*
X141670685Y-69322961D01*
X141670685Y-69322961D02*
X141670685Y-68942009D01*
X141670685Y-68942009D02*
X141718304Y-68846771D01*
X141718304Y-68846771D02*
X141813542Y-68799152D01*
X141813542Y-68799152D02*
X142004018Y-68799152D01*
X142004018Y-68799152D02*
X142099256Y-68846771D01*
X142099256Y-68846771D02*
X142146875Y-68942009D01*
X142146875Y-68942009D02*
X142146875Y-69037247D01*
X142146875Y-69037247D02*
X141670685Y-69132485D01*
X142575447Y-69465819D02*
X142575447Y-68799152D01*
X142575447Y-68894390D02*
X142623066Y-68846771D01*
X142623066Y-68846771D02*
X142718304Y-68799152D01*
X142718304Y-68799152D02*
X142861161Y-68799152D01*
X142861161Y-68799152D02*
X142956399Y-68846771D01*
X142956399Y-68846771D02*
X143004018Y-68942009D01*
X143004018Y-68942009D02*
X143004018Y-69465819D01*
X143004018Y-68942009D02*
X143051637Y-68846771D01*
X143051637Y-68846771D02*
X143146875Y-68799152D01*
X143146875Y-68799152D02*
X143289732Y-68799152D01*
X143289732Y-68799152D02*
X143384971Y-68846771D01*
X143384971Y-68846771D02*
X143432590Y-68942009D01*
X143432590Y-68942009D02*
X143432590Y-69465819D01*
X143908780Y-69465819D02*
X143908780Y-68465819D01*
X143908780Y-68846771D02*
X144004018Y-68799152D01*
X144004018Y-68799152D02*
X144194494Y-68799152D01*
X144194494Y-68799152D02*
X144289732Y-68846771D01*
X144289732Y-68846771D02*
X144337351Y-68894390D01*
X144337351Y-68894390D02*
X144384970Y-68989628D01*
X144384970Y-68989628D02*
X144384970Y-69275342D01*
X144384970Y-69275342D02*
X144337351Y-69370580D01*
X144337351Y-69370580D02*
X144289732Y-69418200D01*
X144289732Y-69418200D02*
X144194494Y-69465819D01*
X144194494Y-69465819D02*
X144004018Y-69465819D01*
X144004018Y-69465819D02*
X143908780Y-69418200D01*
X144956399Y-69465819D02*
X144861161Y-69418200D01*
X144861161Y-69418200D02*
X144813542Y-69322961D01*
X144813542Y-69322961D02*
X144813542Y-68465819D01*
X145242114Y-68799152D02*
X145480209Y-69465819D01*
X145718304Y-68799152D02*
X145480209Y-69465819D01*
X145480209Y-69465819D02*
X145384971Y-69703914D01*
X145384971Y-69703914D02*
X145337352Y-69751533D01*
X145337352Y-69751533D02*
X145242114Y-69799152D01*
X147146876Y-68465819D02*
X147146876Y-69180104D01*
X147146876Y-69180104D02*
X147099257Y-69322961D01*
X147099257Y-69322961D02*
X147004019Y-69418200D01*
X147004019Y-69418200D02*
X146861162Y-69465819D01*
X146861162Y-69465819D02*
X146765924Y-69465819D01*
X147623067Y-69465819D02*
X147623067Y-68799152D01*
X147623067Y-68465819D02*
X147575448Y-68513438D01*
X147575448Y-68513438D02*
X147623067Y-68561057D01*
X147623067Y-68561057D02*
X147670686Y-68513438D01*
X147670686Y-68513438D02*
X147623067Y-68465819D01*
X147623067Y-68465819D02*
X147623067Y-68561057D01*
X148527828Y-68799152D02*
X148527828Y-69608676D01*
X148527828Y-69608676D02*
X148480209Y-69703914D01*
X148480209Y-69703914D02*
X148432590Y-69751533D01*
X148432590Y-69751533D02*
X148337352Y-69799152D01*
X148337352Y-69799152D02*
X148194495Y-69799152D01*
X148194495Y-69799152D02*
X148099257Y-69751533D01*
X148527828Y-69418200D02*
X148432590Y-69465819D01*
X148432590Y-69465819D02*
X148242114Y-69465819D01*
X148242114Y-69465819D02*
X148146876Y-69418200D01*
X148146876Y-69418200D02*
X148099257Y-69370580D01*
X148099257Y-69370580D02*
X148051638Y-69275342D01*
X148051638Y-69275342D02*
X148051638Y-68989628D01*
X148051638Y-68989628D02*
X148099257Y-68894390D01*
X148099257Y-68894390D02*
X148146876Y-68846771D01*
X148146876Y-68846771D02*
X148242114Y-68799152D01*
X148242114Y-68799152D02*
X148432590Y-68799152D01*
X148432590Y-68799152D02*
X148527828Y-68846771D01*
M02*
