M48
; DRILL file {KiCad 8.0.9} date 2025-04-15T00:10:32-0500
; FORMAT={-:-/ absolute / inch / decimal}
; #@! TF.CreationDate,2025-04-15T00:10:32-05:00
; #@! TF.GenerationSoftware,Kicad,Pcbnew,8.0.9
; #@! TF.FileFunction,MixedPlating,1,2
FMAT,2
INCH
; #@! TA.AperFunction,Plated,PTH,ViaDrill
T1C0.0157
; #@! TA.AperFunction,Plated,PTH,ComponentDrill
T2C0.0315
; #@! TA.AperFunction,Plated,PTH,ComponentDrill
T3C0.0354
; #@! TA.AperFunction,Plated,PTH,ComponentDrill
T4C0.0394
; #@! TA.AperFunction,Plated,PTH,ComponentDrill
T5C0.0402
; #@! TA.AperFunction,Plated,PTH,ComponentDrill
T6C0.0433
; #@! TA.AperFunction,Plated,PTH,ComponentDrill
T7C0.1260
; #@! TA.AperFunction,NonPlated,NPTH,ComponentDrill
T8C0.0354
; #@! TA.AperFunction,NonPlated,NPTH,ComponentDrill
T9C0.1024
; #@! TA.AperFunction,NonPlated,NPTH,ComponentDrill
T10C0.1063
%
G90
G05
T1
X4.145Y-3.78
X4.18Y-3.84
X4.385Y-3.125
X4.425Y-3.48
X4.425Y-3.67
X4.46Y-3.07
X4.465Y-2.815
X4.555Y-2.92
X4.555Y-3.715
X4.605Y-2.99
X4.605Y-3.615
X4.635Y-3.34
X4.64Y-2.81
X4.675Y-2.885
X4.6765Y-3.41
X4.7Y-2.69
X4.705Y-3.76
X4.78Y-2.84
X4.85Y-3.84
X5.07Y-2.49
X5.135Y-2.64
X5.155Y-3.19
X5.225Y-3.2
X5.2898Y-3.1652
X5.32Y-2.54
X5.32Y-3.14
X5.35Y-3.02
X5.395Y-3.55
X5.465Y-2.54
X5.61Y-2.8
X5.65Y-2.605
X5.685Y-2.395
X5.8Y-2.705
X5.83Y-3.175
X5.86Y-3.6
X5.875Y-2.75
X5.915Y-2.9228
X5.915Y-3.0
X5.9171Y-3.915
X5.955Y-3.11
X5.96Y-3.915
X5.995Y-2.7
X6.005Y-3.915
X6.04Y-3.0
X6.05Y-3.215
X6.09Y-3.34
X6.16Y-3.38
X6.18Y-3.915
X6.185Y-2.65
X6.19Y-3.265
X6.215Y-3.04
X6.2202Y-3.9148
X6.25Y-3.62
X6.265Y-3.915
X6.495Y-2.9228
X6.5Y-3.425
X6.605Y-2.765
X6.65Y-3.25
X6.655Y-3.15
X6.685Y-3.045
X6.825Y-2.8
X6.875Y-3.595
X6.92Y-3.275
T2
X5.105Y-4.1116
X5.105Y-4.3084
X5.22Y-3.07
X5.22Y-3.2669
X5.24Y-3.63
X5.24Y-3.73
X5.24Y-3.83
X5.24Y-3.93
X5.24Y-4.03
X5.24Y-4.13
X5.24Y-4.23
X5.245Y-2.34
X5.245Y-2.44
X5.245Y-2.54
X5.245Y-2.64
X5.245Y-2.74
X5.245Y-2.84
X5.245Y-2.94
X5.4816Y-3.27
X5.54Y-3.63
X5.54Y-3.73
X5.54Y-3.83
X5.54Y-3.93
X5.54Y-4.03
X5.54Y-4.13
X5.54Y-4.23
X5.545Y-2.34
X5.545Y-2.44
X5.545Y-2.54
X5.545Y-2.64
X5.545Y-2.74
X5.545Y-2.84
X5.545Y-2.94
X5.58Y-3.27
X5.86Y-3.115
X5.875Y-2.55
X5.875Y-2.85
X5.955Y-3.24
X5.955Y-3.54
X6.0Y-2.55
X6.0Y-2.85
X6.0569Y-3.115
X6.125Y-2.55
X6.125Y-2.85
X6.2281Y-3.525
X6.25Y-2.55
X6.25Y-2.85
X6.275Y-3.0
X6.275Y-3.12
X6.275Y-3.3
X6.375Y-2.55
X6.375Y-2.85
X6.425Y-3.525
X6.5Y-2.55
X6.5Y-2.85
X6.575Y-3.0
X6.575Y-3.12
X6.575Y-3.3
X6.625Y-3.45
X6.625Y-3.55
X6.625Y-3.65
X6.625Y-3.75
X6.625Y-3.85
X6.625Y-3.95
X6.625Y-4.05
X6.625Y-4.15
X6.625Y-4.25
X6.625Y-4.35
T3
X4.7756Y-2.9925
X4.7756Y-3.1325
X4.7756Y-3.2725
X4.7756Y-3.4125
X4.7756Y-3.5525
X4.7756Y-3.6925
X4.8968Y-2.9225
X4.8968Y-3.0625
X4.8968Y-3.2025
X4.8968Y-3.3425
X4.8968Y-3.4825
X4.8968Y-3.6225
X4.8968Y-3.7625
X6.9636Y-2.7634
X6.9636Y-2.8634
X6.9636Y-3.075
X6.9636Y-3.175
X6.9636Y-3.4
X6.9636Y-3.5
T4
X4.23Y-3.0143
X4.23Y-3.1233
X4.23Y-3.2324
X4.23Y-3.3414
X4.23Y-3.4505
X4.23Y-3.5595
X4.23Y-3.6686
X4.3418Y-2.9597
X4.3418Y-3.0688
X4.3418Y-3.1778
X4.3418Y-3.2869
X4.3418Y-3.3959
X4.3418Y-3.505
X4.3418Y-3.6141
X4.3418Y-3.7231
X5.925Y-3.7548
X6.025Y-3.7548
X6.125Y-3.7548
X6.225Y-3.7548
X6.325Y-3.7548
X6.425Y-3.7548
X6.875Y-2.322
X6.875Y-2.578
X6.875Y-3.6791
X6.875Y-3.935
X6.875Y-4.1
X6.875Y-4.3559
X6.9636Y-3.76
X6.9636Y-3.86
X6.965Y-2.4
X6.965Y-2.5
X6.965Y-4.18
X6.965Y-4.28
X7.0522Y-2.322
X7.0522Y-2.578
X7.0522Y-3.6791
X7.0522Y-3.935
X7.0522Y-4.1
X7.0522Y-4.3559
T5
X5.75Y-2.5504
X5.75Y-2.6504
X5.75Y-2.7504
X5.75Y-2.8504
X5.75Y-2.9504
X5.75Y-3.0504
X5.75Y-3.1504
X5.75Y-3.2504
X5.75Y-3.3504
X5.75Y-3.4504
X5.75Y-3.5504
X5.75Y-3.6504
X5.75Y-3.7504
X5.75Y-3.8504
X5.75Y-3.9504
X5.75Y-4.0504
X5.75Y-4.1504
X5.75Y-4.2504
X5.75Y-4.3504
X6.75Y-2.5504
X6.75Y-2.6504
X6.75Y-2.7504
X6.75Y-2.8504
X6.75Y-2.9504
X6.75Y-3.0504
X6.75Y-3.1504
X6.75Y-3.2504
X6.75Y-3.3504
X6.75Y-3.4504
X6.75Y-3.5504
X6.75Y-3.6504
X6.75Y-3.7504
X6.75Y-3.8504
X6.75Y-3.9504
X6.75Y-4.0504
X6.75Y-4.1504
X6.75Y-4.2504
X6.75Y-4.3504
T6
X5.2Y-3.49
X5.6Y-3.49
T7
X4.33Y-2.6859
X4.33Y-3.9969
T8
X5.9801Y-4.2784
X6.2951Y-4.2784
T9
X4.4718Y-2.5675
X4.4718Y-4.1175
T10
X4.22Y-2.37
X4.22Y-4.315
T4
G00X5.0033Y-2.7425
M15
G01X4.9797Y-2.7425
M16
G05
G00X5.0033Y-2.8425
M15
G01X4.9797Y-2.8425
M16
G05
G00X5.0033Y-2.9425
M15
G01X4.9797Y-2.9425
M16
G05
G00X5.0033Y-3.0425
M15
G01X4.9797Y-3.0425
M16
G05
G00X5.0033Y-3.1425
M15
G01X4.9797Y-3.1425
M16
G05
G00X5.0033Y-3.2425
M15
G01X4.9797Y-3.2425
M16
G05
G00X5.0033Y-3.3425
M15
G01X4.9797Y-3.3425
M16
G05
G00X5.0033Y-3.4425
M15
G01X4.9797Y-3.4425
M16
G05
G00X5.0033Y-3.5425
M15
G01X4.9797Y-3.5425
M16
G05
G00X5.0033Y-3.6425
M15
G01X4.9797Y-3.6425
M16
G05
G00X5.0033Y-3.7425
M15
G01X4.9797Y-3.7425
M16
G05
G00X5.0033Y-3.8425
M15
G01X4.9797Y-3.8425
M16
G05
G00X5.0033Y-3.9425
M15
G01X4.9797Y-3.9425
M16
G05
M30
