%TF.GenerationSoftware,KiCad,Pcbnew,8.0.9*%
%TF.CreationDate,2025-03-31T15:03:07-05:00*%
%TF.ProjectId,Atari-SIO-Socket,41746172-692d-4534-994f-2d536f636b65,rev?*%
%TF.SameCoordinates,Original*%
%TF.FileFunction,Legend,Top*%
%TF.FilePolarity,Positive*%
%FSLAX46Y46*%
G04 Gerber Fmt 4.6, Leading zero omitted, Abs format (unit mm)*
G04 Created by KiCad (PCBNEW 8.0.9) date 2025-03-31 15:03:07*
%MOMM*%
%LPD*%
G01*
G04 APERTURE LIST*
%ADD10C,0.150000*%
G04 APERTURE END LIST*
D10*
X142017762Y-71688390D02*
X141922524Y-71640771D01*
X141922524Y-71640771D02*
X141874905Y-71593152D01*
X141874905Y-71593152D02*
X141827286Y-71497914D01*
X141827286Y-71497914D02*
X141827286Y-71450295D01*
X141827286Y-71450295D02*
X141874905Y-71355057D01*
X141874905Y-71355057D02*
X141922524Y-71307438D01*
X141922524Y-71307438D02*
X142017762Y-71259819D01*
X142017762Y-71259819D02*
X142208238Y-71259819D01*
X142208238Y-71259819D02*
X142303476Y-71307438D01*
X142303476Y-71307438D02*
X142351095Y-71355057D01*
X142351095Y-71355057D02*
X142398714Y-71450295D01*
X142398714Y-71450295D02*
X142398714Y-71497914D01*
X142398714Y-71497914D02*
X142351095Y-71593152D01*
X142351095Y-71593152D02*
X142303476Y-71640771D01*
X142303476Y-71640771D02*
X142208238Y-71688390D01*
X142208238Y-71688390D02*
X142017762Y-71688390D01*
X142017762Y-71688390D02*
X141922524Y-71736009D01*
X141922524Y-71736009D02*
X141874905Y-71783628D01*
X141874905Y-71783628D02*
X141827286Y-71878866D01*
X141827286Y-71878866D02*
X141827286Y-72069342D01*
X141827286Y-72069342D02*
X141874905Y-72164580D01*
X141874905Y-72164580D02*
X141922524Y-72212200D01*
X141922524Y-72212200D02*
X142017762Y-72259819D01*
X142017762Y-72259819D02*
X142208238Y-72259819D01*
X142208238Y-72259819D02*
X142303476Y-72212200D01*
X142303476Y-72212200D02*
X142351095Y-72164580D01*
X142351095Y-72164580D02*
X142398714Y-72069342D01*
X142398714Y-72069342D02*
X142398714Y-71878866D01*
X142398714Y-71878866D02*
X142351095Y-71783628D01*
X142351095Y-71783628D02*
X142303476Y-71736009D01*
X142303476Y-71736009D02*
X142208238Y-71688390D01*
X148907523Y-72259819D02*
X148336095Y-72259819D01*
X148621809Y-72259819D02*
X148621809Y-71259819D01*
X148621809Y-71259819D02*
X148526571Y-71402676D01*
X148526571Y-71402676D02*
X148431333Y-71497914D01*
X148431333Y-71497914D02*
X148336095Y-71545533D01*
X149288476Y-71355057D02*
X149336095Y-71307438D01*
X149336095Y-71307438D02*
X149431333Y-71259819D01*
X149431333Y-71259819D02*
X149669428Y-71259819D01*
X149669428Y-71259819D02*
X149764666Y-71307438D01*
X149764666Y-71307438D02*
X149812285Y-71355057D01*
X149812285Y-71355057D02*
X149859904Y-71450295D01*
X149859904Y-71450295D02*
X149859904Y-71545533D01*
X149859904Y-71545533D02*
X149812285Y-71688390D01*
X149812285Y-71688390D02*
X149240857Y-72259819D01*
X149240857Y-72259819D02*
X149859904Y-72259819D01*
X129825714Y-79498819D02*
X129254286Y-79498819D01*
X129540000Y-79498819D02*
X129540000Y-78498819D01*
X129540000Y-78498819D02*
X129444762Y-78641676D01*
X129444762Y-78641676D02*
X129349524Y-78736914D01*
X129349524Y-78736914D02*
X129254286Y-78784533D01*
X150812523Y-79498819D02*
X150241095Y-79498819D01*
X150526809Y-79498819D02*
X150526809Y-78498819D01*
X150526809Y-78498819D02*
X150431571Y-78641676D01*
X150431571Y-78641676D02*
X150336333Y-78736914D01*
X150336333Y-78736914D02*
X150241095Y-78784533D01*
X151145857Y-78498819D02*
X151764904Y-78498819D01*
X151764904Y-78498819D02*
X151431571Y-78879771D01*
X151431571Y-78879771D02*
X151574428Y-78879771D01*
X151574428Y-78879771D02*
X151669666Y-78927390D01*
X151669666Y-78927390D02*
X151717285Y-78975009D01*
X151717285Y-78975009D02*
X151764904Y-79070247D01*
X151764904Y-79070247D02*
X151764904Y-79308342D01*
X151764904Y-79308342D02*
X151717285Y-79403580D01*
X151717285Y-79403580D02*
X151669666Y-79451200D01*
X151669666Y-79451200D02*
X151574428Y-79498819D01*
X151574428Y-79498819D02*
X151288714Y-79498819D01*
X151288714Y-79498819D02*
X151193476Y-79451200D01*
X151193476Y-79451200D02*
X151145857Y-79403580D01*
X138620476Y-71259819D02*
X138430000Y-71259819D01*
X138430000Y-71259819D02*
X138334762Y-71307438D01*
X138334762Y-71307438D02*
X138287143Y-71355057D01*
X138287143Y-71355057D02*
X138191905Y-71497914D01*
X138191905Y-71497914D02*
X138144286Y-71688390D01*
X138144286Y-71688390D02*
X138144286Y-72069342D01*
X138144286Y-72069342D02*
X138191905Y-72164580D01*
X138191905Y-72164580D02*
X138239524Y-72212200D01*
X138239524Y-72212200D02*
X138334762Y-72259819D01*
X138334762Y-72259819D02*
X138525238Y-72259819D01*
X138525238Y-72259819D02*
X138620476Y-72212200D01*
X138620476Y-72212200D02*
X138668095Y-72164580D01*
X138668095Y-72164580D02*
X138715714Y-72069342D01*
X138715714Y-72069342D02*
X138715714Y-71831247D01*
X138715714Y-71831247D02*
X138668095Y-71736009D01*
X138668095Y-71736009D02*
X138620476Y-71688390D01*
X138620476Y-71688390D02*
X138525238Y-71640771D01*
X138525238Y-71640771D02*
X138334762Y-71640771D01*
X138334762Y-71640771D02*
X138239524Y-71688390D01*
X138239524Y-71688390D02*
X138191905Y-71736009D01*
X138191905Y-71736009D02*
X138144286Y-71831247D01*
X145351523Y-72259819D02*
X144780095Y-72259819D01*
X145065809Y-72259819D02*
X145065809Y-71259819D01*
X145065809Y-71259819D02*
X144970571Y-71402676D01*
X144970571Y-71402676D02*
X144875333Y-71497914D01*
X144875333Y-71497914D02*
X144780095Y-71545533D01*
X145970571Y-71259819D02*
X146065809Y-71259819D01*
X146065809Y-71259819D02*
X146161047Y-71307438D01*
X146161047Y-71307438D02*
X146208666Y-71355057D01*
X146208666Y-71355057D02*
X146256285Y-71450295D01*
X146256285Y-71450295D02*
X146303904Y-71640771D01*
X146303904Y-71640771D02*
X146303904Y-71878866D01*
X146303904Y-71878866D02*
X146256285Y-72069342D01*
X146256285Y-72069342D02*
X146208666Y-72164580D01*
X146208666Y-72164580D02*
X146161047Y-72212200D01*
X146161047Y-72212200D02*
X146065809Y-72259819D01*
X146065809Y-72259819D02*
X145970571Y-72259819D01*
X145970571Y-72259819D02*
X145875333Y-72212200D01*
X145875333Y-72212200D02*
X145827714Y-72164580D01*
X145827714Y-72164580D02*
X145780095Y-72069342D01*
X145780095Y-72069342D02*
X145732476Y-71878866D01*
X145732476Y-71878866D02*
X145732476Y-71640771D01*
X145732476Y-71640771D02*
X145780095Y-71450295D01*
X145780095Y-71450295D02*
X145827714Y-71355057D01*
X145827714Y-71355057D02*
X145875333Y-71307438D01*
X145875333Y-71307438D02*
X145970571Y-71259819D01*
X139874667Y-78371819D02*
X140541333Y-78371819D01*
X140541333Y-78371819D02*
X140112762Y-79371819D01*
X132889667Y-78498819D02*
X133508714Y-78498819D01*
X133508714Y-78498819D02*
X133175381Y-78879771D01*
X133175381Y-78879771D02*
X133318238Y-78879771D01*
X133318238Y-78879771D02*
X133413476Y-78927390D01*
X133413476Y-78927390D02*
X133461095Y-78975009D01*
X133461095Y-78975009D02*
X133508714Y-79070247D01*
X133508714Y-79070247D02*
X133508714Y-79308342D01*
X133508714Y-79308342D02*
X133461095Y-79403580D01*
X133461095Y-79403580D02*
X133413476Y-79451200D01*
X133413476Y-79451200D02*
X133318238Y-79498819D01*
X133318238Y-79498819D02*
X133032524Y-79498819D01*
X133032524Y-79498819D02*
X132937286Y-79451200D01*
X132937286Y-79451200D02*
X132889667Y-79403580D01*
X143573524Y-79498819D02*
X143764000Y-79498819D01*
X143764000Y-79498819D02*
X143859238Y-79451200D01*
X143859238Y-79451200D02*
X143906857Y-79403580D01*
X143906857Y-79403580D02*
X144002095Y-79260723D01*
X144002095Y-79260723D02*
X144049714Y-79070247D01*
X144049714Y-79070247D02*
X144049714Y-78689295D01*
X144049714Y-78689295D02*
X144002095Y-78594057D01*
X144002095Y-78594057D02*
X143954476Y-78546438D01*
X143954476Y-78546438D02*
X143859238Y-78498819D01*
X143859238Y-78498819D02*
X143668762Y-78498819D01*
X143668762Y-78498819D02*
X143573524Y-78546438D01*
X143573524Y-78546438D02*
X143525905Y-78594057D01*
X143525905Y-78594057D02*
X143478286Y-78689295D01*
X143478286Y-78689295D02*
X143478286Y-78927390D01*
X143478286Y-78927390D02*
X143525905Y-79022628D01*
X143525905Y-79022628D02*
X143573524Y-79070247D01*
X143573524Y-79070247D02*
X143668762Y-79117866D01*
X143668762Y-79117866D02*
X143859238Y-79117866D01*
X143859238Y-79117866D02*
X143954476Y-79070247D01*
X143954476Y-79070247D02*
X144002095Y-79022628D01*
X144002095Y-79022628D02*
X144049714Y-78927390D01*
X130787380Y-67433819D02*
X130787380Y-66433819D01*
X131263570Y-66767152D02*
X131263570Y-67433819D01*
X131263570Y-66862390D02*
X131311189Y-66814771D01*
X131311189Y-66814771D02*
X131406427Y-66767152D01*
X131406427Y-66767152D02*
X131549284Y-66767152D01*
X131549284Y-66767152D02*
X131644522Y-66814771D01*
X131644522Y-66814771D02*
X131692141Y-66910009D01*
X131692141Y-66910009D02*
X131692141Y-67433819D01*
X132120713Y-67386200D02*
X132215951Y-67433819D01*
X132215951Y-67433819D02*
X132406427Y-67433819D01*
X132406427Y-67433819D02*
X132501665Y-67386200D01*
X132501665Y-67386200D02*
X132549284Y-67290961D01*
X132549284Y-67290961D02*
X132549284Y-67243342D01*
X132549284Y-67243342D02*
X132501665Y-67148104D01*
X132501665Y-67148104D02*
X132406427Y-67100485D01*
X132406427Y-67100485D02*
X132263570Y-67100485D01*
X132263570Y-67100485D02*
X132168332Y-67052866D01*
X132168332Y-67052866D02*
X132120713Y-66957628D01*
X132120713Y-66957628D02*
X132120713Y-66910009D01*
X132120713Y-66910009D02*
X132168332Y-66814771D01*
X132168332Y-66814771D02*
X132263570Y-66767152D01*
X132263570Y-66767152D02*
X132406427Y-66767152D01*
X132406427Y-66767152D02*
X132501665Y-66814771D01*
X132834999Y-66767152D02*
X133215951Y-66767152D01*
X132977856Y-66433819D02*
X132977856Y-67290961D01*
X132977856Y-67290961D02*
X133025475Y-67386200D01*
X133025475Y-67386200D02*
X133120713Y-67433819D01*
X133120713Y-67433819D02*
X133215951Y-67433819D01*
X133977856Y-67433819D02*
X133977856Y-66910009D01*
X133977856Y-66910009D02*
X133930237Y-66814771D01*
X133930237Y-66814771D02*
X133834999Y-66767152D01*
X133834999Y-66767152D02*
X133644523Y-66767152D01*
X133644523Y-66767152D02*
X133549285Y-66814771D01*
X133977856Y-67386200D02*
X133882618Y-67433819D01*
X133882618Y-67433819D02*
X133644523Y-67433819D01*
X133644523Y-67433819D02*
X133549285Y-67386200D01*
X133549285Y-67386200D02*
X133501666Y-67290961D01*
X133501666Y-67290961D02*
X133501666Y-67195723D01*
X133501666Y-67195723D02*
X133549285Y-67100485D01*
X133549285Y-67100485D02*
X133644523Y-67052866D01*
X133644523Y-67052866D02*
X133882618Y-67052866D01*
X133882618Y-67052866D02*
X133977856Y-67005247D01*
X134596904Y-67433819D02*
X134501666Y-67386200D01*
X134501666Y-67386200D02*
X134454047Y-67290961D01*
X134454047Y-67290961D02*
X134454047Y-66433819D01*
X135120714Y-67433819D02*
X135025476Y-67386200D01*
X135025476Y-67386200D02*
X134977857Y-67290961D01*
X134977857Y-67290961D02*
X134977857Y-66433819D01*
X136215953Y-67386200D02*
X136358810Y-67433819D01*
X136358810Y-67433819D02*
X136596905Y-67433819D01*
X136596905Y-67433819D02*
X136692143Y-67386200D01*
X136692143Y-67386200D02*
X136739762Y-67338580D01*
X136739762Y-67338580D02*
X136787381Y-67243342D01*
X136787381Y-67243342D02*
X136787381Y-67148104D01*
X136787381Y-67148104D02*
X136739762Y-67052866D01*
X136739762Y-67052866D02*
X136692143Y-67005247D01*
X136692143Y-67005247D02*
X136596905Y-66957628D01*
X136596905Y-66957628D02*
X136406429Y-66910009D01*
X136406429Y-66910009D02*
X136311191Y-66862390D01*
X136311191Y-66862390D02*
X136263572Y-66814771D01*
X136263572Y-66814771D02*
X136215953Y-66719533D01*
X136215953Y-66719533D02*
X136215953Y-66624295D01*
X136215953Y-66624295D02*
X136263572Y-66529057D01*
X136263572Y-66529057D02*
X136311191Y-66481438D01*
X136311191Y-66481438D02*
X136406429Y-66433819D01*
X136406429Y-66433819D02*
X136644524Y-66433819D01*
X136644524Y-66433819D02*
X136787381Y-66481438D01*
X137215953Y-67433819D02*
X137215953Y-66433819D01*
X137882619Y-66433819D02*
X138073095Y-66433819D01*
X138073095Y-66433819D02*
X138168333Y-66481438D01*
X138168333Y-66481438D02*
X138263571Y-66576676D01*
X138263571Y-66576676D02*
X138311190Y-66767152D01*
X138311190Y-66767152D02*
X138311190Y-67100485D01*
X138311190Y-67100485D02*
X138263571Y-67290961D01*
X138263571Y-67290961D02*
X138168333Y-67386200D01*
X138168333Y-67386200D02*
X138073095Y-67433819D01*
X138073095Y-67433819D02*
X137882619Y-67433819D01*
X137882619Y-67433819D02*
X137787381Y-67386200D01*
X137787381Y-67386200D02*
X137692143Y-67290961D01*
X137692143Y-67290961D02*
X137644524Y-67100485D01*
X137644524Y-67100485D02*
X137644524Y-66767152D01*
X137644524Y-66767152D02*
X137692143Y-66576676D01*
X137692143Y-66576676D02*
X137787381Y-66481438D01*
X137787381Y-66481438D02*
X137882619Y-66433819D01*
X139501667Y-67433819D02*
X139501667Y-66433819D01*
X139501667Y-66433819D02*
X139882619Y-66433819D01*
X139882619Y-66433819D02*
X139977857Y-66481438D01*
X139977857Y-66481438D02*
X140025476Y-66529057D01*
X140025476Y-66529057D02*
X140073095Y-66624295D01*
X140073095Y-66624295D02*
X140073095Y-66767152D01*
X140073095Y-66767152D02*
X140025476Y-66862390D01*
X140025476Y-66862390D02*
X139977857Y-66910009D01*
X139977857Y-66910009D02*
X139882619Y-66957628D01*
X139882619Y-66957628D02*
X139501667Y-66957628D01*
X140501667Y-67433819D02*
X140501667Y-66767152D01*
X140501667Y-66433819D02*
X140454048Y-66481438D01*
X140454048Y-66481438D02*
X140501667Y-66529057D01*
X140501667Y-66529057D02*
X140549286Y-66481438D01*
X140549286Y-66481438D02*
X140501667Y-66433819D01*
X140501667Y-66433819D02*
X140501667Y-66529057D01*
X140977857Y-66767152D02*
X140977857Y-67433819D01*
X140977857Y-66862390D02*
X141025476Y-66814771D01*
X141025476Y-66814771D02*
X141120714Y-66767152D01*
X141120714Y-66767152D02*
X141263571Y-66767152D01*
X141263571Y-66767152D02*
X141358809Y-66814771D01*
X141358809Y-66814771D02*
X141406428Y-66910009D01*
X141406428Y-66910009D02*
X141406428Y-67433819D01*
X141835000Y-67386200D02*
X141930238Y-67433819D01*
X141930238Y-67433819D02*
X142120714Y-67433819D01*
X142120714Y-67433819D02*
X142215952Y-67386200D01*
X142215952Y-67386200D02*
X142263571Y-67290961D01*
X142263571Y-67290961D02*
X142263571Y-67243342D01*
X142263571Y-67243342D02*
X142215952Y-67148104D01*
X142215952Y-67148104D02*
X142120714Y-67100485D01*
X142120714Y-67100485D02*
X141977857Y-67100485D01*
X141977857Y-67100485D02*
X141882619Y-67052866D01*
X141882619Y-67052866D02*
X141835000Y-66957628D01*
X141835000Y-66957628D02*
X141835000Y-66910009D01*
X141835000Y-66910009D02*
X141882619Y-66814771D01*
X141882619Y-66814771D02*
X141977857Y-66767152D01*
X141977857Y-66767152D02*
X142120714Y-66767152D01*
X142120714Y-66767152D02*
X142215952Y-66814771D01*
X143311191Y-66433819D02*
X143882619Y-66433819D01*
X143596905Y-67433819D02*
X143596905Y-66433819D01*
X144215953Y-67433819D02*
X144215953Y-66433819D01*
X144644524Y-67433819D02*
X144644524Y-66910009D01*
X144644524Y-66910009D02*
X144596905Y-66814771D01*
X144596905Y-66814771D02*
X144501667Y-66767152D01*
X144501667Y-66767152D02*
X144358810Y-66767152D01*
X144358810Y-66767152D02*
X144263572Y-66814771D01*
X144263572Y-66814771D02*
X144215953Y-66862390D01*
X145120715Y-67433819D02*
X145120715Y-66767152D01*
X145120715Y-66433819D02*
X145073096Y-66481438D01*
X145073096Y-66481438D02*
X145120715Y-66529057D01*
X145120715Y-66529057D02*
X145168334Y-66481438D01*
X145168334Y-66481438D02*
X145120715Y-66433819D01*
X145120715Y-66433819D02*
X145120715Y-66529057D01*
X145549286Y-67386200D02*
X145644524Y-67433819D01*
X145644524Y-67433819D02*
X145835000Y-67433819D01*
X145835000Y-67433819D02*
X145930238Y-67386200D01*
X145930238Y-67386200D02*
X145977857Y-67290961D01*
X145977857Y-67290961D02*
X145977857Y-67243342D01*
X145977857Y-67243342D02*
X145930238Y-67148104D01*
X145930238Y-67148104D02*
X145835000Y-67100485D01*
X145835000Y-67100485D02*
X145692143Y-67100485D01*
X145692143Y-67100485D02*
X145596905Y-67052866D01*
X145596905Y-67052866D02*
X145549286Y-66957628D01*
X145549286Y-66957628D02*
X145549286Y-66910009D01*
X145549286Y-66910009D02*
X145596905Y-66814771D01*
X145596905Y-66814771D02*
X145692143Y-66767152D01*
X145692143Y-66767152D02*
X145835000Y-66767152D01*
X145835000Y-66767152D02*
X145930238Y-66814771D01*
X147120715Y-67386200D02*
X147263572Y-67433819D01*
X147263572Y-67433819D02*
X147501667Y-67433819D01*
X147501667Y-67433819D02*
X147596905Y-67386200D01*
X147596905Y-67386200D02*
X147644524Y-67338580D01*
X147644524Y-67338580D02*
X147692143Y-67243342D01*
X147692143Y-67243342D02*
X147692143Y-67148104D01*
X147692143Y-67148104D02*
X147644524Y-67052866D01*
X147644524Y-67052866D02*
X147596905Y-67005247D01*
X147596905Y-67005247D02*
X147501667Y-66957628D01*
X147501667Y-66957628D02*
X147311191Y-66910009D01*
X147311191Y-66910009D02*
X147215953Y-66862390D01*
X147215953Y-66862390D02*
X147168334Y-66814771D01*
X147168334Y-66814771D02*
X147120715Y-66719533D01*
X147120715Y-66719533D02*
X147120715Y-66624295D01*
X147120715Y-66624295D02*
X147168334Y-66529057D01*
X147168334Y-66529057D02*
X147215953Y-66481438D01*
X147215953Y-66481438D02*
X147311191Y-66433819D01*
X147311191Y-66433819D02*
X147549286Y-66433819D01*
X147549286Y-66433819D02*
X147692143Y-66481438D01*
X148120715Y-67433819D02*
X148120715Y-66767152D01*
X148120715Y-66433819D02*
X148073096Y-66481438D01*
X148073096Y-66481438D02*
X148120715Y-66529057D01*
X148120715Y-66529057D02*
X148168334Y-66481438D01*
X148168334Y-66481438D02*
X148120715Y-66433819D01*
X148120715Y-66433819D02*
X148120715Y-66529057D01*
X149025476Y-67433819D02*
X149025476Y-66433819D01*
X149025476Y-67386200D02*
X148930238Y-67433819D01*
X148930238Y-67433819D02*
X148739762Y-67433819D01*
X148739762Y-67433819D02*
X148644524Y-67386200D01*
X148644524Y-67386200D02*
X148596905Y-67338580D01*
X148596905Y-67338580D02*
X148549286Y-67243342D01*
X148549286Y-67243342D02*
X148549286Y-66957628D01*
X148549286Y-66957628D02*
X148596905Y-66862390D01*
X148596905Y-66862390D02*
X148644524Y-66814771D01*
X148644524Y-66814771D02*
X148739762Y-66767152D01*
X148739762Y-66767152D02*
X148930238Y-66767152D01*
X148930238Y-66767152D02*
X149025476Y-66814771D01*
X149882619Y-67386200D02*
X149787381Y-67433819D01*
X149787381Y-67433819D02*
X149596905Y-67433819D01*
X149596905Y-67433819D02*
X149501667Y-67386200D01*
X149501667Y-67386200D02*
X149454048Y-67290961D01*
X149454048Y-67290961D02*
X149454048Y-66910009D01*
X149454048Y-66910009D02*
X149501667Y-66814771D01*
X149501667Y-66814771D02*
X149596905Y-66767152D01*
X149596905Y-66767152D02*
X149787381Y-66767152D01*
X149787381Y-66767152D02*
X149882619Y-66814771D01*
X149882619Y-66814771D02*
X149930238Y-66910009D01*
X149930238Y-66910009D02*
X149930238Y-67005247D01*
X149930238Y-67005247D02*
X149454048Y-67100485D01*
X136890095Y-78498819D02*
X136413905Y-78498819D01*
X136413905Y-78498819D02*
X136366286Y-78975009D01*
X136366286Y-78975009D02*
X136413905Y-78927390D01*
X136413905Y-78927390D02*
X136509143Y-78879771D01*
X136509143Y-78879771D02*
X136747238Y-78879771D01*
X136747238Y-78879771D02*
X136842476Y-78927390D01*
X136842476Y-78927390D02*
X136890095Y-78975009D01*
X136890095Y-78975009D02*
X136937714Y-79070247D01*
X136937714Y-79070247D02*
X136937714Y-79308342D01*
X136937714Y-79308342D02*
X136890095Y-79403580D01*
X136890095Y-79403580D02*
X136842476Y-79451200D01*
X136842476Y-79451200D02*
X136747238Y-79498819D01*
X136747238Y-79498819D02*
X136509143Y-79498819D01*
X136509143Y-79498819D02*
X136413905Y-79451200D01*
X136413905Y-79451200D02*
X136366286Y-79403580D01*
X131032286Y-71355057D02*
X131079905Y-71307438D01*
X131079905Y-71307438D02*
X131175143Y-71259819D01*
X131175143Y-71259819D02*
X131413238Y-71259819D01*
X131413238Y-71259819D02*
X131508476Y-71307438D01*
X131508476Y-71307438D02*
X131556095Y-71355057D01*
X131556095Y-71355057D02*
X131603714Y-71450295D01*
X131603714Y-71450295D02*
X131603714Y-71545533D01*
X131603714Y-71545533D02*
X131556095Y-71688390D01*
X131556095Y-71688390D02*
X130984667Y-72259819D01*
X130984667Y-72259819D02*
X131603714Y-72259819D01*
X135064476Y-71593152D02*
X135064476Y-72259819D01*
X134826381Y-71212200D02*
X134588286Y-71926485D01*
X134588286Y-71926485D02*
X135207333Y-71926485D01*
X147256523Y-79498819D02*
X146685095Y-79498819D01*
X146970809Y-79498819D02*
X146970809Y-78498819D01*
X146970809Y-78498819D02*
X146875571Y-78641676D01*
X146875571Y-78641676D02*
X146780333Y-78736914D01*
X146780333Y-78736914D02*
X146685095Y-78784533D01*
X148208904Y-79498819D02*
X147637476Y-79498819D01*
X147923190Y-79498819D02*
X147923190Y-78498819D01*
X147923190Y-78498819D02*
X147827952Y-78641676D01*
X147827952Y-78641676D02*
X147732714Y-78736914D01*
X147732714Y-78736914D02*
X147637476Y-78784533D01*
M02*
