M48
; DRILL file {KiCad 8.0.9} date 2025-03-31T15:03:09-0500
; FORMAT={-:-/ absolute / inch / decimal}
; #@! TF.CreationDate,2025-03-31T15:03:09-05:00
; #@! TF.GenerationSoftware,Kicad,Pcbnew,8.0.9
; #@! TF.FileFunction,MixedPlating,1,2
FMAT,2
INCH
; #@! TA.AperFunction,Plated,PTH,ComponentDrill
T1C0.0394
; #@! TA.AperFunction,Plated,PTH,ComponentDrill
T2C0.0453
%
G90
G05
T1
X4.9228Y-3.2189
X5.0228Y-3.2189
X5.1228Y-3.2189
X5.2228Y-3.2189
X5.3228Y-3.2189
X5.4228Y-3.2189
X5.5228Y-3.2189
X5.6228Y-3.2189
X5.7228Y-3.2189
X5.8228Y-3.2189
X5.9228Y-3.2189
X6.0228Y-3.2189
X6.1228Y-3.2189
T2
X5.1022Y-3.0291
X5.1722Y-2.9091
X5.2422Y-3.0291
X5.3122Y-2.9091
X5.3822Y-3.0291
X5.4522Y-2.9091
X5.5222Y-3.0291
X5.5922Y-2.9091
X5.6622Y-3.0291
X5.7322Y-2.9091
X5.8022Y-3.0291
X5.8722Y-2.9091
X5.9422Y-3.0291
M30
