ISO-10303-21;
HEADER;
FILE_DESCRIPTION(('STEP AP214'),'1');
FILE_NAME('1.0x15.0 PCB Pin.stp','2025-03-10T05:42:44',(' '),(' '),'Spatial InterOp 3D',' ',' ');
FILE_SCHEMA(('AUTOMOTIVE_DESIGN { 1 0 10303 214 1 1 1 1 }'));
ENDSEC;
DATA;
#1=MECHANICAL_DESIGN_GEOMETRIC_PRESENTATION_REPRESENTATION(' ',(#10,#11,#12,#13,#14,#15,#16,#17,#18,#19),#6);
#2=PRODUCT_DEFINITION_CONTEXT('',#20,'design');
#3=APPLICATION_PROTOCOL_DEFINITION('INTERNATIONAL STANDARD','automotive_design',1994,#20);
#4=PRODUCT_CATEGORY_RELATIONSHIP('NONE','NONE',#21,#22);
#5=SHAPE_DEFINITION_REPRESENTATION(#23,#24);
#6= (GEOMETRIC_REPRESENTATION_CONTEXT(3)GLOBAL_UNCERTAINTY_ASSIGNED_CONTEXT((#27))GLOBAL_UNIT_ASSIGNED_CONTEXT((#29,#30,#31))REPRESENTATION_CONTEXT('NONE','WORKSPACE'));
#10=STYLED_ITEM('',(#33),#34);
#11=STYLED_ITEM('',(#35),#36);
#12=STYLED_ITEM('',(#37),#38);
#13=STYLED_ITEM('',(#39),#40);
#14=STYLED_ITEM('',(#41),#42);
#15=STYLED_ITEM('',(#43),#44);
#16=STYLED_ITEM('',(#45),#46);
#17=STYLED_ITEM('',(#47),#48);
#18=STYLED_ITEM('',(#49),#50);
#19=STYLED_ITEM('',(#51),#52);
#20=APPLICATION_CONTEXT(' ');
#21=PRODUCT_CATEGORY('part','NONE');
#22=PRODUCT_RELATED_PRODUCT_CATEGORY('detail',' ',(#53));
#23=PRODUCT_DEFINITION_SHAPE('NONE','NONE',#54);
#24=ADVANCED_BREP_SHAPE_REPRESENTATION('Solid',(#52,#55),#6);
#27=UNCERTAINTY_MEASURE_WITH_UNIT(LENGTH_MEASURE(1.0E-08),#29,'','');
#29= (CONVERSION_BASED_UNIT('METRE',#58)LENGTH_UNIT()NAMED_UNIT(#61));
#30= (NAMED_UNIT(#63)PLANE_ANGLE_UNIT()SI_UNIT($,.RADIAN.));
#31= (NAMED_UNIT(#63)SOLID_ANGLE_UNIT()SI_UNIT($,.STERADIAN.));
#33=PRESENTATION_STYLE_ASSIGNMENT((#69));
#34=ADVANCED_FACE('1:2787',(#70,#71),#72,.T.);
#35=PRESENTATION_STYLE_ASSIGNMENT((#73));
#36=ADVANCED_FACE('1:629',(#74),#75,.F.);
#37=PRESENTATION_STYLE_ASSIGNMENT((#76));
#38=ADVANCED_FACE('1:2784',(#77,#78),#79,.F.);
#39=PRESENTATION_STYLE_ASSIGNMENT((#80));
#40=ADVANCED_FACE('1:632',(#81),#82,.T.);
#41=PRESENTATION_STYLE_ASSIGNMENT((#83));
#42=ADVANCED_FACE('1:2861',(#84,#85),#86,.T.);
#43=PRESENTATION_STYLE_ASSIGNMENT((#87));
#44=ADVANCED_FACE('1:2781',(#88,#89),#90,.T.);
#45=PRESENTATION_STYLE_ASSIGNMENT((#91));
#46=ADVANCED_FACE('1:2864',(#92,#93),#94,.T.);
#47=PRESENTATION_STYLE_ASSIGNMENT((#95));
#48=ADVANCED_FACE('1:5042',(#96,#97),#98,.T.);
#49=PRESENTATION_STYLE_ASSIGNMENT((#99));
#50=ADVANCED_FACE('1:5334',(#100,#101),#102,.T.);
#51=PRESENTATION_STYLE_ASSIGNMENT((#103));
#52=MANIFOLD_SOLID_BREP('Solid',#104);
#53=PRODUCT('Solid','','PART--DESC',(#105));
#54=PRODUCT_DEFINITION('','NONE',#106,#2);
#55=AXIS2_PLACEMENT_3D('',#107,#108,#109);
#58=LENGTH_MEASURE_WITH_UNIT(LENGTH_MEASURE(1.0),#110);
#61=DIMENSIONAL_EXPONENTS(1.0,0.0,0.0,0.0,0.0,0.0,0.0);
#63=DIMENSIONAL_EXPONENTS(0.0,0.0,0.0,0.0,0.0,0.0,0.0);
#69=SURFACE_STYLE_USAGE(.BOTH.,#111);
#70=FACE_OUTER_BOUND('',#112,.T.);
#71=FACE_OUTER_BOUND('',#113,.T.);
#72=CYLINDRICAL_SURFACE('',#114,0.000899999999999999);
#73=SURFACE_STYLE_USAGE(.BOTH.,#115);
#74=FACE_OUTER_BOUND('',#116,.T.);
#75=PLANE('',#117);
#76=SURFACE_STYLE_USAGE(.BOTH.,#118);
#77=FACE_BOUND('',#119,.T.);
#78=FACE_OUTER_BOUND('',#120,.T.);
#79=PLANE('',#121);
#80=SURFACE_STYLE_USAGE(.BOTH.,#122);
#81=FACE_OUTER_BOUND('',#123,.T.);
#82=PLANE('',#124);
#83=SURFACE_STYLE_USAGE(.BOTH.,#125);
#84=FACE_OUTER_BOUND('',#126,.T.);
#85=FACE_OUTER_BOUND('',#127,.T.);
#86=CYLINDRICAL_SURFACE('',#128,0.000499999999999999);
#87=SURFACE_STYLE_USAGE(.BOTH.,#129);
#88=FACE_BOUND('',#130,.T.);
#89=FACE_OUTER_BOUND('',#131,.T.);
#90=PLANE('',#132);
#91=SURFACE_STYLE_USAGE(.BOTH.,#133);
#92=FACE_OUTER_BOUND('',#134,.T.);
#93=FACE_OUTER_BOUND('',#135,.T.);
#94=CYLINDRICAL_SURFACE('',#136,0.000499999999999999);
#95=SURFACE_STYLE_USAGE(.BOTH.,#137);
#96=FACE_OUTER_BOUND('',#138,.T.);
#97=FACE_OUTER_BOUND('',#139,.T.);
#98=TOROIDAL_SURFACE('',#140,0.000399999999999999,0.0001);
#99=SURFACE_STYLE_USAGE(.BOTH.,#141);
#100=FACE_OUTER_BOUND('',#142,.T.);
#101=FACE_OUTER_BOUND('',#143,.T.);
#102=TOROIDAL_SURFACE('',#144,0.000399999999999999,0.0001);
#103=SURFACE_STYLE_USAGE(.BOTH.,#145);
#104=CLOSED_SHELL('',(#34,#36,#38,#40,#42,#44,#46,#48,#50));
#105=PRODUCT_CONTEXT('',#20,'mechanical');
#106=PRODUCT_DEFINITION_FORMATION_WITH_SPECIFIED_SOURCE(' ','NONE',#53,.NOT_KNOWN.);
#107=CARTESIAN_POINT('',(0.0,0.0,0.0));
#108=DIRECTION('',(0.0,0.0,1.0));
#109=DIRECTION('',(1.0,0.0,0.0));
#110= (NAMED_UNIT(#61)LENGTH_UNIT()SI_UNIT($,.METRE.));
#111=SURFACE_SIDE_STYLE('',(#147));
#112=EDGE_LOOP('',(#148));
#113=EDGE_LOOP('',(#149));
#114=AXIS2_PLACEMENT_3D('',#150,#151,#152);
#115=SURFACE_SIDE_STYLE('',(#153));
#116=EDGE_LOOP('',(#154));
#117=AXIS2_PLACEMENT_3D('',#155,#156,#157);
#118=SURFACE_SIDE_STYLE('',(#158));
#119=EDGE_LOOP('',(#159));
#120=EDGE_LOOP('',(#160));
#121=AXIS2_PLACEMENT_3D('',#161,#162,#163);
#122=SURFACE_SIDE_STYLE('',(#164));
#123=EDGE_LOOP('',(#165));
#124=AXIS2_PLACEMENT_3D('',#166,#167,#168);
#125=SURFACE_SIDE_STYLE('',(#169));
#126=EDGE_LOOP('',(#170));
#127=EDGE_LOOP('',(#171));
#128=AXIS2_PLACEMENT_3D('',#172,#173,#174);
#129=SURFACE_SIDE_STYLE('',(#175));
#130=EDGE_LOOP('',(#176));
#131=EDGE_LOOP('',(#177));
#132=AXIS2_PLACEMENT_3D('',#178,#179,#180);
#133=SURFACE_SIDE_STYLE('',(#181));
#134=EDGE_LOOP('',(#182));
#135=EDGE_LOOP('',(#183));
#136=AXIS2_PLACEMENT_3D('',#184,#185,#186);
#137=SURFACE_SIDE_STYLE('',(#187));
#138=EDGE_LOOP('',(#188));
#139=EDGE_LOOP('',(#189));
#140=AXIS2_PLACEMENT_3D('',#190,#191,#192);
#141=SURFACE_SIDE_STYLE('',(#193));
#142=EDGE_LOOP('',(#194));
#143=EDGE_LOOP('',(#195));
#144=AXIS2_PLACEMENT_3D('',#196,#197,#198);
#145=SURFACE_SIDE_STYLE('',(#199));
#147=SURFACE_STYLE_FILL_AREA(#200);
#148=ORIENTED_EDGE('',*,*,#201,.T.);
#149=ORIENTED_EDGE('',*,*,#202,.F.);
#150=CARTESIAN_POINT('',(-0.015,0.024,0.0));
#151=DIRECTION('',(-0.0,0.0,-1.0));
#152=DIRECTION('',(-1.0,0.0,0.0));
#153=SURFACE_STYLE_FILL_AREA(#203);
#154=ORIENTED_EDGE('',*,*,#204,.T.);
#155=CARTESIAN_POINT('',(-0.015,0.024,-0.003));
#156=DIRECTION('',(0.0,0.0,1.0));
#157=DIRECTION('',(1.0,0.0,0.0));
#158=SURFACE_STYLE_FILL_AREA(#205);
#159=ORIENTED_EDGE('',*,*,#206,.T.);
#160=ORIENTED_EDGE('',*,*,#201,.F.);
#161=CARTESIAN_POINT('',(0.0,0.0,-0.0005));
#162=DIRECTION('',(0.0,0.0,1.0));
#163=DIRECTION('',(1.0,0.0,0.0));
#164=SURFACE_STYLE_FILL_AREA(#207);
#165=ORIENTED_EDGE('',*,*,#208,.T.);
#166=CARTESIAN_POINT('',(-0.015,0.024,0.0125));
#167=DIRECTION('',(0.0,0.0,1.0));
#168=DIRECTION('',(1.0,0.0,0.0));
#169=SURFACE_STYLE_FILL_AREA(#209);
#170=ORIENTED_EDGE('',*,*,#210,.T.);
#171=ORIENTED_EDGE('',*,*,#211,.F.);
#172=CARTESIAN_POINT('',(-0.015,0.024,0.0));
#173=DIRECTION('',(0.0,0.0,1.0));
#174=DIRECTION('',(1.0,0.0,-0.0));
#175=SURFACE_STYLE_FILL_AREA(#212);
#176=ORIENTED_EDGE('',*,*,#211,.T.);
#177=ORIENTED_EDGE('',*,*,#202,.T.);
#178=CARTESIAN_POINT('',(0.0,0.0,0.0));
#179=DIRECTION('',(0.0,0.0,1.0));
#180=DIRECTION('',(1.0,0.0,0.0));
#181=SURFACE_STYLE_FILL_AREA(#213);
#182=ORIENTED_EDGE('',*,*,#214,.T.);
#183=ORIENTED_EDGE('',*,*,#206,.F.);
#184=CARTESIAN_POINT('',(-0.015,0.024,0.0));
#185=DIRECTION('',(0.0,0.0,1.0));
#186=DIRECTION('',(1.0,0.0,-0.0));
#187=SURFACE_STYLE_FILL_AREA(#215);
#188=ORIENTED_EDGE('',*,*,#210,.F.);
#189=ORIENTED_EDGE('',*,*,#208,.F.);
#190=CARTESIAN_POINT('',(-0.015,0.024,0.0124));
#191=DIRECTION('',(0.0,0.0,1.0));
#192=DIRECTION('',(1.0,0.0,-0.0));
#193=SURFACE_STYLE_FILL_AREA(#216);
#194=ORIENTED_EDGE('',*,*,#204,.F.);
#195=ORIENTED_EDGE('',*,*,#214,.F.);
#196=CARTESIAN_POINT('',(-0.015,0.024,-0.0029));
#197=DIRECTION('',(0.0,0.0,1.0));
#198=DIRECTION('',(1.0,0.0,-0.0));
#199=SURFACE_STYLE_FILL_AREA(#217);
#200=FILL_AREA_STYLE('',(#218));
#201=EDGE_CURVE('1:2790',#219,#219,#220,.T.);
#202=EDGE_CURVE('1:2793',#221,#221,#222,.T.);
#203=FILL_AREA_STYLE('',(#223));
#204=EDGE_CURVE('1:5351',#224,#224,#225,.F.);
#205=FILL_AREA_STYLE('',(#226));
#206=EDGE_CURVE('1:2874',#227,#227,#228,.T.);
#207=FILL_AREA_STYLE('',(#229));
#208=EDGE_CURVE('1:5056',#230,#230,#231,.T.);
#209=FILL_AREA_STYLE('',(#232));
#210=EDGE_CURVE('1:5059',#233,#233,#234,.F.);
#211=EDGE_CURVE('1:2877',#235,#235,#236,.F.);
#212=FILL_AREA_STYLE('',(#237));
#213=FILL_AREA_STYLE('',(#238));
#214=EDGE_CURVE('1:5348',#239,#239,#240,.T.);
#215=FILL_AREA_STYLE('',(#241));
#216=FILL_AREA_STYLE('',(#242));
#217=FILL_AREA_STYLE('',(#243));
#218=FILL_AREA_STYLE_COLOUR('',#244);
#219=VERTEX_POINT('',#245);
#220=CIRCLE('',#246,0.000899999999999999);
#221=VERTEX_POINT('',#247);
#222=CIRCLE('',#248,0.000899999999999999);
#223=FILL_AREA_STYLE_COLOUR('',#249);
#224=VERTEX_POINT('',#250);
#225=CIRCLE('',#251,0.000399999999999999);
#226=FILL_AREA_STYLE_COLOUR('',#252);
#227=VERTEX_POINT('',#253);
#228=CIRCLE('',#254,0.000499999999999999);
#229=FILL_AREA_STYLE_COLOUR('',#255);
#230=VERTEX_POINT('',#256);
#231=CIRCLE('',#257,0.000399999999999999);
#232=FILL_AREA_STYLE_COLOUR('',#258);
#233=VERTEX_POINT('',#259);
#234=CIRCLE('',#260,0.000499999999999999);
#235=VERTEX_POINT('',#261);
#236=CIRCLE('',#262,0.000499999999999999);
#237=FILL_AREA_STYLE_COLOUR('',#263);
#238=FILL_AREA_STYLE_COLOUR('',#264);
#239=VERTEX_POINT('',#265);
#240=CIRCLE('',#266,0.000499999999999999);
#241=FILL_AREA_STYLE_COLOUR('',#267);
#242=FILL_AREA_STYLE_COLOUR('',#268);
#243=FILL_AREA_STYLE_COLOUR('',#269);
#244=COLOUR_RGB('',0.560784339904785,0.686274528503418,0.560784339904785);
#245=CARTESIAN_POINT('',(-0.0141,0.024,-0.0005));
#246=AXIS2_PLACEMENT_3D('',#270,#271,#272);
#247=CARTESIAN_POINT('',(-0.0141,0.024,0.0));
#248=AXIS2_PLACEMENT_3D('',#273,#274,#275);
#249=COLOUR_RGB('',0.560784339904785,0.686274528503418,0.560784339904785);
#250=CARTESIAN_POINT('',(-0.0146,0.024,-0.003));
#251=AXIS2_PLACEMENT_3D('',#276,#277,#278);
#252=COLOUR_RGB('',0.560784339904785,0.686274528503418,0.560784339904785);
#253=CARTESIAN_POINT('',(-0.0145,0.024,-0.0005));
#254=AXIS2_PLACEMENT_3D('',#279,#280,#281);
#255=COLOUR_RGB('',0.560784339904785,0.686274528503418,0.560784339904785);
#256=CARTESIAN_POINT('',(-0.0146,0.024,0.0125));
#257=AXIS2_PLACEMENT_3D('',#282,#283,#284);
#258=COLOUR_RGB('',0.560784339904785,0.686274528503418,0.560784339904785);
#259=CARTESIAN_POINT('',(-0.0145,0.024,0.0124));
#260=AXIS2_PLACEMENT_3D('',#285,#286,#287);
#261=CARTESIAN_POINT('',(-0.0145,0.024,0.0));
#262=AXIS2_PLACEMENT_3D('',#288,#289,#290);
#263=COLOUR_RGB('',0.560784339904785,0.686274528503418,0.560784339904785);
#264=COLOUR_RGB('',0.560784339904785,0.686274528503418,0.560784339904785);
#265=CARTESIAN_POINT('',(-0.0145,0.024,-0.0029));
#266=AXIS2_PLACEMENT_3D('',#291,#292,#293);
#267=COLOUR_RGB('',0.560784339904785,0.686274528503418,0.560784339904785);
#268=COLOUR_RGB('',0.560784339904785,0.686274528503418,0.560784339904785);
#269=COLOUR_RGB('',0.560784339904785,0.686274528503418,0.560784339904785);
#270=CARTESIAN_POINT('',(-0.015,0.024,-0.0005));
#271=DIRECTION('',(0.0,0.0,1.0));
#272=DIRECTION('',(1.0,0.0,0.0));
#273=CARTESIAN_POINT('',(-0.015,0.024,0.0));
#274=DIRECTION('',(0.0,0.0,1.0));
#275=DIRECTION('',(1.0,0.0,0.0));
#276=CARTESIAN_POINT('',(-0.015,0.024,-0.003));
#277=DIRECTION('',(0.0,0.0,1.0));
#278=DIRECTION('',(1.0,0.0,-0.0));
#279=CARTESIAN_POINT('',(-0.015,0.024,-0.0005));
#280=DIRECTION('',(0.0,0.0,1.0));
#281=DIRECTION('',(1.0,0.0,0.0));
#282=CARTESIAN_POINT('',(-0.015,0.024,0.0125));
#283=DIRECTION('',(0.0,0.0,1.0));
#284=DIRECTION('',(1.0,0.0,-0.0));
#285=CARTESIAN_POINT('',(-0.015,0.024,0.0124));
#286=DIRECTION('',(0.0,0.0,1.0));
#287=DIRECTION('',(1.0,0.0,-0.0));
#288=CARTESIAN_POINT('',(-0.015,0.024,0.0));
#289=DIRECTION('',(0.0,0.0,1.0));
#290=DIRECTION('',(1.0,0.0,-0.0));
#291=CARTESIAN_POINT('',(-0.015,0.024,-0.0029));
#292=DIRECTION('',(0.0,0.0,1.0));
#293=DIRECTION('',(1.0,0.0,-0.0));
ENDSEC;
END-ISO-10303-21;
